G75*
%MOIN*%
%OFA0B0*%
%FSLAX25Y25*%
%IPPOS*%
%LPD*%
%AMOC8*
5,1,8,0,0,1.08239X$1,22.5*
%
%ADD10C,0.00600*%
%ADD11C,0.01000*%
%ADD12R,0.01500X0.02000*%
%ADD13R,0.02000X0.01500*%
%ADD14C,0.00500*%
%ADD15C,0.00200*%
%ADD16C,0.01600*%
%ADD17C,0.00400*%
%ADD18C,0.00800*%
%ADD19C,0.00080*%
D10*
X0106500Y0012367D02*
X0106500Y0017367D01*
X0109000Y0019867D01*
X0114000Y0019867D01*
X0116500Y0017367D01*
X0119000Y0019867D01*
X0124000Y0019867D01*
X0126500Y0017367D01*
X0129000Y0019867D01*
X0134000Y0019867D01*
X0136500Y0017367D01*
X0139000Y0019867D01*
X0144000Y0019867D01*
X0146500Y0017367D01*
X0149000Y0019867D01*
X0154000Y0019867D01*
X0156500Y0017367D01*
X0159000Y0019867D01*
X0164000Y0019867D01*
X0166500Y0017367D01*
X0166500Y0012367D01*
X0164000Y0009867D01*
X0159000Y0009867D01*
X0156500Y0012367D01*
X0154000Y0009867D01*
X0149000Y0009867D01*
X0146500Y0012367D01*
X0144000Y0009867D01*
X0139000Y0009867D01*
X0136500Y0012367D01*
X0134000Y0009867D01*
X0129000Y0009867D01*
X0126500Y0012367D01*
X0124000Y0009867D01*
X0119000Y0009867D01*
X0116500Y0012367D01*
X0114000Y0009867D01*
X0109000Y0009867D01*
X0106500Y0012367D01*
X0146500Y0039867D02*
X0146500Y0179867D01*
X0166500Y0179867D01*
X0166500Y0040367D01*
X0166500Y0039867D02*
X0161500Y0039867D01*
X0161498Y0040007D01*
X0161492Y0040147D01*
X0161482Y0040287D01*
X0161469Y0040427D01*
X0161451Y0040566D01*
X0161429Y0040705D01*
X0161404Y0040842D01*
X0161375Y0040980D01*
X0161342Y0041116D01*
X0161305Y0041251D01*
X0161264Y0041385D01*
X0161219Y0041518D01*
X0161171Y0041650D01*
X0161119Y0041780D01*
X0161064Y0041909D01*
X0161005Y0042036D01*
X0160942Y0042162D01*
X0160876Y0042286D01*
X0160807Y0042407D01*
X0160734Y0042527D01*
X0160657Y0042645D01*
X0160578Y0042760D01*
X0160495Y0042874D01*
X0160409Y0042984D01*
X0160320Y0043093D01*
X0160228Y0043199D01*
X0160133Y0043302D01*
X0160036Y0043403D01*
X0159935Y0043500D01*
X0159832Y0043595D01*
X0159726Y0043687D01*
X0159617Y0043776D01*
X0159507Y0043862D01*
X0159393Y0043945D01*
X0159278Y0044024D01*
X0159160Y0044101D01*
X0159040Y0044174D01*
X0158919Y0044243D01*
X0158795Y0044309D01*
X0158669Y0044372D01*
X0158542Y0044431D01*
X0158413Y0044486D01*
X0158283Y0044538D01*
X0158151Y0044586D01*
X0158018Y0044631D01*
X0157884Y0044672D01*
X0157749Y0044709D01*
X0157613Y0044742D01*
X0157475Y0044771D01*
X0157338Y0044796D01*
X0157199Y0044818D01*
X0157060Y0044836D01*
X0156920Y0044849D01*
X0156780Y0044859D01*
X0156640Y0044865D01*
X0156500Y0044867D01*
X0156360Y0044865D01*
X0156220Y0044859D01*
X0156080Y0044849D01*
X0155940Y0044836D01*
X0155801Y0044818D01*
X0155662Y0044796D01*
X0155525Y0044771D01*
X0155387Y0044742D01*
X0155251Y0044709D01*
X0155116Y0044672D01*
X0154982Y0044631D01*
X0154849Y0044586D01*
X0154717Y0044538D01*
X0154587Y0044486D01*
X0154458Y0044431D01*
X0154331Y0044372D01*
X0154205Y0044309D01*
X0154081Y0044243D01*
X0153960Y0044174D01*
X0153840Y0044101D01*
X0153722Y0044024D01*
X0153607Y0043945D01*
X0153493Y0043862D01*
X0153383Y0043776D01*
X0153274Y0043687D01*
X0153168Y0043595D01*
X0153065Y0043500D01*
X0152964Y0043403D01*
X0152867Y0043302D01*
X0152772Y0043199D01*
X0152680Y0043093D01*
X0152591Y0042984D01*
X0152505Y0042874D01*
X0152422Y0042760D01*
X0152343Y0042645D01*
X0152266Y0042527D01*
X0152193Y0042407D01*
X0152124Y0042286D01*
X0152058Y0042162D01*
X0151995Y0042036D01*
X0151936Y0041909D01*
X0151881Y0041780D01*
X0151829Y0041650D01*
X0151781Y0041518D01*
X0151736Y0041385D01*
X0151695Y0041251D01*
X0151658Y0041116D01*
X0151625Y0040980D01*
X0151596Y0040842D01*
X0151571Y0040705D01*
X0151549Y0040566D01*
X0151531Y0040427D01*
X0151518Y0040287D01*
X0151508Y0040147D01*
X0151502Y0040007D01*
X0151500Y0039867D01*
X0146500Y0039867D01*
X0195000Y0050867D02*
X0195000Y0052367D01*
X0195500Y0052867D01*
X0195500Y0066867D01*
X0195000Y0067367D01*
X0195000Y0068867D01*
X0195002Y0068927D01*
X0195007Y0068988D01*
X0195016Y0069047D01*
X0195029Y0069106D01*
X0195045Y0069165D01*
X0195065Y0069222D01*
X0195088Y0069277D01*
X0195115Y0069332D01*
X0195144Y0069384D01*
X0195177Y0069435D01*
X0195213Y0069484D01*
X0195251Y0069530D01*
X0195293Y0069574D01*
X0195337Y0069616D01*
X0195383Y0069654D01*
X0195432Y0069690D01*
X0195483Y0069723D01*
X0195535Y0069752D01*
X0195590Y0069779D01*
X0195645Y0069802D01*
X0195702Y0069822D01*
X0195761Y0069838D01*
X0195820Y0069851D01*
X0195879Y0069860D01*
X0195940Y0069865D01*
X0196000Y0069867D01*
X0202000Y0069867D01*
X0202060Y0069865D01*
X0202121Y0069860D01*
X0202180Y0069851D01*
X0202239Y0069838D01*
X0202298Y0069822D01*
X0202355Y0069802D01*
X0202410Y0069779D01*
X0202465Y0069752D01*
X0202517Y0069723D01*
X0202568Y0069690D01*
X0202617Y0069654D01*
X0202663Y0069616D01*
X0202707Y0069574D01*
X0202749Y0069530D01*
X0202787Y0069484D01*
X0202823Y0069435D01*
X0202856Y0069384D01*
X0202885Y0069332D01*
X0202912Y0069277D01*
X0202935Y0069222D01*
X0202955Y0069165D01*
X0202971Y0069106D01*
X0202984Y0069047D01*
X0202993Y0068988D01*
X0202998Y0068927D01*
X0203000Y0068867D01*
X0203000Y0067367D01*
X0202500Y0066867D01*
X0202500Y0052867D01*
X0203000Y0052367D01*
X0203000Y0050867D01*
X0202998Y0050807D01*
X0202993Y0050746D01*
X0202984Y0050687D01*
X0202971Y0050628D01*
X0202955Y0050569D01*
X0202935Y0050512D01*
X0202912Y0050457D01*
X0202885Y0050402D01*
X0202856Y0050350D01*
X0202823Y0050299D01*
X0202787Y0050250D01*
X0202749Y0050204D01*
X0202707Y0050160D01*
X0202663Y0050118D01*
X0202617Y0050080D01*
X0202568Y0050044D01*
X0202517Y0050011D01*
X0202465Y0049982D01*
X0202410Y0049955D01*
X0202355Y0049932D01*
X0202298Y0049912D01*
X0202239Y0049896D01*
X0202180Y0049883D01*
X0202121Y0049874D01*
X0202060Y0049869D01*
X0202000Y0049867D01*
X0196000Y0049867D01*
X0195940Y0049869D01*
X0195879Y0049874D01*
X0195820Y0049883D01*
X0195761Y0049896D01*
X0195702Y0049912D01*
X0195645Y0049932D01*
X0195590Y0049955D01*
X0195535Y0049982D01*
X0195483Y0050011D01*
X0195432Y0050044D01*
X0195383Y0050080D01*
X0195337Y0050118D01*
X0195293Y0050160D01*
X0195251Y0050204D01*
X0195213Y0050250D01*
X0195177Y0050299D01*
X0195144Y0050350D01*
X0195115Y0050402D01*
X0195088Y0050457D01*
X0195065Y0050512D01*
X0195045Y0050569D01*
X0195029Y0050628D01*
X0195016Y0050687D01*
X0195007Y0050746D01*
X0195002Y0050807D01*
X0195000Y0050867D01*
X0215000Y0039867D02*
X0216000Y0039867D01*
X0216000Y0040867D01*
X0216000Y0039867D02*
X0217000Y0039867D01*
X0216000Y0039867D02*
X0216000Y0038867D01*
X0211500Y0034867D02*
X0211503Y0035112D01*
X0211512Y0035358D01*
X0211527Y0035603D01*
X0211548Y0035847D01*
X0211575Y0036091D01*
X0211608Y0036334D01*
X0211647Y0036577D01*
X0211692Y0036818D01*
X0211743Y0037058D01*
X0211800Y0037297D01*
X0211862Y0037534D01*
X0211931Y0037770D01*
X0212005Y0038004D01*
X0212085Y0038236D01*
X0212170Y0038466D01*
X0212261Y0038694D01*
X0212358Y0038919D01*
X0212460Y0039143D01*
X0212568Y0039363D01*
X0212681Y0039581D01*
X0212799Y0039796D01*
X0212923Y0040008D01*
X0213051Y0040217D01*
X0213185Y0040423D01*
X0213324Y0040625D01*
X0213468Y0040824D01*
X0213617Y0041019D01*
X0213770Y0041211D01*
X0213928Y0041399D01*
X0214090Y0041583D01*
X0214258Y0041762D01*
X0214429Y0041938D01*
X0214605Y0042109D01*
X0214784Y0042277D01*
X0214968Y0042439D01*
X0215156Y0042597D01*
X0215348Y0042750D01*
X0215543Y0042899D01*
X0215742Y0043043D01*
X0215944Y0043182D01*
X0216150Y0043316D01*
X0216359Y0043444D01*
X0216571Y0043568D01*
X0216786Y0043686D01*
X0217004Y0043799D01*
X0217224Y0043907D01*
X0217448Y0044009D01*
X0217673Y0044106D01*
X0217901Y0044197D01*
X0218131Y0044282D01*
X0218363Y0044362D01*
X0218597Y0044436D01*
X0218833Y0044505D01*
X0219070Y0044567D01*
X0219309Y0044624D01*
X0219549Y0044675D01*
X0219790Y0044720D01*
X0220033Y0044759D01*
X0220276Y0044792D01*
X0220520Y0044819D01*
X0220764Y0044840D01*
X0221009Y0044855D01*
X0221255Y0044864D01*
X0221500Y0044867D01*
X0221745Y0044864D01*
X0221991Y0044855D01*
X0222236Y0044840D01*
X0222480Y0044819D01*
X0222724Y0044792D01*
X0222967Y0044759D01*
X0223210Y0044720D01*
X0223451Y0044675D01*
X0223691Y0044624D01*
X0223930Y0044567D01*
X0224167Y0044505D01*
X0224403Y0044436D01*
X0224637Y0044362D01*
X0224869Y0044282D01*
X0225099Y0044197D01*
X0225327Y0044106D01*
X0225552Y0044009D01*
X0225776Y0043907D01*
X0225996Y0043799D01*
X0226214Y0043686D01*
X0226429Y0043568D01*
X0226641Y0043444D01*
X0226850Y0043316D01*
X0227056Y0043182D01*
X0227258Y0043043D01*
X0227457Y0042899D01*
X0227652Y0042750D01*
X0227844Y0042597D01*
X0228032Y0042439D01*
X0228216Y0042277D01*
X0228395Y0042109D01*
X0228571Y0041938D01*
X0228742Y0041762D01*
X0228910Y0041583D01*
X0229072Y0041399D01*
X0229230Y0041211D01*
X0229383Y0041019D01*
X0229532Y0040824D01*
X0229676Y0040625D01*
X0229815Y0040423D01*
X0229949Y0040217D01*
X0230077Y0040008D01*
X0230201Y0039796D01*
X0230319Y0039581D01*
X0230432Y0039363D01*
X0230540Y0039143D01*
X0230642Y0038919D01*
X0230739Y0038694D01*
X0230830Y0038466D01*
X0230915Y0038236D01*
X0230995Y0038004D01*
X0231069Y0037770D01*
X0231138Y0037534D01*
X0231200Y0037297D01*
X0231257Y0037058D01*
X0231308Y0036818D01*
X0231353Y0036577D01*
X0231392Y0036334D01*
X0231425Y0036091D01*
X0231452Y0035847D01*
X0231473Y0035603D01*
X0231488Y0035358D01*
X0231497Y0035112D01*
X0231500Y0034867D01*
X0231497Y0034622D01*
X0231488Y0034376D01*
X0231473Y0034131D01*
X0231452Y0033887D01*
X0231425Y0033643D01*
X0231392Y0033400D01*
X0231353Y0033157D01*
X0231308Y0032916D01*
X0231257Y0032676D01*
X0231200Y0032437D01*
X0231138Y0032200D01*
X0231069Y0031964D01*
X0230995Y0031730D01*
X0230915Y0031498D01*
X0230830Y0031268D01*
X0230739Y0031040D01*
X0230642Y0030815D01*
X0230540Y0030591D01*
X0230432Y0030371D01*
X0230319Y0030153D01*
X0230201Y0029938D01*
X0230077Y0029726D01*
X0229949Y0029517D01*
X0229815Y0029311D01*
X0229676Y0029109D01*
X0229532Y0028910D01*
X0229383Y0028715D01*
X0229230Y0028523D01*
X0229072Y0028335D01*
X0228910Y0028151D01*
X0228742Y0027972D01*
X0228571Y0027796D01*
X0228395Y0027625D01*
X0228216Y0027457D01*
X0228032Y0027295D01*
X0227844Y0027137D01*
X0227652Y0026984D01*
X0227457Y0026835D01*
X0227258Y0026691D01*
X0227056Y0026552D01*
X0226850Y0026418D01*
X0226641Y0026290D01*
X0226429Y0026166D01*
X0226214Y0026048D01*
X0225996Y0025935D01*
X0225776Y0025827D01*
X0225552Y0025725D01*
X0225327Y0025628D01*
X0225099Y0025537D01*
X0224869Y0025452D01*
X0224637Y0025372D01*
X0224403Y0025298D01*
X0224167Y0025229D01*
X0223930Y0025167D01*
X0223691Y0025110D01*
X0223451Y0025059D01*
X0223210Y0025014D01*
X0222967Y0024975D01*
X0222724Y0024942D01*
X0222480Y0024915D01*
X0222236Y0024894D01*
X0221991Y0024879D01*
X0221745Y0024870D01*
X0221500Y0024867D01*
X0221255Y0024870D01*
X0221009Y0024879D01*
X0220764Y0024894D01*
X0220520Y0024915D01*
X0220276Y0024942D01*
X0220033Y0024975D01*
X0219790Y0025014D01*
X0219549Y0025059D01*
X0219309Y0025110D01*
X0219070Y0025167D01*
X0218833Y0025229D01*
X0218597Y0025298D01*
X0218363Y0025372D01*
X0218131Y0025452D01*
X0217901Y0025537D01*
X0217673Y0025628D01*
X0217448Y0025725D01*
X0217224Y0025827D01*
X0217004Y0025935D01*
X0216786Y0026048D01*
X0216571Y0026166D01*
X0216359Y0026290D01*
X0216150Y0026418D01*
X0215944Y0026552D01*
X0215742Y0026691D01*
X0215543Y0026835D01*
X0215348Y0026984D01*
X0215156Y0027137D01*
X0214968Y0027295D01*
X0214784Y0027457D01*
X0214605Y0027625D01*
X0214429Y0027796D01*
X0214258Y0027972D01*
X0214090Y0028151D01*
X0213928Y0028335D01*
X0213770Y0028523D01*
X0213617Y0028715D01*
X0213468Y0028910D01*
X0213324Y0029109D01*
X0213185Y0029311D01*
X0213051Y0029517D01*
X0212923Y0029726D01*
X0212799Y0029938D01*
X0212681Y0030153D01*
X0212568Y0030371D01*
X0212460Y0030591D01*
X0212358Y0030815D01*
X0212261Y0031040D01*
X0212170Y0031268D01*
X0212085Y0031498D01*
X0212005Y0031730D01*
X0211931Y0031964D01*
X0211862Y0032200D01*
X0211800Y0032437D01*
X0211743Y0032676D01*
X0211692Y0032916D01*
X0211647Y0033157D01*
X0211608Y0033400D01*
X0211575Y0033643D01*
X0211548Y0033887D01*
X0211527Y0034131D01*
X0211512Y0034376D01*
X0211503Y0034622D01*
X0211500Y0034867D01*
X0208000Y0085367D02*
X0200000Y0085367D01*
X0199940Y0085369D01*
X0199879Y0085374D01*
X0199820Y0085383D01*
X0199761Y0085396D01*
X0199702Y0085412D01*
X0199645Y0085432D01*
X0199590Y0085455D01*
X0199535Y0085482D01*
X0199483Y0085511D01*
X0199432Y0085544D01*
X0199383Y0085580D01*
X0199337Y0085618D01*
X0199293Y0085660D01*
X0199251Y0085704D01*
X0199213Y0085750D01*
X0199177Y0085799D01*
X0199144Y0085850D01*
X0199115Y0085902D01*
X0199088Y0085957D01*
X0199065Y0086012D01*
X0199045Y0086069D01*
X0199029Y0086128D01*
X0199016Y0086187D01*
X0199007Y0086246D01*
X0199002Y0086307D01*
X0199000Y0086367D01*
X0199000Y0103367D01*
X0199002Y0103427D01*
X0199007Y0103488D01*
X0199016Y0103547D01*
X0199029Y0103606D01*
X0199045Y0103665D01*
X0199065Y0103722D01*
X0199088Y0103777D01*
X0199115Y0103832D01*
X0199144Y0103884D01*
X0199177Y0103935D01*
X0199213Y0103984D01*
X0199251Y0104030D01*
X0199293Y0104074D01*
X0199337Y0104116D01*
X0199383Y0104154D01*
X0199432Y0104190D01*
X0199483Y0104223D01*
X0199535Y0104252D01*
X0199590Y0104279D01*
X0199645Y0104302D01*
X0199702Y0104322D01*
X0199761Y0104338D01*
X0199820Y0104351D01*
X0199879Y0104360D01*
X0199940Y0104365D01*
X0200000Y0104367D01*
X0208000Y0104367D01*
X0208060Y0104365D01*
X0208121Y0104360D01*
X0208180Y0104351D01*
X0208239Y0104338D01*
X0208298Y0104322D01*
X0208355Y0104302D01*
X0208410Y0104279D01*
X0208465Y0104252D01*
X0208517Y0104223D01*
X0208568Y0104190D01*
X0208617Y0104154D01*
X0208663Y0104116D01*
X0208707Y0104074D01*
X0208749Y0104030D01*
X0208787Y0103984D01*
X0208823Y0103935D01*
X0208856Y0103884D01*
X0208885Y0103832D01*
X0208912Y0103777D01*
X0208935Y0103722D01*
X0208955Y0103665D01*
X0208971Y0103606D01*
X0208984Y0103547D01*
X0208993Y0103488D01*
X0208998Y0103427D01*
X0209000Y0103367D01*
X0209000Y0086367D01*
X0208998Y0086307D01*
X0208993Y0086246D01*
X0208984Y0086187D01*
X0208971Y0086128D01*
X0208955Y0086069D01*
X0208935Y0086012D01*
X0208912Y0085957D01*
X0208885Y0085902D01*
X0208856Y0085850D01*
X0208823Y0085799D01*
X0208787Y0085750D01*
X0208749Y0085704D01*
X0208707Y0085660D01*
X0208663Y0085618D01*
X0208617Y0085580D01*
X0208568Y0085544D01*
X0208517Y0085511D01*
X0208465Y0085482D01*
X0208410Y0085455D01*
X0208355Y0085432D01*
X0208298Y0085412D01*
X0208239Y0085396D01*
X0208180Y0085383D01*
X0208121Y0085374D01*
X0208060Y0085369D01*
X0208000Y0085367D01*
X0204000Y0093367D02*
X0204000Y0093867D01*
X0204000Y0095867D02*
X0204000Y0096367D01*
X0191500Y0103367D02*
X0191500Y0086367D01*
X0191498Y0086307D01*
X0191493Y0086246D01*
X0191484Y0086187D01*
X0191471Y0086128D01*
X0191455Y0086069D01*
X0191435Y0086012D01*
X0191412Y0085957D01*
X0191385Y0085902D01*
X0191356Y0085850D01*
X0191323Y0085799D01*
X0191287Y0085750D01*
X0191249Y0085704D01*
X0191207Y0085660D01*
X0191163Y0085618D01*
X0191117Y0085580D01*
X0191068Y0085544D01*
X0191017Y0085511D01*
X0190965Y0085482D01*
X0190910Y0085455D01*
X0190855Y0085432D01*
X0190798Y0085412D01*
X0190739Y0085396D01*
X0190680Y0085383D01*
X0190621Y0085374D01*
X0190560Y0085369D01*
X0190500Y0085367D01*
X0182500Y0085367D01*
X0182440Y0085369D01*
X0182379Y0085374D01*
X0182320Y0085383D01*
X0182261Y0085396D01*
X0182202Y0085412D01*
X0182145Y0085432D01*
X0182090Y0085455D01*
X0182035Y0085482D01*
X0181983Y0085511D01*
X0181932Y0085544D01*
X0181883Y0085580D01*
X0181837Y0085618D01*
X0181793Y0085660D01*
X0181751Y0085704D01*
X0181713Y0085750D01*
X0181677Y0085799D01*
X0181644Y0085850D01*
X0181615Y0085902D01*
X0181588Y0085957D01*
X0181565Y0086012D01*
X0181545Y0086069D01*
X0181529Y0086128D01*
X0181516Y0086187D01*
X0181507Y0086246D01*
X0181502Y0086307D01*
X0181500Y0086367D01*
X0181500Y0103367D01*
X0181502Y0103427D01*
X0181507Y0103488D01*
X0181516Y0103547D01*
X0181529Y0103606D01*
X0181545Y0103665D01*
X0181565Y0103722D01*
X0181588Y0103777D01*
X0181615Y0103832D01*
X0181644Y0103884D01*
X0181677Y0103935D01*
X0181713Y0103984D01*
X0181751Y0104030D01*
X0181793Y0104074D01*
X0181837Y0104116D01*
X0181883Y0104154D01*
X0181932Y0104190D01*
X0181983Y0104223D01*
X0182035Y0104252D01*
X0182090Y0104279D01*
X0182145Y0104302D01*
X0182202Y0104322D01*
X0182261Y0104338D01*
X0182320Y0104351D01*
X0182379Y0104360D01*
X0182440Y0104365D01*
X0182500Y0104367D01*
X0190500Y0104367D01*
X0190560Y0104365D01*
X0190621Y0104360D01*
X0190680Y0104351D01*
X0190739Y0104338D01*
X0190798Y0104322D01*
X0190855Y0104302D01*
X0190910Y0104279D01*
X0190965Y0104252D01*
X0191017Y0104223D01*
X0191068Y0104190D01*
X0191117Y0104154D01*
X0191163Y0104116D01*
X0191207Y0104074D01*
X0191249Y0104030D01*
X0191287Y0103984D01*
X0191323Y0103935D01*
X0191356Y0103884D01*
X0191385Y0103832D01*
X0191412Y0103777D01*
X0191435Y0103722D01*
X0191455Y0103665D01*
X0191471Y0103606D01*
X0191484Y0103547D01*
X0191493Y0103488D01*
X0191498Y0103427D01*
X0191500Y0103367D01*
X0186500Y0096367D02*
X0186500Y0095867D01*
X0186500Y0093867D02*
X0186500Y0093367D01*
X0190000Y0117867D02*
X0190000Y0141867D01*
X0190002Y0142027D01*
X0190008Y0142186D01*
X0190018Y0142345D01*
X0190031Y0142504D01*
X0190049Y0142663D01*
X0190070Y0142821D01*
X0190096Y0142978D01*
X0190125Y0143135D01*
X0190158Y0143291D01*
X0190195Y0143446D01*
X0190235Y0143601D01*
X0190280Y0143754D01*
X0190328Y0143906D01*
X0190380Y0144057D01*
X0190436Y0144206D01*
X0190495Y0144354D01*
X0190558Y0144501D01*
X0190624Y0144646D01*
X0190694Y0144789D01*
X0190768Y0144931D01*
X0190844Y0145071D01*
X0190925Y0145209D01*
X0191008Y0145344D01*
X0191095Y0145478D01*
X0191186Y0145610D01*
X0191279Y0145739D01*
X0191376Y0145866D01*
X0191475Y0145991D01*
X0191578Y0146113D01*
X0191684Y0146232D01*
X0191792Y0146349D01*
X0191904Y0146463D01*
X0192018Y0146575D01*
X0192135Y0146683D01*
X0192254Y0146789D01*
X0192376Y0146892D01*
X0192501Y0146991D01*
X0192628Y0147088D01*
X0192757Y0147181D01*
X0192889Y0147272D01*
X0193023Y0147359D01*
X0193158Y0147442D01*
X0193296Y0147523D01*
X0193436Y0147599D01*
X0193578Y0147673D01*
X0193721Y0147743D01*
X0193866Y0147809D01*
X0194013Y0147872D01*
X0194161Y0147931D01*
X0194310Y0147987D01*
X0194461Y0148039D01*
X0194613Y0148087D01*
X0194766Y0148132D01*
X0194921Y0148172D01*
X0195076Y0148209D01*
X0195232Y0148242D01*
X0195389Y0148271D01*
X0195546Y0148297D01*
X0195704Y0148318D01*
X0195863Y0148336D01*
X0196022Y0148349D01*
X0196181Y0148359D01*
X0196340Y0148365D01*
X0196500Y0148367D01*
X0196660Y0148365D01*
X0196819Y0148359D01*
X0196978Y0148349D01*
X0197137Y0148336D01*
X0197296Y0148318D01*
X0197454Y0148297D01*
X0197611Y0148271D01*
X0197768Y0148242D01*
X0197924Y0148209D01*
X0198079Y0148172D01*
X0198234Y0148132D01*
X0198387Y0148087D01*
X0198539Y0148039D01*
X0198690Y0147987D01*
X0198839Y0147931D01*
X0198987Y0147872D01*
X0199134Y0147809D01*
X0199279Y0147743D01*
X0199422Y0147673D01*
X0199564Y0147599D01*
X0199704Y0147523D01*
X0199842Y0147442D01*
X0199977Y0147359D01*
X0200111Y0147272D01*
X0200243Y0147181D01*
X0200372Y0147088D01*
X0200499Y0146991D01*
X0200624Y0146892D01*
X0200746Y0146789D01*
X0200865Y0146683D01*
X0200982Y0146575D01*
X0201096Y0146463D01*
X0201208Y0146349D01*
X0201316Y0146232D01*
X0201422Y0146113D01*
X0201525Y0145991D01*
X0201624Y0145866D01*
X0201721Y0145739D01*
X0201814Y0145610D01*
X0201905Y0145478D01*
X0201992Y0145344D01*
X0202075Y0145209D01*
X0202156Y0145071D01*
X0202232Y0144931D01*
X0202306Y0144789D01*
X0202376Y0144646D01*
X0202442Y0144501D01*
X0202505Y0144354D01*
X0202564Y0144206D01*
X0202620Y0144057D01*
X0202672Y0143906D01*
X0202720Y0143754D01*
X0202765Y0143601D01*
X0202805Y0143446D01*
X0202842Y0143291D01*
X0202875Y0143135D01*
X0202904Y0142978D01*
X0202930Y0142821D01*
X0202951Y0142663D01*
X0202969Y0142504D01*
X0202982Y0142345D01*
X0202992Y0142186D01*
X0202998Y0142027D01*
X0203000Y0141867D01*
X0203000Y0117867D01*
X0202998Y0117707D01*
X0202992Y0117548D01*
X0202982Y0117389D01*
X0202969Y0117230D01*
X0202951Y0117071D01*
X0202930Y0116913D01*
X0202904Y0116756D01*
X0202875Y0116599D01*
X0202842Y0116443D01*
X0202805Y0116288D01*
X0202765Y0116133D01*
X0202720Y0115980D01*
X0202672Y0115828D01*
X0202620Y0115677D01*
X0202564Y0115528D01*
X0202505Y0115380D01*
X0202442Y0115233D01*
X0202376Y0115088D01*
X0202306Y0114945D01*
X0202232Y0114803D01*
X0202156Y0114663D01*
X0202075Y0114525D01*
X0201992Y0114390D01*
X0201905Y0114256D01*
X0201814Y0114124D01*
X0201721Y0113995D01*
X0201624Y0113868D01*
X0201525Y0113743D01*
X0201422Y0113621D01*
X0201316Y0113502D01*
X0201208Y0113385D01*
X0201096Y0113271D01*
X0200982Y0113159D01*
X0200865Y0113051D01*
X0200746Y0112945D01*
X0200624Y0112842D01*
X0200499Y0112743D01*
X0200372Y0112646D01*
X0200243Y0112553D01*
X0200111Y0112462D01*
X0199977Y0112375D01*
X0199842Y0112292D01*
X0199704Y0112211D01*
X0199564Y0112135D01*
X0199422Y0112061D01*
X0199279Y0111991D01*
X0199134Y0111925D01*
X0198987Y0111862D01*
X0198839Y0111803D01*
X0198690Y0111747D01*
X0198539Y0111695D01*
X0198387Y0111647D01*
X0198234Y0111602D01*
X0198079Y0111562D01*
X0197924Y0111525D01*
X0197768Y0111492D01*
X0197611Y0111463D01*
X0197454Y0111437D01*
X0197296Y0111416D01*
X0197137Y0111398D01*
X0196978Y0111385D01*
X0196819Y0111375D01*
X0196660Y0111369D01*
X0196500Y0111367D01*
X0196340Y0111369D01*
X0196181Y0111375D01*
X0196022Y0111385D01*
X0195863Y0111398D01*
X0195704Y0111416D01*
X0195546Y0111437D01*
X0195389Y0111463D01*
X0195232Y0111492D01*
X0195076Y0111525D01*
X0194921Y0111562D01*
X0194766Y0111602D01*
X0194613Y0111647D01*
X0194461Y0111695D01*
X0194310Y0111747D01*
X0194161Y0111803D01*
X0194013Y0111862D01*
X0193866Y0111925D01*
X0193721Y0111991D01*
X0193578Y0112061D01*
X0193436Y0112135D01*
X0193296Y0112211D01*
X0193158Y0112292D01*
X0193023Y0112375D01*
X0192889Y0112462D01*
X0192757Y0112553D01*
X0192628Y0112646D01*
X0192501Y0112743D01*
X0192376Y0112842D01*
X0192254Y0112945D01*
X0192135Y0113051D01*
X0192018Y0113159D01*
X0191904Y0113271D01*
X0191792Y0113385D01*
X0191684Y0113502D01*
X0191578Y0113621D01*
X0191475Y0113743D01*
X0191376Y0113868D01*
X0191279Y0113995D01*
X0191186Y0114124D01*
X0191095Y0114256D01*
X0191008Y0114390D01*
X0190925Y0114525D01*
X0190844Y0114663D01*
X0190768Y0114803D01*
X0190694Y0114945D01*
X0190624Y0115088D01*
X0190558Y0115233D01*
X0190495Y0115380D01*
X0190436Y0115528D01*
X0190380Y0115677D01*
X0190328Y0115828D01*
X0190280Y0115980D01*
X0190235Y0116133D01*
X0190195Y0116288D01*
X0190158Y0116443D01*
X0190125Y0116599D01*
X0190096Y0116756D01*
X0190070Y0116913D01*
X0190049Y0117071D01*
X0190031Y0117230D01*
X0190018Y0117389D01*
X0190008Y0117548D01*
X0190002Y0117707D01*
X0190000Y0117867D01*
X0207500Y0175867D02*
X0209000Y0175867D01*
X0209500Y0176367D01*
X0223500Y0176367D01*
X0224000Y0175867D01*
X0225500Y0175867D01*
X0225560Y0175869D01*
X0225621Y0175874D01*
X0225680Y0175883D01*
X0225739Y0175896D01*
X0225798Y0175912D01*
X0225855Y0175932D01*
X0225910Y0175955D01*
X0225965Y0175982D01*
X0226017Y0176011D01*
X0226068Y0176044D01*
X0226117Y0176080D01*
X0226163Y0176118D01*
X0226207Y0176160D01*
X0226249Y0176204D01*
X0226287Y0176250D01*
X0226323Y0176299D01*
X0226356Y0176350D01*
X0226385Y0176402D01*
X0226412Y0176457D01*
X0226435Y0176512D01*
X0226455Y0176569D01*
X0226471Y0176628D01*
X0226484Y0176687D01*
X0226493Y0176746D01*
X0226498Y0176807D01*
X0226500Y0176867D01*
X0226500Y0182867D01*
X0226498Y0182927D01*
X0226493Y0182988D01*
X0226484Y0183047D01*
X0226471Y0183106D01*
X0226455Y0183165D01*
X0226435Y0183222D01*
X0226412Y0183277D01*
X0226385Y0183332D01*
X0226356Y0183384D01*
X0226323Y0183435D01*
X0226287Y0183484D01*
X0226249Y0183530D01*
X0226207Y0183574D01*
X0226163Y0183616D01*
X0226117Y0183654D01*
X0226068Y0183690D01*
X0226017Y0183723D01*
X0225965Y0183752D01*
X0225910Y0183779D01*
X0225855Y0183802D01*
X0225798Y0183822D01*
X0225739Y0183838D01*
X0225680Y0183851D01*
X0225621Y0183860D01*
X0225560Y0183865D01*
X0225500Y0183867D01*
X0224000Y0183867D01*
X0223500Y0183367D01*
X0209500Y0183367D01*
X0209000Y0183867D01*
X0207500Y0183867D01*
X0207440Y0183865D01*
X0207379Y0183860D01*
X0207320Y0183851D01*
X0207261Y0183838D01*
X0207202Y0183822D01*
X0207145Y0183802D01*
X0207090Y0183779D01*
X0207035Y0183752D01*
X0206983Y0183723D01*
X0206932Y0183690D01*
X0206883Y0183654D01*
X0206837Y0183616D01*
X0206793Y0183574D01*
X0206751Y0183530D01*
X0206713Y0183484D01*
X0206677Y0183435D01*
X0206644Y0183384D01*
X0206615Y0183332D01*
X0206588Y0183277D01*
X0206565Y0183222D01*
X0206545Y0183165D01*
X0206529Y0183106D01*
X0206516Y0183047D01*
X0206507Y0182988D01*
X0206502Y0182927D01*
X0206500Y0182867D01*
X0206500Y0176867D01*
X0206502Y0176807D01*
X0206507Y0176746D01*
X0206516Y0176687D01*
X0206529Y0176628D01*
X0206545Y0176569D01*
X0206565Y0176512D01*
X0206588Y0176457D01*
X0206615Y0176402D01*
X0206644Y0176350D01*
X0206677Y0176299D01*
X0206713Y0176250D01*
X0206751Y0176204D01*
X0206793Y0176160D01*
X0206837Y0176118D01*
X0206883Y0176080D01*
X0206932Y0176044D01*
X0206983Y0176011D01*
X0207035Y0175982D01*
X0207090Y0175955D01*
X0207145Y0175932D01*
X0207202Y0175912D01*
X0207261Y0175896D01*
X0207320Y0175883D01*
X0207379Y0175874D01*
X0207440Y0175869D01*
X0207500Y0175867D01*
X0216500Y0208367D02*
X0176500Y0208367D01*
X0176500Y0231367D01*
X0216500Y0231367D01*
X0216500Y0223867D01*
X0216374Y0223865D01*
X0216249Y0223859D01*
X0216124Y0223849D01*
X0215999Y0223835D01*
X0215874Y0223818D01*
X0215750Y0223796D01*
X0215627Y0223771D01*
X0215505Y0223741D01*
X0215384Y0223708D01*
X0215264Y0223671D01*
X0215145Y0223631D01*
X0215028Y0223586D01*
X0214911Y0223538D01*
X0214797Y0223486D01*
X0214684Y0223431D01*
X0214573Y0223372D01*
X0214464Y0223310D01*
X0214357Y0223244D01*
X0214252Y0223175D01*
X0214149Y0223103D01*
X0214048Y0223028D01*
X0213950Y0222949D01*
X0213855Y0222867D01*
X0213762Y0222783D01*
X0213672Y0222695D01*
X0213584Y0222605D01*
X0213500Y0222512D01*
X0213418Y0222417D01*
X0213339Y0222319D01*
X0213264Y0222218D01*
X0213192Y0222115D01*
X0213123Y0222010D01*
X0213057Y0221903D01*
X0212995Y0221794D01*
X0212936Y0221683D01*
X0212881Y0221570D01*
X0212829Y0221456D01*
X0212781Y0221339D01*
X0212736Y0221222D01*
X0212696Y0221103D01*
X0212659Y0220983D01*
X0212626Y0220862D01*
X0212596Y0220740D01*
X0212571Y0220617D01*
X0212549Y0220493D01*
X0212532Y0220368D01*
X0212518Y0220243D01*
X0212508Y0220118D01*
X0212502Y0219993D01*
X0212500Y0219867D01*
X0212502Y0219741D01*
X0212508Y0219616D01*
X0212518Y0219491D01*
X0212532Y0219366D01*
X0212549Y0219241D01*
X0212571Y0219117D01*
X0212596Y0218994D01*
X0212626Y0218872D01*
X0212659Y0218751D01*
X0212696Y0218631D01*
X0212736Y0218512D01*
X0212781Y0218395D01*
X0212829Y0218278D01*
X0212881Y0218164D01*
X0212936Y0218051D01*
X0212995Y0217940D01*
X0213057Y0217831D01*
X0213123Y0217724D01*
X0213192Y0217619D01*
X0213264Y0217516D01*
X0213339Y0217415D01*
X0213418Y0217317D01*
X0213500Y0217222D01*
X0213584Y0217129D01*
X0213672Y0217039D01*
X0213762Y0216951D01*
X0213855Y0216867D01*
X0213950Y0216785D01*
X0214048Y0216706D01*
X0214149Y0216631D01*
X0214252Y0216559D01*
X0214357Y0216490D01*
X0214464Y0216424D01*
X0214573Y0216362D01*
X0214684Y0216303D01*
X0214797Y0216248D01*
X0214911Y0216196D01*
X0215028Y0216148D01*
X0215145Y0216103D01*
X0215264Y0216063D01*
X0215384Y0216026D01*
X0215505Y0215993D01*
X0215627Y0215963D01*
X0215750Y0215938D01*
X0215874Y0215916D01*
X0215999Y0215899D01*
X0216124Y0215885D01*
X0216249Y0215875D01*
X0216374Y0215869D01*
X0216500Y0215867D01*
X0216500Y0208367D01*
X0210500Y0245867D02*
X0209000Y0245867D01*
X0208500Y0246367D01*
X0194500Y0246367D01*
X0194000Y0245867D01*
X0192500Y0245867D01*
X0192440Y0245869D01*
X0192379Y0245874D01*
X0192320Y0245883D01*
X0192261Y0245896D01*
X0192202Y0245912D01*
X0192145Y0245932D01*
X0192090Y0245955D01*
X0192035Y0245982D01*
X0191983Y0246011D01*
X0191932Y0246044D01*
X0191883Y0246080D01*
X0191837Y0246118D01*
X0191793Y0246160D01*
X0191751Y0246204D01*
X0191713Y0246250D01*
X0191677Y0246299D01*
X0191644Y0246350D01*
X0191615Y0246402D01*
X0191588Y0246457D01*
X0191565Y0246512D01*
X0191545Y0246569D01*
X0191529Y0246628D01*
X0191516Y0246687D01*
X0191507Y0246746D01*
X0191502Y0246807D01*
X0191500Y0246867D01*
X0191500Y0252867D01*
X0191502Y0252927D01*
X0191507Y0252988D01*
X0191516Y0253047D01*
X0191529Y0253106D01*
X0191545Y0253165D01*
X0191565Y0253222D01*
X0191588Y0253277D01*
X0191615Y0253332D01*
X0191644Y0253384D01*
X0191677Y0253435D01*
X0191713Y0253484D01*
X0191751Y0253530D01*
X0191793Y0253574D01*
X0191837Y0253616D01*
X0191883Y0253654D01*
X0191932Y0253690D01*
X0191983Y0253723D01*
X0192035Y0253752D01*
X0192090Y0253779D01*
X0192145Y0253802D01*
X0192202Y0253822D01*
X0192261Y0253838D01*
X0192320Y0253851D01*
X0192379Y0253860D01*
X0192440Y0253865D01*
X0192500Y0253867D01*
X0194000Y0253867D01*
X0194500Y0253367D01*
X0208500Y0253367D01*
X0209000Y0253867D01*
X0210500Y0253867D01*
X0210560Y0253865D01*
X0210621Y0253860D01*
X0210680Y0253851D01*
X0210739Y0253838D01*
X0210798Y0253822D01*
X0210855Y0253802D01*
X0210910Y0253779D01*
X0210965Y0253752D01*
X0211017Y0253723D01*
X0211068Y0253690D01*
X0211117Y0253654D01*
X0211163Y0253616D01*
X0211207Y0253574D01*
X0211249Y0253530D01*
X0211287Y0253484D01*
X0211323Y0253435D01*
X0211356Y0253384D01*
X0211385Y0253332D01*
X0211412Y0253277D01*
X0211435Y0253222D01*
X0211455Y0253165D01*
X0211471Y0253106D01*
X0211484Y0253047D01*
X0211493Y0252988D01*
X0211498Y0252927D01*
X0211500Y0252867D01*
X0211500Y0246867D01*
X0211498Y0246807D01*
X0211493Y0246746D01*
X0211484Y0246687D01*
X0211471Y0246628D01*
X0211455Y0246569D01*
X0211435Y0246512D01*
X0211412Y0246457D01*
X0211385Y0246402D01*
X0211356Y0246350D01*
X0211323Y0246299D01*
X0211287Y0246250D01*
X0211249Y0246204D01*
X0211207Y0246160D01*
X0211163Y0246118D01*
X0211117Y0246080D01*
X0211068Y0246044D01*
X0211017Y0246011D01*
X0210965Y0245982D01*
X0210910Y0245955D01*
X0210855Y0245932D01*
X0210798Y0245912D01*
X0210739Y0245896D01*
X0210680Y0245883D01*
X0210621Y0245874D01*
X0210560Y0245869D01*
X0210500Y0245867D01*
X0153000Y0221367D02*
X0153000Y0219867D01*
X0152500Y0219367D01*
X0152500Y0205367D01*
X0153000Y0204867D01*
X0153000Y0203367D01*
X0152998Y0203307D01*
X0152993Y0203246D01*
X0152984Y0203187D01*
X0152971Y0203128D01*
X0152955Y0203069D01*
X0152935Y0203012D01*
X0152912Y0202957D01*
X0152885Y0202902D01*
X0152856Y0202850D01*
X0152823Y0202799D01*
X0152787Y0202750D01*
X0152749Y0202704D01*
X0152707Y0202660D01*
X0152663Y0202618D01*
X0152617Y0202580D01*
X0152568Y0202544D01*
X0152517Y0202511D01*
X0152465Y0202482D01*
X0152410Y0202455D01*
X0152355Y0202432D01*
X0152298Y0202412D01*
X0152239Y0202396D01*
X0152180Y0202383D01*
X0152121Y0202374D01*
X0152060Y0202369D01*
X0152000Y0202367D01*
X0146000Y0202367D01*
X0145940Y0202369D01*
X0145879Y0202374D01*
X0145820Y0202383D01*
X0145761Y0202396D01*
X0145702Y0202412D01*
X0145645Y0202432D01*
X0145590Y0202455D01*
X0145535Y0202482D01*
X0145483Y0202511D01*
X0145432Y0202544D01*
X0145383Y0202580D01*
X0145337Y0202618D01*
X0145293Y0202660D01*
X0145251Y0202704D01*
X0145213Y0202750D01*
X0145177Y0202799D01*
X0145144Y0202850D01*
X0145115Y0202902D01*
X0145088Y0202957D01*
X0145065Y0203012D01*
X0145045Y0203069D01*
X0145029Y0203128D01*
X0145016Y0203187D01*
X0145007Y0203246D01*
X0145002Y0203307D01*
X0145000Y0203367D01*
X0145000Y0204867D01*
X0145500Y0205367D01*
X0145500Y0219367D01*
X0145000Y0219867D01*
X0145000Y0221367D01*
X0145002Y0221427D01*
X0145007Y0221488D01*
X0145016Y0221547D01*
X0145029Y0221606D01*
X0145045Y0221665D01*
X0145065Y0221722D01*
X0145088Y0221777D01*
X0145115Y0221832D01*
X0145144Y0221884D01*
X0145177Y0221935D01*
X0145213Y0221984D01*
X0145251Y0222030D01*
X0145293Y0222074D01*
X0145337Y0222116D01*
X0145383Y0222154D01*
X0145432Y0222190D01*
X0145483Y0222223D01*
X0145535Y0222252D01*
X0145590Y0222279D01*
X0145645Y0222302D01*
X0145702Y0222322D01*
X0145761Y0222338D01*
X0145820Y0222351D01*
X0145879Y0222360D01*
X0145940Y0222365D01*
X0146000Y0222367D01*
X0152000Y0222367D01*
X0152060Y0222365D01*
X0152121Y0222360D01*
X0152180Y0222351D01*
X0152239Y0222338D01*
X0152298Y0222322D01*
X0152355Y0222302D01*
X0152410Y0222279D01*
X0152465Y0222252D01*
X0152517Y0222223D01*
X0152568Y0222190D01*
X0152617Y0222154D01*
X0152663Y0222116D01*
X0152707Y0222074D01*
X0152749Y0222030D01*
X0152787Y0221984D01*
X0152823Y0221935D01*
X0152856Y0221884D01*
X0152885Y0221832D01*
X0152912Y0221777D01*
X0152935Y0221722D01*
X0152955Y0221665D01*
X0152971Y0221606D01*
X0152984Y0221547D01*
X0152993Y0221488D01*
X0152998Y0221427D01*
X0153000Y0221367D01*
X0138000Y0235867D02*
X0138000Y0237367D01*
X0137500Y0237867D01*
X0137500Y0251867D01*
X0138000Y0252367D01*
X0138000Y0253867D01*
X0137998Y0253927D01*
X0137993Y0253988D01*
X0137984Y0254047D01*
X0137971Y0254106D01*
X0137955Y0254165D01*
X0137935Y0254222D01*
X0137912Y0254277D01*
X0137885Y0254332D01*
X0137856Y0254384D01*
X0137823Y0254435D01*
X0137787Y0254484D01*
X0137749Y0254530D01*
X0137707Y0254574D01*
X0137663Y0254616D01*
X0137617Y0254654D01*
X0137568Y0254690D01*
X0137517Y0254723D01*
X0137465Y0254752D01*
X0137410Y0254779D01*
X0137355Y0254802D01*
X0137298Y0254822D01*
X0137239Y0254838D01*
X0137180Y0254851D01*
X0137121Y0254860D01*
X0137060Y0254865D01*
X0137000Y0254867D01*
X0131000Y0254867D01*
X0130940Y0254865D01*
X0130879Y0254860D01*
X0130820Y0254851D01*
X0130761Y0254838D01*
X0130702Y0254822D01*
X0130645Y0254802D01*
X0130590Y0254779D01*
X0130535Y0254752D01*
X0130483Y0254723D01*
X0130432Y0254690D01*
X0130383Y0254654D01*
X0130337Y0254616D01*
X0130293Y0254574D01*
X0130251Y0254530D01*
X0130213Y0254484D01*
X0130177Y0254435D01*
X0130144Y0254384D01*
X0130115Y0254332D01*
X0130088Y0254277D01*
X0130065Y0254222D01*
X0130045Y0254165D01*
X0130029Y0254106D01*
X0130016Y0254047D01*
X0130007Y0253988D01*
X0130002Y0253927D01*
X0130000Y0253867D01*
X0130000Y0252367D01*
X0130500Y0251867D01*
X0130500Y0237867D01*
X0130000Y0237367D01*
X0130000Y0235867D01*
X0130002Y0235807D01*
X0130007Y0235746D01*
X0130016Y0235687D01*
X0130029Y0235628D01*
X0130045Y0235569D01*
X0130065Y0235512D01*
X0130088Y0235457D01*
X0130115Y0235402D01*
X0130144Y0235350D01*
X0130177Y0235299D01*
X0130213Y0235250D01*
X0130251Y0235204D01*
X0130293Y0235160D01*
X0130337Y0235118D01*
X0130383Y0235080D01*
X0130432Y0235044D01*
X0130483Y0235011D01*
X0130535Y0234982D01*
X0130590Y0234955D01*
X0130645Y0234932D01*
X0130702Y0234912D01*
X0130761Y0234896D01*
X0130820Y0234883D01*
X0130879Y0234874D01*
X0130940Y0234869D01*
X0131000Y0234867D01*
X0137000Y0234867D01*
X0137060Y0234869D01*
X0137121Y0234874D01*
X0137180Y0234883D01*
X0137239Y0234896D01*
X0137298Y0234912D01*
X0137355Y0234932D01*
X0137410Y0234955D01*
X0137465Y0234982D01*
X0137517Y0235011D01*
X0137568Y0235044D01*
X0137617Y0235080D01*
X0137663Y0235118D01*
X0137707Y0235160D01*
X0137749Y0235204D01*
X0137787Y0235250D01*
X0137823Y0235299D01*
X0137856Y0235350D01*
X0137885Y0235402D01*
X0137912Y0235457D01*
X0137935Y0235512D01*
X0137955Y0235569D01*
X0137971Y0235628D01*
X0137984Y0235687D01*
X0137993Y0235746D01*
X0137998Y0235807D01*
X0138000Y0235867D01*
X0124500Y0217367D02*
X0118500Y0217367D01*
X0118440Y0217365D01*
X0118379Y0217360D01*
X0118320Y0217351D01*
X0118261Y0217338D01*
X0118202Y0217322D01*
X0118145Y0217302D01*
X0118090Y0217279D01*
X0118035Y0217252D01*
X0117983Y0217223D01*
X0117932Y0217190D01*
X0117883Y0217154D01*
X0117837Y0217116D01*
X0117793Y0217074D01*
X0117751Y0217030D01*
X0117713Y0216984D01*
X0117677Y0216935D01*
X0117644Y0216884D01*
X0117615Y0216832D01*
X0117588Y0216777D01*
X0117565Y0216722D01*
X0117545Y0216665D01*
X0117529Y0216606D01*
X0117516Y0216547D01*
X0117507Y0216488D01*
X0117502Y0216427D01*
X0117500Y0216367D01*
X0117500Y0214867D01*
X0118000Y0214367D01*
X0118000Y0200367D01*
X0117500Y0199867D01*
X0117500Y0198367D01*
X0117502Y0198307D01*
X0117507Y0198246D01*
X0117516Y0198187D01*
X0117529Y0198128D01*
X0117545Y0198069D01*
X0117565Y0198012D01*
X0117588Y0197957D01*
X0117615Y0197902D01*
X0117644Y0197850D01*
X0117677Y0197799D01*
X0117713Y0197750D01*
X0117751Y0197704D01*
X0117793Y0197660D01*
X0117837Y0197618D01*
X0117883Y0197580D01*
X0117932Y0197544D01*
X0117983Y0197511D01*
X0118035Y0197482D01*
X0118090Y0197455D01*
X0118145Y0197432D01*
X0118202Y0197412D01*
X0118261Y0197396D01*
X0118320Y0197383D01*
X0118379Y0197374D01*
X0118440Y0197369D01*
X0118500Y0197367D01*
X0124500Y0197367D01*
X0124560Y0197369D01*
X0124621Y0197374D01*
X0124680Y0197383D01*
X0124739Y0197396D01*
X0124798Y0197412D01*
X0124855Y0197432D01*
X0124910Y0197455D01*
X0124965Y0197482D01*
X0125017Y0197511D01*
X0125068Y0197544D01*
X0125117Y0197580D01*
X0125163Y0197618D01*
X0125207Y0197660D01*
X0125249Y0197704D01*
X0125287Y0197750D01*
X0125323Y0197799D01*
X0125356Y0197850D01*
X0125385Y0197902D01*
X0125412Y0197957D01*
X0125435Y0198012D01*
X0125455Y0198069D01*
X0125471Y0198128D01*
X0125484Y0198187D01*
X0125493Y0198246D01*
X0125498Y0198307D01*
X0125500Y0198367D01*
X0125500Y0199867D01*
X0125000Y0200367D01*
X0125000Y0214367D01*
X0125500Y0214867D01*
X0125500Y0216367D01*
X0125498Y0216427D01*
X0125493Y0216488D01*
X0125484Y0216547D01*
X0125471Y0216606D01*
X0125455Y0216665D01*
X0125435Y0216722D01*
X0125412Y0216777D01*
X0125385Y0216832D01*
X0125356Y0216884D01*
X0125323Y0216935D01*
X0125287Y0216984D01*
X0125249Y0217030D01*
X0125207Y0217074D01*
X0125163Y0217116D01*
X0125117Y0217154D01*
X0125068Y0217190D01*
X0125017Y0217223D01*
X0124965Y0217252D01*
X0124910Y0217279D01*
X0124855Y0217302D01*
X0124798Y0217322D01*
X0124739Y0217338D01*
X0124680Y0217351D01*
X0124621Y0217360D01*
X0124560Y0217365D01*
X0124500Y0217367D01*
X0106500Y0216367D02*
X0106500Y0193367D01*
X0066500Y0193367D01*
X0066500Y0200867D01*
X0066626Y0200869D01*
X0066751Y0200875D01*
X0066876Y0200885D01*
X0067001Y0200899D01*
X0067126Y0200916D01*
X0067250Y0200938D01*
X0067373Y0200963D01*
X0067495Y0200993D01*
X0067616Y0201026D01*
X0067736Y0201063D01*
X0067855Y0201103D01*
X0067972Y0201148D01*
X0068089Y0201196D01*
X0068203Y0201248D01*
X0068316Y0201303D01*
X0068427Y0201362D01*
X0068536Y0201424D01*
X0068643Y0201490D01*
X0068748Y0201559D01*
X0068851Y0201631D01*
X0068952Y0201706D01*
X0069050Y0201785D01*
X0069145Y0201867D01*
X0069238Y0201951D01*
X0069328Y0202039D01*
X0069416Y0202129D01*
X0069500Y0202222D01*
X0069582Y0202317D01*
X0069661Y0202415D01*
X0069736Y0202516D01*
X0069808Y0202619D01*
X0069877Y0202724D01*
X0069943Y0202831D01*
X0070005Y0202940D01*
X0070064Y0203051D01*
X0070119Y0203164D01*
X0070171Y0203278D01*
X0070219Y0203395D01*
X0070264Y0203512D01*
X0070304Y0203631D01*
X0070341Y0203751D01*
X0070374Y0203872D01*
X0070404Y0203994D01*
X0070429Y0204117D01*
X0070451Y0204241D01*
X0070468Y0204366D01*
X0070482Y0204491D01*
X0070492Y0204616D01*
X0070498Y0204741D01*
X0070500Y0204867D01*
X0070498Y0204993D01*
X0070492Y0205118D01*
X0070482Y0205243D01*
X0070468Y0205368D01*
X0070451Y0205493D01*
X0070429Y0205617D01*
X0070404Y0205740D01*
X0070374Y0205862D01*
X0070341Y0205983D01*
X0070304Y0206103D01*
X0070264Y0206222D01*
X0070219Y0206339D01*
X0070171Y0206456D01*
X0070119Y0206570D01*
X0070064Y0206683D01*
X0070005Y0206794D01*
X0069943Y0206903D01*
X0069877Y0207010D01*
X0069808Y0207115D01*
X0069736Y0207218D01*
X0069661Y0207319D01*
X0069582Y0207417D01*
X0069500Y0207512D01*
X0069416Y0207605D01*
X0069328Y0207695D01*
X0069238Y0207783D01*
X0069145Y0207867D01*
X0069050Y0207949D01*
X0068952Y0208028D01*
X0068851Y0208103D01*
X0068748Y0208175D01*
X0068643Y0208244D01*
X0068536Y0208310D01*
X0068427Y0208372D01*
X0068316Y0208431D01*
X0068203Y0208486D01*
X0068089Y0208538D01*
X0067972Y0208586D01*
X0067855Y0208631D01*
X0067736Y0208671D01*
X0067616Y0208708D01*
X0067495Y0208741D01*
X0067373Y0208771D01*
X0067250Y0208796D01*
X0067126Y0208818D01*
X0067001Y0208835D01*
X0066876Y0208849D01*
X0066751Y0208859D01*
X0066626Y0208865D01*
X0066500Y0208867D01*
X0066500Y0216367D01*
X0106500Y0216367D01*
X0095000Y0244867D02*
X0078000Y0244867D01*
X0077940Y0244869D01*
X0077879Y0244874D01*
X0077820Y0244883D01*
X0077761Y0244896D01*
X0077702Y0244912D01*
X0077645Y0244932D01*
X0077590Y0244955D01*
X0077535Y0244982D01*
X0077483Y0245011D01*
X0077432Y0245044D01*
X0077383Y0245080D01*
X0077337Y0245118D01*
X0077293Y0245160D01*
X0077251Y0245204D01*
X0077213Y0245250D01*
X0077177Y0245299D01*
X0077144Y0245350D01*
X0077115Y0245402D01*
X0077088Y0245457D01*
X0077065Y0245512D01*
X0077045Y0245569D01*
X0077029Y0245628D01*
X0077016Y0245687D01*
X0077007Y0245746D01*
X0077002Y0245807D01*
X0077000Y0245867D01*
X0077000Y0253867D01*
X0077002Y0253927D01*
X0077007Y0253988D01*
X0077016Y0254047D01*
X0077029Y0254106D01*
X0077045Y0254165D01*
X0077065Y0254222D01*
X0077088Y0254277D01*
X0077115Y0254332D01*
X0077144Y0254384D01*
X0077177Y0254435D01*
X0077213Y0254484D01*
X0077251Y0254530D01*
X0077293Y0254574D01*
X0077337Y0254616D01*
X0077383Y0254654D01*
X0077432Y0254690D01*
X0077483Y0254723D01*
X0077535Y0254752D01*
X0077590Y0254779D01*
X0077645Y0254802D01*
X0077702Y0254822D01*
X0077761Y0254838D01*
X0077820Y0254851D01*
X0077879Y0254860D01*
X0077940Y0254865D01*
X0078000Y0254867D01*
X0095000Y0254867D01*
X0095060Y0254865D01*
X0095121Y0254860D01*
X0095180Y0254851D01*
X0095239Y0254838D01*
X0095298Y0254822D01*
X0095355Y0254802D01*
X0095410Y0254779D01*
X0095465Y0254752D01*
X0095517Y0254723D01*
X0095568Y0254690D01*
X0095617Y0254654D01*
X0095663Y0254616D01*
X0095707Y0254574D01*
X0095749Y0254530D01*
X0095787Y0254484D01*
X0095823Y0254435D01*
X0095856Y0254384D01*
X0095885Y0254332D01*
X0095912Y0254277D01*
X0095935Y0254222D01*
X0095955Y0254165D01*
X0095971Y0254106D01*
X0095984Y0254047D01*
X0095993Y0253988D01*
X0095998Y0253927D01*
X0096000Y0253867D01*
X0096000Y0245867D01*
X0095998Y0245807D01*
X0095993Y0245746D01*
X0095984Y0245687D01*
X0095971Y0245628D01*
X0095955Y0245569D01*
X0095935Y0245512D01*
X0095912Y0245457D01*
X0095885Y0245402D01*
X0095856Y0245350D01*
X0095823Y0245299D01*
X0095787Y0245250D01*
X0095749Y0245204D01*
X0095707Y0245160D01*
X0095663Y0245118D01*
X0095617Y0245080D01*
X0095568Y0245044D01*
X0095517Y0245011D01*
X0095465Y0244982D01*
X0095410Y0244955D01*
X0095355Y0244932D01*
X0095298Y0244912D01*
X0095239Y0244896D01*
X0095180Y0244883D01*
X0095121Y0244874D01*
X0095060Y0244869D01*
X0095000Y0244867D01*
X0088000Y0249867D02*
X0087500Y0249867D01*
X0085500Y0249867D02*
X0085000Y0249867D01*
X0056500Y0243367D02*
X0056500Y0226367D01*
X0056498Y0226307D01*
X0056493Y0226246D01*
X0056484Y0226187D01*
X0056471Y0226128D01*
X0056455Y0226069D01*
X0056435Y0226012D01*
X0056412Y0225957D01*
X0056385Y0225902D01*
X0056356Y0225850D01*
X0056323Y0225799D01*
X0056287Y0225750D01*
X0056249Y0225704D01*
X0056207Y0225660D01*
X0056163Y0225618D01*
X0056117Y0225580D01*
X0056068Y0225544D01*
X0056017Y0225511D01*
X0055965Y0225482D01*
X0055910Y0225455D01*
X0055855Y0225432D01*
X0055798Y0225412D01*
X0055739Y0225396D01*
X0055680Y0225383D01*
X0055621Y0225374D01*
X0055560Y0225369D01*
X0055500Y0225367D01*
X0047500Y0225367D01*
X0047440Y0225369D01*
X0047379Y0225374D01*
X0047320Y0225383D01*
X0047261Y0225396D01*
X0047202Y0225412D01*
X0047145Y0225432D01*
X0047090Y0225455D01*
X0047035Y0225482D01*
X0046983Y0225511D01*
X0046932Y0225544D01*
X0046883Y0225580D01*
X0046837Y0225618D01*
X0046793Y0225660D01*
X0046751Y0225704D01*
X0046713Y0225750D01*
X0046677Y0225799D01*
X0046644Y0225850D01*
X0046615Y0225902D01*
X0046588Y0225957D01*
X0046565Y0226012D01*
X0046545Y0226069D01*
X0046529Y0226128D01*
X0046516Y0226187D01*
X0046507Y0226246D01*
X0046502Y0226307D01*
X0046500Y0226367D01*
X0046500Y0243367D01*
X0046502Y0243427D01*
X0046507Y0243488D01*
X0046516Y0243547D01*
X0046529Y0243606D01*
X0046545Y0243665D01*
X0046565Y0243722D01*
X0046588Y0243777D01*
X0046615Y0243832D01*
X0046644Y0243884D01*
X0046677Y0243935D01*
X0046713Y0243984D01*
X0046751Y0244030D01*
X0046793Y0244074D01*
X0046837Y0244116D01*
X0046883Y0244154D01*
X0046932Y0244190D01*
X0046983Y0244223D01*
X0047035Y0244252D01*
X0047090Y0244279D01*
X0047145Y0244302D01*
X0047202Y0244322D01*
X0047261Y0244338D01*
X0047320Y0244351D01*
X0047379Y0244360D01*
X0047440Y0244365D01*
X0047500Y0244367D01*
X0055500Y0244367D01*
X0055560Y0244365D01*
X0055621Y0244360D01*
X0055680Y0244351D01*
X0055739Y0244338D01*
X0055798Y0244322D01*
X0055855Y0244302D01*
X0055910Y0244279D01*
X0055965Y0244252D01*
X0056017Y0244223D01*
X0056068Y0244190D01*
X0056117Y0244154D01*
X0056163Y0244116D01*
X0056207Y0244074D01*
X0056249Y0244030D01*
X0056287Y0243984D01*
X0056323Y0243935D01*
X0056356Y0243884D01*
X0056385Y0243832D01*
X0056412Y0243777D01*
X0056435Y0243722D01*
X0056455Y0243665D01*
X0056471Y0243606D01*
X0056484Y0243547D01*
X0056493Y0243488D01*
X0056498Y0243427D01*
X0056500Y0243367D01*
X0051500Y0236367D02*
X0051500Y0235867D01*
X0051500Y0233867D02*
X0051500Y0233367D01*
X0035500Y0227367D02*
X0035500Y0225867D01*
X0035498Y0225807D01*
X0035493Y0225746D01*
X0035484Y0225687D01*
X0035471Y0225628D01*
X0035455Y0225569D01*
X0035435Y0225512D01*
X0035412Y0225457D01*
X0035385Y0225402D01*
X0035356Y0225350D01*
X0035323Y0225299D01*
X0035287Y0225250D01*
X0035249Y0225204D01*
X0035207Y0225160D01*
X0035163Y0225118D01*
X0035117Y0225080D01*
X0035068Y0225044D01*
X0035017Y0225011D01*
X0034965Y0224982D01*
X0034910Y0224955D01*
X0034855Y0224932D01*
X0034798Y0224912D01*
X0034739Y0224896D01*
X0034680Y0224883D01*
X0034621Y0224874D01*
X0034560Y0224869D01*
X0034500Y0224867D01*
X0028500Y0224867D01*
X0028440Y0224869D01*
X0028379Y0224874D01*
X0028320Y0224883D01*
X0028261Y0224896D01*
X0028202Y0224912D01*
X0028145Y0224932D01*
X0028090Y0224955D01*
X0028035Y0224982D01*
X0027983Y0225011D01*
X0027932Y0225044D01*
X0027883Y0225080D01*
X0027837Y0225118D01*
X0027793Y0225160D01*
X0027751Y0225204D01*
X0027713Y0225250D01*
X0027677Y0225299D01*
X0027644Y0225350D01*
X0027615Y0225402D01*
X0027588Y0225457D01*
X0027565Y0225512D01*
X0027545Y0225569D01*
X0027529Y0225628D01*
X0027516Y0225687D01*
X0027507Y0225746D01*
X0027502Y0225807D01*
X0027500Y0225867D01*
X0027500Y0227367D01*
X0028000Y0227867D01*
X0028000Y0241867D01*
X0027500Y0242367D01*
X0027500Y0243867D01*
X0027502Y0243927D01*
X0027507Y0243988D01*
X0027516Y0244047D01*
X0027529Y0244106D01*
X0027545Y0244165D01*
X0027565Y0244222D01*
X0027588Y0244277D01*
X0027615Y0244332D01*
X0027644Y0244384D01*
X0027677Y0244435D01*
X0027713Y0244484D01*
X0027751Y0244530D01*
X0027793Y0244574D01*
X0027837Y0244616D01*
X0027883Y0244654D01*
X0027932Y0244690D01*
X0027983Y0244723D01*
X0028035Y0244752D01*
X0028090Y0244779D01*
X0028145Y0244802D01*
X0028202Y0244822D01*
X0028261Y0244838D01*
X0028320Y0244851D01*
X0028379Y0244860D01*
X0028440Y0244865D01*
X0028500Y0244867D01*
X0034500Y0244867D01*
X0034560Y0244865D01*
X0034621Y0244860D01*
X0034680Y0244851D01*
X0034739Y0244838D01*
X0034798Y0244822D01*
X0034855Y0244802D01*
X0034910Y0244779D01*
X0034965Y0244752D01*
X0035017Y0244723D01*
X0035068Y0244690D01*
X0035117Y0244654D01*
X0035163Y0244616D01*
X0035207Y0244574D01*
X0035249Y0244530D01*
X0035287Y0244484D01*
X0035323Y0244435D01*
X0035356Y0244384D01*
X0035385Y0244332D01*
X0035412Y0244277D01*
X0035435Y0244222D01*
X0035455Y0244165D01*
X0035471Y0244106D01*
X0035484Y0244047D01*
X0035493Y0243988D01*
X0035498Y0243927D01*
X0035500Y0243867D01*
X0035500Y0242367D01*
X0035000Y0241867D01*
X0035000Y0227867D01*
X0035500Y0227367D01*
X0020500Y0227367D02*
X0020500Y0225867D01*
X0020498Y0225807D01*
X0020493Y0225746D01*
X0020484Y0225687D01*
X0020471Y0225628D01*
X0020455Y0225569D01*
X0020435Y0225512D01*
X0020412Y0225457D01*
X0020385Y0225402D01*
X0020356Y0225350D01*
X0020323Y0225299D01*
X0020287Y0225250D01*
X0020249Y0225204D01*
X0020207Y0225160D01*
X0020163Y0225118D01*
X0020117Y0225080D01*
X0020068Y0225044D01*
X0020017Y0225011D01*
X0019965Y0224982D01*
X0019910Y0224955D01*
X0019855Y0224932D01*
X0019798Y0224912D01*
X0019739Y0224896D01*
X0019680Y0224883D01*
X0019621Y0224874D01*
X0019560Y0224869D01*
X0019500Y0224867D01*
X0013500Y0224867D01*
X0013440Y0224869D01*
X0013379Y0224874D01*
X0013320Y0224883D01*
X0013261Y0224896D01*
X0013202Y0224912D01*
X0013145Y0224932D01*
X0013090Y0224955D01*
X0013035Y0224982D01*
X0012983Y0225011D01*
X0012932Y0225044D01*
X0012883Y0225080D01*
X0012837Y0225118D01*
X0012793Y0225160D01*
X0012751Y0225204D01*
X0012713Y0225250D01*
X0012677Y0225299D01*
X0012644Y0225350D01*
X0012615Y0225402D01*
X0012588Y0225457D01*
X0012565Y0225512D01*
X0012545Y0225569D01*
X0012529Y0225628D01*
X0012516Y0225687D01*
X0012507Y0225746D01*
X0012502Y0225807D01*
X0012500Y0225867D01*
X0012500Y0227367D01*
X0013000Y0227867D01*
X0013000Y0241867D01*
X0012500Y0242367D01*
X0012500Y0243867D01*
X0012502Y0243927D01*
X0012507Y0243988D01*
X0012516Y0244047D01*
X0012529Y0244106D01*
X0012545Y0244165D01*
X0012565Y0244222D01*
X0012588Y0244277D01*
X0012615Y0244332D01*
X0012644Y0244384D01*
X0012677Y0244435D01*
X0012713Y0244484D01*
X0012751Y0244530D01*
X0012793Y0244574D01*
X0012837Y0244616D01*
X0012883Y0244654D01*
X0012932Y0244690D01*
X0012983Y0244723D01*
X0013035Y0244752D01*
X0013090Y0244779D01*
X0013145Y0244802D01*
X0013202Y0244822D01*
X0013261Y0244838D01*
X0013320Y0244851D01*
X0013379Y0244860D01*
X0013440Y0244865D01*
X0013500Y0244867D01*
X0019500Y0244867D01*
X0019560Y0244865D01*
X0019621Y0244860D01*
X0019680Y0244851D01*
X0019739Y0244838D01*
X0019798Y0244822D01*
X0019855Y0244802D01*
X0019910Y0244779D01*
X0019965Y0244752D01*
X0020017Y0244723D01*
X0020068Y0244690D01*
X0020117Y0244654D01*
X0020163Y0244616D01*
X0020207Y0244574D01*
X0020249Y0244530D01*
X0020287Y0244484D01*
X0020323Y0244435D01*
X0020356Y0244384D01*
X0020385Y0244332D01*
X0020412Y0244277D01*
X0020435Y0244222D01*
X0020455Y0244165D01*
X0020471Y0244106D01*
X0020484Y0244047D01*
X0020493Y0243988D01*
X0020498Y0243927D01*
X0020500Y0243867D01*
X0020500Y0242367D01*
X0020000Y0241867D01*
X0020000Y0227867D01*
X0020500Y0227367D01*
X0035000Y0183867D02*
X0036500Y0183867D01*
X0037000Y0183367D01*
X0051000Y0183367D01*
X0051500Y0183867D01*
X0053000Y0183867D01*
X0053060Y0183865D01*
X0053121Y0183860D01*
X0053180Y0183851D01*
X0053239Y0183838D01*
X0053298Y0183822D01*
X0053355Y0183802D01*
X0053410Y0183779D01*
X0053465Y0183752D01*
X0053517Y0183723D01*
X0053568Y0183690D01*
X0053617Y0183654D01*
X0053663Y0183616D01*
X0053707Y0183574D01*
X0053749Y0183530D01*
X0053787Y0183484D01*
X0053823Y0183435D01*
X0053856Y0183384D01*
X0053885Y0183332D01*
X0053912Y0183277D01*
X0053935Y0183222D01*
X0053955Y0183165D01*
X0053971Y0183106D01*
X0053984Y0183047D01*
X0053993Y0182988D01*
X0053998Y0182927D01*
X0054000Y0182867D01*
X0054000Y0176867D01*
X0053998Y0176807D01*
X0053993Y0176746D01*
X0053984Y0176687D01*
X0053971Y0176628D01*
X0053955Y0176569D01*
X0053935Y0176512D01*
X0053912Y0176457D01*
X0053885Y0176402D01*
X0053856Y0176350D01*
X0053823Y0176299D01*
X0053787Y0176250D01*
X0053749Y0176204D01*
X0053707Y0176160D01*
X0053663Y0176118D01*
X0053617Y0176080D01*
X0053568Y0176044D01*
X0053517Y0176011D01*
X0053465Y0175982D01*
X0053410Y0175955D01*
X0053355Y0175932D01*
X0053298Y0175912D01*
X0053239Y0175896D01*
X0053180Y0175883D01*
X0053121Y0175874D01*
X0053060Y0175869D01*
X0053000Y0175867D01*
X0051500Y0175867D01*
X0051000Y0176367D01*
X0037000Y0176367D01*
X0036500Y0175867D01*
X0035000Y0175867D01*
X0034940Y0175869D01*
X0034879Y0175874D01*
X0034820Y0175883D01*
X0034761Y0175896D01*
X0034702Y0175912D01*
X0034645Y0175932D01*
X0034590Y0175955D01*
X0034535Y0175982D01*
X0034483Y0176011D01*
X0034432Y0176044D01*
X0034383Y0176080D01*
X0034337Y0176118D01*
X0034293Y0176160D01*
X0034251Y0176204D01*
X0034213Y0176250D01*
X0034177Y0176299D01*
X0034144Y0176350D01*
X0034115Y0176402D01*
X0034088Y0176457D01*
X0034065Y0176512D01*
X0034045Y0176569D01*
X0034029Y0176628D01*
X0034016Y0176687D01*
X0034007Y0176746D01*
X0034002Y0176807D01*
X0034000Y0176867D01*
X0034000Y0182867D01*
X0034002Y0182927D01*
X0034007Y0182988D01*
X0034016Y0183047D01*
X0034029Y0183106D01*
X0034045Y0183165D01*
X0034065Y0183222D01*
X0034088Y0183277D01*
X0034115Y0183332D01*
X0034144Y0183384D01*
X0034177Y0183435D01*
X0034213Y0183484D01*
X0034251Y0183530D01*
X0034293Y0183574D01*
X0034337Y0183616D01*
X0034383Y0183654D01*
X0034432Y0183690D01*
X0034483Y0183723D01*
X0034535Y0183752D01*
X0034590Y0183779D01*
X0034645Y0183802D01*
X0034702Y0183822D01*
X0034761Y0183838D01*
X0034820Y0183851D01*
X0034879Y0183860D01*
X0034940Y0183865D01*
X0035000Y0183867D01*
X0035000Y0163867D02*
X0036500Y0163867D01*
X0037000Y0163367D01*
X0051000Y0163367D01*
X0051500Y0163867D01*
X0053000Y0163867D01*
X0053060Y0163865D01*
X0053121Y0163860D01*
X0053180Y0163851D01*
X0053239Y0163838D01*
X0053298Y0163822D01*
X0053355Y0163802D01*
X0053410Y0163779D01*
X0053465Y0163752D01*
X0053517Y0163723D01*
X0053568Y0163690D01*
X0053617Y0163654D01*
X0053663Y0163616D01*
X0053707Y0163574D01*
X0053749Y0163530D01*
X0053787Y0163484D01*
X0053823Y0163435D01*
X0053856Y0163384D01*
X0053885Y0163332D01*
X0053912Y0163277D01*
X0053935Y0163222D01*
X0053955Y0163165D01*
X0053971Y0163106D01*
X0053984Y0163047D01*
X0053993Y0162988D01*
X0053998Y0162927D01*
X0054000Y0162867D01*
X0054000Y0156867D01*
X0053998Y0156807D01*
X0053993Y0156746D01*
X0053984Y0156687D01*
X0053971Y0156628D01*
X0053955Y0156569D01*
X0053935Y0156512D01*
X0053912Y0156457D01*
X0053885Y0156402D01*
X0053856Y0156350D01*
X0053823Y0156299D01*
X0053787Y0156250D01*
X0053749Y0156204D01*
X0053707Y0156160D01*
X0053663Y0156118D01*
X0053617Y0156080D01*
X0053568Y0156044D01*
X0053517Y0156011D01*
X0053465Y0155982D01*
X0053410Y0155955D01*
X0053355Y0155932D01*
X0053298Y0155912D01*
X0053239Y0155896D01*
X0053180Y0155883D01*
X0053121Y0155874D01*
X0053060Y0155869D01*
X0053000Y0155867D01*
X0051500Y0155867D01*
X0051000Y0156367D01*
X0037000Y0156367D01*
X0036500Y0155867D01*
X0035000Y0155867D01*
X0034940Y0155869D01*
X0034879Y0155874D01*
X0034820Y0155883D01*
X0034761Y0155896D01*
X0034702Y0155912D01*
X0034645Y0155932D01*
X0034590Y0155955D01*
X0034535Y0155982D01*
X0034483Y0156011D01*
X0034432Y0156044D01*
X0034383Y0156080D01*
X0034337Y0156118D01*
X0034293Y0156160D01*
X0034251Y0156204D01*
X0034213Y0156250D01*
X0034177Y0156299D01*
X0034144Y0156350D01*
X0034115Y0156402D01*
X0034088Y0156457D01*
X0034065Y0156512D01*
X0034045Y0156569D01*
X0034029Y0156628D01*
X0034016Y0156687D01*
X0034007Y0156746D01*
X0034002Y0156807D01*
X0034000Y0156867D01*
X0034000Y0162867D01*
X0034002Y0162927D01*
X0034007Y0162988D01*
X0034016Y0163047D01*
X0034029Y0163106D01*
X0034045Y0163165D01*
X0034065Y0163222D01*
X0034088Y0163277D01*
X0034115Y0163332D01*
X0034144Y0163384D01*
X0034177Y0163435D01*
X0034213Y0163484D01*
X0034251Y0163530D01*
X0034293Y0163574D01*
X0034337Y0163616D01*
X0034383Y0163654D01*
X0034432Y0163690D01*
X0034483Y0163723D01*
X0034535Y0163752D01*
X0034590Y0163779D01*
X0034645Y0163802D01*
X0034702Y0163822D01*
X0034761Y0163838D01*
X0034820Y0163851D01*
X0034879Y0163860D01*
X0034940Y0163865D01*
X0035000Y0163867D01*
X0035000Y0141367D02*
X0036500Y0141367D01*
X0037000Y0140867D01*
X0051000Y0140867D01*
X0051500Y0141367D01*
X0053000Y0141367D01*
X0053060Y0141365D01*
X0053121Y0141360D01*
X0053180Y0141351D01*
X0053239Y0141338D01*
X0053298Y0141322D01*
X0053355Y0141302D01*
X0053410Y0141279D01*
X0053465Y0141252D01*
X0053517Y0141223D01*
X0053568Y0141190D01*
X0053617Y0141154D01*
X0053663Y0141116D01*
X0053707Y0141074D01*
X0053749Y0141030D01*
X0053787Y0140984D01*
X0053823Y0140935D01*
X0053856Y0140884D01*
X0053885Y0140832D01*
X0053912Y0140777D01*
X0053935Y0140722D01*
X0053955Y0140665D01*
X0053971Y0140606D01*
X0053984Y0140547D01*
X0053993Y0140488D01*
X0053998Y0140427D01*
X0054000Y0140367D01*
X0054000Y0134367D01*
X0053998Y0134307D01*
X0053993Y0134246D01*
X0053984Y0134187D01*
X0053971Y0134128D01*
X0053955Y0134069D01*
X0053935Y0134012D01*
X0053912Y0133957D01*
X0053885Y0133902D01*
X0053856Y0133850D01*
X0053823Y0133799D01*
X0053787Y0133750D01*
X0053749Y0133704D01*
X0053707Y0133660D01*
X0053663Y0133618D01*
X0053617Y0133580D01*
X0053568Y0133544D01*
X0053517Y0133511D01*
X0053465Y0133482D01*
X0053410Y0133455D01*
X0053355Y0133432D01*
X0053298Y0133412D01*
X0053239Y0133396D01*
X0053180Y0133383D01*
X0053121Y0133374D01*
X0053060Y0133369D01*
X0053000Y0133367D01*
X0051500Y0133367D01*
X0051000Y0133867D01*
X0037000Y0133867D01*
X0036500Y0133367D01*
X0035000Y0133367D01*
X0034940Y0133369D01*
X0034879Y0133374D01*
X0034820Y0133383D01*
X0034761Y0133396D01*
X0034702Y0133412D01*
X0034645Y0133432D01*
X0034590Y0133455D01*
X0034535Y0133482D01*
X0034483Y0133511D01*
X0034432Y0133544D01*
X0034383Y0133580D01*
X0034337Y0133618D01*
X0034293Y0133660D01*
X0034251Y0133704D01*
X0034213Y0133750D01*
X0034177Y0133799D01*
X0034144Y0133850D01*
X0034115Y0133902D01*
X0034088Y0133957D01*
X0034065Y0134012D01*
X0034045Y0134069D01*
X0034029Y0134128D01*
X0034016Y0134187D01*
X0034007Y0134246D01*
X0034002Y0134307D01*
X0034000Y0134367D01*
X0034000Y0140367D01*
X0034002Y0140427D01*
X0034007Y0140488D01*
X0034016Y0140547D01*
X0034029Y0140606D01*
X0034045Y0140665D01*
X0034065Y0140722D01*
X0034088Y0140777D01*
X0034115Y0140832D01*
X0034144Y0140884D01*
X0034177Y0140935D01*
X0034213Y0140984D01*
X0034251Y0141030D01*
X0034293Y0141074D01*
X0034337Y0141116D01*
X0034383Y0141154D01*
X0034432Y0141190D01*
X0034483Y0141223D01*
X0034535Y0141252D01*
X0034590Y0141279D01*
X0034645Y0141302D01*
X0034702Y0141322D01*
X0034761Y0141338D01*
X0034820Y0141351D01*
X0034879Y0141360D01*
X0034940Y0141365D01*
X0035000Y0141367D01*
X0066500Y0133867D02*
X0066500Y0150867D01*
X0066502Y0150927D01*
X0066507Y0150988D01*
X0066516Y0151047D01*
X0066529Y0151106D01*
X0066545Y0151165D01*
X0066565Y0151222D01*
X0066588Y0151277D01*
X0066615Y0151332D01*
X0066644Y0151384D01*
X0066677Y0151435D01*
X0066713Y0151484D01*
X0066751Y0151530D01*
X0066793Y0151574D01*
X0066837Y0151616D01*
X0066883Y0151654D01*
X0066932Y0151690D01*
X0066983Y0151723D01*
X0067035Y0151752D01*
X0067090Y0151779D01*
X0067145Y0151802D01*
X0067202Y0151822D01*
X0067261Y0151838D01*
X0067320Y0151851D01*
X0067379Y0151860D01*
X0067440Y0151865D01*
X0067500Y0151867D01*
X0075500Y0151867D01*
X0075560Y0151865D01*
X0075621Y0151860D01*
X0075680Y0151851D01*
X0075739Y0151838D01*
X0075798Y0151822D01*
X0075855Y0151802D01*
X0075910Y0151779D01*
X0075965Y0151752D01*
X0076017Y0151723D01*
X0076068Y0151690D01*
X0076117Y0151654D01*
X0076163Y0151616D01*
X0076207Y0151574D01*
X0076249Y0151530D01*
X0076287Y0151484D01*
X0076323Y0151435D01*
X0076356Y0151384D01*
X0076385Y0151332D01*
X0076412Y0151277D01*
X0076435Y0151222D01*
X0076455Y0151165D01*
X0076471Y0151106D01*
X0076484Y0151047D01*
X0076493Y0150988D01*
X0076498Y0150927D01*
X0076500Y0150867D01*
X0076500Y0133867D01*
X0076498Y0133807D01*
X0076493Y0133746D01*
X0076484Y0133687D01*
X0076471Y0133628D01*
X0076455Y0133569D01*
X0076435Y0133512D01*
X0076412Y0133457D01*
X0076385Y0133402D01*
X0076356Y0133350D01*
X0076323Y0133299D01*
X0076287Y0133250D01*
X0076249Y0133204D01*
X0076207Y0133160D01*
X0076163Y0133118D01*
X0076117Y0133080D01*
X0076068Y0133044D01*
X0076017Y0133011D01*
X0075965Y0132982D01*
X0075910Y0132955D01*
X0075855Y0132932D01*
X0075798Y0132912D01*
X0075739Y0132896D01*
X0075680Y0132883D01*
X0075621Y0132874D01*
X0075560Y0132869D01*
X0075500Y0132867D01*
X0067500Y0132867D01*
X0067440Y0132869D01*
X0067379Y0132874D01*
X0067320Y0132883D01*
X0067261Y0132896D01*
X0067202Y0132912D01*
X0067145Y0132932D01*
X0067090Y0132955D01*
X0067035Y0132982D01*
X0066983Y0133011D01*
X0066932Y0133044D01*
X0066883Y0133080D01*
X0066837Y0133118D01*
X0066793Y0133160D01*
X0066751Y0133204D01*
X0066713Y0133250D01*
X0066677Y0133299D01*
X0066644Y0133350D01*
X0066615Y0133402D01*
X0066588Y0133457D01*
X0066565Y0133512D01*
X0066545Y0133569D01*
X0066529Y0133628D01*
X0066516Y0133687D01*
X0066507Y0133746D01*
X0066502Y0133807D01*
X0066500Y0133867D01*
X0071500Y0140867D02*
X0071500Y0141367D01*
X0071500Y0143367D02*
X0071500Y0143867D01*
X0096500Y0142867D02*
X0096500Y0136867D01*
X0096502Y0136807D01*
X0096507Y0136746D01*
X0096516Y0136687D01*
X0096529Y0136628D01*
X0096545Y0136569D01*
X0096565Y0136512D01*
X0096588Y0136457D01*
X0096615Y0136402D01*
X0096644Y0136350D01*
X0096677Y0136299D01*
X0096713Y0136250D01*
X0096751Y0136204D01*
X0096793Y0136160D01*
X0096837Y0136118D01*
X0096883Y0136080D01*
X0096932Y0136044D01*
X0096983Y0136011D01*
X0097035Y0135982D01*
X0097090Y0135955D01*
X0097145Y0135932D01*
X0097202Y0135912D01*
X0097261Y0135896D01*
X0097320Y0135883D01*
X0097379Y0135874D01*
X0097440Y0135869D01*
X0097500Y0135867D01*
X0099000Y0135867D01*
X0099500Y0136367D01*
X0113500Y0136367D01*
X0114000Y0135867D01*
X0115500Y0135867D01*
X0115560Y0135869D01*
X0115621Y0135874D01*
X0115680Y0135883D01*
X0115739Y0135896D01*
X0115798Y0135912D01*
X0115855Y0135932D01*
X0115910Y0135955D01*
X0115965Y0135982D01*
X0116017Y0136011D01*
X0116068Y0136044D01*
X0116117Y0136080D01*
X0116163Y0136118D01*
X0116207Y0136160D01*
X0116249Y0136204D01*
X0116287Y0136250D01*
X0116323Y0136299D01*
X0116356Y0136350D01*
X0116385Y0136402D01*
X0116412Y0136457D01*
X0116435Y0136512D01*
X0116455Y0136569D01*
X0116471Y0136628D01*
X0116484Y0136687D01*
X0116493Y0136746D01*
X0116498Y0136807D01*
X0116500Y0136867D01*
X0116500Y0142867D01*
X0116498Y0142927D01*
X0116493Y0142988D01*
X0116484Y0143047D01*
X0116471Y0143106D01*
X0116455Y0143165D01*
X0116435Y0143222D01*
X0116412Y0143277D01*
X0116385Y0143332D01*
X0116356Y0143384D01*
X0116323Y0143435D01*
X0116287Y0143484D01*
X0116249Y0143530D01*
X0116207Y0143574D01*
X0116163Y0143616D01*
X0116117Y0143654D01*
X0116068Y0143690D01*
X0116017Y0143723D01*
X0115965Y0143752D01*
X0115910Y0143779D01*
X0115855Y0143802D01*
X0115798Y0143822D01*
X0115739Y0143838D01*
X0115680Y0143851D01*
X0115621Y0143860D01*
X0115560Y0143865D01*
X0115500Y0143867D01*
X0114000Y0143867D01*
X0113500Y0143367D01*
X0099500Y0143367D01*
X0099000Y0143867D01*
X0097500Y0143867D01*
X0097440Y0143865D01*
X0097379Y0143860D01*
X0097320Y0143851D01*
X0097261Y0143838D01*
X0097202Y0143822D01*
X0097145Y0143802D01*
X0097090Y0143779D01*
X0097035Y0143752D01*
X0096983Y0143723D01*
X0096932Y0143690D01*
X0096883Y0143654D01*
X0096837Y0143616D01*
X0096793Y0143574D01*
X0096751Y0143530D01*
X0096713Y0143484D01*
X0096677Y0143435D01*
X0096644Y0143384D01*
X0096615Y0143332D01*
X0096588Y0143277D01*
X0096565Y0143222D01*
X0096545Y0143165D01*
X0096529Y0143106D01*
X0096516Y0143047D01*
X0096507Y0142988D01*
X0096502Y0142927D01*
X0096500Y0142867D01*
X0098000Y0164867D02*
X0115000Y0164867D01*
X0115060Y0164869D01*
X0115121Y0164874D01*
X0115180Y0164883D01*
X0115239Y0164896D01*
X0115298Y0164912D01*
X0115355Y0164932D01*
X0115410Y0164955D01*
X0115465Y0164982D01*
X0115517Y0165011D01*
X0115568Y0165044D01*
X0115617Y0165080D01*
X0115663Y0165118D01*
X0115707Y0165160D01*
X0115749Y0165204D01*
X0115787Y0165250D01*
X0115823Y0165299D01*
X0115856Y0165350D01*
X0115885Y0165402D01*
X0115912Y0165457D01*
X0115935Y0165512D01*
X0115955Y0165569D01*
X0115971Y0165628D01*
X0115984Y0165687D01*
X0115993Y0165746D01*
X0115998Y0165807D01*
X0116000Y0165867D01*
X0116000Y0173867D01*
X0115998Y0173927D01*
X0115993Y0173988D01*
X0115984Y0174047D01*
X0115971Y0174106D01*
X0115955Y0174165D01*
X0115935Y0174222D01*
X0115912Y0174277D01*
X0115885Y0174332D01*
X0115856Y0174384D01*
X0115823Y0174435D01*
X0115787Y0174484D01*
X0115749Y0174530D01*
X0115707Y0174574D01*
X0115663Y0174616D01*
X0115617Y0174654D01*
X0115568Y0174690D01*
X0115517Y0174723D01*
X0115465Y0174752D01*
X0115410Y0174779D01*
X0115355Y0174802D01*
X0115298Y0174822D01*
X0115239Y0174838D01*
X0115180Y0174851D01*
X0115121Y0174860D01*
X0115060Y0174865D01*
X0115000Y0174867D01*
X0098000Y0174867D01*
X0097940Y0174865D01*
X0097879Y0174860D01*
X0097820Y0174851D01*
X0097761Y0174838D01*
X0097702Y0174822D01*
X0097645Y0174802D01*
X0097590Y0174779D01*
X0097535Y0174752D01*
X0097483Y0174723D01*
X0097432Y0174690D01*
X0097383Y0174654D01*
X0097337Y0174616D01*
X0097293Y0174574D01*
X0097251Y0174530D01*
X0097213Y0174484D01*
X0097177Y0174435D01*
X0097144Y0174384D01*
X0097115Y0174332D01*
X0097088Y0174277D01*
X0097065Y0174222D01*
X0097045Y0174165D01*
X0097029Y0174106D01*
X0097016Y0174047D01*
X0097007Y0173988D01*
X0097002Y0173927D01*
X0097000Y0173867D01*
X0097000Y0165867D01*
X0097002Y0165807D01*
X0097007Y0165746D01*
X0097016Y0165687D01*
X0097029Y0165628D01*
X0097045Y0165569D01*
X0097065Y0165512D01*
X0097088Y0165457D01*
X0097115Y0165402D01*
X0097144Y0165350D01*
X0097177Y0165299D01*
X0097213Y0165250D01*
X0097251Y0165204D01*
X0097293Y0165160D01*
X0097337Y0165118D01*
X0097383Y0165080D01*
X0097432Y0165044D01*
X0097483Y0165011D01*
X0097535Y0164982D01*
X0097590Y0164955D01*
X0097645Y0164932D01*
X0097702Y0164912D01*
X0097761Y0164896D01*
X0097820Y0164883D01*
X0097879Y0164874D01*
X0097940Y0164869D01*
X0098000Y0164867D01*
X0105000Y0169867D02*
X0105500Y0169867D01*
X0107500Y0169867D02*
X0108000Y0169867D01*
X0097000Y0109867D02*
X0091000Y0109867D01*
X0090940Y0109865D01*
X0090879Y0109860D01*
X0090820Y0109851D01*
X0090761Y0109838D01*
X0090702Y0109822D01*
X0090645Y0109802D01*
X0090590Y0109779D01*
X0090535Y0109752D01*
X0090483Y0109723D01*
X0090432Y0109690D01*
X0090383Y0109654D01*
X0090337Y0109616D01*
X0090293Y0109574D01*
X0090251Y0109530D01*
X0090213Y0109484D01*
X0090177Y0109435D01*
X0090144Y0109384D01*
X0090115Y0109332D01*
X0090088Y0109277D01*
X0090065Y0109222D01*
X0090045Y0109165D01*
X0090029Y0109106D01*
X0090016Y0109047D01*
X0090007Y0108988D01*
X0090002Y0108927D01*
X0090000Y0108867D01*
X0090000Y0107367D01*
X0090500Y0106867D01*
X0090500Y0092867D01*
X0090000Y0092367D01*
X0090000Y0090867D01*
X0090002Y0090807D01*
X0090007Y0090746D01*
X0090016Y0090687D01*
X0090029Y0090628D01*
X0090045Y0090569D01*
X0090065Y0090512D01*
X0090088Y0090457D01*
X0090115Y0090402D01*
X0090144Y0090350D01*
X0090177Y0090299D01*
X0090213Y0090250D01*
X0090251Y0090204D01*
X0090293Y0090160D01*
X0090337Y0090118D01*
X0090383Y0090080D01*
X0090432Y0090044D01*
X0090483Y0090011D01*
X0090535Y0089982D01*
X0090590Y0089955D01*
X0090645Y0089932D01*
X0090702Y0089912D01*
X0090761Y0089896D01*
X0090820Y0089883D01*
X0090879Y0089874D01*
X0090940Y0089869D01*
X0091000Y0089867D01*
X0097000Y0089867D01*
X0097060Y0089869D01*
X0097121Y0089874D01*
X0097180Y0089883D01*
X0097239Y0089896D01*
X0097298Y0089912D01*
X0097355Y0089932D01*
X0097410Y0089955D01*
X0097465Y0089982D01*
X0097517Y0090011D01*
X0097568Y0090044D01*
X0097617Y0090080D01*
X0097663Y0090118D01*
X0097707Y0090160D01*
X0097749Y0090204D01*
X0097787Y0090250D01*
X0097823Y0090299D01*
X0097856Y0090350D01*
X0097885Y0090402D01*
X0097912Y0090457D01*
X0097935Y0090512D01*
X0097955Y0090569D01*
X0097971Y0090628D01*
X0097984Y0090687D01*
X0097993Y0090746D01*
X0097998Y0090807D01*
X0098000Y0090867D01*
X0098000Y0092367D01*
X0097500Y0092867D01*
X0097500Y0106867D01*
X0098000Y0107367D01*
X0098000Y0108867D01*
X0097998Y0108927D01*
X0097993Y0108988D01*
X0097984Y0109047D01*
X0097971Y0109106D01*
X0097955Y0109165D01*
X0097935Y0109222D01*
X0097912Y0109277D01*
X0097885Y0109332D01*
X0097856Y0109384D01*
X0097823Y0109435D01*
X0097787Y0109484D01*
X0097749Y0109530D01*
X0097707Y0109574D01*
X0097663Y0109616D01*
X0097617Y0109654D01*
X0097568Y0109690D01*
X0097517Y0109723D01*
X0097465Y0109752D01*
X0097410Y0109779D01*
X0097355Y0109802D01*
X0097298Y0109822D01*
X0097239Y0109838D01*
X0097180Y0109851D01*
X0097121Y0109860D01*
X0097060Y0109865D01*
X0097000Y0109867D01*
X0122500Y0089867D02*
X0122498Y0089713D01*
X0122492Y0089559D01*
X0122482Y0089405D01*
X0122468Y0089251D01*
X0122451Y0089098D01*
X0122429Y0088946D01*
X0122403Y0088794D01*
X0122374Y0088642D01*
X0122340Y0088492D01*
X0122303Y0088342D01*
X0122262Y0088194D01*
X0122217Y0088046D01*
X0122168Y0087900D01*
X0122116Y0087755D01*
X0122060Y0087612D01*
X0122000Y0087469D01*
X0121937Y0087329D01*
X0121870Y0087190D01*
X0121799Y0087053D01*
X0121725Y0086918D01*
X0121648Y0086785D01*
X0121567Y0086653D01*
X0121483Y0086524D01*
X0121395Y0086397D01*
X0121304Y0086273D01*
X0121211Y0086151D01*
X0121113Y0086031D01*
X0121013Y0085914D01*
X0120910Y0085799D01*
X0120804Y0085687D01*
X0120696Y0085578D01*
X0120584Y0085472D01*
X0120470Y0085368D01*
X0120353Y0085268D01*
X0120234Y0085170D01*
X0120112Y0085076D01*
X0119987Y0084985D01*
X0110500Y0089867D02*
X0110502Y0090019D01*
X0110508Y0090170D01*
X0110517Y0090321D01*
X0110531Y0090473D01*
X0110548Y0090623D01*
X0110569Y0090773D01*
X0110594Y0090923D01*
X0110622Y0091072D01*
X0110655Y0091220D01*
X0110691Y0091367D01*
X0110730Y0091514D01*
X0110774Y0091659D01*
X0110821Y0091803D01*
X0110872Y0091946D01*
X0110926Y0092087D01*
X0110984Y0092228D01*
X0111045Y0092366D01*
X0111110Y0092503D01*
X0111179Y0092639D01*
X0111250Y0092772D01*
X0111325Y0092904D01*
X0111404Y0093034D01*
X0111485Y0093161D01*
X0111570Y0093287D01*
X0111658Y0093411D01*
X0111749Y0093532D01*
X0111843Y0093651D01*
X0111941Y0093767D01*
X0112041Y0093881D01*
X0112143Y0093993D01*
X0112249Y0094101D01*
X0112357Y0094207D01*
X0112468Y0094311D01*
X0112582Y0094411D01*
X0112698Y0094509D01*
X0112817Y0094603D01*
X0110500Y0089867D02*
X0110502Y0089715D01*
X0110508Y0089564D01*
X0110517Y0089413D01*
X0110531Y0089261D01*
X0110548Y0089111D01*
X0110569Y0088961D01*
X0110594Y0088811D01*
X0110622Y0088662D01*
X0110655Y0088514D01*
X0110691Y0088367D01*
X0110730Y0088220D01*
X0110774Y0088075D01*
X0110821Y0087931D01*
X0110872Y0087788D01*
X0110926Y0087647D01*
X0110984Y0087506D01*
X0111045Y0087368D01*
X0111110Y0087231D01*
X0111179Y0087095D01*
X0111250Y0086962D01*
X0111325Y0086830D01*
X0111404Y0086700D01*
X0111485Y0086573D01*
X0111570Y0086447D01*
X0111658Y0086323D01*
X0111749Y0086202D01*
X0111843Y0086083D01*
X0111941Y0085967D01*
X0112041Y0085853D01*
X0112143Y0085741D01*
X0112249Y0085633D01*
X0112357Y0085527D01*
X0112468Y0085423D01*
X0112582Y0085323D01*
X0112698Y0085225D01*
X0112817Y0085131D01*
X0122500Y0089867D02*
X0122498Y0090017D01*
X0122492Y0090168D01*
X0122483Y0090318D01*
X0122470Y0090467D01*
X0122453Y0090617D01*
X0122432Y0090766D01*
X0122408Y0090914D01*
X0122380Y0091062D01*
X0122348Y0091209D01*
X0122313Y0091355D01*
X0122273Y0091500D01*
X0122231Y0091644D01*
X0122184Y0091787D01*
X0122134Y0091929D01*
X0122081Y0092070D01*
X0122024Y0092209D01*
X0121964Y0092347D01*
X0121900Y0092483D01*
X0121833Y0092617D01*
X0121762Y0092750D01*
X0121688Y0092881D01*
X0121611Y0093010D01*
X0121530Y0093137D01*
X0121447Y0093262D01*
X0121360Y0093385D01*
X0121271Y0093506D01*
X0121178Y0093624D01*
X0121082Y0093740D01*
X0120984Y0093854D01*
X0120883Y0093965D01*
X0120778Y0094074D01*
X0120672Y0094179D01*
X0120562Y0094283D01*
X0120450Y0094383D01*
X0120336Y0094481D01*
X0120219Y0094575D01*
X0120100Y0094667D01*
X0290000Y0029867D02*
X0291000Y0029867D01*
X0291000Y0030867D01*
X0291000Y0029867D02*
X0292000Y0029867D01*
X0291000Y0029867D02*
X0291000Y0028867D01*
X0286500Y0024867D02*
X0286503Y0025112D01*
X0286512Y0025358D01*
X0286527Y0025603D01*
X0286548Y0025847D01*
X0286575Y0026091D01*
X0286608Y0026334D01*
X0286647Y0026577D01*
X0286692Y0026818D01*
X0286743Y0027058D01*
X0286800Y0027297D01*
X0286862Y0027534D01*
X0286931Y0027770D01*
X0287005Y0028004D01*
X0287085Y0028236D01*
X0287170Y0028466D01*
X0287261Y0028694D01*
X0287358Y0028919D01*
X0287460Y0029143D01*
X0287568Y0029363D01*
X0287681Y0029581D01*
X0287799Y0029796D01*
X0287923Y0030008D01*
X0288051Y0030217D01*
X0288185Y0030423D01*
X0288324Y0030625D01*
X0288468Y0030824D01*
X0288617Y0031019D01*
X0288770Y0031211D01*
X0288928Y0031399D01*
X0289090Y0031583D01*
X0289258Y0031762D01*
X0289429Y0031938D01*
X0289605Y0032109D01*
X0289784Y0032277D01*
X0289968Y0032439D01*
X0290156Y0032597D01*
X0290348Y0032750D01*
X0290543Y0032899D01*
X0290742Y0033043D01*
X0290944Y0033182D01*
X0291150Y0033316D01*
X0291359Y0033444D01*
X0291571Y0033568D01*
X0291786Y0033686D01*
X0292004Y0033799D01*
X0292224Y0033907D01*
X0292448Y0034009D01*
X0292673Y0034106D01*
X0292901Y0034197D01*
X0293131Y0034282D01*
X0293363Y0034362D01*
X0293597Y0034436D01*
X0293833Y0034505D01*
X0294070Y0034567D01*
X0294309Y0034624D01*
X0294549Y0034675D01*
X0294790Y0034720D01*
X0295033Y0034759D01*
X0295276Y0034792D01*
X0295520Y0034819D01*
X0295764Y0034840D01*
X0296009Y0034855D01*
X0296255Y0034864D01*
X0296500Y0034867D01*
X0296745Y0034864D01*
X0296991Y0034855D01*
X0297236Y0034840D01*
X0297480Y0034819D01*
X0297724Y0034792D01*
X0297967Y0034759D01*
X0298210Y0034720D01*
X0298451Y0034675D01*
X0298691Y0034624D01*
X0298930Y0034567D01*
X0299167Y0034505D01*
X0299403Y0034436D01*
X0299637Y0034362D01*
X0299869Y0034282D01*
X0300099Y0034197D01*
X0300327Y0034106D01*
X0300552Y0034009D01*
X0300776Y0033907D01*
X0300996Y0033799D01*
X0301214Y0033686D01*
X0301429Y0033568D01*
X0301641Y0033444D01*
X0301850Y0033316D01*
X0302056Y0033182D01*
X0302258Y0033043D01*
X0302457Y0032899D01*
X0302652Y0032750D01*
X0302844Y0032597D01*
X0303032Y0032439D01*
X0303216Y0032277D01*
X0303395Y0032109D01*
X0303571Y0031938D01*
X0303742Y0031762D01*
X0303910Y0031583D01*
X0304072Y0031399D01*
X0304230Y0031211D01*
X0304383Y0031019D01*
X0304532Y0030824D01*
X0304676Y0030625D01*
X0304815Y0030423D01*
X0304949Y0030217D01*
X0305077Y0030008D01*
X0305201Y0029796D01*
X0305319Y0029581D01*
X0305432Y0029363D01*
X0305540Y0029143D01*
X0305642Y0028919D01*
X0305739Y0028694D01*
X0305830Y0028466D01*
X0305915Y0028236D01*
X0305995Y0028004D01*
X0306069Y0027770D01*
X0306138Y0027534D01*
X0306200Y0027297D01*
X0306257Y0027058D01*
X0306308Y0026818D01*
X0306353Y0026577D01*
X0306392Y0026334D01*
X0306425Y0026091D01*
X0306452Y0025847D01*
X0306473Y0025603D01*
X0306488Y0025358D01*
X0306497Y0025112D01*
X0306500Y0024867D01*
X0306497Y0024622D01*
X0306488Y0024376D01*
X0306473Y0024131D01*
X0306452Y0023887D01*
X0306425Y0023643D01*
X0306392Y0023400D01*
X0306353Y0023157D01*
X0306308Y0022916D01*
X0306257Y0022676D01*
X0306200Y0022437D01*
X0306138Y0022200D01*
X0306069Y0021964D01*
X0305995Y0021730D01*
X0305915Y0021498D01*
X0305830Y0021268D01*
X0305739Y0021040D01*
X0305642Y0020815D01*
X0305540Y0020591D01*
X0305432Y0020371D01*
X0305319Y0020153D01*
X0305201Y0019938D01*
X0305077Y0019726D01*
X0304949Y0019517D01*
X0304815Y0019311D01*
X0304676Y0019109D01*
X0304532Y0018910D01*
X0304383Y0018715D01*
X0304230Y0018523D01*
X0304072Y0018335D01*
X0303910Y0018151D01*
X0303742Y0017972D01*
X0303571Y0017796D01*
X0303395Y0017625D01*
X0303216Y0017457D01*
X0303032Y0017295D01*
X0302844Y0017137D01*
X0302652Y0016984D01*
X0302457Y0016835D01*
X0302258Y0016691D01*
X0302056Y0016552D01*
X0301850Y0016418D01*
X0301641Y0016290D01*
X0301429Y0016166D01*
X0301214Y0016048D01*
X0300996Y0015935D01*
X0300776Y0015827D01*
X0300552Y0015725D01*
X0300327Y0015628D01*
X0300099Y0015537D01*
X0299869Y0015452D01*
X0299637Y0015372D01*
X0299403Y0015298D01*
X0299167Y0015229D01*
X0298930Y0015167D01*
X0298691Y0015110D01*
X0298451Y0015059D01*
X0298210Y0015014D01*
X0297967Y0014975D01*
X0297724Y0014942D01*
X0297480Y0014915D01*
X0297236Y0014894D01*
X0296991Y0014879D01*
X0296745Y0014870D01*
X0296500Y0014867D01*
X0296255Y0014870D01*
X0296009Y0014879D01*
X0295764Y0014894D01*
X0295520Y0014915D01*
X0295276Y0014942D01*
X0295033Y0014975D01*
X0294790Y0015014D01*
X0294549Y0015059D01*
X0294309Y0015110D01*
X0294070Y0015167D01*
X0293833Y0015229D01*
X0293597Y0015298D01*
X0293363Y0015372D01*
X0293131Y0015452D01*
X0292901Y0015537D01*
X0292673Y0015628D01*
X0292448Y0015725D01*
X0292224Y0015827D01*
X0292004Y0015935D01*
X0291786Y0016048D01*
X0291571Y0016166D01*
X0291359Y0016290D01*
X0291150Y0016418D01*
X0290944Y0016552D01*
X0290742Y0016691D01*
X0290543Y0016835D01*
X0290348Y0016984D01*
X0290156Y0017137D01*
X0289968Y0017295D01*
X0289784Y0017457D01*
X0289605Y0017625D01*
X0289429Y0017796D01*
X0289258Y0017972D01*
X0289090Y0018151D01*
X0288928Y0018335D01*
X0288770Y0018523D01*
X0288617Y0018715D01*
X0288468Y0018910D01*
X0288324Y0019109D01*
X0288185Y0019311D01*
X0288051Y0019517D01*
X0287923Y0019726D01*
X0287799Y0019938D01*
X0287681Y0020153D01*
X0287568Y0020371D01*
X0287460Y0020591D01*
X0287358Y0020815D01*
X0287261Y0021040D01*
X0287170Y0021268D01*
X0287085Y0021498D01*
X0287005Y0021730D01*
X0286931Y0021964D01*
X0286862Y0022200D01*
X0286800Y0022437D01*
X0286743Y0022676D01*
X0286692Y0022916D01*
X0286647Y0023157D01*
X0286608Y0023400D01*
X0286575Y0023643D01*
X0286548Y0023887D01*
X0286527Y0024131D01*
X0286512Y0024376D01*
X0286503Y0024622D01*
X0286500Y0024867D01*
D11*
X0207000Y0093867D02*
X0204000Y0093867D01*
X0201000Y0093867D01*
X0201000Y0095867D02*
X0204000Y0095867D01*
X0207000Y0095867D01*
X0189500Y0095867D02*
X0186500Y0095867D01*
X0183500Y0095867D01*
X0183500Y0093867D02*
X0186500Y0093867D01*
X0189500Y0093867D01*
X0112531Y0096813D02*
X0112362Y0096714D01*
X0112196Y0096610D01*
X0112032Y0096503D01*
X0111871Y0096392D01*
X0111713Y0096277D01*
X0111558Y0096158D01*
X0111405Y0096035D01*
X0111256Y0095909D01*
X0111110Y0095779D01*
X0110967Y0095645D01*
X0110827Y0095508D01*
X0110691Y0095368D01*
X0110558Y0095224D01*
X0110429Y0095077D01*
X0110303Y0094927D01*
X0110182Y0094774D01*
X0110063Y0094618D01*
X0109949Y0094459D01*
X0109839Y0094298D01*
X0109733Y0094133D01*
X0109630Y0093967D01*
X0109532Y0093797D01*
X0109438Y0093626D01*
X0109348Y0093452D01*
X0109263Y0093276D01*
X0109181Y0093098D01*
X0109105Y0092918D01*
X0109032Y0092736D01*
X0108964Y0092553D01*
X0108901Y0092368D01*
X0108842Y0092181D01*
X0108788Y0091993D01*
X0108738Y0091804D01*
X0108693Y0091614D01*
X0108653Y0091422D01*
X0108617Y0091230D01*
X0108586Y0091037D01*
X0108560Y0090843D01*
X0108538Y0090648D01*
X0108522Y0090453D01*
X0108510Y0090258D01*
X0108502Y0090062D01*
X0108500Y0089867D01*
X0120265Y0096925D02*
X0120433Y0096832D01*
X0120599Y0096736D01*
X0120763Y0096636D01*
X0120924Y0096531D01*
X0121083Y0096423D01*
X0121239Y0096311D01*
X0121393Y0096195D01*
X0121543Y0096076D01*
X0121691Y0095953D01*
X0121836Y0095827D01*
X0121977Y0095697D01*
X0122116Y0095564D01*
X0122251Y0095427D01*
X0122383Y0095287D01*
X0122511Y0095145D01*
X0122636Y0094999D01*
X0122758Y0094850D01*
X0122876Y0094698D01*
X0122990Y0094544D01*
X0123100Y0094386D01*
X0123207Y0094227D01*
X0123310Y0094064D01*
X0123409Y0093899D01*
X0123504Y0093732D01*
X0123594Y0093563D01*
X0123681Y0093392D01*
X0123764Y0093218D01*
X0123842Y0093043D01*
X0123916Y0092865D01*
X0123986Y0092686D01*
X0124052Y0092506D01*
X0124113Y0092324D01*
X0124170Y0092140D01*
X0124222Y0091955D01*
X0124270Y0091769D01*
X0124314Y0091582D01*
X0124353Y0091394D01*
X0124387Y0091205D01*
X0124417Y0091015D01*
X0124442Y0090825D01*
X0124463Y0090634D01*
X0124479Y0090442D01*
X0124491Y0090250D01*
X0124498Y0090058D01*
X0124500Y0089866D01*
X0111332Y0083760D02*
X0111186Y0083887D01*
X0111044Y0084016D01*
X0110904Y0084150D01*
X0110768Y0084286D01*
X0110635Y0084426D01*
X0110505Y0084569D01*
X0110379Y0084716D01*
X0110257Y0084865D01*
X0110138Y0085017D01*
X0110023Y0085172D01*
X0109911Y0085329D01*
X0109804Y0085489D01*
X0109700Y0085652D01*
X0109601Y0085818D01*
X0109505Y0085985D01*
X0109413Y0086155D01*
X0109326Y0086327D01*
X0109242Y0086501D01*
X0109163Y0086677D01*
X0109089Y0086855D01*
X0109018Y0087035D01*
X0108952Y0087216D01*
X0108890Y0087399D01*
X0108833Y0087583D01*
X0108780Y0087769D01*
X0108732Y0087956D01*
X0108688Y0088144D01*
X0108649Y0088333D01*
X0108614Y0088523D01*
X0108584Y0088713D01*
X0108558Y0088904D01*
X0108537Y0089096D01*
X0108521Y0089289D01*
X0108509Y0089481D01*
X0108502Y0089674D01*
X0108500Y0089867D01*
X0121622Y0083721D02*
X0121770Y0083848D01*
X0121915Y0083978D01*
X0122056Y0084111D01*
X0122195Y0084248D01*
X0122330Y0084388D01*
X0122461Y0084532D01*
X0122589Y0084679D01*
X0122714Y0084828D01*
X0122835Y0084981D01*
X0122952Y0085136D01*
X0123065Y0085295D01*
X0123174Y0085456D01*
X0123279Y0085620D01*
X0123381Y0085786D01*
X0123478Y0085955D01*
X0123571Y0086125D01*
X0123660Y0086299D01*
X0123745Y0086474D01*
X0123825Y0086651D01*
X0123901Y0086830D01*
X0123973Y0087011D01*
X0124040Y0087194D01*
X0124103Y0087378D01*
X0124161Y0087564D01*
X0124215Y0087751D01*
X0124264Y0087939D01*
X0124309Y0088129D01*
X0124349Y0088319D01*
X0124384Y0088511D01*
X0124415Y0088703D01*
X0124441Y0088896D01*
X0124462Y0089090D01*
X0124479Y0089284D01*
X0124491Y0089478D01*
X0124498Y0089672D01*
X0124500Y0089867D01*
X0074500Y0141367D02*
X0071500Y0141367D01*
X0068500Y0141367D01*
X0068500Y0143367D02*
X0071500Y0143367D01*
X0074500Y0143367D01*
X0105500Y0166867D02*
X0105500Y0169867D01*
X0105500Y0172867D01*
X0107500Y0172867D02*
X0107500Y0169867D01*
X0107500Y0166867D01*
X0054500Y0233867D02*
X0051500Y0233867D01*
X0048500Y0233867D01*
X0048500Y0235867D02*
X0051500Y0235867D01*
X0054500Y0235867D01*
X0085500Y0246867D02*
X0085500Y0249867D01*
X0085500Y0252867D01*
X0087500Y0252867D02*
X0087500Y0249867D01*
X0087500Y0246867D01*
D12*
X0054750Y0179867D03*
X0033250Y0179867D03*
X0033250Y0159867D03*
X0054750Y0159867D03*
X0054750Y0137367D03*
X0033250Y0137367D03*
X0095750Y0139867D03*
X0117250Y0139867D03*
X0205750Y0179867D03*
X0227250Y0179867D03*
X0212250Y0249867D03*
X0190750Y0249867D03*
D13*
X0149000Y0223117D03*
X0134000Y0234117D03*
X0121500Y0218117D03*
X0121500Y0196617D03*
X0149000Y0201617D03*
X0134000Y0255617D03*
X0031500Y0245617D03*
X0016500Y0245617D03*
X0016500Y0224117D03*
X0031500Y0224117D03*
X0094000Y0110617D03*
X0094000Y0089117D03*
X0199000Y0070617D03*
X0199000Y0049117D03*
D14*
X0049374Y0031087D02*
X0041500Y0031087D01*
X0041500Y0036087D02*
X0049374Y0036087D01*
X0054886Y0035693D02*
X0054888Y0035798D01*
X0054894Y0035903D01*
X0054904Y0036007D01*
X0054918Y0036111D01*
X0054936Y0036215D01*
X0054958Y0036317D01*
X0054983Y0036419D01*
X0055013Y0036520D01*
X0055046Y0036619D01*
X0055083Y0036717D01*
X0055124Y0036814D01*
X0055169Y0036909D01*
X0055217Y0037002D01*
X0055268Y0037094D01*
X0055324Y0037183D01*
X0055382Y0037270D01*
X0055444Y0037355D01*
X0055508Y0037438D01*
X0055576Y0037518D01*
X0055647Y0037595D01*
X0055721Y0037669D01*
X0055798Y0037741D01*
X0055877Y0037810D01*
X0055959Y0037875D01*
X0056043Y0037938D01*
X0056130Y0037997D01*
X0056219Y0038053D01*
X0056310Y0038106D01*
X0056403Y0038155D01*
X0056497Y0038200D01*
X0056593Y0038242D01*
X0056691Y0038280D01*
X0056790Y0038314D01*
X0056891Y0038345D01*
X0056992Y0038371D01*
X0057095Y0038394D01*
X0057198Y0038413D01*
X0057302Y0038428D01*
X0057406Y0038439D01*
X0057511Y0038446D01*
X0057616Y0038449D01*
X0057721Y0038448D01*
X0057826Y0038443D01*
X0057930Y0038434D01*
X0058034Y0038421D01*
X0058138Y0038404D01*
X0058241Y0038383D01*
X0058343Y0038358D01*
X0058444Y0038330D01*
X0058543Y0038297D01*
X0058642Y0038261D01*
X0058739Y0038221D01*
X0058834Y0038178D01*
X0058928Y0038130D01*
X0059020Y0038080D01*
X0059110Y0038026D01*
X0059198Y0037968D01*
X0059283Y0037907D01*
X0059366Y0037843D01*
X0059447Y0037776D01*
X0059525Y0037706D01*
X0059600Y0037632D01*
X0059672Y0037557D01*
X0059742Y0037478D01*
X0059808Y0037397D01*
X0059872Y0037313D01*
X0059932Y0037227D01*
X0059988Y0037139D01*
X0060042Y0037048D01*
X0060092Y0036956D01*
X0060138Y0036862D01*
X0060181Y0036766D01*
X0060220Y0036668D01*
X0060255Y0036570D01*
X0060286Y0036469D01*
X0060314Y0036368D01*
X0060338Y0036266D01*
X0060358Y0036163D01*
X0060374Y0036059D01*
X0060386Y0035955D01*
X0060394Y0035850D01*
X0060398Y0035745D01*
X0060398Y0035641D01*
X0060394Y0035536D01*
X0060386Y0035431D01*
X0060374Y0035327D01*
X0060358Y0035223D01*
X0060338Y0035120D01*
X0060314Y0035018D01*
X0060286Y0034917D01*
X0060255Y0034816D01*
X0060220Y0034718D01*
X0060181Y0034620D01*
X0060138Y0034524D01*
X0060092Y0034430D01*
X0060042Y0034338D01*
X0059988Y0034247D01*
X0059932Y0034159D01*
X0059872Y0034073D01*
X0059808Y0033989D01*
X0059742Y0033908D01*
X0059672Y0033829D01*
X0059600Y0033754D01*
X0059525Y0033680D01*
X0059447Y0033610D01*
X0059366Y0033543D01*
X0059283Y0033479D01*
X0059198Y0033418D01*
X0059110Y0033360D01*
X0059020Y0033306D01*
X0058928Y0033256D01*
X0058834Y0033208D01*
X0058739Y0033165D01*
X0058642Y0033125D01*
X0058543Y0033089D01*
X0058444Y0033056D01*
X0058343Y0033028D01*
X0058241Y0033003D01*
X0058138Y0032982D01*
X0058034Y0032965D01*
X0057930Y0032952D01*
X0057826Y0032943D01*
X0057721Y0032938D01*
X0057616Y0032937D01*
X0057511Y0032940D01*
X0057406Y0032947D01*
X0057302Y0032958D01*
X0057198Y0032973D01*
X0057095Y0032992D01*
X0056992Y0033015D01*
X0056891Y0033041D01*
X0056790Y0033072D01*
X0056691Y0033106D01*
X0056593Y0033144D01*
X0056497Y0033186D01*
X0056403Y0033231D01*
X0056310Y0033280D01*
X0056219Y0033333D01*
X0056130Y0033389D01*
X0056043Y0033448D01*
X0055959Y0033511D01*
X0055877Y0033576D01*
X0055798Y0033645D01*
X0055721Y0033717D01*
X0055647Y0033791D01*
X0055576Y0033868D01*
X0055508Y0033948D01*
X0055444Y0034031D01*
X0055382Y0034116D01*
X0055324Y0034203D01*
X0055268Y0034292D01*
X0055217Y0034384D01*
X0055169Y0034477D01*
X0055124Y0034572D01*
X0055083Y0034669D01*
X0055046Y0034767D01*
X0055013Y0034866D01*
X0054983Y0034967D01*
X0054958Y0035069D01*
X0054936Y0035171D01*
X0054918Y0035275D01*
X0054904Y0035379D01*
X0054894Y0035483D01*
X0054888Y0035588D01*
X0054886Y0035693D01*
X0049768Y0027308D02*
X0049768Y0054867D01*
X0065516Y0054867D01*
X0065516Y0027308D01*
X0049768Y0027308D01*
X0049374Y0046087D02*
X0041500Y0046087D01*
X0041500Y0051087D02*
X0049374Y0051087D01*
X0054531Y0046087D02*
X0054533Y0046192D01*
X0054539Y0046297D01*
X0054549Y0046401D01*
X0054563Y0046505D01*
X0054581Y0046609D01*
X0054603Y0046711D01*
X0054628Y0046813D01*
X0054658Y0046914D01*
X0054691Y0047013D01*
X0054728Y0047111D01*
X0054769Y0047208D01*
X0054814Y0047303D01*
X0054862Y0047396D01*
X0054913Y0047488D01*
X0054969Y0047577D01*
X0055027Y0047664D01*
X0055089Y0047749D01*
X0055153Y0047832D01*
X0055221Y0047912D01*
X0055292Y0047989D01*
X0055366Y0048063D01*
X0055443Y0048135D01*
X0055522Y0048204D01*
X0055604Y0048269D01*
X0055688Y0048332D01*
X0055775Y0048391D01*
X0055864Y0048447D01*
X0055955Y0048500D01*
X0056048Y0048549D01*
X0056142Y0048594D01*
X0056238Y0048636D01*
X0056336Y0048674D01*
X0056435Y0048708D01*
X0056536Y0048739D01*
X0056637Y0048765D01*
X0056740Y0048788D01*
X0056843Y0048807D01*
X0056947Y0048822D01*
X0057051Y0048833D01*
X0057156Y0048840D01*
X0057261Y0048843D01*
X0057366Y0048842D01*
X0057471Y0048837D01*
X0057575Y0048828D01*
X0057679Y0048815D01*
X0057783Y0048798D01*
X0057886Y0048777D01*
X0057988Y0048752D01*
X0058089Y0048724D01*
X0058188Y0048691D01*
X0058287Y0048655D01*
X0058384Y0048615D01*
X0058479Y0048572D01*
X0058573Y0048524D01*
X0058665Y0048474D01*
X0058755Y0048420D01*
X0058843Y0048362D01*
X0058928Y0048301D01*
X0059011Y0048237D01*
X0059092Y0048170D01*
X0059170Y0048100D01*
X0059245Y0048026D01*
X0059317Y0047951D01*
X0059387Y0047872D01*
X0059453Y0047791D01*
X0059517Y0047707D01*
X0059577Y0047621D01*
X0059633Y0047533D01*
X0059687Y0047442D01*
X0059737Y0047350D01*
X0059783Y0047256D01*
X0059826Y0047160D01*
X0059865Y0047062D01*
X0059900Y0046964D01*
X0059931Y0046863D01*
X0059959Y0046762D01*
X0059983Y0046660D01*
X0060003Y0046557D01*
X0060019Y0046453D01*
X0060031Y0046349D01*
X0060039Y0046244D01*
X0060043Y0046139D01*
X0060043Y0046035D01*
X0060039Y0045930D01*
X0060031Y0045825D01*
X0060019Y0045721D01*
X0060003Y0045617D01*
X0059983Y0045514D01*
X0059959Y0045412D01*
X0059931Y0045311D01*
X0059900Y0045210D01*
X0059865Y0045112D01*
X0059826Y0045014D01*
X0059783Y0044918D01*
X0059737Y0044824D01*
X0059687Y0044732D01*
X0059633Y0044641D01*
X0059577Y0044553D01*
X0059517Y0044467D01*
X0059453Y0044383D01*
X0059387Y0044302D01*
X0059317Y0044223D01*
X0059245Y0044148D01*
X0059170Y0044074D01*
X0059092Y0044004D01*
X0059011Y0043937D01*
X0058928Y0043873D01*
X0058843Y0043812D01*
X0058755Y0043754D01*
X0058665Y0043700D01*
X0058573Y0043650D01*
X0058479Y0043602D01*
X0058384Y0043559D01*
X0058287Y0043519D01*
X0058188Y0043483D01*
X0058089Y0043450D01*
X0057988Y0043422D01*
X0057886Y0043397D01*
X0057783Y0043376D01*
X0057679Y0043359D01*
X0057575Y0043346D01*
X0057471Y0043337D01*
X0057366Y0043332D01*
X0057261Y0043331D01*
X0057156Y0043334D01*
X0057051Y0043341D01*
X0056947Y0043352D01*
X0056843Y0043367D01*
X0056740Y0043386D01*
X0056637Y0043409D01*
X0056536Y0043435D01*
X0056435Y0043466D01*
X0056336Y0043500D01*
X0056238Y0043538D01*
X0056142Y0043580D01*
X0056048Y0043625D01*
X0055955Y0043674D01*
X0055864Y0043727D01*
X0055775Y0043783D01*
X0055688Y0043842D01*
X0055604Y0043905D01*
X0055522Y0043970D01*
X0055443Y0044039D01*
X0055366Y0044111D01*
X0055292Y0044185D01*
X0055221Y0044262D01*
X0055153Y0044342D01*
X0055089Y0044425D01*
X0055027Y0044510D01*
X0054969Y0044597D01*
X0054913Y0044686D01*
X0054862Y0044778D01*
X0054814Y0044871D01*
X0054769Y0044966D01*
X0054728Y0045063D01*
X0054691Y0045161D01*
X0054658Y0045260D01*
X0054628Y0045361D01*
X0054603Y0045463D01*
X0054581Y0045565D01*
X0054563Y0045669D01*
X0054549Y0045773D01*
X0054539Y0045877D01*
X0054533Y0045982D01*
X0054531Y0046087D01*
X0109646Y0005869D02*
X0109646Y0004367D01*
X0110397Y0003617D01*
X0111898Y0003617D01*
X0112649Y0004367D01*
X0112649Y0005118D01*
X0111898Y0005869D01*
X0109646Y0005869D01*
X0111147Y0007370D01*
X0112649Y0008120D01*
X0159646Y0021617D02*
X0162649Y0021617D01*
X0161147Y0021617D02*
X0161147Y0026120D01*
X0159646Y0024619D01*
X0225437Y0049867D02*
X0321500Y0049867D01*
X0321500Y0132544D01*
X0299453Y0146323D01*
X0247484Y0146323D01*
X0225437Y0132544D01*
X0225437Y0049867D01*
X0247484Y0064827D02*
X0299453Y0064827D01*
X0299453Y0167583D01*
X0247484Y0167583D01*
X0247484Y0064827D01*
X0248000Y0226867D02*
X0252000Y0230867D01*
X0253500Y0229367D01*
X0253500Y0232367D01*
X0257000Y0235867D01*
X0255000Y0237867D02*
X0251500Y0234367D01*
X0248500Y0234367D01*
X0250000Y0232867D01*
X0246000Y0228867D01*
X0239000Y0248367D02*
X0238575Y0248056D01*
X0238158Y0247734D01*
X0237750Y0247403D01*
X0237349Y0247061D01*
X0236957Y0246710D01*
X0236573Y0246349D01*
X0236199Y0245979D01*
X0235834Y0245600D01*
X0235478Y0245212D01*
X0235131Y0244816D01*
X0234795Y0244411D01*
X0234468Y0243998D01*
X0234152Y0243577D01*
X0233846Y0243149D01*
X0233551Y0242713D01*
X0233266Y0242270D01*
X0232993Y0241821D01*
X0232730Y0241364D01*
X0232479Y0240902D01*
X0232239Y0240433D01*
X0232010Y0239959D01*
X0231794Y0239479D01*
X0231589Y0238994D01*
X0231396Y0238504D01*
X0231215Y0238010D01*
X0231046Y0237511D01*
X0230890Y0237009D01*
X0230745Y0236502D01*
X0230614Y0235993D01*
X0230495Y0235480D01*
X0230388Y0234964D01*
X0230294Y0234446D01*
X0230213Y0233926D01*
X0230144Y0233404D01*
X0230088Y0232881D01*
X0230046Y0232356D01*
X0230016Y0231831D01*
X0229998Y0231304D01*
X0229994Y0230778D01*
X0230003Y0230252D01*
X0230024Y0229726D01*
X0230059Y0229200D01*
X0230106Y0228676D01*
X0230166Y0228153D01*
X0230239Y0227632D01*
X0230324Y0227112D01*
X0230423Y0226595D01*
X0230533Y0226080D01*
X0230657Y0225569D01*
X0230793Y0225060D01*
X0230941Y0224555D01*
X0231102Y0224054D01*
X0231275Y0223556D01*
X0231460Y0223064D01*
X0231657Y0222575D01*
X0231866Y0222092D01*
X0232086Y0221614D01*
X0232319Y0221142D01*
X0232562Y0220675D01*
X0232817Y0220215D01*
X0233084Y0219761D01*
X0233361Y0219313D01*
X0233649Y0218873D01*
X0233948Y0218439D01*
X0234258Y0218014D01*
X0234578Y0217595D01*
X0234907Y0217185D01*
X0235247Y0216783D01*
X0235597Y0216389D01*
X0235956Y0216005D01*
X0236324Y0215629D01*
X0236702Y0215262D01*
X0237088Y0214904D01*
X0237483Y0214556D01*
X0237887Y0214218D01*
X0238298Y0213890D01*
X0238718Y0213572D01*
X0239145Y0213264D01*
X0239580Y0212967D01*
X0240021Y0212680D01*
X0240470Y0212405D01*
X0240925Y0212141D01*
X0241387Y0211887D01*
X0241854Y0211645D01*
X0242328Y0211415D01*
X0242806Y0211196D01*
X0243291Y0210990D01*
X0243780Y0210795D01*
X0244273Y0210612D01*
X0244771Y0210441D01*
X0245273Y0210282D01*
X0245779Y0210136D01*
X0246288Y0210002D01*
X0246800Y0209881D01*
X0247315Y0209772D01*
X0247833Y0209676D01*
X0248353Y0209593D01*
X0248874Y0209522D01*
X0249398Y0209464D01*
X0249922Y0209419D01*
X0250448Y0209387D01*
X0250974Y0209367D01*
X0251500Y0209361D01*
X0252026Y0209367D01*
X0252552Y0209387D01*
X0253078Y0209419D01*
X0253602Y0209464D01*
X0254126Y0209522D01*
X0254647Y0209593D01*
X0255167Y0209676D01*
X0255685Y0209772D01*
X0256200Y0209881D01*
X0256712Y0210002D01*
X0257221Y0210136D01*
X0257727Y0210282D01*
X0258229Y0210441D01*
X0258727Y0210612D01*
X0259220Y0210795D01*
X0259709Y0210990D01*
X0260194Y0211196D01*
X0260672Y0211415D01*
X0261146Y0211645D01*
X0261613Y0211887D01*
X0262075Y0212141D01*
X0262530Y0212405D01*
X0262979Y0212680D01*
X0263420Y0212967D01*
X0263855Y0213264D01*
X0264282Y0213572D01*
X0264702Y0213890D01*
X0265113Y0214218D01*
X0265517Y0214556D01*
X0265912Y0214904D01*
X0266298Y0215262D01*
X0266676Y0215629D01*
X0267044Y0216005D01*
X0267403Y0216389D01*
X0267753Y0216783D01*
X0268093Y0217185D01*
X0268422Y0217595D01*
X0268742Y0218014D01*
X0269052Y0218439D01*
X0269351Y0218873D01*
X0269639Y0219313D01*
X0269916Y0219761D01*
X0270183Y0220215D01*
X0270438Y0220675D01*
X0270681Y0221142D01*
X0270914Y0221614D01*
X0271134Y0222092D01*
X0271343Y0222575D01*
X0271540Y0223064D01*
X0271725Y0223556D01*
X0271898Y0224054D01*
X0272059Y0224555D01*
X0272207Y0225060D01*
X0272343Y0225569D01*
X0272467Y0226080D01*
X0272577Y0226595D01*
X0272676Y0227112D01*
X0272761Y0227632D01*
X0272834Y0228153D01*
X0272894Y0228676D01*
X0272941Y0229200D01*
X0272976Y0229726D01*
X0272997Y0230252D01*
X0273006Y0230778D01*
X0273002Y0231304D01*
X0272984Y0231831D01*
X0272954Y0232356D01*
X0272912Y0232881D01*
X0272856Y0233404D01*
X0272787Y0233926D01*
X0272706Y0234446D01*
X0272612Y0234964D01*
X0272505Y0235480D01*
X0272386Y0235993D01*
X0272255Y0236502D01*
X0272110Y0237009D01*
X0271954Y0237511D01*
X0271785Y0238010D01*
X0271604Y0238504D01*
X0271411Y0238994D01*
X0271206Y0239479D01*
X0270990Y0239959D01*
X0270761Y0240433D01*
X0270521Y0240902D01*
X0270270Y0241364D01*
X0270007Y0241821D01*
X0269734Y0242270D01*
X0269449Y0242713D01*
X0269154Y0243149D01*
X0268848Y0243577D01*
X0268532Y0243998D01*
X0268205Y0244411D01*
X0267869Y0244816D01*
X0267522Y0245212D01*
X0267166Y0245600D01*
X0266801Y0245979D01*
X0266427Y0246349D01*
X0266043Y0246710D01*
X0265651Y0247061D01*
X0265250Y0247403D01*
X0264842Y0247734D01*
X0264425Y0248056D01*
X0264000Y0248367D01*
X0262500Y0244867D02*
X0259000Y0242367D01*
X0254000Y0244867D01*
X0254000Y0249867D01*
X0256500Y0249867D01*
X0256500Y0254867D01*
X0249000Y0249867D02*
X0249000Y0244867D01*
X0244000Y0242367D01*
X0240500Y0244867D01*
X0246500Y0249867D02*
X0249000Y0249867D01*
X0246500Y0249867D02*
X0246500Y0254867D01*
X0244400Y0232367D02*
X0244402Y0232541D01*
X0244409Y0232715D01*
X0244419Y0232889D01*
X0244434Y0233063D01*
X0244453Y0233236D01*
X0244477Y0233409D01*
X0244505Y0233581D01*
X0244536Y0233752D01*
X0244573Y0233923D01*
X0244613Y0234092D01*
X0244657Y0234261D01*
X0244706Y0234428D01*
X0244758Y0234594D01*
X0244815Y0234759D01*
X0244876Y0234922D01*
X0244940Y0235084D01*
X0245009Y0235244D01*
X0245082Y0235403D01*
X0245158Y0235559D01*
X0245238Y0235714D01*
X0245322Y0235867D01*
X0245410Y0236017D01*
X0245502Y0236165D01*
X0245597Y0236312D01*
X0245695Y0236455D01*
X0245797Y0236596D01*
X0245903Y0236735D01*
X0246012Y0236871D01*
X0246124Y0237005D01*
X0246239Y0237135D01*
X0246358Y0237263D01*
X0246480Y0237387D01*
X0246604Y0237509D01*
X0246732Y0237628D01*
X0246862Y0237743D01*
X0246996Y0237855D01*
X0247132Y0237964D01*
X0247271Y0238070D01*
X0247412Y0238172D01*
X0247555Y0238270D01*
X0247702Y0238365D01*
X0247850Y0238457D01*
X0248000Y0238545D01*
X0248153Y0238629D01*
X0248308Y0238709D01*
X0248464Y0238785D01*
X0248623Y0238858D01*
X0248783Y0238927D01*
X0248945Y0238991D01*
X0249108Y0239052D01*
X0249273Y0239109D01*
X0249439Y0239161D01*
X0249606Y0239210D01*
X0249775Y0239254D01*
X0249944Y0239294D01*
X0250115Y0239331D01*
X0250286Y0239362D01*
X0250458Y0239390D01*
X0250631Y0239414D01*
X0250804Y0239433D01*
X0250978Y0239448D01*
X0251152Y0239458D01*
X0251326Y0239465D01*
X0251500Y0239467D01*
X0251674Y0239465D01*
X0251848Y0239458D01*
X0252022Y0239448D01*
X0252196Y0239433D01*
X0252369Y0239414D01*
X0252542Y0239390D01*
X0252714Y0239362D01*
X0252885Y0239331D01*
X0253056Y0239294D01*
X0253225Y0239254D01*
X0253394Y0239210D01*
X0253561Y0239161D01*
X0253727Y0239109D01*
X0253892Y0239052D01*
X0254055Y0238991D01*
X0254217Y0238927D01*
X0254377Y0238858D01*
X0254536Y0238785D01*
X0254692Y0238709D01*
X0254847Y0238629D01*
X0255000Y0238545D01*
X0255150Y0238457D01*
X0255298Y0238365D01*
X0255445Y0238270D01*
X0255588Y0238172D01*
X0255729Y0238070D01*
X0255868Y0237964D01*
X0256004Y0237855D01*
X0256138Y0237743D01*
X0256268Y0237628D01*
X0256396Y0237509D01*
X0256520Y0237387D01*
X0256642Y0237263D01*
X0256761Y0237135D01*
X0256876Y0237005D01*
X0256988Y0236871D01*
X0257097Y0236735D01*
X0257203Y0236596D01*
X0257305Y0236455D01*
X0257403Y0236312D01*
X0257498Y0236165D01*
X0257590Y0236017D01*
X0257678Y0235867D01*
X0257762Y0235714D01*
X0257842Y0235559D01*
X0257918Y0235403D01*
X0257991Y0235244D01*
X0258060Y0235084D01*
X0258124Y0234922D01*
X0258185Y0234759D01*
X0258242Y0234594D01*
X0258294Y0234428D01*
X0258343Y0234261D01*
X0258387Y0234092D01*
X0258427Y0233923D01*
X0258464Y0233752D01*
X0258495Y0233581D01*
X0258523Y0233409D01*
X0258547Y0233236D01*
X0258566Y0233063D01*
X0258581Y0232889D01*
X0258591Y0232715D01*
X0258598Y0232541D01*
X0258600Y0232367D01*
X0258598Y0232193D01*
X0258591Y0232019D01*
X0258581Y0231845D01*
X0258566Y0231671D01*
X0258547Y0231498D01*
X0258523Y0231325D01*
X0258495Y0231153D01*
X0258464Y0230982D01*
X0258427Y0230811D01*
X0258387Y0230642D01*
X0258343Y0230473D01*
X0258294Y0230306D01*
X0258242Y0230140D01*
X0258185Y0229975D01*
X0258124Y0229812D01*
X0258060Y0229650D01*
X0257991Y0229490D01*
X0257918Y0229331D01*
X0257842Y0229175D01*
X0257762Y0229020D01*
X0257678Y0228867D01*
X0257590Y0228717D01*
X0257498Y0228569D01*
X0257403Y0228422D01*
X0257305Y0228279D01*
X0257203Y0228138D01*
X0257097Y0227999D01*
X0256988Y0227863D01*
X0256876Y0227729D01*
X0256761Y0227599D01*
X0256642Y0227471D01*
X0256520Y0227347D01*
X0256396Y0227225D01*
X0256268Y0227106D01*
X0256138Y0226991D01*
X0256004Y0226879D01*
X0255868Y0226770D01*
X0255729Y0226664D01*
X0255588Y0226562D01*
X0255445Y0226464D01*
X0255298Y0226369D01*
X0255150Y0226277D01*
X0255000Y0226189D01*
X0254847Y0226105D01*
X0254692Y0226025D01*
X0254536Y0225949D01*
X0254377Y0225876D01*
X0254217Y0225807D01*
X0254055Y0225743D01*
X0253892Y0225682D01*
X0253727Y0225625D01*
X0253561Y0225573D01*
X0253394Y0225524D01*
X0253225Y0225480D01*
X0253056Y0225440D01*
X0252885Y0225403D01*
X0252714Y0225372D01*
X0252542Y0225344D01*
X0252369Y0225320D01*
X0252196Y0225301D01*
X0252022Y0225286D01*
X0251848Y0225276D01*
X0251674Y0225269D01*
X0251500Y0225267D01*
X0251326Y0225269D01*
X0251152Y0225276D01*
X0250978Y0225286D01*
X0250804Y0225301D01*
X0250631Y0225320D01*
X0250458Y0225344D01*
X0250286Y0225372D01*
X0250115Y0225403D01*
X0249944Y0225440D01*
X0249775Y0225480D01*
X0249606Y0225524D01*
X0249439Y0225573D01*
X0249273Y0225625D01*
X0249108Y0225682D01*
X0248945Y0225743D01*
X0248783Y0225807D01*
X0248623Y0225876D01*
X0248464Y0225949D01*
X0248308Y0226025D01*
X0248153Y0226105D01*
X0248000Y0226189D01*
X0247850Y0226277D01*
X0247702Y0226369D01*
X0247555Y0226464D01*
X0247412Y0226562D01*
X0247271Y0226664D01*
X0247132Y0226770D01*
X0246996Y0226879D01*
X0246862Y0226991D01*
X0246732Y0227106D01*
X0246604Y0227225D01*
X0246480Y0227347D01*
X0246358Y0227471D01*
X0246239Y0227599D01*
X0246124Y0227729D01*
X0246012Y0227863D01*
X0245903Y0227999D01*
X0245797Y0228138D01*
X0245695Y0228279D01*
X0245597Y0228422D01*
X0245502Y0228569D01*
X0245410Y0228717D01*
X0245322Y0228867D01*
X0245238Y0229020D01*
X0245158Y0229175D01*
X0245082Y0229331D01*
X0245009Y0229490D01*
X0244940Y0229650D01*
X0244876Y0229812D01*
X0244815Y0229975D01*
X0244758Y0230140D01*
X0244706Y0230306D01*
X0244657Y0230473D01*
X0244613Y0230642D01*
X0244573Y0230811D01*
X0244536Y0230982D01*
X0244505Y0231153D01*
X0244477Y0231325D01*
X0244453Y0231498D01*
X0244434Y0231671D01*
X0244419Y0231845D01*
X0244409Y0232019D01*
X0244402Y0232193D01*
X0244400Y0232367D01*
X0290500Y0244867D02*
X0294000Y0242367D01*
X0299000Y0244867D01*
X0299000Y0249867D01*
X0296500Y0249867D01*
X0296500Y0254867D01*
X0304000Y0249867D02*
X0306500Y0249867D01*
X0306500Y0254867D01*
X0304000Y0249867D02*
X0304000Y0244867D01*
X0309000Y0242367D01*
X0312500Y0244867D01*
X0305000Y0237867D02*
X0301500Y0234367D01*
X0298500Y0234367D01*
X0300000Y0232867D01*
X0296000Y0228867D01*
X0298000Y0226867D02*
X0302000Y0230867D01*
X0303500Y0229367D01*
X0303500Y0232367D01*
X0307000Y0235867D01*
X0294400Y0232367D02*
X0294402Y0232541D01*
X0294409Y0232715D01*
X0294419Y0232889D01*
X0294434Y0233063D01*
X0294453Y0233236D01*
X0294477Y0233409D01*
X0294505Y0233581D01*
X0294536Y0233752D01*
X0294573Y0233923D01*
X0294613Y0234092D01*
X0294657Y0234261D01*
X0294706Y0234428D01*
X0294758Y0234594D01*
X0294815Y0234759D01*
X0294876Y0234922D01*
X0294940Y0235084D01*
X0295009Y0235244D01*
X0295082Y0235403D01*
X0295158Y0235559D01*
X0295238Y0235714D01*
X0295322Y0235867D01*
X0295410Y0236017D01*
X0295502Y0236165D01*
X0295597Y0236312D01*
X0295695Y0236455D01*
X0295797Y0236596D01*
X0295903Y0236735D01*
X0296012Y0236871D01*
X0296124Y0237005D01*
X0296239Y0237135D01*
X0296358Y0237263D01*
X0296480Y0237387D01*
X0296604Y0237509D01*
X0296732Y0237628D01*
X0296862Y0237743D01*
X0296996Y0237855D01*
X0297132Y0237964D01*
X0297271Y0238070D01*
X0297412Y0238172D01*
X0297555Y0238270D01*
X0297702Y0238365D01*
X0297850Y0238457D01*
X0298000Y0238545D01*
X0298153Y0238629D01*
X0298308Y0238709D01*
X0298464Y0238785D01*
X0298623Y0238858D01*
X0298783Y0238927D01*
X0298945Y0238991D01*
X0299108Y0239052D01*
X0299273Y0239109D01*
X0299439Y0239161D01*
X0299606Y0239210D01*
X0299775Y0239254D01*
X0299944Y0239294D01*
X0300115Y0239331D01*
X0300286Y0239362D01*
X0300458Y0239390D01*
X0300631Y0239414D01*
X0300804Y0239433D01*
X0300978Y0239448D01*
X0301152Y0239458D01*
X0301326Y0239465D01*
X0301500Y0239467D01*
X0301674Y0239465D01*
X0301848Y0239458D01*
X0302022Y0239448D01*
X0302196Y0239433D01*
X0302369Y0239414D01*
X0302542Y0239390D01*
X0302714Y0239362D01*
X0302885Y0239331D01*
X0303056Y0239294D01*
X0303225Y0239254D01*
X0303394Y0239210D01*
X0303561Y0239161D01*
X0303727Y0239109D01*
X0303892Y0239052D01*
X0304055Y0238991D01*
X0304217Y0238927D01*
X0304377Y0238858D01*
X0304536Y0238785D01*
X0304692Y0238709D01*
X0304847Y0238629D01*
X0305000Y0238545D01*
X0305150Y0238457D01*
X0305298Y0238365D01*
X0305445Y0238270D01*
X0305588Y0238172D01*
X0305729Y0238070D01*
X0305868Y0237964D01*
X0306004Y0237855D01*
X0306138Y0237743D01*
X0306268Y0237628D01*
X0306396Y0237509D01*
X0306520Y0237387D01*
X0306642Y0237263D01*
X0306761Y0237135D01*
X0306876Y0237005D01*
X0306988Y0236871D01*
X0307097Y0236735D01*
X0307203Y0236596D01*
X0307305Y0236455D01*
X0307403Y0236312D01*
X0307498Y0236165D01*
X0307590Y0236017D01*
X0307678Y0235867D01*
X0307762Y0235714D01*
X0307842Y0235559D01*
X0307918Y0235403D01*
X0307991Y0235244D01*
X0308060Y0235084D01*
X0308124Y0234922D01*
X0308185Y0234759D01*
X0308242Y0234594D01*
X0308294Y0234428D01*
X0308343Y0234261D01*
X0308387Y0234092D01*
X0308427Y0233923D01*
X0308464Y0233752D01*
X0308495Y0233581D01*
X0308523Y0233409D01*
X0308547Y0233236D01*
X0308566Y0233063D01*
X0308581Y0232889D01*
X0308591Y0232715D01*
X0308598Y0232541D01*
X0308600Y0232367D01*
X0308598Y0232193D01*
X0308591Y0232019D01*
X0308581Y0231845D01*
X0308566Y0231671D01*
X0308547Y0231498D01*
X0308523Y0231325D01*
X0308495Y0231153D01*
X0308464Y0230982D01*
X0308427Y0230811D01*
X0308387Y0230642D01*
X0308343Y0230473D01*
X0308294Y0230306D01*
X0308242Y0230140D01*
X0308185Y0229975D01*
X0308124Y0229812D01*
X0308060Y0229650D01*
X0307991Y0229490D01*
X0307918Y0229331D01*
X0307842Y0229175D01*
X0307762Y0229020D01*
X0307678Y0228867D01*
X0307590Y0228717D01*
X0307498Y0228569D01*
X0307403Y0228422D01*
X0307305Y0228279D01*
X0307203Y0228138D01*
X0307097Y0227999D01*
X0306988Y0227863D01*
X0306876Y0227729D01*
X0306761Y0227599D01*
X0306642Y0227471D01*
X0306520Y0227347D01*
X0306396Y0227225D01*
X0306268Y0227106D01*
X0306138Y0226991D01*
X0306004Y0226879D01*
X0305868Y0226770D01*
X0305729Y0226664D01*
X0305588Y0226562D01*
X0305445Y0226464D01*
X0305298Y0226369D01*
X0305150Y0226277D01*
X0305000Y0226189D01*
X0304847Y0226105D01*
X0304692Y0226025D01*
X0304536Y0225949D01*
X0304377Y0225876D01*
X0304217Y0225807D01*
X0304055Y0225743D01*
X0303892Y0225682D01*
X0303727Y0225625D01*
X0303561Y0225573D01*
X0303394Y0225524D01*
X0303225Y0225480D01*
X0303056Y0225440D01*
X0302885Y0225403D01*
X0302714Y0225372D01*
X0302542Y0225344D01*
X0302369Y0225320D01*
X0302196Y0225301D01*
X0302022Y0225286D01*
X0301848Y0225276D01*
X0301674Y0225269D01*
X0301500Y0225267D01*
X0301326Y0225269D01*
X0301152Y0225276D01*
X0300978Y0225286D01*
X0300804Y0225301D01*
X0300631Y0225320D01*
X0300458Y0225344D01*
X0300286Y0225372D01*
X0300115Y0225403D01*
X0299944Y0225440D01*
X0299775Y0225480D01*
X0299606Y0225524D01*
X0299439Y0225573D01*
X0299273Y0225625D01*
X0299108Y0225682D01*
X0298945Y0225743D01*
X0298783Y0225807D01*
X0298623Y0225876D01*
X0298464Y0225949D01*
X0298308Y0226025D01*
X0298153Y0226105D01*
X0298000Y0226189D01*
X0297850Y0226277D01*
X0297702Y0226369D01*
X0297555Y0226464D01*
X0297412Y0226562D01*
X0297271Y0226664D01*
X0297132Y0226770D01*
X0296996Y0226879D01*
X0296862Y0226991D01*
X0296732Y0227106D01*
X0296604Y0227225D01*
X0296480Y0227347D01*
X0296358Y0227471D01*
X0296239Y0227599D01*
X0296124Y0227729D01*
X0296012Y0227863D01*
X0295903Y0227999D01*
X0295797Y0228138D01*
X0295695Y0228279D01*
X0295597Y0228422D01*
X0295502Y0228569D01*
X0295410Y0228717D01*
X0295322Y0228867D01*
X0295238Y0229020D01*
X0295158Y0229175D01*
X0295082Y0229331D01*
X0295009Y0229490D01*
X0294940Y0229650D01*
X0294876Y0229812D01*
X0294815Y0229975D01*
X0294758Y0230140D01*
X0294706Y0230306D01*
X0294657Y0230473D01*
X0294613Y0230642D01*
X0294573Y0230811D01*
X0294536Y0230982D01*
X0294505Y0231153D01*
X0294477Y0231325D01*
X0294453Y0231498D01*
X0294434Y0231671D01*
X0294419Y0231845D01*
X0294409Y0232019D01*
X0294402Y0232193D01*
X0294400Y0232367D01*
X0289000Y0248367D02*
X0288575Y0248056D01*
X0288158Y0247734D01*
X0287750Y0247403D01*
X0287349Y0247061D01*
X0286957Y0246710D01*
X0286573Y0246349D01*
X0286199Y0245979D01*
X0285834Y0245600D01*
X0285478Y0245212D01*
X0285131Y0244816D01*
X0284795Y0244411D01*
X0284468Y0243998D01*
X0284152Y0243577D01*
X0283846Y0243149D01*
X0283551Y0242713D01*
X0283266Y0242270D01*
X0282993Y0241821D01*
X0282730Y0241364D01*
X0282479Y0240902D01*
X0282239Y0240433D01*
X0282010Y0239959D01*
X0281794Y0239479D01*
X0281589Y0238994D01*
X0281396Y0238504D01*
X0281215Y0238010D01*
X0281046Y0237511D01*
X0280890Y0237009D01*
X0280745Y0236502D01*
X0280614Y0235993D01*
X0280495Y0235480D01*
X0280388Y0234964D01*
X0280294Y0234446D01*
X0280213Y0233926D01*
X0280144Y0233404D01*
X0280088Y0232881D01*
X0280046Y0232356D01*
X0280016Y0231831D01*
X0279998Y0231304D01*
X0279994Y0230778D01*
X0280003Y0230252D01*
X0280024Y0229726D01*
X0280059Y0229200D01*
X0280106Y0228676D01*
X0280166Y0228153D01*
X0280239Y0227632D01*
X0280324Y0227112D01*
X0280423Y0226595D01*
X0280533Y0226080D01*
X0280657Y0225569D01*
X0280793Y0225060D01*
X0280941Y0224555D01*
X0281102Y0224054D01*
X0281275Y0223556D01*
X0281460Y0223064D01*
X0281657Y0222575D01*
X0281866Y0222092D01*
X0282086Y0221614D01*
X0282319Y0221142D01*
X0282562Y0220675D01*
X0282817Y0220215D01*
X0283084Y0219761D01*
X0283361Y0219313D01*
X0283649Y0218873D01*
X0283948Y0218439D01*
X0284258Y0218014D01*
X0284578Y0217595D01*
X0284907Y0217185D01*
X0285247Y0216783D01*
X0285597Y0216389D01*
X0285956Y0216005D01*
X0286324Y0215629D01*
X0286702Y0215262D01*
X0287088Y0214904D01*
X0287483Y0214556D01*
X0287887Y0214218D01*
X0288298Y0213890D01*
X0288718Y0213572D01*
X0289145Y0213264D01*
X0289580Y0212967D01*
X0290021Y0212680D01*
X0290470Y0212405D01*
X0290925Y0212141D01*
X0291387Y0211887D01*
X0291854Y0211645D01*
X0292328Y0211415D01*
X0292806Y0211196D01*
X0293291Y0210990D01*
X0293780Y0210795D01*
X0294273Y0210612D01*
X0294771Y0210441D01*
X0295273Y0210282D01*
X0295779Y0210136D01*
X0296288Y0210002D01*
X0296800Y0209881D01*
X0297315Y0209772D01*
X0297833Y0209676D01*
X0298353Y0209593D01*
X0298874Y0209522D01*
X0299398Y0209464D01*
X0299922Y0209419D01*
X0300448Y0209387D01*
X0300974Y0209367D01*
X0301500Y0209361D01*
X0302026Y0209367D01*
X0302552Y0209387D01*
X0303078Y0209419D01*
X0303602Y0209464D01*
X0304126Y0209522D01*
X0304647Y0209593D01*
X0305167Y0209676D01*
X0305685Y0209772D01*
X0306200Y0209881D01*
X0306712Y0210002D01*
X0307221Y0210136D01*
X0307727Y0210282D01*
X0308229Y0210441D01*
X0308727Y0210612D01*
X0309220Y0210795D01*
X0309709Y0210990D01*
X0310194Y0211196D01*
X0310672Y0211415D01*
X0311146Y0211645D01*
X0311613Y0211887D01*
X0312075Y0212141D01*
X0312530Y0212405D01*
X0312979Y0212680D01*
X0313420Y0212967D01*
X0313855Y0213264D01*
X0314282Y0213572D01*
X0314702Y0213890D01*
X0315113Y0214218D01*
X0315517Y0214556D01*
X0315912Y0214904D01*
X0316298Y0215262D01*
X0316676Y0215629D01*
X0317044Y0216005D01*
X0317403Y0216389D01*
X0317753Y0216783D01*
X0318093Y0217185D01*
X0318422Y0217595D01*
X0318742Y0218014D01*
X0319052Y0218439D01*
X0319351Y0218873D01*
X0319639Y0219313D01*
X0319916Y0219761D01*
X0320183Y0220215D01*
X0320438Y0220675D01*
X0320681Y0221142D01*
X0320914Y0221614D01*
X0321134Y0222092D01*
X0321343Y0222575D01*
X0321540Y0223064D01*
X0321725Y0223556D01*
X0321898Y0224054D01*
X0322059Y0224555D01*
X0322207Y0225060D01*
X0322343Y0225569D01*
X0322467Y0226080D01*
X0322577Y0226595D01*
X0322676Y0227112D01*
X0322761Y0227632D01*
X0322834Y0228153D01*
X0322894Y0228676D01*
X0322941Y0229200D01*
X0322976Y0229726D01*
X0322997Y0230252D01*
X0323006Y0230778D01*
X0323002Y0231304D01*
X0322984Y0231831D01*
X0322954Y0232356D01*
X0322912Y0232881D01*
X0322856Y0233404D01*
X0322787Y0233926D01*
X0322706Y0234446D01*
X0322612Y0234964D01*
X0322505Y0235480D01*
X0322386Y0235993D01*
X0322255Y0236502D01*
X0322110Y0237009D01*
X0321954Y0237511D01*
X0321785Y0238010D01*
X0321604Y0238504D01*
X0321411Y0238994D01*
X0321206Y0239479D01*
X0320990Y0239959D01*
X0320761Y0240433D01*
X0320521Y0240902D01*
X0320270Y0241364D01*
X0320007Y0241821D01*
X0319734Y0242270D01*
X0319449Y0242713D01*
X0319154Y0243149D01*
X0318848Y0243577D01*
X0318532Y0243998D01*
X0318205Y0244411D01*
X0317869Y0244816D01*
X0317522Y0245212D01*
X0317166Y0245600D01*
X0316801Y0245979D01*
X0316427Y0246349D01*
X0316043Y0246710D01*
X0315651Y0247061D01*
X0315250Y0247403D01*
X0314842Y0247734D01*
X0314425Y0248056D01*
X0314000Y0248367D01*
D15*
X0290500Y0232367D02*
X0290503Y0232637D01*
X0290513Y0232907D01*
X0290530Y0233176D01*
X0290553Y0233445D01*
X0290583Y0233714D01*
X0290619Y0233981D01*
X0290662Y0234248D01*
X0290711Y0234513D01*
X0290767Y0234777D01*
X0290830Y0235040D01*
X0290898Y0235301D01*
X0290974Y0235560D01*
X0291055Y0235817D01*
X0291143Y0236073D01*
X0291237Y0236326D01*
X0291337Y0236577D01*
X0291444Y0236825D01*
X0291556Y0237070D01*
X0291675Y0237313D01*
X0291799Y0237552D01*
X0291929Y0237789D01*
X0292065Y0238022D01*
X0292207Y0238252D01*
X0292354Y0238478D01*
X0292507Y0238701D01*
X0292665Y0238920D01*
X0292828Y0239135D01*
X0292997Y0239345D01*
X0293171Y0239552D01*
X0293350Y0239754D01*
X0293533Y0239952D01*
X0293722Y0240145D01*
X0293915Y0240334D01*
X0294113Y0240517D01*
X0294315Y0240696D01*
X0294522Y0240870D01*
X0294732Y0241039D01*
X0294947Y0241202D01*
X0295166Y0241360D01*
X0295389Y0241513D01*
X0295615Y0241660D01*
X0295845Y0241802D01*
X0296078Y0241938D01*
X0296315Y0242068D01*
X0296554Y0242192D01*
X0296797Y0242311D01*
X0297042Y0242423D01*
X0297290Y0242530D01*
X0297541Y0242630D01*
X0297794Y0242724D01*
X0298050Y0242812D01*
X0298307Y0242893D01*
X0298566Y0242969D01*
X0298827Y0243037D01*
X0299090Y0243100D01*
X0299354Y0243156D01*
X0299619Y0243205D01*
X0299886Y0243248D01*
X0300153Y0243284D01*
X0300422Y0243314D01*
X0300691Y0243337D01*
X0300960Y0243354D01*
X0301230Y0243364D01*
X0301500Y0243367D01*
X0301770Y0243364D01*
X0302040Y0243354D01*
X0302309Y0243337D01*
X0302578Y0243314D01*
X0302847Y0243284D01*
X0303114Y0243248D01*
X0303381Y0243205D01*
X0303646Y0243156D01*
X0303910Y0243100D01*
X0304173Y0243037D01*
X0304434Y0242969D01*
X0304693Y0242893D01*
X0304950Y0242812D01*
X0305206Y0242724D01*
X0305459Y0242630D01*
X0305710Y0242530D01*
X0305958Y0242423D01*
X0306203Y0242311D01*
X0306446Y0242192D01*
X0306685Y0242068D01*
X0306922Y0241938D01*
X0307155Y0241802D01*
X0307385Y0241660D01*
X0307611Y0241513D01*
X0307834Y0241360D01*
X0308053Y0241202D01*
X0308268Y0241039D01*
X0308478Y0240870D01*
X0308685Y0240696D01*
X0308887Y0240517D01*
X0309085Y0240334D01*
X0309278Y0240145D01*
X0309467Y0239952D01*
X0309650Y0239754D01*
X0309829Y0239552D01*
X0310003Y0239345D01*
X0310172Y0239135D01*
X0310335Y0238920D01*
X0310493Y0238701D01*
X0310646Y0238478D01*
X0310793Y0238252D01*
X0310935Y0238022D01*
X0311071Y0237789D01*
X0311201Y0237552D01*
X0311325Y0237313D01*
X0311444Y0237070D01*
X0311556Y0236825D01*
X0311663Y0236577D01*
X0311763Y0236326D01*
X0311857Y0236073D01*
X0311945Y0235817D01*
X0312026Y0235560D01*
X0312102Y0235301D01*
X0312170Y0235040D01*
X0312233Y0234777D01*
X0312289Y0234513D01*
X0312338Y0234248D01*
X0312381Y0233981D01*
X0312417Y0233714D01*
X0312447Y0233445D01*
X0312470Y0233176D01*
X0312487Y0232907D01*
X0312497Y0232637D01*
X0312500Y0232367D01*
X0312497Y0232097D01*
X0312487Y0231827D01*
X0312470Y0231558D01*
X0312447Y0231289D01*
X0312417Y0231020D01*
X0312381Y0230753D01*
X0312338Y0230486D01*
X0312289Y0230221D01*
X0312233Y0229957D01*
X0312170Y0229694D01*
X0312102Y0229433D01*
X0312026Y0229174D01*
X0311945Y0228917D01*
X0311857Y0228661D01*
X0311763Y0228408D01*
X0311663Y0228157D01*
X0311556Y0227909D01*
X0311444Y0227664D01*
X0311325Y0227421D01*
X0311201Y0227182D01*
X0311071Y0226945D01*
X0310935Y0226712D01*
X0310793Y0226482D01*
X0310646Y0226256D01*
X0310493Y0226033D01*
X0310335Y0225814D01*
X0310172Y0225599D01*
X0310003Y0225389D01*
X0309829Y0225182D01*
X0309650Y0224980D01*
X0309467Y0224782D01*
X0309278Y0224589D01*
X0309085Y0224400D01*
X0308887Y0224217D01*
X0308685Y0224038D01*
X0308478Y0223864D01*
X0308268Y0223695D01*
X0308053Y0223532D01*
X0307834Y0223374D01*
X0307611Y0223221D01*
X0307385Y0223074D01*
X0307155Y0222932D01*
X0306922Y0222796D01*
X0306685Y0222666D01*
X0306446Y0222542D01*
X0306203Y0222423D01*
X0305958Y0222311D01*
X0305710Y0222204D01*
X0305459Y0222104D01*
X0305206Y0222010D01*
X0304950Y0221922D01*
X0304693Y0221841D01*
X0304434Y0221765D01*
X0304173Y0221697D01*
X0303910Y0221634D01*
X0303646Y0221578D01*
X0303381Y0221529D01*
X0303114Y0221486D01*
X0302847Y0221450D01*
X0302578Y0221420D01*
X0302309Y0221397D01*
X0302040Y0221380D01*
X0301770Y0221370D01*
X0301500Y0221367D01*
X0301230Y0221370D01*
X0300960Y0221380D01*
X0300691Y0221397D01*
X0300422Y0221420D01*
X0300153Y0221450D01*
X0299886Y0221486D01*
X0299619Y0221529D01*
X0299354Y0221578D01*
X0299090Y0221634D01*
X0298827Y0221697D01*
X0298566Y0221765D01*
X0298307Y0221841D01*
X0298050Y0221922D01*
X0297794Y0222010D01*
X0297541Y0222104D01*
X0297290Y0222204D01*
X0297042Y0222311D01*
X0296797Y0222423D01*
X0296554Y0222542D01*
X0296315Y0222666D01*
X0296078Y0222796D01*
X0295845Y0222932D01*
X0295615Y0223074D01*
X0295389Y0223221D01*
X0295166Y0223374D01*
X0294947Y0223532D01*
X0294732Y0223695D01*
X0294522Y0223864D01*
X0294315Y0224038D01*
X0294113Y0224217D01*
X0293915Y0224400D01*
X0293722Y0224589D01*
X0293533Y0224782D01*
X0293350Y0224980D01*
X0293171Y0225182D01*
X0292997Y0225389D01*
X0292828Y0225599D01*
X0292665Y0225814D01*
X0292507Y0226033D01*
X0292354Y0226256D01*
X0292207Y0226482D01*
X0292065Y0226712D01*
X0291929Y0226945D01*
X0291799Y0227182D01*
X0291675Y0227421D01*
X0291556Y0227664D01*
X0291444Y0227909D01*
X0291337Y0228157D01*
X0291237Y0228408D01*
X0291143Y0228661D01*
X0291055Y0228917D01*
X0290974Y0229174D01*
X0290898Y0229433D01*
X0290830Y0229694D01*
X0290767Y0229957D01*
X0290711Y0230221D01*
X0290662Y0230486D01*
X0290619Y0230753D01*
X0290583Y0231020D01*
X0290553Y0231289D01*
X0290530Y0231558D01*
X0290513Y0231827D01*
X0290503Y0232097D01*
X0290500Y0232367D01*
X0240500Y0232367D02*
X0240503Y0232637D01*
X0240513Y0232907D01*
X0240530Y0233176D01*
X0240553Y0233445D01*
X0240583Y0233714D01*
X0240619Y0233981D01*
X0240662Y0234248D01*
X0240711Y0234513D01*
X0240767Y0234777D01*
X0240830Y0235040D01*
X0240898Y0235301D01*
X0240974Y0235560D01*
X0241055Y0235817D01*
X0241143Y0236073D01*
X0241237Y0236326D01*
X0241337Y0236577D01*
X0241444Y0236825D01*
X0241556Y0237070D01*
X0241675Y0237313D01*
X0241799Y0237552D01*
X0241929Y0237789D01*
X0242065Y0238022D01*
X0242207Y0238252D01*
X0242354Y0238478D01*
X0242507Y0238701D01*
X0242665Y0238920D01*
X0242828Y0239135D01*
X0242997Y0239345D01*
X0243171Y0239552D01*
X0243350Y0239754D01*
X0243533Y0239952D01*
X0243722Y0240145D01*
X0243915Y0240334D01*
X0244113Y0240517D01*
X0244315Y0240696D01*
X0244522Y0240870D01*
X0244732Y0241039D01*
X0244947Y0241202D01*
X0245166Y0241360D01*
X0245389Y0241513D01*
X0245615Y0241660D01*
X0245845Y0241802D01*
X0246078Y0241938D01*
X0246315Y0242068D01*
X0246554Y0242192D01*
X0246797Y0242311D01*
X0247042Y0242423D01*
X0247290Y0242530D01*
X0247541Y0242630D01*
X0247794Y0242724D01*
X0248050Y0242812D01*
X0248307Y0242893D01*
X0248566Y0242969D01*
X0248827Y0243037D01*
X0249090Y0243100D01*
X0249354Y0243156D01*
X0249619Y0243205D01*
X0249886Y0243248D01*
X0250153Y0243284D01*
X0250422Y0243314D01*
X0250691Y0243337D01*
X0250960Y0243354D01*
X0251230Y0243364D01*
X0251500Y0243367D01*
X0251770Y0243364D01*
X0252040Y0243354D01*
X0252309Y0243337D01*
X0252578Y0243314D01*
X0252847Y0243284D01*
X0253114Y0243248D01*
X0253381Y0243205D01*
X0253646Y0243156D01*
X0253910Y0243100D01*
X0254173Y0243037D01*
X0254434Y0242969D01*
X0254693Y0242893D01*
X0254950Y0242812D01*
X0255206Y0242724D01*
X0255459Y0242630D01*
X0255710Y0242530D01*
X0255958Y0242423D01*
X0256203Y0242311D01*
X0256446Y0242192D01*
X0256685Y0242068D01*
X0256922Y0241938D01*
X0257155Y0241802D01*
X0257385Y0241660D01*
X0257611Y0241513D01*
X0257834Y0241360D01*
X0258053Y0241202D01*
X0258268Y0241039D01*
X0258478Y0240870D01*
X0258685Y0240696D01*
X0258887Y0240517D01*
X0259085Y0240334D01*
X0259278Y0240145D01*
X0259467Y0239952D01*
X0259650Y0239754D01*
X0259829Y0239552D01*
X0260003Y0239345D01*
X0260172Y0239135D01*
X0260335Y0238920D01*
X0260493Y0238701D01*
X0260646Y0238478D01*
X0260793Y0238252D01*
X0260935Y0238022D01*
X0261071Y0237789D01*
X0261201Y0237552D01*
X0261325Y0237313D01*
X0261444Y0237070D01*
X0261556Y0236825D01*
X0261663Y0236577D01*
X0261763Y0236326D01*
X0261857Y0236073D01*
X0261945Y0235817D01*
X0262026Y0235560D01*
X0262102Y0235301D01*
X0262170Y0235040D01*
X0262233Y0234777D01*
X0262289Y0234513D01*
X0262338Y0234248D01*
X0262381Y0233981D01*
X0262417Y0233714D01*
X0262447Y0233445D01*
X0262470Y0233176D01*
X0262487Y0232907D01*
X0262497Y0232637D01*
X0262500Y0232367D01*
X0262497Y0232097D01*
X0262487Y0231827D01*
X0262470Y0231558D01*
X0262447Y0231289D01*
X0262417Y0231020D01*
X0262381Y0230753D01*
X0262338Y0230486D01*
X0262289Y0230221D01*
X0262233Y0229957D01*
X0262170Y0229694D01*
X0262102Y0229433D01*
X0262026Y0229174D01*
X0261945Y0228917D01*
X0261857Y0228661D01*
X0261763Y0228408D01*
X0261663Y0228157D01*
X0261556Y0227909D01*
X0261444Y0227664D01*
X0261325Y0227421D01*
X0261201Y0227182D01*
X0261071Y0226945D01*
X0260935Y0226712D01*
X0260793Y0226482D01*
X0260646Y0226256D01*
X0260493Y0226033D01*
X0260335Y0225814D01*
X0260172Y0225599D01*
X0260003Y0225389D01*
X0259829Y0225182D01*
X0259650Y0224980D01*
X0259467Y0224782D01*
X0259278Y0224589D01*
X0259085Y0224400D01*
X0258887Y0224217D01*
X0258685Y0224038D01*
X0258478Y0223864D01*
X0258268Y0223695D01*
X0258053Y0223532D01*
X0257834Y0223374D01*
X0257611Y0223221D01*
X0257385Y0223074D01*
X0257155Y0222932D01*
X0256922Y0222796D01*
X0256685Y0222666D01*
X0256446Y0222542D01*
X0256203Y0222423D01*
X0255958Y0222311D01*
X0255710Y0222204D01*
X0255459Y0222104D01*
X0255206Y0222010D01*
X0254950Y0221922D01*
X0254693Y0221841D01*
X0254434Y0221765D01*
X0254173Y0221697D01*
X0253910Y0221634D01*
X0253646Y0221578D01*
X0253381Y0221529D01*
X0253114Y0221486D01*
X0252847Y0221450D01*
X0252578Y0221420D01*
X0252309Y0221397D01*
X0252040Y0221380D01*
X0251770Y0221370D01*
X0251500Y0221367D01*
X0251230Y0221370D01*
X0250960Y0221380D01*
X0250691Y0221397D01*
X0250422Y0221420D01*
X0250153Y0221450D01*
X0249886Y0221486D01*
X0249619Y0221529D01*
X0249354Y0221578D01*
X0249090Y0221634D01*
X0248827Y0221697D01*
X0248566Y0221765D01*
X0248307Y0221841D01*
X0248050Y0221922D01*
X0247794Y0222010D01*
X0247541Y0222104D01*
X0247290Y0222204D01*
X0247042Y0222311D01*
X0246797Y0222423D01*
X0246554Y0222542D01*
X0246315Y0222666D01*
X0246078Y0222796D01*
X0245845Y0222932D01*
X0245615Y0223074D01*
X0245389Y0223221D01*
X0245166Y0223374D01*
X0244947Y0223532D01*
X0244732Y0223695D01*
X0244522Y0223864D01*
X0244315Y0224038D01*
X0244113Y0224217D01*
X0243915Y0224400D01*
X0243722Y0224589D01*
X0243533Y0224782D01*
X0243350Y0224980D01*
X0243171Y0225182D01*
X0242997Y0225389D01*
X0242828Y0225599D01*
X0242665Y0225814D01*
X0242507Y0226033D01*
X0242354Y0226256D01*
X0242207Y0226482D01*
X0242065Y0226712D01*
X0241929Y0226945D01*
X0241799Y0227182D01*
X0241675Y0227421D01*
X0241556Y0227664D01*
X0241444Y0227909D01*
X0241337Y0228157D01*
X0241237Y0228408D01*
X0241143Y0228661D01*
X0241055Y0228917D01*
X0240974Y0229174D01*
X0240898Y0229433D01*
X0240830Y0229694D01*
X0240767Y0229957D01*
X0240711Y0230221D01*
X0240662Y0230486D01*
X0240619Y0230753D01*
X0240583Y0231020D01*
X0240553Y0231289D01*
X0240530Y0231558D01*
X0240513Y0231827D01*
X0240503Y0232097D01*
X0240500Y0232367D01*
D16*
X0205000Y0141867D02*
X0205000Y0117867D01*
X0204997Y0117660D01*
X0204990Y0117453D01*
X0204977Y0117247D01*
X0204960Y0117040D01*
X0204937Y0116835D01*
X0204909Y0116629D01*
X0204877Y0116425D01*
X0204839Y0116221D01*
X0204797Y0116019D01*
X0204749Y0115817D01*
X0204697Y0115617D01*
X0204640Y0115418D01*
X0204578Y0115221D01*
X0204511Y0115025D01*
X0204439Y0114831D01*
X0204363Y0114638D01*
X0204282Y0114448D01*
X0204196Y0114259D01*
X0204106Y0114073D01*
X0204012Y0113889D01*
X0203912Y0113707D01*
X0203809Y0113528D01*
X0203701Y0113351D01*
X0203589Y0113177D01*
X0203473Y0113006D01*
X0203352Y0112837D01*
X0203228Y0112672D01*
X0203099Y0112510D01*
X0202967Y0112351D01*
X0202831Y0112195D01*
X0202691Y0112042D01*
X0202547Y0111893D01*
X0202400Y0111748D01*
X0202249Y0111606D01*
X0202095Y0111468D01*
X0201937Y0111333D01*
X0201777Y0111203D01*
X0201613Y0111077D01*
X0201446Y0110954D01*
X0201276Y0110836D01*
X0201103Y0110721D01*
X0200928Y0110611D01*
X0200750Y0110506D01*
X0200569Y0110404D01*
X0200387Y0110308D01*
X0200201Y0110215D01*
X0200014Y0110127D01*
X0199824Y0110044D01*
X0199633Y0109965D01*
X0199440Y0109891D01*
X0199244Y0109822D01*
X0199048Y0109758D01*
X0198850Y0109698D01*
X0198650Y0109643D01*
X0198449Y0109593D01*
X0198247Y0109548D01*
X0198044Y0109508D01*
X0197840Y0109473D01*
X0197635Y0109443D01*
X0197430Y0109418D01*
X0197224Y0109398D01*
X0197017Y0109383D01*
X0196810Y0109373D01*
X0196603Y0109368D01*
X0196397Y0109368D01*
X0196190Y0109373D01*
X0195983Y0109383D01*
X0195776Y0109398D01*
X0195570Y0109418D01*
X0195365Y0109443D01*
X0195160Y0109473D01*
X0194956Y0109508D01*
X0194753Y0109548D01*
X0194551Y0109593D01*
X0194350Y0109643D01*
X0194150Y0109698D01*
X0193952Y0109758D01*
X0193756Y0109822D01*
X0193560Y0109891D01*
X0193367Y0109965D01*
X0193176Y0110044D01*
X0192986Y0110127D01*
X0192799Y0110215D01*
X0192613Y0110308D01*
X0192431Y0110404D01*
X0192250Y0110506D01*
X0192072Y0110611D01*
X0191897Y0110721D01*
X0191724Y0110836D01*
X0191554Y0110954D01*
X0191387Y0111077D01*
X0191223Y0111203D01*
X0191063Y0111333D01*
X0190905Y0111468D01*
X0190751Y0111606D01*
X0190600Y0111748D01*
X0190453Y0111893D01*
X0190309Y0112042D01*
X0190169Y0112195D01*
X0190033Y0112351D01*
X0189901Y0112510D01*
X0189772Y0112672D01*
X0189648Y0112837D01*
X0189527Y0113006D01*
X0189411Y0113177D01*
X0189299Y0113351D01*
X0189191Y0113528D01*
X0189088Y0113707D01*
X0188988Y0113889D01*
X0188894Y0114073D01*
X0188804Y0114259D01*
X0188718Y0114448D01*
X0188637Y0114638D01*
X0188561Y0114831D01*
X0188489Y0115025D01*
X0188422Y0115221D01*
X0188360Y0115418D01*
X0188303Y0115617D01*
X0188251Y0115817D01*
X0188203Y0116019D01*
X0188161Y0116221D01*
X0188123Y0116425D01*
X0188091Y0116629D01*
X0188063Y0116835D01*
X0188040Y0117040D01*
X0188023Y0117247D01*
X0188010Y0117453D01*
X0188003Y0117660D01*
X0188000Y0117867D01*
X0188000Y0141867D01*
X0188003Y0142074D01*
X0188010Y0142281D01*
X0188023Y0142487D01*
X0188040Y0142694D01*
X0188063Y0142899D01*
X0188091Y0143105D01*
X0188123Y0143309D01*
X0188161Y0143513D01*
X0188203Y0143715D01*
X0188251Y0143917D01*
X0188303Y0144117D01*
X0188360Y0144316D01*
X0188422Y0144513D01*
X0188489Y0144709D01*
X0188561Y0144903D01*
X0188637Y0145096D01*
X0188718Y0145286D01*
X0188804Y0145475D01*
X0188894Y0145661D01*
X0188988Y0145845D01*
X0189088Y0146027D01*
X0189191Y0146206D01*
X0189299Y0146383D01*
X0189411Y0146557D01*
X0189527Y0146728D01*
X0189648Y0146897D01*
X0189772Y0147062D01*
X0189901Y0147224D01*
X0190033Y0147383D01*
X0190169Y0147539D01*
X0190309Y0147692D01*
X0190453Y0147841D01*
X0190600Y0147986D01*
X0190751Y0148128D01*
X0190905Y0148266D01*
X0191063Y0148401D01*
X0191223Y0148531D01*
X0191387Y0148657D01*
X0191554Y0148780D01*
X0191724Y0148898D01*
X0191897Y0149013D01*
X0192072Y0149123D01*
X0192250Y0149228D01*
X0192431Y0149330D01*
X0192613Y0149426D01*
X0192799Y0149519D01*
X0192986Y0149607D01*
X0193176Y0149690D01*
X0193367Y0149769D01*
X0193560Y0149843D01*
X0193756Y0149912D01*
X0193952Y0149976D01*
X0194150Y0150036D01*
X0194350Y0150091D01*
X0194551Y0150141D01*
X0194753Y0150186D01*
X0194956Y0150226D01*
X0195160Y0150261D01*
X0195365Y0150291D01*
X0195570Y0150316D01*
X0195776Y0150336D01*
X0195983Y0150351D01*
X0196190Y0150361D01*
X0196397Y0150366D01*
X0196603Y0150366D01*
X0196810Y0150361D01*
X0197017Y0150351D01*
X0197224Y0150336D01*
X0197430Y0150316D01*
X0197635Y0150291D01*
X0197840Y0150261D01*
X0198044Y0150226D01*
X0198247Y0150186D01*
X0198449Y0150141D01*
X0198650Y0150091D01*
X0198850Y0150036D01*
X0199048Y0149976D01*
X0199244Y0149912D01*
X0199440Y0149843D01*
X0199633Y0149769D01*
X0199824Y0149690D01*
X0200014Y0149607D01*
X0200201Y0149519D01*
X0200387Y0149426D01*
X0200569Y0149330D01*
X0200750Y0149228D01*
X0200928Y0149123D01*
X0201103Y0149013D01*
X0201276Y0148898D01*
X0201446Y0148780D01*
X0201613Y0148657D01*
X0201777Y0148531D01*
X0201937Y0148401D01*
X0202095Y0148266D01*
X0202249Y0148128D01*
X0202400Y0147986D01*
X0202547Y0147841D01*
X0202691Y0147692D01*
X0202831Y0147539D01*
X0202967Y0147383D01*
X0203099Y0147224D01*
X0203228Y0147062D01*
X0203352Y0146897D01*
X0203473Y0146728D01*
X0203589Y0146557D01*
X0203701Y0146383D01*
X0203809Y0146206D01*
X0203912Y0146027D01*
X0204012Y0145845D01*
X0204106Y0145661D01*
X0204196Y0145475D01*
X0204282Y0145286D01*
X0204363Y0145096D01*
X0204439Y0144903D01*
X0204511Y0144709D01*
X0204578Y0144513D01*
X0204640Y0144316D01*
X0204697Y0144117D01*
X0204749Y0143917D01*
X0204797Y0143715D01*
X0204839Y0143513D01*
X0204877Y0143309D01*
X0204909Y0143105D01*
X0204937Y0142899D01*
X0204960Y0142694D01*
X0204977Y0142487D01*
X0204990Y0142281D01*
X0204997Y0142074D01*
X0205000Y0141867D01*
D17*
X0234019Y0130341D02*
X0235554Y0128807D01*
X0234019Y0130341D02*
X0238623Y0130341D01*
X0238623Y0128807D02*
X0238623Y0131876D01*
D18*
X0253254Y0031367D02*
X0269746Y0031367D01*
X0270373Y0025867D02*
X0271952Y0025867D01*
X0262627Y0025867D02*
X0260373Y0025867D01*
X0252627Y0025867D02*
X0251048Y0025867D01*
X0206500Y0017367D02*
X0206500Y0012367D01*
X0204000Y0009867D01*
X0199000Y0009867D01*
X0196500Y0012367D01*
X0194000Y0009867D01*
X0189000Y0009867D01*
X0186500Y0012367D01*
X0186500Y0017367D01*
X0189000Y0019867D01*
X0194000Y0019867D01*
X0196500Y0017367D01*
X0199000Y0019867D01*
X0204000Y0019867D01*
X0206500Y0017367D01*
D19*
X0252947Y0031558D02*
X0253512Y0031112D01*
X0253512Y0031113D02*
X0253362Y0030916D01*
X0253216Y0030715D01*
X0253076Y0030511D01*
X0252940Y0030303D01*
X0252810Y0030092D01*
X0252685Y0029878D01*
X0252565Y0029661D01*
X0252450Y0029441D01*
X0252341Y0029219D01*
X0252238Y0028994D01*
X0252140Y0028766D01*
X0252047Y0028536D01*
X0251960Y0028304D01*
X0251879Y0028070D01*
X0251804Y0027834D01*
X0251734Y0027596D01*
X0251670Y0027356D01*
X0251612Y0027115D01*
X0251560Y0026873D01*
X0251514Y0026629D01*
X0251474Y0026385D01*
X0251440Y0026139D01*
X0251412Y0025893D01*
X0251390Y0025646D01*
X0251374Y0025399D01*
X0251364Y0025151D01*
X0251360Y0024903D01*
X0251362Y0024655D01*
X0251370Y0024408D01*
X0251385Y0024160D01*
X0251405Y0023913D01*
X0251431Y0023667D01*
X0251464Y0023421D01*
X0251502Y0023176D01*
X0251546Y0022932D01*
X0251597Y0022689D01*
X0251653Y0022448D01*
X0251715Y0022208D01*
X0251783Y0021970D01*
X0251856Y0021733D01*
X0251936Y0021498D01*
X0252021Y0021265D01*
X0252112Y0021035D01*
X0252208Y0020807D01*
X0252311Y0020581D01*
X0252418Y0020357D01*
X0252531Y0020137D01*
X0252649Y0019919D01*
X0252773Y0019704D01*
X0252902Y0019492D01*
X0253036Y0019284D01*
X0253175Y0019078D01*
X0253319Y0018877D01*
X0253467Y0018679D01*
X0253621Y0018484D01*
X0253779Y0018293D01*
X0253942Y0018107D01*
X0254110Y0017924D01*
X0254282Y0017745D01*
X0254458Y0017571D01*
X0254639Y0017401D01*
X0254823Y0017236D01*
X0255012Y0017075D01*
X0255204Y0016918D01*
X0255400Y0016767D01*
X0255600Y0016620D01*
X0255803Y0016478D01*
X0256010Y0016342D01*
X0256220Y0016210D01*
X0256433Y0016084D01*
X0256649Y0015962D01*
X0256869Y0015847D01*
X0257090Y0015736D01*
X0257315Y0015631D01*
X0257542Y0015531D01*
X0257771Y0015437D01*
X0258003Y0015349D01*
X0258237Y0015266D01*
X0258472Y0015190D01*
X0258260Y0014502D01*
X0258007Y0014584D01*
X0257757Y0014672D01*
X0257509Y0014767D01*
X0257263Y0014868D01*
X0257020Y0014974D01*
X0256779Y0015087D01*
X0256542Y0015205D01*
X0256307Y0015329D01*
X0256075Y0015459D01*
X0255847Y0015594D01*
X0255622Y0015735D01*
X0255400Y0015882D01*
X0255183Y0016034D01*
X0254969Y0016191D01*
X0254758Y0016353D01*
X0254552Y0016520D01*
X0254350Y0016693D01*
X0254152Y0016870D01*
X0253959Y0017052D01*
X0253770Y0017239D01*
X0253586Y0017430D01*
X0253407Y0017626D01*
X0253232Y0017826D01*
X0253062Y0018030D01*
X0252898Y0018238D01*
X0252738Y0018451D01*
X0252584Y0018667D01*
X0252435Y0018887D01*
X0252292Y0019110D01*
X0252154Y0019337D01*
X0252021Y0019567D01*
X0251894Y0019800D01*
X0251773Y0020037D01*
X0251658Y0020276D01*
X0251549Y0020518D01*
X0251445Y0020763D01*
X0251348Y0021010D01*
X0251257Y0021259D01*
X0251172Y0021510D01*
X0251093Y0021764D01*
X0251020Y0022019D01*
X0250954Y0022276D01*
X0250893Y0022535D01*
X0250839Y0022795D01*
X0250792Y0023056D01*
X0250751Y0023319D01*
X0250716Y0023582D01*
X0250688Y0023846D01*
X0250666Y0024111D01*
X0250651Y0024376D01*
X0250642Y0024641D01*
X0250640Y0024907D01*
X0250644Y0025172D01*
X0250655Y0025438D01*
X0250672Y0025702D01*
X0250696Y0025967D01*
X0250726Y0026231D01*
X0250763Y0026494D01*
X0250806Y0026756D01*
X0250855Y0027017D01*
X0250911Y0027276D01*
X0250973Y0027535D01*
X0251041Y0027791D01*
X0251116Y0028046D01*
X0251197Y0028299D01*
X0251284Y0028550D01*
X0251377Y0028798D01*
X0251476Y0029045D01*
X0251581Y0029289D01*
X0251692Y0029530D01*
X0251809Y0029768D01*
X0251932Y0030004D01*
X0252060Y0030236D01*
X0252194Y0030465D01*
X0252334Y0030691D01*
X0252479Y0030914D01*
X0252630Y0031132D01*
X0252785Y0031347D01*
X0252946Y0031558D01*
X0253005Y0031512D01*
X0252845Y0031302D01*
X0252691Y0031089D01*
X0252541Y0030872D01*
X0252397Y0030651D01*
X0252258Y0030426D01*
X0252125Y0030199D01*
X0251998Y0029968D01*
X0251876Y0029734D01*
X0251760Y0029497D01*
X0251649Y0029258D01*
X0251545Y0029016D01*
X0251446Y0028771D01*
X0251354Y0028524D01*
X0251268Y0028275D01*
X0251187Y0028024D01*
X0251113Y0027771D01*
X0251045Y0027516D01*
X0250984Y0027260D01*
X0250928Y0027002D01*
X0250879Y0026743D01*
X0250837Y0026482D01*
X0250800Y0026221D01*
X0250770Y0025959D01*
X0250747Y0025697D01*
X0250730Y0025433D01*
X0250719Y0025170D01*
X0250715Y0024906D01*
X0250717Y0024643D01*
X0250726Y0024379D01*
X0250741Y0024116D01*
X0250763Y0023853D01*
X0250791Y0023591D01*
X0250825Y0023329D01*
X0250866Y0023069D01*
X0250913Y0022809D01*
X0250967Y0022551D01*
X0251026Y0022294D01*
X0251092Y0022039D01*
X0251165Y0021785D01*
X0251243Y0021534D01*
X0251328Y0021284D01*
X0251418Y0021036D01*
X0251515Y0020791D01*
X0251618Y0020548D01*
X0251726Y0020308D01*
X0251841Y0020070D01*
X0251961Y0019835D01*
X0252087Y0019604D01*
X0252218Y0019375D01*
X0252355Y0019150D01*
X0252498Y0018928D01*
X0252645Y0018710D01*
X0252799Y0018495D01*
X0252957Y0018284D01*
X0253121Y0018077D01*
X0253289Y0017874D01*
X0253462Y0017676D01*
X0253641Y0017481D01*
X0253824Y0017291D01*
X0254011Y0017106D01*
X0254203Y0016925D01*
X0254399Y0016749D01*
X0254600Y0016578D01*
X0254805Y0016412D01*
X0255013Y0016251D01*
X0255226Y0016095D01*
X0255442Y0015944D01*
X0255662Y0015798D01*
X0255886Y0015658D01*
X0256113Y0015524D01*
X0256343Y0015395D01*
X0256576Y0015272D01*
X0256812Y0015154D01*
X0257051Y0015043D01*
X0257292Y0014937D01*
X0257536Y0014837D01*
X0257783Y0014743D01*
X0258031Y0014655D01*
X0258282Y0014573D01*
X0258304Y0014645D01*
X0258055Y0014726D01*
X0257808Y0014813D01*
X0257564Y0014907D01*
X0257321Y0015006D01*
X0257081Y0015111D01*
X0256844Y0015222D01*
X0256610Y0015339D01*
X0256378Y0015461D01*
X0256150Y0015589D01*
X0255925Y0015723D01*
X0255703Y0015862D01*
X0255484Y0016006D01*
X0255270Y0016156D01*
X0255058Y0016311D01*
X0254851Y0016471D01*
X0254648Y0016636D01*
X0254449Y0016806D01*
X0254254Y0016981D01*
X0254063Y0017160D01*
X0253877Y0017344D01*
X0253695Y0017533D01*
X0253518Y0017726D01*
X0253346Y0017923D01*
X0253179Y0018125D01*
X0253016Y0018330D01*
X0252859Y0018539D01*
X0252707Y0018752D01*
X0252560Y0018969D01*
X0252419Y0019190D01*
X0252283Y0019413D01*
X0252152Y0019640D01*
X0252027Y0019870D01*
X0251908Y0020103D01*
X0251794Y0020339D01*
X0251686Y0020578D01*
X0251584Y0020819D01*
X0251488Y0021063D01*
X0251398Y0021309D01*
X0251314Y0021557D01*
X0251236Y0021807D01*
X0251165Y0022059D01*
X0251099Y0022312D01*
X0251040Y0022567D01*
X0250987Y0022824D01*
X0250940Y0023081D01*
X0250899Y0023340D01*
X0250865Y0023600D01*
X0250837Y0023860D01*
X0250816Y0024121D01*
X0250801Y0024382D01*
X0250792Y0024644D01*
X0250790Y0024906D01*
X0250794Y0025168D01*
X0250805Y0025429D01*
X0250822Y0025691D01*
X0250845Y0025952D01*
X0250875Y0026212D01*
X0250911Y0026471D01*
X0250953Y0026729D01*
X0251002Y0026987D01*
X0251057Y0027243D01*
X0251118Y0027497D01*
X0251185Y0027750D01*
X0251259Y0028002D01*
X0251339Y0028251D01*
X0251425Y0028499D01*
X0251516Y0028744D01*
X0251614Y0028987D01*
X0251718Y0029227D01*
X0251827Y0029465D01*
X0251943Y0029700D01*
X0252064Y0029932D01*
X0252190Y0030162D01*
X0252322Y0030388D01*
X0252460Y0030610D01*
X0252603Y0030830D01*
X0252752Y0031045D01*
X0252905Y0031257D01*
X0253064Y0031466D01*
X0253123Y0031419D01*
X0252965Y0031212D01*
X0252813Y0031002D01*
X0252665Y0030788D01*
X0252523Y0030570D01*
X0252387Y0030349D01*
X0252255Y0030124D01*
X0252130Y0029897D01*
X0252009Y0029666D01*
X0251895Y0029433D01*
X0251786Y0029196D01*
X0251683Y0028958D01*
X0251586Y0028717D01*
X0251495Y0028473D01*
X0251410Y0028227D01*
X0251331Y0027980D01*
X0251258Y0027730D01*
X0251191Y0027479D01*
X0251130Y0027226D01*
X0251075Y0026972D01*
X0251027Y0026716D01*
X0250985Y0026460D01*
X0250949Y0026202D01*
X0250920Y0025944D01*
X0250896Y0025685D01*
X0250880Y0025425D01*
X0250869Y0025166D01*
X0250865Y0024906D01*
X0250867Y0024646D01*
X0250876Y0024386D01*
X0250891Y0024126D01*
X0250912Y0023867D01*
X0250940Y0023608D01*
X0250974Y0023351D01*
X0251014Y0023094D01*
X0251060Y0022838D01*
X0251113Y0022583D01*
X0251172Y0022330D01*
X0251237Y0022078D01*
X0251308Y0021828D01*
X0251386Y0021580D01*
X0251469Y0021334D01*
X0251558Y0021090D01*
X0251654Y0020848D01*
X0251755Y0020608D01*
X0251862Y0020371D01*
X0251975Y0020137D01*
X0252093Y0019905D01*
X0252217Y0019677D01*
X0252347Y0019452D01*
X0252482Y0019229D01*
X0252623Y0019011D01*
X0252769Y0018795D01*
X0252920Y0018584D01*
X0253076Y0018376D01*
X0253237Y0018172D01*
X0253403Y0017972D01*
X0253574Y0017776D01*
X0253750Y0017584D01*
X0253930Y0017397D01*
X0254115Y0017214D01*
X0254304Y0017036D01*
X0254498Y0016862D01*
X0254696Y0016694D01*
X0254898Y0016530D01*
X0255103Y0016371D01*
X0255313Y0016217D01*
X0255526Y0016068D01*
X0255743Y0015925D01*
X0255964Y0015787D01*
X0256187Y0015654D01*
X0256414Y0015527D01*
X0256644Y0015405D01*
X0256877Y0015290D01*
X0257112Y0015179D01*
X0257350Y0015075D01*
X0257591Y0014976D01*
X0257834Y0014884D01*
X0258079Y0014797D01*
X0258326Y0014717D01*
X0258348Y0014788D01*
X0258103Y0014868D01*
X0257860Y0014954D01*
X0257618Y0015046D01*
X0257379Y0015144D01*
X0257143Y0015248D01*
X0256909Y0015357D01*
X0256678Y0015472D01*
X0256450Y0015593D01*
X0256224Y0015719D01*
X0256002Y0015851D01*
X0255784Y0015988D01*
X0255568Y0016130D01*
X0255357Y0016278D01*
X0255148Y0016431D01*
X0254944Y0016589D01*
X0254744Y0016751D01*
X0254547Y0016919D01*
X0254355Y0017091D01*
X0254167Y0017268D01*
X0253983Y0017450D01*
X0253804Y0017636D01*
X0253630Y0017826D01*
X0253460Y0018021D01*
X0253295Y0018219D01*
X0253135Y0018422D01*
X0252980Y0018628D01*
X0252830Y0018838D01*
X0252685Y0019052D01*
X0252546Y0019269D01*
X0252412Y0019490D01*
X0252283Y0019714D01*
X0252160Y0019940D01*
X0252042Y0020170D01*
X0251930Y0020403D01*
X0251824Y0020638D01*
X0251723Y0020876D01*
X0251629Y0021116D01*
X0251540Y0021359D01*
X0251457Y0021603D01*
X0251380Y0021850D01*
X0251310Y0022098D01*
X0251245Y0022348D01*
X0251186Y0022599D01*
X0251134Y0022852D01*
X0251088Y0023106D01*
X0251048Y0023361D01*
X0251014Y0023617D01*
X0250987Y0023874D01*
X0250966Y0024131D01*
X0250951Y0024389D01*
X0250942Y0024647D01*
X0250940Y0024905D01*
X0250944Y0025163D01*
X0250955Y0025421D01*
X0250971Y0025679D01*
X0250994Y0025936D01*
X0251024Y0026193D01*
X0251059Y0026448D01*
X0251101Y0026703D01*
X0251149Y0026957D01*
X0251203Y0027209D01*
X0251263Y0027460D01*
X0251330Y0027710D01*
X0251402Y0027958D01*
X0251481Y0028203D01*
X0251565Y0028447D01*
X0251656Y0028689D01*
X0251752Y0028929D01*
X0251855Y0029166D01*
X0251963Y0029400D01*
X0252076Y0029632D01*
X0252196Y0029861D01*
X0252320Y0030087D01*
X0252451Y0030310D01*
X0252587Y0030529D01*
X0252728Y0030746D01*
X0252874Y0030958D01*
X0253025Y0031167D01*
X0253182Y0031373D01*
X0253241Y0031326D01*
X0253085Y0031122D01*
X0252935Y0030915D01*
X0252790Y0030704D01*
X0252650Y0030489D01*
X0252515Y0030271D01*
X0252385Y0030050D01*
X0252262Y0029825D01*
X0252143Y0029598D01*
X0252030Y0029368D01*
X0251923Y0029135D01*
X0251822Y0028900D01*
X0251726Y0028662D01*
X0251636Y0028422D01*
X0251552Y0028180D01*
X0251474Y0027935D01*
X0251402Y0027689D01*
X0251336Y0027442D01*
X0251276Y0027192D01*
X0251222Y0026942D01*
X0251175Y0026690D01*
X0251133Y0026437D01*
X0251098Y0026183D01*
X0251069Y0025928D01*
X0251046Y0025673D01*
X0251029Y0025417D01*
X0251019Y0025161D01*
X0251015Y0024905D01*
X0251017Y0024649D01*
X0251026Y0024392D01*
X0251040Y0024136D01*
X0251061Y0023881D01*
X0251089Y0023626D01*
X0251122Y0023372D01*
X0251162Y0023119D01*
X0251208Y0022866D01*
X0251260Y0022615D01*
X0251318Y0022366D01*
X0251382Y0022118D01*
X0251452Y0021871D01*
X0251528Y0021626D01*
X0251611Y0021384D01*
X0251699Y0021143D01*
X0251793Y0020904D01*
X0251892Y0020668D01*
X0251998Y0020435D01*
X0252109Y0020204D01*
X0252226Y0019976D01*
X0252348Y0019750D01*
X0252476Y0019528D01*
X0252609Y0019309D01*
X0252748Y0019093D01*
X0252892Y0018881D01*
X0253040Y0018672D01*
X0253194Y0018468D01*
X0253353Y0018266D01*
X0253517Y0018069D01*
X0253686Y0017876D01*
X0253859Y0017687D01*
X0254037Y0017503D01*
X0254219Y0017322D01*
X0254406Y0017147D01*
X0254596Y0016975D01*
X0254791Y0016809D01*
X0254990Y0016647D01*
X0255193Y0016491D01*
X0255400Y0016339D01*
X0255610Y0016193D01*
X0255824Y0016051D01*
X0256041Y0015915D01*
X0256262Y0015784D01*
X0256485Y0015659D01*
X0256712Y0015539D01*
X0256941Y0015425D01*
X0257174Y0015316D01*
X0257408Y0015213D01*
X0257646Y0015116D01*
X0257885Y0015025D01*
X0258127Y0014939D01*
X0258371Y0014860D01*
X0258393Y0014932D01*
X0258151Y0015011D01*
X0257911Y0015095D01*
X0257673Y0015186D01*
X0257437Y0015282D01*
X0257204Y0015385D01*
X0256974Y0015492D01*
X0256746Y0015606D01*
X0256521Y0015725D01*
X0256299Y0015849D01*
X0256080Y0015979D01*
X0255865Y0016114D01*
X0255652Y0016255D01*
X0255443Y0016400D01*
X0255238Y0016551D01*
X0255037Y0016706D01*
X0254839Y0016867D01*
X0254646Y0017032D01*
X0254456Y0017202D01*
X0254271Y0017376D01*
X0254090Y0017555D01*
X0253914Y0017739D01*
X0253742Y0017926D01*
X0253574Y0018118D01*
X0253412Y0018314D01*
X0253254Y0018513D01*
X0253101Y0018717D01*
X0252953Y0018924D01*
X0252810Y0019135D01*
X0252673Y0019349D01*
X0252541Y0019566D01*
X0252414Y0019787D01*
X0252292Y0020011D01*
X0252176Y0020237D01*
X0252066Y0020466D01*
X0251961Y0020698D01*
X0251862Y0020933D01*
X0251769Y0021170D01*
X0251681Y0021409D01*
X0251600Y0021650D01*
X0251524Y0021893D01*
X0251454Y0022137D01*
X0251391Y0022384D01*
X0251333Y0022632D01*
X0251281Y0022881D01*
X0251236Y0023131D01*
X0251196Y0023383D01*
X0251163Y0023635D01*
X0251136Y0023888D01*
X0251115Y0024142D01*
X0251101Y0024396D01*
X0251092Y0024650D01*
X0251090Y0024905D01*
X0251094Y0025159D01*
X0251104Y0025413D01*
X0251121Y0025667D01*
X0251143Y0025921D01*
X0251172Y0026174D01*
X0251207Y0026426D01*
X0251249Y0026677D01*
X0251296Y0026927D01*
X0251349Y0027176D01*
X0251409Y0027423D01*
X0251474Y0027669D01*
X0251546Y0027913D01*
X0251623Y0028156D01*
X0251706Y0028396D01*
X0251796Y0028635D01*
X0251891Y0028871D01*
X0251991Y0029104D01*
X0252098Y0029335D01*
X0252210Y0029564D01*
X0252327Y0029790D01*
X0252451Y0030012D01*
X0252579Y0030232D01*
X0252713Y0030449D01*
X0252852Y0030662D01*
X0252996Y0030871D01*
X0253145Y0031077D01*
X0253300Y0031280D01*
X0253359Y0031233D01*
X0253206Y0031033D01*
X0253057Y0030828D01*
X0252914Y0030620D01*
X0252776Y0030408D01*
X0252643Y0030193D01*
X0252516Y0029975D01*
X0252393Y0029754D01*
X0252277Y0029530D01*
X0252165Y0029303D01*
X0252060Y0029074D01*
X0251960Y0028842D01*
X0251866Y0028607D01*
X0251777Y0028371D01*
X0251694Y0028132D01*
X0251617Y0027891D01*
X0251546Y0027649D01*
X0251481Y0027405D01*
X0251422Y0027159D01*
X0251369Y0026912D01*
X0251322Y0026664D01*
X0251281Y0026414D01*
X0251247Y0026164D01*
X0251218Y0025913D01*
X0251196Y0025661D01*
X0251179Y0025409D01*
X0251169Y0025157D01*
X0251165Y0024904D01*
X0251167Y0024652D01*
X0251176Y0024399D01*
X0251190Y0024147D01*
X0251211Y0023895D01*
X0251238Y0023644D01*
X0251271Y0023393D01*
X0251310Y0023144D01*
X0251355Y0022895D01*
X0251406Y0022648D01*
X0251463Y0022402D01*
X0251527Y0022157D01*
X0251596Y0021914D01*
X0251671Y0021673D01*
X0251752Y0021433D01*
X0251839Y0021196D01*
X0251931Y0020961D01*
X0252030Y0020728D01*
X0252134Y0020498D01*
X0252243Y0020270D01*
X0252359Y0020046D01*
X0252479Y0019824D01*
X0252605Y0019605D01*
X0252736Y0019389D01*
X0252873Y0019176D01*
X0253015Y0018967D01*
X0253161Y0018761D01*
X0253313Y0018559D01*
X0253470Y0018361D01*
X0253631Y0018167D01*
X0253797Y0017976D01*
X0253968Y0017790D01*
X0254143Y0017608D01*
X0254323Y0017430D01*
X0254507Y0017257D01*
X0254695Y0017089D01*
X0254887Y0016925D01*
X0255083Y0016765D01*
X0255283Y0016611D01*
X0255487Y0016461D01*
X0255694Y0016317D01*
X0255905Y0016177D01*
X0256119Y0016043D01*
X0256336Y0015914D01*
X0256557Y0015791D01*
X0256780Y0015673D01*
X0257006Y0015560D01*
X0257235Y0015453D01*
X0257466Y0015352D01*
X0257700Y0015256D01*
X0257936Y0015166D01*
X0258175Y0015082D01*
X0258415Y0015003D01*
X0258437Y0015075D01*
X0258198Y0015153D01*
X0257962Y0015236D01*
X0257728Y0015326D01*
X0257495Y0015421D01*
X0257266Y0015521D01*
X0257039Y0015628D01*
X0256814Y0015740D01*
X0256592Y0015857D01*
X0256374Y0015979D01*
X0256158Y0016107D01*
X0255945Y0016241D01*
X0255736Y0016379D01*
X0255530Y0016522D01*
X0255328Y0016671D01*
X0255130Y0016824D01*
X0254935Y0016982D01*
X0254744Y0017145D01*
X0254558Y0017313D01*
X0254375Y0017485D01*
X0254197Y0017661D01*
X0254023Y0017842D01*
X0253853Y0018026D01*
X0253688Y0018215D01*
X0253528Y0018408D01*
X0253372Y0018605D01*
X0253222Y0018806D01*
X0253076Y0019010D01*
X0252936Y0019217D01*
X0252800Y0019429D01*
X0252670Y0019643D01*
X0252545Y0019860D01*
X0252425Y0020081D01*
X0252311Y0020304D01*
X0252202Y0020530D01*
X0252099Y0020758D01*
X0252001Y0020989D01*
X0251909Y0021223D01*
X0251823Y0021458D01*
X0251742Y0021696D01*
X0251668Y0021935D01*
X0251599Y0022177D01*
X0251536Y0022419D01*
X0251479Y0022664D01*
X0251429Y0022909D01*
X0251384Y0023156D01*
X0251345Y0023404D01*
X0251312Y0023653D01*
X0251285Y0023902D01*
X0251265Y0024152D01*
X0251251Y0024402D01*
X0251242Y0024653D01*
X0251240Y0024904D01*
X0251244Y0025155D01*
X0251254Y0025405D01*
X0251270Y0025655D01*
X0251293Y0025905D01*
X0251321Y0026154D01*
X0251356Y0026403D01*
X0251396Y0026650D01*
X0251443Y0026897D01*
X0251495Y0027142D01*
X0251554Y0027386D01*
X0251619Y0027628D01*
X0251689Y0027869D01*
X0251765Y0028108D01*
X0251847Y0028345D01*
X0251935Y0028580D01*
X0252029Y0028813D01*
X0252128Y0029043D01*
X0252233Y0029271D01*
X0252344Y0029496D01*
X0252459Y0029718D01*
X0252581Y0029938D01*
X0252707Y0030154D01*
X0252839Y0030368D01*
X0252976Y0030578D01*
X0253118Y0030784D01*
X0253266Y0030988D01*
X0253418Y0031187D01*
X0253477Y0031141D01*
X0253326Y0030943D01*
X0253179Y0030741D01*
X0253038Y0030536D01*
X0252902Y0030327D01*
X0252771Y0030116D01*
X0252646Y0029901D01*
X0252525Y0029683D01*
X0252410Y0029462D01*
X0252301Y0029238D01*
X0252197Y0029012D01*
X0252098Y0028784D01*
X0252005Y0028553D01*
X0251918Y0028319D01*
X0251836Y0028084D01*
X0251761Y0027847D01*
X0251691Y0027608D01*
X0251627Y0027367D01*
X0251569Y0027125D01*
X0251516Y0026882D01*
X0251470Y0026637D01*
X0251430Y0026392D01*
X0251395Y0026145D01*
X0251367Y0025898D01*
X0251345Y0025650D01*
X0251329Y0025401D01*
X0251319Y0025152D01*
X0251315Y0024903D01*
X0251317Y0024654D01*
X0251325Y0024406D01*
X0251340Y0024157D01*
X0251360Y0023909D01*
X0251387Y0023661D01*
X0251419Y0023415D01*
X0251458Y0023169D01*
X0251502Y0022924D01*
X0251553Y0022680D01*
X0251609Y0022437D01*
X0251671Y0022196D01*
X0251740Y0021957D01*
X0251814Y0021719D01*
X0251894Y0021483D01*
X0251979Y0021249D01*
X0252070Y0021018D01*
X0252167Y0020789D01*
X0252270Y0020562D01*
X0252378Y0020337D01*
X0252491Y0020116D01*
X0252610Y0019897D01*
X0252734Y0019681D01*
X0252864Y0019468D01*
X0252998Y0019259D01*
X0253138Y0019053D01*
X0253282Y0018850D01*
X0253432Y0018651D01*
X0253586Y0018456D01*
X0253745Y0018264D01*
X0253909Y0018077D01*
X0254077Y0017893D01*
X0254250Y0017714D01*
X0254427Y0017539D01*
X0254608Y0017368D01*
X0254794Y0017202D01*
X0254983Y0017040D01*
X0255176Y0016883D01*
X0255373Y0016731D01*
X0255574Y0016584D01*
X0255778Y0016441D01*
X0255986Y0016304D01*
X0256197Y0016172D01*
X0256411Y0016045D01*
X0256628Y0015923D01*
X0256848Y0015806D01*
X0257071Y0015695D01*
X0257296Y0015590D01*
X0257525Y0015490D01*
X0257755Y0015396D01*
X0257988Y0015307D01*
X0258222Y0015224D01*
X0258459Y0015147D01*
X0264739Y0014502D02*
X0264527Y0015190D01*
X0264528Y0015190D02*
X0264763Y0015266D01*
X0264997Y0015349D01*
X0265229Y0015437D01*
X0265458Y0015531D01*
X0265685Y0015631D01*
X0265909Y0015736D01*
X0266131Y0015846D01*
X0266350Y0015962D01*
X0266567Y0016084D01*
X0266780Y0016210D01*
X0266990Y0016342D01*
X0267197Y0016478D01*
X0267400Y0016620D01*
X0267600Y0016767D01*
X0267796Y0016918D01*
X0267988Y0017075D01*
X0268177Y0017236D01*
X0268361Y0017401D01*
X0268542Y0017571D01*
X0268718Y0017745D01*
X0268890Y0017924D01*
X0269057Y0018106D01*
X0269220Y0018293D01*
X0269379Y0018484D01*
X0269532Y0018678D01*
X0269681Y0018877D01*
X0269825Y0019078D01*
X0269964Y0019284D01*
X0270098Y0019492D01*
X0270227Y0019704D01*
X0270351Y0019919D01*
X0270469Y0020137D01*
X0270582Y0020357D01*
X0270689Y0020581D01*
X0270791Y0020806D01*
X0270888Y0021035D01*
X0270979Y0021265D01*
X0271064Y0021498D01*
X0271143Y0021733D01*
X0271217Y0021970D01*
X0271285Y0022208D01*
X0271347Y0022448D01*
X0271403Y0022689D01*
X0271454Y0022932D01*
X0271498Y0023176D01*
X0271536Y0023421D01*
X0271569Y0023667D01*
X0271595Y0023913D01*
X0271615Y0024160D01*
X0271630Y0024407D01*
X0271638Y0024655D01*
X0271640Y0024903D01*
X0271636Y0025151D01*
X0271626Y0025399D01*
X0271610Y0025646D01*
X0271588Y0025893D01*
X0271560Y0026139D01*
X0271526Y0026385D01*
X0271486Y0026629D01*
X0271440Y0026873D01*
X0271388Y0027115D01*
X0271330Y0027356D01*
X0271266Y0027596D01*
X0271196Y0027833D01*
X0271121Y0028070D01*
X0271040Y0028304D01*
X0270953Y0028536D01*
X0270860Y0028766D01*
X0270762Y0028994D01*
X0270659Y0029219D01*
X0270550Y0029441D01*
X0270435Y0029661D01*
X0270315Y0029878D01*
X0270190Y0030092D01*
X0270060Y0030303D01*
X0269924Y0030510D01*
X0269784Y0030715D01*
X0269639Y0030915D01*
X0269488Y0031113D01*
X0270053Y0031558D01*
X0270054Y0031558D01*
X0270215Y0031347D01*
X0270371Y0031132D01*
X0270521Y0030913D01*
X0270666Y0030691D01*
X0270806Y0030465D01*
X0270940Y0030236D01*
X0271068Y0030004D01*
X0271191Y0029768D01*
X0271308Y0029530D01*
X0271419Y0029288D01*
X0271524Y0029045D01*
X0271623Y0028798D01*
X0271717Y0028550D01*
X0271804Y0028299D01*
X0271884Y0028046D01*
X0271959Y0027791D01*
X0272027Y0027534D01*
X0272089Y0027276D01*
X0272145Y0027017D01*
X0272195Y0026756D01*
X0272237Y0026494D01*
X0272274Y0026231D01*
X0272304Y0025967D01*
X0272328Y0025702D01*
X0272345Y0025437D01*
X0272356Y0025172D01*
X0272360Y0024907D01*
X0272358Y0024641D01*
X0272349Y0024376D01*
X0272334Y0024110D01*
X0272312Y0023846D01*
X0272284Y0023582D01*
X0272249Y0023319D01*
X0272208Y0023056D01*
X0272160Y0022795D01*
X0272107Y0022535D01*
X0272046Y0022276D01*
X0271980Y0022019D01*
X0271907Y0021764D01*
X0271828Y0021510D01*
X0271743Y0021259D01*
X0271652Y0021009D01*
X0271554Y0020762D01*
X0271451Y0020518D01*
X0271342Y0020276D01*
X0271227Y0020037D01*
X0271106Y0019800D01*
X0270979Y0019567D01*
X0270846Y0019337D01*
X0270708Y0019110D01*
X0270565Y0018886D01*
X0270416Y0018667D01*
X0270262Y0018450D01*
X0270102Y0018238D01*
X0269938Y0018030D01*
X0269768Y0017826D01*
X0269593Y0017626D01*
X0269414Y0017430D01*
X0269230Y0017239D01*
X0269041Y0017052D01*
X0268847Y0016870D01*
X0268650Y0016693D01*
X0268448Y0016520D01*
X0268242Y0016353D01*
X0268031Y0016191D01*
X0267817Y0016033D01*
X0267599Y0015882D01*
X0267378Y0015735D01*
X0267153Y0015594D01*
X0266925Y0015459D01*
X0266693Y0015329D01*
X0266458Y0015205D01*
X0266220Y0015087D01*
X0265980Y0014974D01*
X0265737Y0014867D01*
X0265491Y0014767D01*
X0265243Y0014672D01*
X0264992Y0014584D01*
X0264740Y0014502D01*
X0264718Y0014573D01*
X0264969Y0014655D01*
X0265217Y0014743D01*
X0265464Y0014837D01*
X0265708Y0014937D01*
X0265949Y0015042D01*
X0266188Y0015154D01*
X0266424Y0015272D01*
X0266657Y0015395D01*
X0266887Y0015524D01*
X0267114Y0015658D01*
X0267338Y0015798D01*
X0267557Y0015944D01*
X0267774Y0016095D01*
X0267986Y0016251D01*
X0268195Y0016412D01*
X0268400Y0016578D01*
X0268600Y0016749D01*
X0268797Y0016925D01*
X0268989Y0017106D01*
X0269176Y0017291D01*
X0269359Y0017481D01*
X0269537Y0017676D01*
X0269711Y0017874D01*
X0269879Y0018077D01*
X0270043Y0018284D01*
X0270201Y0018495D01*
X0270354Y0018709D01*
X0270502Y0018928D01*
X0270645Y0019150D01*
X0270782Y0019375D01*
X0270913Y0019604D01*
X0271039Y0019835D01*
X0271159Y0020070D01*
X0271274Y0020308D01*
X0271382Y0020548D01*
X0271485Y0020791D01*
X0271582Y0021036D01*
X0271672Y0021284D01*
X0271757Y0021533D01*
X0271835Y0021785D01*
X0271908Y0022039D01*
X0271974Y0022294D01*
X0272033Y0022551D01*
X0272087Y0022809D01*
X0272134Y0023069D01*
X0272175Y0023329D01*
X0272209Y0023591D01*
X0272237Y0023853D01*
X0272259Y0024116D01*
X0272274Y0024379D01*
X0272283Y0024642D01*
X0272285Y0024906D01*
X0272281Y0025170D01*
X0272270Y0025433D01*
X0272253Y0025696D01*
X0272230Y0025959D01*
X0272200Y0026221D01*
X0272163Y0026482D01*
X0272121Y0026742D01*
X0272072Y0027002D01*
X0272016Y0027259D01*
X0271955Y0027516D01*
X0271887Y0027771D01*
X0271813Y0028024D01*
X0271732Y0028275D01*
X0271646Y0028524D01*
X0271554Y0028771D01*
X0271455Y0029016D01*
X0271351Y0029258D01*
X0271240Y0029497D01*
X0271124Y0029734D01*
X0271002Y0029968D01*
X0270875Y0030199D01*
X0270742Y0030426D01*
X0270603Y0030651D01*
X0270459Y0030871D01*
X0270310Y0031089D01*
X0270155Y0031302D01*
X0269995Y0031512D01*
X0269936Y0031465D01*
X0270095Y0031257D01*
X0270248Y0031045D01*
X0270397Y0030829D01*
X0270540Y0030610D01*
X0270678Y0030387D01*
X0270810Y0030161D01*
X0270937Y0029932D01*
X0271058Y0029700D01*
X0271173Y0029465D01*
X0271282Y0029227D01*
X0271386Y0028987D01*
X0271484Y0028744D01*
X0271576Y0028498D01*
X0271661Y0028251D01*
X0271741Y0028002D01*
X0271815Y0027750D01*
X0271882Y0027497D01*
X0271943Y0027243D01*
X0271998Y0026987D01*
X0272047Y0026729D01*
X0272089Y0026471D01*
X0272125Y0026212D01*
X0272155Y0025951D01*
X0272178Y0025691D01*
X0272195Y0025429D01*
X0272206Y0025168D01*
X0272210Y0024906D01*
X0272208Y0024644D01*
X0272199Y0024382D01*
X0272184Y0024121D01*
X0272163Y0023860D01*
X0272135Y0023599D01*
X0272101Y0023340D01*
X0272060Y0023081D01*
X0272013Y0022823D01*
X0271960Y0022567D01*
X0271901Y0022312D01*
X0271835Y0022059D01*
X0271763Y0021807D01*
X0271686Y0021557D01*
X0271602Y0021309D01*
X0271512Y0021063D01*
X0271416Y0020819D01*
X0271314Y0020578D01*
X0271206Y0020339D01*
X0271092Y0020103D01*
X0270973Y0019870D01*
X0270848Y0019640D01*
X0270717Y0019413D01*
X0270581Y0019189D01*
X0270440Y0018969D01*
X0270293Y0018752D01*
X0270141Y0018539D01*
X0269984Y0018330D01*
X0269821Y0018124D01*
X0269654Y0017923D01*
X0269482Y0017726D01*
X0269305Y0017533D01*
X0269123Y0017344D01*
X0268937Y0017160D01*
X0268746Y0016980D01*
X0268551Y0016806D01*
X0268352Y0016636D01*
X0268149Y0016471D01*
X0267941Y0016311D01*
X0267730Y0016156D01*
X0267516Y0016006D01*
X0267297Y0015862D01*
X0267075Y0015723D01*
X0266850Y0015589D01*
X0266622Y0015461D01*
X0266390Y0015339D01*
X0266156Y0015222D01*
X0265918Y0015111D01*
X0265679Y0015006D01*
X0265436Y0014907D01*
X0265192Y0014813D01*
X0264945Y0014726D01*
X0264696Y0014645D01*
X0264674Y0014717D01*
X0264921Y0014797D01*
X0265166Y0014884D01*
X0265409Y0014976D01*
X0265650Y0015075D01*
X0265888Y0015179D01*
X0266123Y0015289D01*
X0266356Y0015405D01*
X0266586Y0015527D01*
X0266813Y0015654D01*
X0267036Y0015787D01*
X0267257Y0015925D01*
X0267474Y0016068D01*
X0267687Y0016217D01*
X0267896Y0016371D01*
X0268102Y0016530D01*
X0268304Y0016693D01*
X0268502Y0016862D01*
X0268696Y0017036D01*
X0268885Y0017214D01*
X0269070Y0017397D01*
X0269250Y0017584D01*
X0269426Y0017776D01*
X0269597Y0017972D01*
X0269763Y0018172D01*
X0269924Y0018376D01*
X0270080Y0018584D01*
X0270231Y0018795D01*
X0270377Y0019011D01*
X0270518Y0019229D01*
X0270653Y0019451D01*
X0270783Y0019677D01*
X0270907Y0019905D01*
X0271025Y0020137D01*
X0271138Y0020371D01*
X0271245Y0020608D01*
X0271346Y0020848D01*
X0271441Y0021089D01*
X0271531Y0021334D01*
X0271614Y0021580D01*
X0271692Y0021828D01*
X0271763Y0022078D01*
X0271828Y0022330D01*
X0271887Y0022583D01*
X0271940Y0022838D01*
X0271986Y0023094D01*
X0272026Y0023350D01*
X0272060Y0023608D01*
X0272088Y0023867D01*
X0272109Y0024126D01*
X0272124Y0024386D01*
X0272133Y0024645D01*
X0272135Y0024905D01*
X0272131Y0025165D01*
X0272120Y0025425D01*
X0272104Y0025685D01*
X0272080Y0025944D01*
X0272051Y0026202D01*
X0272015Y0026460D01*
X0271973Y0026716D01*
X0271925Y0026972D01*
X0271870Y0027226D01*
X0271809Y0027479D01*
X0271742Y0027730D01*
X0271669Y0027979D01*
X0271590Y0028227D01*
X0271505Y0028473D01*
X0271414Y0028716D01*
X0271317Y0028958D01*
X0271214Y0029196D01*
X0271105Y0029432D01*
X0270991Y0029666D01*
X0270871Y0029897D01*
X0270745Y0030124D01*
X0270613Y0030349D01*
X0270477Y0030570D01*
X0270335Y0030787D01*
X0270187Y0031002D01*
X0270035Y0031212D01*
X0269877Y0031419D01*
X0269818Y0031373D01*
X0269975Y0031167D01*
X0270126Y0030958D01*
X0270273Y0030745D01*
X0270414Y0030529D01*
X0270549Y0030310D01*
X0270680Y0030087D01*
X0270805Y0029861D01*
X0270924Y0029632D01*
X0271038Y0029400D01*
X0271146Y0029166D01*
X0271248Y0028929D01*
X0271344Y0028689D01*
X0271435Y0028447D01*
X0271519Y0028203D01*
X0271598Y0027957D01*
X0271670Y0027710D01*
X0271737Y0027460D01*
X0271797Y0027209D01*
X0271851Y0026957D01*
X0271899Y0026703D01*
X0271941Y0026448D01*
X0271976Y0026192D01*
X0272006Y0025936D01*
X0272029Y0025679D01*
X0272045Y0025421D01*
X0272056Y0025163D01*
X0272060Y0024905D01*
X0272058Y0024647D01*
X0272049Y0024389D01*
X0272034Y0024131D01*
X0272013Y0023874D01*
X0271986Y0023617D01*
X0271952Y0023361D01*
X0271912Y0023106D01*
X0271866Y0022852D01*
X0271814Y0022599D01*
X0271755Y0022348D01*
X0271690Y0022098D01*
X0271620Y0021850D01*
X0271543Y0021603D01*
X0271460Y0021359D01*
X0271371Y0021116D01*
X0271277Y0020876D01*
X0271176Y0020638D01*
X0271070Y0020403D01*
X0270958Y0020170D01*
X0270840Y0019940D01*
X0270717Y0019713D01*
X0270588Y0019490D01*
X0270454Y0019269D01*
X0270315Y0019052D01*
X0270170Y0018838D01*
X0270020Y0018628D01*
X0269865Y0018422D01*
X0269705Y0018219D01*
X0269540Y0018020D01*
X0269370Y0017826D01*
X0269196Y0017636D01*
X0269016Y0017450D01*
X0268833Y0017268D01*
X0268645Y0017091D01*
X0268453Y0016919D01*
X0268256Y0016751D01*
X0268056Y0016588D01*
X0267852Y0016431D01*
X0267643Y0016278D01*
X0267432Y0016130D01*
X0267216Y0015988D01*
X0266997Y0015851D01*
X0266775Y0015719D01*
X0266550Y0015593D01*
X0266322Y0015472D01*
X0266091Y0015357D01*
X0265857Y0015248D01*
X0265621Y0015144D01*
X0265382Y0015046D01*
X0265140Y0014954D01*
X0264897Y0014868D01*
X0264652Y0014788D01*
X0264629Y0014860D01*
X0264873Y0014939D01*
X0265115Y0015025D01*
X0265354Y0015116D01*
X0265592Y0015213D01*
X0265826Y0015316D01*
X0266058Y0015425D01*
X0266288Y0015539D01*
X0266515Y0015659D01*
X0266738Y0015784D01*
X0266959Y0015915D01*
X0267176Y0016051D01*
X0267390Y0016192D01*
X0267600Y0016339D01*
X0267807Y0016491D01*
X0268009Y0016647D01*
X0268208Y0016809D01*
X0268403Y0016975D01*
X0268594Y0017146D01*
X0268781Y0017322D01*
X0268963Y0017502D01*
X0269141Y0017687D01*
X0269314Y0017876D01*
X0269483Y0018069D01*
X0269647Y0018266D01*
X0269805Y0018467D01*
X0269959Y0018672D01*
X0270108Y0018881D01*
X0270252Y0019093D01*
X0270391Y0019309D01*
X0270524Y0019528D01*
X0270652Y0019750D01*
X0270774Y0019975D01*
X0270891Y0020204D01*
X0271002Y0020435D01*
X0271108Y0020668D01*
X0271207Y0020904D01*
X0271301Y0021143D01*
X0271389Y0021383D01*
X0271472Y0021626D01*
X0271548Y0021871D01*
X0271618Y0022117D01*
X0271682Y0022366D01*
X0271740Y0022615D01*
X0271792Y0022866D01*
X0271838Y0023119D01*
X0271878Y0023372D01*
X0271911Y0023626D01*
X0271939Y0023881D01*
X0271960Y0024136D01*
X0271974Y0024392D01*
X0271983Y0024648D01*
X0271985Y0024905D01*
X0271981Y0025161D01*
X0271971Y0025417D01*
X0271954Y0025673D01*
X0271931Y0025928D01*
X0271902Y0026183D01*
X0271867Y0026437D01*
X0271825Y0026690D01*
X0271778Y0026942D01*
X0271724Y0027192D01*
X0271664Y0027442D01*
X0271598Y0027689D01*
X0271526Y0027935D01*
X0271448Y0028179D01*
X0271364Y0028422D01*
X0271274Y0028662D01*
X0271179Y0028899D01*
X0271077Y0029135D01*
X0270970Y0029368D01*
X0270857Y0029598D01*
X0270739Y0029825D01*
X0270615Y0030050D01*
X0270485Y0030271D01*
X0270350Y0030489D01*
X0270210Y0030704D01*
X0270065Y0030915D01*
X0269915Y0031122D01*
X0269759Y0031326D01*
X0269700Y0031280D01*
X0269855Y0031077D01*
X0270004Y0030871D01*
X0270148Y0030662D01*
X0270287Y0030448D01*
X0270421Y0030232D01*
X0270550Y0030012D01*
X0270673Y0029790D01*
X0270790Y0029564D01*
X0270902Y0029335D01*
X0271009Y0029104D01*
X0271109Y0028870D01*
X0271204Y0028634D01*
X0271294Y0028396D01*
X0271377Y0028156D01*
X0271454Y0027913D01*
X0271526Y0027669D01*
X0271591Y0027423D01*
X0271651Y0027175D01*
X0271704Y0026927D01*
X0271752Y0026677D01*
X0271793Y0026425D01*
X0271828Y0026173D01*
X0271857Y0025921D01*
X0271879Y0025667D01*
X0271896Y0025413D01*
X0271906Y0025159D01*
X0271910Y0024904D01*
X0271908Y0024650D01*
X0271899Y0024396D01*
X0271885Y0024141D01*
X0271864Y0023888D01*
X0271837Y0023635D01*
X0271804Y0023382D01*
X0271764Y0023131D01*
X0271719Y0022881D01*
X0271667Y0022631D01*
X0271609Y0022384D01*
X0271546Y0022137D01*
X0271476Y0021892D01*
X0271400Y0021649D01*
X0271319Y0021408D01*
X0271231Y0021169D01*
X0271138Y0020933D01*
X0271039Y0020698D01*
X0270934Y0020466D01*
X0270824Y0020237D01*
X0270708Y0020010D01*
X0270586Y0019787D01*
X0270459Y0019566D01*
X0270327Y0019349D01*
X0270190Y0019135D01*
X0270047Y0018924D01*
X0269899Y0018717D01*
X0269746Y0018513D01*
X0269588Y0018314D01*
X0269426Y0018118D01*
X0269258Y0017926D01*
X0269086Y0017739D01*
X0268910Y0017555D01*
X0268729Y0017376D01*
X0268544Y0017202D01*
X0268354Y0017032D01*
X0268161Y0016867D01*
X0267963Y0016706D01*
X0267762Y0016551D01*
X0267556Y0016400D01*
X0267348Y0016255D01*
X0267135Y0016114D01*
X0266920Y0015979D01*
X0266701Y0015849D01*
X0266479Y0015725D01*
X0266254Y0015606D01*
X0266026Y0015492D01*
X0265796Y0015385D01*
X0265562Y0015282D01*
X0265327Y0015186D01*
X0265089Y0015095D01*
X0264849Y0015010D01*
X0264607Y0014932D01*
X0264585Y0015003D01*
X0264825Y0015082D01*
X0265064Y0015166D01*
X0265300Y0015256D01*
X0265533Y0015352D01*
X0265765Y0015453D01*
X0265994Y0015560D01*
X0266220Y0015673D01*
X0266443Y0015791D01*
X0266664Y0015914D01*
X0266881Y0016043D01*
X0267095Y0016177D01*
X0267306Y0016317D01*
X0267513Y0016461D01*
X0267717Y0016611D01*
X0267917Y0016765D01*
X0268113Y0016924D01*
X0268305Y0017088D01*
X0268493Y0017257D01*
X0268677Y0017430D01*
X0268857Y0017608D01*
X0269032Y0017790D01*
X0269203Y0017976D01*
X0269369Y0018167D01*
X0269530Y0018361D01*
X0269687Y0018559D01*
X0269839Y0018761D01*
X0269985Y0018967D01*
X0270127Y0019176D01*
X0270264Y0019389D01*
X0270395Y0019604D01*
X0270521Y0019823D01*
X0270641Y0020045D01*
X0270757Y0020270D01*
X0270866Y0020498D01*
X0270970Y0020728D01*
X0271068Y0020961D01*
X0271161Y0021196D01*
X0271248Y0021433D01*
X0271329Y0021673D01*
X0271404Y0021914D01*
X0271473Y0022157D01*
X0271537Y0022401D01*
X0271594Y0022647D01*
X0271645Y0022895D01*
X0271690Y0023143D01*
X0271729Y0023393D01*
X0271762Y0023644D01*
X0271789Y0023895D01*
X0271810Y0024147D01*
X0271824Y0024399D01*
X0271833Y0024651D01*
X0271835Y0024904D01*
X0271831Y0025157D01*
X0271821Y0025409D01*
X0271804Y0025661D01*
X0271782Y0025913D01*
X0271753Y0026164D01*
X0271719Y0026414D01*
X0271678Y0026663D01*
X0271631Y0026912D01*
X0271578Y0027159D01*
X0271519Y0027404D01*
X0271454Y0027649D01*
X0271383Y0027891D01*
X0271306Y0028132D01*
X0271223Y0028370D01*
X0271135Y0028607D01*
X0271040Y0028841D01*
X0270940Y0029073D01*
X0270835Y0029303D01*
X0270723Y0029530D01*
X0270607Y0029754D01*
X0270484Y0029975D01*
X0270357Y0030193D01*
X0270224Y0030408D01*
X0270086Y0030620D01*
X0269943Y0030828D01*
X0269795Y0031032D01*
X0269641Y0031233D01*
X0269583Y0031187D01*
X0269735Y0030987D01*
X0269882Y0030784D01*
X0270024Y0030578D01*
X0270161Y0030368D01*
X0270293Y0030154D01*
X0270419Y0029938D01*
X0270541Y0029718D01*
X0270657Y0029496D01*
X0270767Y0029271D01*
X0270872Y0029043D01*
X0270971Y0028812D01*
X0271065Y0028580D01*
X0271153Y0028345D01*
X0271235Y0028108D01*
X0271311Y0027869D01*
X0271381Y0027628D01*
X0271446Y0027386D01*
X0271505Y0027142D01*
X0271557Y0026897D01*
X0271604Y0026650D01*
X0271644Y0026403D01*
X0271679Y0026154D01*
X0271707Y0025905D01*
X0271730Y0025655D01*
X0271746Y0025405D01*
X0271756Y0025154D01*
X0271760Y0024904D01*
X0271758Y0024653D01*
X0271749Y0024402D01*
X0271735Y0024152D01*
X0271714Y0023902D01*
X0271688Y0023652D01*
X0271655Y0023404D01*
X0271616Y0023156D01*
X0271571Y0022909D01*
X0271521Y0022664D01*
X0271464Y0022419D01*
X0271401Y0022176D01*
X0271332Y0021935D01*
X0271258Y0021696D01*
X0271177Y0021458D01*
X0271091Y0021223D01*
X0270999Y0020989D01*
X0270901Y0020758D01*
X0270798Y0020530D01*
X0270689Y0020304D01*
X0270575Y0020080D01*
X0270455Y0019860D01*
X0270330Y0019643D01*
X0270200Y0019428D01*
X0270064Y0019217D01*
X0269924Y0019010D01*
X0269778Y0018806D01*
X0269627Y0018605D01*
X0269472Y0018408D01*
X0269312Y0018215D01*
X0269147Y0018026D01*
X0268977Y0017841D01*
X0268803Y0017661D01*
X0268625Y0017484D01*
X0268442Y0017312D01*
X0268256Y0017145D01*
X0268065Y0016982D01*
X0267870Y0016824D01*
X0267672Y0016671D01*
X0267469Y0016522D01*
X0267264Y0016379D01*
X0267055Y0016241D01*
X0266842Y0016107D01*
X0266626Y0015979D01*
X0266408Y0015857D01*
X0266186Y0015740D01*
X0265961Y0015628D01*
X0265734Y0015521D01*
X0265504Y0015421D01*
X0265272Y0015326D01*
X0265038Y0015236D01*
X0264801Y0015153D01*
X0264563Y0015075D01*
X0264541Y0015147D01*
X0264778Y0015224D01*
X0265012Y0015307D01*
X0265245Y0015396D01*
X0265475Y0015490D01*
X0265703Y0015590D01*
X0265929Y0015695D01*
X0266152Y0015806D01*
X0266372Y0015923D01*
X0266589Y0016045D01*
X0266803Y0016172D01*
X0267014Y0016304D01*
X0267222Y0016441D01*
X0267426Y0016583D01*
X0267627Y0016731D01*
X0267824Y0016883D01*
X0268017Y0017040D01*
X0268206Y0017202D01*
X0268392Y0017368D01*
X0268573Y0017538D01*
X0268750Y0017714D01*
X0268923Y0017893D01*
X0269091Y0018076D01*
X0269255Y0018264D01*
X0269414Y0018456D01*
X0269568Y0018651D01*
X0269718Y0018850D01*
X0269862Y0019053D01*
X0270002Y0019259D01*
X0270136Y0019468D01*
X0270266Y0019681D01*
X0270390Y0019897D01*
X0270509Y0020116D01*
X0270622Y0020337D01*
X0270730Y0020561D01*
X0270833Y0020788D01*
X0270930Y0021018D01*
X0271021Y0021249D01*
X0271106Y0021483D01*
X0271186Y0021719D01*
X0271260Y0021957D01*
X0271329Y0022196D01*
X0271391Y0022437D01*
X0271447Y0022680D01*
X0271498Y0022923D01*
X0271542Y0023168D01*
X0271581Y0023414D01*
X0271613Y0023661D01*
X0271640Y0023909D01*
X0271660Y0024157D01*
X0271675Y0024405D01*
X0271683Y0024654D01*
X0271685Y0024903D01*
X0271681Y0025152D01*
X0271671Y0025401D01*
X0271655Y0025649D01*
X0271633Y0025897D01*
X0271605Y0026145D01*
X0271570Y0026391D01*
X0271530Y0026637D01*
X0271484Y0026882D01*
X0271432Y0027125D01*
X0271373Y0027367D01*
X0271309Y0027608D01*
X0271239Y0027847D01*
X0271164Y0028084D01*
X0271082Y0028319D01*
X0270995Y0028552D01*
X0270902Y0028783D01*
X0270803Y0029012D01*
X0270699Y0029238D01*
X0270590Y0029462D01*
X0270475Y0029682D01*
X0270354Y0029900D01*
X0270229Y0030115D01*
X0270098Y0030327D01*
X0269962Y0030536D01*
X0269821Y0030741D01*
X0269675Y0030942D01*
X0269524Y0031140D01*
M02*
