<?xml version="1.0" encoding="UTF-8" standalone="no"?>
<svg
   xmlns:dc="http://purl.org/dc/elements/1.1/"
   xmlns:cc="http://creativecommons.org/ns#"
   xmlns:rdf="http://www.w3.org/1999/02/22-rdf-syntax-ns#"
   xmlns:svg="http://www.w3.org/2000/svg"
   xmlns="http://www.w3.org/2000/svg"
   width="41.771389mm"
   height="31.384306mm"
   viewBox="0 0 148.00886 111.20423"
   id="svg26954"
   version="1.1">
  <defs
     id="defs26956" />
  <metadata
     id="metadata26959">
    <rdf:RDF>
      <cc:Work
         rdf:about="">
        <dc:format>image/svg+xml</dc:format>
        <dc:type
           rdf:resource="http://purl.org/dc/dcmitype/StillImage" />
        <dc:title></dc:title>
      </cc:Work>
    </rdf:RDF>
  </metadata>
  <path
     d="m 102.39215,31.04931 2.11515,0 0,-0.7257 -5.06219,0 0,0.7257 2.12399,0 0,5.72595 0.82305,0 0,-5.72595 z"
     style="font-variant:normal;font-size:medium;font-family:'Nimbus Sans L';-inkscape-font-specification:NimbusSanL-Regu;writing-mode:lr-tb;fill:#000000;fill-opacity:1;fill-rule:nonzero;stroke:none"
     id="path15766" />
  <path
     d="m 106.19765,30.32361 -0.82305,0 0,6.45165 4.00905,0 0,-0.7257 -3.186,0 0,-5.72595 z"
     style="font-variant:normal;font-size:medium;font-family:'Nimbus Sans L';-inkscape-font-specification:NimbusSanL-Regu;writing-mode:lr-tb;fill:#000000;fill-opacity:1;fill-rule:nonzero;stroke:none"
     id="path15768" />
  <path
     d="m 113.05572,36.77526 2.23905,-6.45165 -0.87615,0 -1.7877,5.46045 -1.8939,-5.46045 -0.885,0 2.3187,6.45165 0.885,0 z"
     style="font-variant:normal;font-size:medium;font-family:'Nimbus Sans L';-inkscape-font-specification:NimbusSanL-Regu;writing-mode:lr-tb;fill:#000000;fill-opacity:1;fill-rule:nonzero;stroke:none"
     id="path15770" />
  <path
     d="m 119.96757,36.00531 -3.30105,0 c 0.0796,-0.5133 0.36285,-0.84075 1.1328,-1.2921 l 0.885,-0.4779 c 0.87615,-0.4779 1.3275,-1.12395 1.3275,-1.8939 0,-0.52215 -0.2124,-1.0089 -0.5841,-1.3452 -0.3717,-0.3363 -0.8319,-0.4956 -1.42485,-0.4956 -0.7965,0 -1.38945,0.2832 -1.7346,0.8142 -0.22125,0.3363 -0.3186,0.7257 -0.3363,1.3629 l 0.7788,0 c 0.0266,-0.4248 0.0797,-0.68145 0.18585,-0.885 0.20355,-0.38055 0.61065,-0.61065 1.0797,-0.61065 0.708,0 1.239,0.50445 1.239,1.17705 0,0.4956 -0.29205,0.9204 -0.8496,1.239 l -0.8142,0.4602 c -1.3098,0.7434 -1.69035,1.33635 -1.76115,2.71695 l 4.1772,0 0,-0.76995 z"
     style="font-variant:normal;font-size:medium;font-family:'Nimbus Sans L';-inkscape-font-specification:NimbusSanL-Regu;writing-mode:lr-tb;fill:#000000;fill-opacity:1;fill-rule:nonzero;stroke:none"
     id="path15772" />
  <path
     d="m 123.30334,35.27076 0,1.5045 0.7788,0 0,-1.5045 0.92925,0 0,-0.69915 -0.92925,0 0,-4.071 -0.57525,0 -2.8497,3.9471 0,0.82305 2.64615,0 z m 0,-0.69915 -1.9647,0 1.9647,-2.7435 0,2.7435 z"
     style="font-variant:normal;font-size:medium;font-family:'Nimbus Sans L';-inkscape-font-specification:NimbusSanL-Regu;writing-mode:lr-tb;fill:#000000;fill-opacity:1;fill-rule:nonzero;stroke:none"
     id="path15774" />
  <path
     d="m 129.93083,30.50061 -4.1949,0 0,0.76995 3.38955,0 c -1.49565,2.13285 -2.1063,3.44265 -2.57535,5.5047 l 0.8319,0 c 0.34515,-2.00895 1.1328,-3.7347 2.5488,-5.61975 l 0,-0.6549 z"
     style="font-variant:normal;font-size:medium;font-family:'Nimbus Sans L';-inkscape-font-specification:NimbusSanL-Regu;writing-mode:lr-tb;fill:#000000;fill-opacity:1;fill-rule:nonzero;stroke:none"
     id="path15776" />
  <path
     d="m 134.72642,36.00531 -3.30105,0 c 0.0797,-0.5133 0.36285,-0.84075 1.1328,-1.2921 l 0.885,-0.4779 c 0.87615,-0.4779 1.3275,-1.12395 1.3275,-1.8939 0,-0.52215 -0.2124,-1.0089 -0.5841,-1.3452 -0.3717,-0.3363 -0.8319,-0.4956 -1.42485,-0.4956 -0.7965,0 -1.38945,0.2832 -1.7346,0.8142 -0.22125,0.3363 -0.3186,0.7257 -0.3363,1.3629 l 0.7788,0 c 0.0265,-0.4248 0.0797,-0.68145 0.18585,-0.885 0.20355,-0.38055 0.61065,-0.61065 1.0797,-0.61065 0.708,0 1.239,0.50445 1.239,1.17705 0,0.4956 -0.29205,0.9204 -0.8496,1.239 l -0.8142,0.4602 c -1.3098,0.7434 -1.69035,1.33635 -1.76115,2.71695 l 4.1772,0 0,-0.76995 z"
     style="font-variant:normal;font-size:medium;font-family:'Nimbus Sans L';-inkscape-font-specification:NimbusSanL-Regu;writing-mode:lr-tb;fill:#000000;fill-opacity:1;fill-rule:nonzero;stroke:none"
     id="path15778" />
  <path
     d="m 83.09378,98.66853 4.46925,0 0,-0.7788 -6.27465,0 0,0.5133 c 0.96465,0.27435 1.0974,0.45135 1.24785,1.65494 l 0.55755,0 0,-1.38944 z"
     style="font-variant:normal;font-size:medium;font-family:'Nimbus Sans L';-inkscape-font-specification:NimbusSanL-Regu;writing-mode:lr-tb;fill:#000000;fill-opacity:1;fill-rule:nonzero;stroke:none"
     id="path15737" />
  <path
     d="m 81.28838,93.6075 c 0,0.5841 0.25665,1.1151 0.6903,1.44255 0.5487,0.4071 1.38945,0.61065 2.5488,0.61065 2.11515,0 3.2391,-0.708 3.2391,-2.0532 0,-1.3275 -1.12395,-2.0532 -3.186,-2.0532 -1.2213,0 -2.0355,0.1947 -2.6019,0.61065 -0.4425,0.32745 -0.6903,0.8496 -0.6903,1.44255 z m 0.6903,0 c 0,-0.84075 0.8496,-1.2567 2.5311,-1.2567 1.77885,0 2.61075,0.4071 2.61075,1.2744 0,0.82305 -0.8673,1.239 -2.5842,1.239 -1.7169,0 -2.55765,-0.41595 -2.55765,-1.2567 z"
     style="font-variant:normal;font-size:medium;font-family:'Nimbus Sans L';-inkscape-font-specification:NimbusSanL-Regu;writing-mode:lr-tb;fill:#000000;fill-opacity:1;fill-rule:nonzero;stroke:none"
     id="path15739" />
  <path
     d="m 81.28838,88.68755 c 0,0.5841 0.25665,1.1151 0.6903,1.44255 0.5487,0.4071 1.38945,0.61065 2.5488,0.61065 2.11515,0 3.2391,-0.708 3.2391,-2.0532 0,-1.3275 -1.12395,-2.0532 -3.186,-2.0532 -1.2213,0 -2.0355,0.1947 -2.6019,0.61065 -0.4425,0.32745 -0.6903,0.8496 -0.6903,1.44255 z m 0.6903,0 c 0,-0.84075 0.8496,-1.2567 2.5311,-1.2567 1.77885,0 2.61075,0.4071 2.61075,1.2744 0,0.82305 -0.8673,1.239 -2.5842,1.239 -1.7169,0 -2.55765,-0.41595 -2.55765,-1.2567 z"
     style="font-variant:normal;font-size:medium;font-family:'Nimbus Sans L';-inkscape-font-specification:NimbusSanL-Regu;writing-mode:lr-tb;fill:#000000;fill-opacity:1;fill-rule:nonzero;stroke:none"
     id="path15741" />
  <path
     d="m 81.11138,84.95401 0,0.73455 6.45165,0 0,-0.73455 -1.8054,0 -0.708,-0.71685 2.5134,-1.56645 0,-0.91155 -3.03555,1.8939 -1.60185,-1.6107 0,0.94695 1.9647,1.9647 -3.77895,0 z"
     style="font-variant:normal;font-size:medium;font-family:'Nimbus Sans L';-inkscape-font-specification:NimbusSanL-Regu;writing-mode:lr-tb;fill:#000000;fill-opacity:1;fill-rule:nonzero;stroke:none"
     id="path15743" />
  <path
     d="m 107.7839,107.59343 -2.6904,0 0,0.7257 1.9647,0 0,0.177 c 0,1.1505 -0.8496,1.9824 -2.02665,1.9824 -0.6549,0 -1.24785,-0.23895 -1.6284,-0.6549 -0.4248,-0.4602 -0.68145,-1.23015 -0.68145,-2.02665 0,-1.58415 0.9027,-2.62845 2.2656,-2.62845 0.98235,0 1.69035,0.50445 1.86735,1.33635 l 0.84075,0 c -0.2301,-1.3098 -1.2213,-2.06205 -2.69925,-2.06205 -0.78765,0 -1.42485,0.20355 -1.9293,0.6195 -0.7434,0.6195 -1.1682,1.61955 -1.1682,2.7789 0,1.9824 1.21245,3.363 2.9559,3.363 0.87615,0 1.5753,-0.32745 2.20365,-1.0266 l 0.20355,0.85845 0.52215,0 0,-3.44265 z"
     style="font-variant:normal;font-size:medium;font-family:'Nimbus Sans L';-inkscape-font-specification:NimbusSanL-Regu;writing-mode:lr-tb;fill:#000000;fill-opacity:1;fill-rule:nonzero;stroke:none"
     id="path15684" />
  <path
     d="m 114.11166,104.54903 -0.7788,0 0,5.2746 -3.37185,-5.2746 -0.89385,0 0,6.45165 0.7788,0 0,-5.23035 3.33645,5.23035 0.92925,0 0,-6.45165 z"
     style="font-variant:normal;font-size:medium;font-family:'Nimbus Sans L';-inkscape-font-specification:NimbusSanL-Regu;writing-mode:lr-tb;fill:#000000;fill-opacity:1;fill-rule:nonzero;stroke:none"
     id="path15686" />
  <path
     d="m 115.57192,111.00068 2.48685,0 c 1.6284,0 2.62845,-1.2213 2.62845,-3.23025 0,-2.0001 -0.9912,-3.2214 -2.62845,-3.2214 l -2.48685,0 0,6.45165 z m 0.82305,-0.7257 0,-5.00025 1.5222,0 c 1.2744,0 1.947,0.85845 1.947,2.50455 0,1.6284 -0.6726,2.4957 -1.947,2.4957 l -1.5222,0 z"
     style="font-variant:normal;font-size:medium;font-family:'Nimbus Sans L';-inkscape-font-specification:NimbusSanL-Regu;writing-mode:lr-tb;fill:#000000;fill-opacity:1;fill-rule:nonzero;stroke:none"
     id="path15688" />
  <g
     id="text12191"
     style="font-variant:normal;font-size:8.85000038px;font-family:'Nimbus Sans L';-inkscape-font-specification:NimbusSanL-Regu;writing-mode:lr-tb;fill:#000000;fill-opacity:1;fill-rule:nonzero;stroke:none"
     transform="translate(-620.92514,-296.27184)">
    <path
       id="path15420"
       d="m 721.90202,297.35417 -0.8319,0 0,6.45165 0.8319,0 0,-6.45165 z" />
    <path
       id="path15422"
       d="m 728.50329,299.35427 c -0.25665,-1.416 -1.07085,-2.1063 -2.48685,-2.1063 -0.8673,0 -1.56645,0.27435 -2.04435,0.80535 -0.5841,0.6372 -0.9027,1.5576 -0.9027,2.6019 0,1.062 0.32745,1.97355 0.9381,2.6019 0.4956,0.5133 1.1328,0.75225 1.97355,0.75225 1.5753,0 2.4603,-0.8496 2.655,-2.55765 l -0.8496,0 c -0.0708,0.4425 -0.1593,0.7434 -0.29205,1.00005 -0.2655,0.531 -0.8142,0.8319 -1.5045,0.8319 -1.28325,0 -2.09745,-1.0266 -2.09745,-2.6373 0,-1.65495 0.7788,-2.6727 2.02665,-2.6727 0.52215,0 1.0089,0.1593 1.2744,0.4071 0.23895,0.22125 0.3717,0.4956 0.46905,0.9735 l 0.84075,0 z" />
    <path
       id="path15424"
       d="m 733.5124,303.03587 -3.30105,0 c 0.0797,-0.5133 0.36285,-0.84075 1.1328,-1.2921 l 0.885,-0.4779 c 0.87615,-0.4779 1.3275,-1.12395 1.3275,-1.8939 0,-0.52215 -0.2124,-1.0089 -0.5841,-1.3452 -0.3717,-0.3363 -0.8319,-0.4956 -1.42485,-0.4956 -0.7965,0 -1.38945,0.2832 -1.7346,0.8142 -0.22125,0.3363 -0.3186,0.7257 -0.3363,1.3629 l 0.7788,0 c 0.0266,-0.4248 0.0797,-0.68145 0.18585,-0.885 0.20355,-0.38055 0.61065,-0.61065 1.0797,-0.61065 0.708,0 1.239,0.50445 1.239,1.17705 0,0.4956 -0.29205,0.9204 -0.8496,1.239 l -0.8142,0.4602 c -1.3098,0.7434 -1.69035,1.33635 -1.76115,2.71695 l 4.1772,0 0,-0.76995 z" />
    <path
       id="path15426"
       d="m 734.65289,303.80582 2.91165,0 c 0.61065,0 1.062,-0.16815 1.40715,-0.53985 0.3186,-0.3363 0.4956,-0.7965 0.4956,-1.30095 0,-0.7788 -0.354,-1.24785 -1.17705,-1.56645 0.5841,-0.27435 0.89385,-0.75225 0.89385,-1.40715 0,-0.46905 -0.177,-0.885 -0.5133,-1.1859 -0.3363,-0.30975 -0.7788,-0.45135 -1.3983,-0.45135 l -2.6196,0 0,6.45165 z m 0.82305,-3.67275 0,-2.0532 1.593,0 c 0.4602,0 0.71685,0.0619 0.9381,0.2301 0.2301,0.177 0.354,0.4425 0.354,0.7965 0,0.34515 -0.1239,0.6195 -0.354,0.7965 -0.22125,0.16815 -0.4779,0.2301 -0.9381,0.2301 l -1.593,0 z m 0,2.94705 0,-2.22135 2.00895,0 c 0.39825,0 0.66375,0.0974 0.85845,0.30975 0.1947,0.20355 0.3009,0.48675 0.3009,0.80535 0,0.30975 -0.1062,0.59295 -0.3009,0.7965 -0.1947,0.2124 -0.4602,0.30975 -0.85845,0.30975 l -2.00895,0 z" />
  </g>
  <g
     id="text12195"
     style="font-variant:normal;font-size:7.57499981px;font-family:'Nimbus Sans L';-inkscape-font-specification:NimbusSanL-Regu;writing-mode:lr-tb;fill:#000000;fill-opacity:1;fill-rule:nonzero;stroke:none"
     transform="translate(-620.92514,-296.27184)">
    <path
       id="path15413"
       d="m 691.50184,318.8204 c -0.12877,-0.8787 -0.70447,-1.40137 -1.52257,-1.40137 -0.59085,0 -1.1211,0.28785 -1.43925,0.76507 -0.3333,0.52268 -0.4848,1.1817 -0.4848,2.15888 0,0.90142 0.13635,1.47712 0.4545,1.95435 0.28785,0.43177 0.7575,0.6666 1.34835,0.6666 1.02262,0 1.7574,-0.7575 1.7574,-1.81043 0,-0.9999 -0.68175,-1.70437 -1.64378,-1.70437 -0.53025,0 -0.94687,0.20452 -1.23472,0.59842 0.008,-1.31047 0.43177,-2.03767 1.19685,-2.03767 0.46965,0 0.79537,0.29542 0.90142,0.81052 l 0.6666,0 z m -1.61347,1.21958 c 0.64387,0 1.04535,0.44692 1.04535,1.16655 0,0.67417 -0.4545,1.16655 -1.06808,1.16655 -0.62115,0 -1.0908,-0.5151 -1.0908,-1.20443 0,-0.6666 0.4545,-1.12867 1.11353,-1.12867 z" />
    <path
       id="path15415"
       d="m 691.33519,299.42492 -2.77245,0 -0.40147,2.92395 0.61357,0 c 0.31058,-0.37118 0.56813,-0.49995 0.98475,-0.49995 0.71963,0 1.17413,0.49237 1.17413,1.28775 0,0.77265 -0.44693,1.2423 -1.17413,1.2423 -0.58327,0 -0.9393,-0.29543 -1.09837,-0.90143 l -0.6666,0 c 0.0909,0.43935 0.16665,0.65145 0.32572,0.8484 0.303,0.40905 0.8484,0.64388 1.4544,0.64388 1.08323,0 1.84073,-0.7878 1.84073,-1.92405 0,-1.0605 -0.70448,-1.7877 -1.73468,-1.7877 -0.37875,0 -0.68175,0.0985 -0.99232,0.32572 l 0.2121,-1.49985 2.23462,0 0,-0.65902 z" />
    <path
       id="path15417"
       d="m 734.38242,308.42199 -3.59055,0 0,0.65902 2.90123,0 c -1.28018,1.82558 -1.80285,2.94668 -2.20433,4.71165 l 0.71205,0 c 0.29543,-1.71952 0.9696,-3.19665 2.1816,-4.81012 l 0,-0.56055 z" />
  </g>
  <g
     id="text12203"
     style="font-variant:normal;font-size:8.85000038px;font-family:'Nimbus Sans L';-inkscape-font-specification:NimbusSanL-Regu;writing-mode:lr-tb;fill:#000000;fill-opacity:1;fill-rule:nonzero;stroke:none"
     transform="matrix(0,-1,1,0,-620.92514,-296.27184)">
    <path
       id="path15406"
       d="m -392.58641,714.70798 2.124,0 c 0.73455,0 1.062,0.354 1.062,1.1505 l -0.009,0.57525 c 0,0.39825 0.0708,0.78765 0.18585,1.05315 l 1.00005,0 0,-0.20355 c -0.30975,-0.2124 -0.3717,-0.4425 -0.3894,-1.30095 -0.009,-1.062 -0.177,-1.3806 -0.87615,-1.6815 0.7257,-0.354 1.01775,-0.80535 1.01775,-1.5399 0,-1.1151 -0.69915,-1.72575 -1.9647,-1.72575 l -2.9736,0 0,6.45165 0.82305,0 0,-2.7789 z m 0,-0.7257 0,-2.22135 1.99125,0 c 0.4602,0 0.7257,0.0708 0.92925,0.2478 0.22125,0.18585 0.3363,0.4779 0.3363,0.8673 0,0.7611 -0.3894,1.10625 -1.26555,1.10625 l -1.99125,0 z" />
    <path
       id="path15408"
       d="m -385.55065,713.01763 0,4.46925 0.7788,0 0,-6.27465 -0.5133,0 c -0.27435,0.96465 -0.45135,1.0974 -1.65495,1.24785 l 0,0.55755 1.38945,0 z" />
    <path
       id="path15410"
       d="m -380.96752,714.61063 0.0974,0 0.32745,-0.009 c 0.85845,0 1.30095,0.3894 1.30095,1.14165 0,0.78765 -0.48675,1.2567 -1.30095,1.2567 -0.8496,0 -1.26555,-0.4248 -1.31865,-1.33635 l -0.7788,0 c 0.0354,0.50445 0.1239,0.8319 0.27435,1.1151 0.3186,0.6018 0.9381,0.91155 1.79655,0.91155 1.2921,0 2.124,-0.76995 2.124,-1.95585 0,-0.7965 -0.30975,-1.239 -1.062,-1.49565 0.5841,-0.2301 0.87615,-0.6726 0.87615,-1.30095 0,-1.0797 -0.71685,-1.72575 -1.9116,-1.72575 -1.26555,0 -1.93815,0.6903 -1.9647,2.02665 l 0.7788,0 c 0.009,-0.38055 0.0442,-0.59295 0.1416,-0.78765 0.177,-0.34515 0.5664,-0.55755 1.05315,-0.55755 0.6903,0 1.10625,0.4071 1.10625,1.07085 0,0.4425 -0.1593,0.708 -0.50445,0.8496 -0.2124,0.0885 -0.48675,0.1239 -1.03545,0.13275 l 0,0.66375 z" />
  </g>
  <g
     id="text12207"
     style="font-variant:normal;font-size:7.57499981px;font-family:'Nimbus Sans L';-inkscape-font-specification:NimbusSanL-Regu;writing-mode:lr-tb;fill:#000000;fill-opacity:1;fill-rule:nonzero;stroke:none"
     transform="matrix(0,-1,1,0,-620.92514,-296.27184)">
    <path
       id="path15401"
       d="m -356.81694,724.099 0,3.82538 0.6666,0 0,-5.37068 -0.43935,0 c -0.23483,0.82568 -0.38633,0.9393 -1.41653,1.06808 l 0,0.47722 1.18928,0 z" />
    <path
       id="path15403"
       d="m -379.6593,727.26535 -2.82547,0 c 0.0682,-0.43935 0.31057,-0.71962 0.9696,-1.10595 l 0.7575,-0.40905 c 0.74992,-0.40905 1.13625,-0.96202 1.13625,-1.62105 0,-0.44692 -0.1818,-0.86355 -0.49995,-1.1514 -0.31815,-0.28785 -0.71205,-0.4242 -1.21958,-0.4242 -0.68175,0 -1.18927,0.2424 -1.4847,0.6969 -0.18937,0.28785 -0.2727,0.62115 -0.28785,1.16655 l 0.6666,0 c 0.0227,-0.3636 0.0682,-0.58327 0.15908,-0.7575 0.17422,-0.32572 0.52267,-0.52267 0.92415,-0.52267 0.606,0 1.0605,0.43177 1.0605,1.00747 0,0.4242 -0.24998,0.7878 -0.7272,1.0605 l -0.6969,0.3939 c -1.1211,0.6363 -1.44683,1.14383 -1.50743,2.32553 l 3.5754,0 0,-0.65903 z" />
  </g>
  <g
     id="text12211"
     style="font-variant:normal;font-size:7.57499981px;font-family:'Nimbus Sans L';-inkscape-font-specification:NimbusSanL-Regu;writing-mode:lr-tb;fill:#000000;fill-opacity:1;fill-rule:nonzero;stroke:none"
     transform="translate(-620.92514,-296.27184)">
    <path
       id="path15398"
       d="m 716.39972,365.31437 0.0833,0 0.28027,-0.008 c 0.73478,0 1.11353,0.3333 1.11353,0.97717 0,0.67418 -0.41663,1.07565 -1.11353,1.07565 -0.7272,0 -1.08322,-0.3636 -1.12867,-1.14382 l -0.6666,0 c 0.0303,0.43177 0.10605,0.71205 0.23482,0.95445 0.2727,0.5151 0.80295,0.78022 1.53773,0.78022 1.10595,0 1.818,-0.65902 1.818,-1.67407 0,-0.68175 -0.26513,-1.0605 -0.909,-1.28018 0.49995,-0.19695 0.74992,-0.5757 0.74992,-1.11352 0,-0.92415 -0.61357,-1.47713 -1.6362,-1.47713 -1.08322,0 -1.65892,0.59085 -1.68165,1.73468 l 0.6666,0 c 0.008,-0.32573 0.0379,-0.50753 0.1212,-0.67418 0.1515,-0.29542 0.4848,-0.47722 0.90143,-0.47722 0.59085,0 0.94687,0.34845 0.94687,0.91657 0,0.37875 -0.13635,0.606 -0.43177,0.7272 -0.1818,0.0758 -0.41663,0.10605 -0.88628,0.11363 l 0,0.56812 z" />
  </g>
  <path
     d="m 132.11429,14.32935 c -0.25665,-1.416 -1.07085,-2.1063 -2.48685,-2.1063 -0.8673,0 -1.56645,0.27435 -2.04435,0.80535 -0.5841,0.6372 -0.9027,1.5576 -0.9027,2.6019 0,1.062 0.32745,1.97355 0.9381,2.6019 0.4956,0.5133 1.1328,0.75225 1.97355,0.75225 1.5753,0 2.4603,-0.8496 2.655,-2.55765 l -0.8496,0 c -0.0708,0.4425 -0.1593,0.7434 -0.29205,1.00005 -0.2655,0.531 -0.8142,0.8319 -1.5045,0.8319 -1.28325,0 -2.09745,-1.0266 -2.09745,-2.6373 0,-1.65495 0.7788,-2.6727 2.02665,-2.6727 0.52215,0 1.0089,0.1593 1.2744,0.4071 0.23895,0.22125 0.3717,0.4956 0.46905,0.9735 l 0.84075,0 z"
     id="path13272"
     style="font-variant:normal;font-size:medium;font-family:'Nimbus Sans L';-inkscape-font-specification:NimbusSanL-Regu;writing-mode:lr-tb;fill:#000000;fill-opacity:1;fill-rule:nonzero;stroke:none" />
  <path
     d="m 138.50399,14.32935 c -0.25665,-1.416 -1.07085,-2.1063 -2.48685,-2.1063 -0.8673,0 -1.56645,0.27435 -2.04435,0.80535 -0.5841,0.6372 -0.9027,1.5576 -0.9027,2.6019 0,1.062 0.32745,1.97355 0.9381,2.6019 0.4956,0.5133 1.1328,0.75225 1.97355,0.75225 1.5753,0 2.4603,-0.8496 2.655,-2.55765 l -0.8496,0 c -0.0708,0.4425 -0.1593,0.7434 -0.29205,1.00005 -0.2655,0.531 -0.8142,0.8319 -1.5045,0.8319 -1.28325,0 -2.09745,-1.0266 -2.09745,-2.6373 0,-1.65495 0.7788,-2.6727 2.02665,-2.6727 0.52215,0 1.0089,0.1593 1.2744,0.4071 0.23895,0.22125 0.3717,0.4956 0.46905,0.9735 l 0.84075,0 z"
     id="path13274"
     style="font-variant:normal;font-size:medium;font-family:'Nimbus Sans L';-inkscape-font-specification:NimbusSanL-Regu;writing-mode:lr-tb;fill:#000000;fill-opacity:1;fill-rule:nonzero;stroke:none" />
  <path
     d="m 140.66334,16.04625 2.02665,0 c 0.50445,0 0.9027,-0.15045 1.24785,-0.4602 0.3894,-0.354 0.55755,-0.76995 0.55755,-1.3629 0,-1.21245 -0.71685,-1.8939 -1.99125,-1.8939 l -2.66385,0 0,6.45165 0.82305,0 0,-2.73465 z m 0,-0.7257 0,-2.2656 1.7169,0 c 0.78765,0 1.2567,0.4248 1.2567,1.1328 0,0.708 -0.46905,1.1328 -1.2567,1.1328 l -1.7169,0 z"
     id="path13276"
     style="font-variant:normal;font-size:medium;font-family:'Nimbus Sans L';-inkscape-font-specification:NimbusSanL-Regu;writing-mode:lr-tb;fill:#000000;fill-opacity:1;fill-rule:nonzero;stroke:none" />
  <path
     d="m 147.23005,14.31165 0,4.46925 0.7788,0 0,-6.27465 -0.5133,0 c -0.27435,0.96465 -0.45135,1.0974 -1.65495,1.24785 l 0,0.55755 1.38945,0 z"
     id="path13278"
     style="font-variant:normal;font-size:medium;font-family:'Nimbus Sans L';-inkscape-font-specification:NimbusSanL-Regu;writing-mode:lr-tb;fill:#000000;fill-opacity:1;fill-rule:nonzero;stroke:none" />
  <path
     d="m 72.22927,0.76068 0,36"
     style="fill:#000000;fill-opacity:1;fill-rule:evenodd;stroke:none"
     id="path13089" />
  <path
     d="m 72.22927,0.76068 0,36"
     style="fill:none;stroke:#000000;stroke-width:1.5;stroke-linecap:round;stroke-linejoin:round;stroke-miterlimit:10;stroke-dasharray:none;stroke-opacity:1"
     id="path13091" />
  <path
     d="m 72.22927,36.76068 35.99999,-18"
     style="fill:#000000;fill-opacity:1;fill-rule:evenodd;stroke:none"
     id="path13093" />
  <path
     d="m 72.22927,36.76068 35.99999,-18"
     style="fill:none;stroke:#000000;stroke-width:1.5;stroke-linecap:round;stroke-linejoin:round;stroke-miterlimit:10;stroke-dasharray:none;stroke-opacity:1"
     id="path13095" />
  <path
     d="m 108.22926,18.76068 -35.99999,-18"
     style="fill:#000000;fill-opacity:1;fill-rule:evenodd;stroke:none"
     id="path13097" />
  <path
     d="m 108.22926,18.76068 -35.99999,-18"
     style="fill:none;stroke:#000000;stroke-width:1.5;stroke-linecap:round;stroke-linejoin:round;stroke-miterlimit:10;stroke-dasharray:none;stroke-opacity:1"
     id="path13099" />
  <path
     d="m 76.72927,7.51068 0,4.5"
     style="fill:#000000;fill-opacity:1;fill-rule:evenodd;stroke:none"
     id="path13101" />
  <path
     d="m 76.72927,7.51068 0,4.5"
     style="fill:none;stroke:#000000;stroke-width:0.60000002;stroke-linecap:round;stroke-linejoin:round;stroke-miterlimit:10;stroke-dasharray:none;stroke-opacity:1"
     id="path13103" />
  <path
     d="m 74.47927,9.76068 4.5,0"
     style="fill:#000000;fill-opacity:1;fill-rule:evenodd;stroke:none"
     id="path13105" />
  <path
     d="m 74.47927,9.76068 4.5,0"
     style="fill:none;stroke:#000000;stroke-width:0.60000002;stroke-linecap:round;stroke-linejoin:round;stroke-miterlimit:10;stroke-dasharray:none;stroke-opacity:1"
     id="path13107" />
  <path
     d="m 74.47927,27.76068 4.5,0"
     style="fill:#000000;fill-opacity:1;fill-rule:evenodd;stroke:none"
     id="path13109" />
  <path
     d="m 74.47927,27.76068 4.5,0"
     style="fill:none;stroke:#000000;stroke-width:0.60000002;stroke-linecap:round;stroke-linejoin:round;stroke-miterlimit:10;stroke-dasharray:none;stroke-opacity:1"
     id="path13111" />
  <path
     d="m 63.22927,27.76068 9,0"
     style="fill:#000000;fill-opacity:1;fill-rule:evenodd;stroke:none"
     id="path13113" />
  <path
     d="m 63.22927,27.76068 9,0"
     style="fill:none;stroke:#000000;stroke-width:0.60000002;stroke-linecap:round;stroke-linejoin:round;stroke-miterlimit:10;stroke-dasharray:none;stroke-opacity:1"
     id="path13115" />
  <path
     d="m 63.22927,9.76068 9,0"
     style="fill:#000000;fill-opacity:1;fill-rule:evenodd;stroke:none"
     id="path13117" />
  <path
     d="m 63.22927,9.76068 9,0"
     style="fill:none;stroke:#000000;stroke-width:0.60000002;stroke-linecap:round;stroke-linejoin:round;stroke-miterlimit:10;stroke-dasharray:none;stroke-opacity:1"
     id="path13119" />
  <path
     d="m 117.22926,18.76068 -9,0"
     style="fill:#000000;fill-opacity:1;fill-rule:evenodd;stroke:none"
     id="path13121" />
  <path
     d="m 117.22926,18.76068 -9,0"
     style="fill:none;stroke:#000000;stroke-width:0.60000002;stroke-linecap:round;stroke-linejoin:round;stroke-miterlimit:10;stroke-dasharray:none;stroke-opacity:1"
     id="path13123" />
  <path
     d="m 112.72926,63.76068 -9,0"
     style="fill:#000000;fill-opacity:1;fill-rule:evenodd;stroke:none"
     id="path13125" />
  <path
     d="m 112.72926,63.76068 -9,0"
     style="fill:none;stroke:#000000;stroke-width:0.89999998;stroke-linecap:round;stroke-linejoin:round;stroke-miterlimit:10;stroke-dasharray:none;stroke-opacity:1"
     id="path13127" />
  <path
     d="m 103.72926,81.76068 9,0"
     style="fill:#000000;fill-opacity:1;fill-rule:evenodd;stroke:none"
     id="path13129" />
  <path
     d="m 103.72926,81.76068 9,0"
     style="fill:none;stroke:#000000;stroke-width:0.89999998;stroke-linecap:round;stroke-linejoin:round;stroke-miterlimit:10;stroke-dasharray:none;stroke-opacity:1"
     id="path13131" />
  <path
     d="m 112.72926,81.76068 0,-18"
     style="fill:#000000;fill-opacity:1;fill-rule:evenodd;stroke:none"
     id="path13133" />
  <path
     d="m 112.72926,81.76068 0,-18"
     style="fill:none;stroke:#000000;stroke-width:0.89999998;stroke-linecap:round;stroke-linejoin:round;stroke-miterlimit:10;stroke-dasharray:none;stroke-opacity:1"
     id="path13135" />
  <path
     d="m 101.92926,72.76068 19.8,9.45"
     style="fill:#000000;fill-opacity:1;fill-rule:evenodd;stroke:none"
     id="path13137" />
  <path
     d="m 101.92926,72.76068 19.8,9.45"
     style="fill:none;stroke:#000000;stroke-width:0.60000002;stroke-linecap:round;stroke-linejoin:round;stroke-miterlimit:10;stroke-dasharray:none;stroke-opacity:1"
     id="path13139" />
  <path
     d="m 101.92926,72.76068 -2.69999,0"
     style="fill:#000000;fill-opacity:1;fill-rule:evenodd;stroke:none"
     id="path13141" />
  <path
     d="m 101.92926,72.76068 -2.69999,0"
     style="fill:none;stroke:#000000;stroke-width:0.60000002;stroke-linecap:round;stroke-linejoin:round;stroke-miterlimit:10;stroke-dasharray:none;stroke-opacity:1"
     id="path13143" />
  <path
     d="m 103.72926,63.76068 0,18"
     style="fill:#000000;fill-opacity:1;fill-rule:evenodd;stroke:none"
     id="path13145" />
  <path
     d="m 103.72926,63.76068 0,18"
     style="fill:none;stroke:#000000;stroke-width:0.89999998;stroke-linecap:round;stroke-linejoin:round;stroke-miterlimit:10;stroke-dasharray:none;stroke-opacity:1"
     id="path13147" />
  <path
     d="m 108.22926,54.76068 0,9"
     style="fill:#000000;fill-opacity:1;fill-rule:evenodd;stroke:none"
     id="path13149" />
  <path
     d="m 108.22926,54.76068 0,9"
     style="fill:none;stroke:#000000;stroke-width:0.60000002;stroke-linecap:round;stroke-linejoin:round;stroke-miterlimit:10;stroke-dasharray:none;stroke-opacity:1"
     id="path13151" />
  <path
     d="m 108.22926,90.76068 0,-9"
     style="fill:#000000;fill-opacity:1;fill-rule:evenodd;stroke:none"
     id="path13153" />
  <path
     d="m 108.22926,90.76068 0,-9"
     style="fill:none;stroke:#000000;stroke-width:0.60000002;stroke-linecap:round;stroke-linejoin:round;stroke-miterlimit:10;stroke-dasharray:none;stroke-opacity:1"
     id="path13155" />
  <path
     d="m 90.22927,72.76068 9,0"
     style="fill:#000000;fill-opacity:1;fill-rule:evenodd;stroke:none"
     id="path13157" />
  <path
     d="m 90.22927,72.76068 9,0"
     style="fill:none;stroke:#000000;stroke-width:0.60000002;stroke-linecap:round;stroke-linejoin:round;stroke-miterlimit:10;stroke-dasharray:none;stroke-opacity:1"
     id="path13159" />
  <path
     d="m 117.22926,81.76068 4.5,0.45"
     style="fill:#000000;fill-opacity:1;fill-rule:evenodd;stroke:none"
     id="path13161" />
  <path
     d="m 117.22926,81.76068 4.5,0.45"
     style="fill:none;stroke:#000000;stroke-width:0.60000002;stroke-linecap:round;stroke-linejoin:round;stroke-miterlimit:10;stroke-dasharray:none;stroke-opacity:1"
     id="path13163" />
  <path
     d="m 121.72926,82.21068 -3.15,-3.15"
     style="fill:#000000;fill-opacity:1;fill-rule:evenodd;stroke:none"
     id="path13165" />
  <path
     d="m 121.72926,82.21068 -3.15,-3.15"
     style="fill:none;stroke:#000000;stroke-width:0.60000002;stroke-linecap:round;stroke-linejoin:round;stroke-miterlimit:10;stroke-dasharray:none;stroke-opacity:1"
     id="path13167" />
  <path
     d="m 118.57926,79.06068 -1.35,2.7"
     style="fill:#000000;fill-opacity:1;fill-rule:evenodd;stroke:none"
     id="path13169" />
  <path
     d="m 118.57926,79.06068 -1.35,2.7"
     style="fill:none;stroke:#000000;stroke-width:0.60000002;stroke-linecap:round;stroke-linejoin:round;stroke-miterlimit:10;stroke-dasharray:none;stroke-opacity:1"
     id="path13171" />
  <path
     d="m 121.50426,82.21068 0.225,0"
     style="fill:#000000;fill-opacity:1;fill-rule:evenodd;stroke:none"
     id="path13173" />
  <path
     d="m 121.50426,82.21068 0.225,0"
     style="fill:none;stroke:#000000;stroke-width:0.60000002;stroke-linecap:round;stroke-linejoin:round;stroke-miterlimit:10;stroke-dasharray:none;stroke-opacity:1"
     id="path13175" />
  <path
     d="m 117.22926,81.76068 4.05,0"
     style="fill:#000000;fill-opacity:1;fill-rule:evenodd;stroke:none"
     id="path13177" />
  <path
     d="m 117.22926,81.76068 4.05,0"
     style="fill:none;stroke:#000000;stroke-width:0.60000002;stroke-linecap:round;stroke-linejoin:round;stroke-miterlimit:10;stroke-dasharray:none;stroke-opacity:1"
     id="path13179" />
  <path
     d="m 117.45426,81.31068 3.45,0"
     style="fill:#000000;fill-opacity:1;fill-rule:evenodd;stroke:none"
     id="path13181" />
  <path
     d="m 117.45426,81.31068 3.45,0"
     style="fill:none;stroke:#000000;stroke-width:0.60000002;stroke-linecap:round;stroke-linejoin:round;stroke-miterlimit:10;stroke-dasharray:none;stroke-opacity:1"
     id="path13183" />
  <path
     d="m 117.67926,80.93568 2.775,0"
     style="fill:#000000;fill-opacity:1;fill-rule:evenodd;stroke:none"
     id="path13185" />
  <path
     d="m 117.67926,80.93568 2.775,0"
     style="fill:none;stroke:#000000;stroke-width:0.60000002;stroke-linecap:round;stroke-linejoin:round;stroke-miterlimit:10;stroke-dasharray:none;stroke-opacity:1"
     id="path13187" />
  <path
     d="m 117.90426,80.48568 2.1,0"
     style="fill:#000000;fill-opacity:1;fill-rule:evenodd;stroke:none"
     id="path13189" />
  <path
     d="m 117.90426,80.48568 2.1,0"
     style="fill:none;stroke:#000000;stroke-width:0.60000002;stroke-linecap:round;stroke-linejoin:round;stroke-miterlimit:10;stroke-dasharray:none;stroke-opacity:1"
     id="path13191" />
  <path
     d="m 118.12926,80.03568 1.5,0"
     style="fill:#000000;fill-opacity:1;fill-rule:evenodd;stroke:none"
     id="path13193" />
  <path
     d="m 118.12926,80.03568 1.5,0"
     style="fill:none;stroke:#000000;stroke-width:0.60000002;stroke-linecap:round;stroke-linejoin:round;stroke-miterlimit:10;stroke-dasharray:none;stroke-opacity:1"
     id="path13195" />
  <path
     d="m 118.35426,79.66068 0.825,0"
     style="fill:#000000;fill-opacity:1;fill-rule:evenodd;stroke:none"
     id="path13197" />
  <path
     d="m 118.35426,79.66068 0.825,0"
     style="fill:none;stroke:#000000;stroke-width:0.60000002;stroke-linecap:round;stroke-linejoin:round;stroke-miterlimit:10;stroke-dasharray:none;stroke-opacity:1"
     id="path13199" />
  <path
     d="m 118.50426,79.21068 0.225,0"
     style="fill:#000000;fill-opacity:1;fill-rule:evenodd;stroke:none"
     id="path13201" />
  <path
     d="m 118.50426,79.21068 0.225,0"
     style="fill:none;stroke:#000000;stroke-width:0.60000002;stroke-linecap:round;stroke-linejoin:round;stroke-miterlimit:10;stroke-dasharray:none;stroke-opacity:1"
     id="path13203" />
  <path
     d="m 112.72926,52.51068 -4.5,-6.75"
     style="fill:#000000;fill-opacity:1;fill-rule:evenodd;stroke:none"
     id="path13309" />
  <path
     d="m 112.72926,52.51068 -4.5,-6.75"
     style="fill:none;stroke:#000000;stroke-width:0.89999998;stroke-linecap:round;stroke-linejoin:round;stroke-miterlimit:10;stroke-dasharray:none;stroke-opacity:1"
     id="path13311" />
  <path
     d="m 108.22926,45.76068 -4.5,6.75"
     style="fill:#000000;fill-opacity:1;fill-rule:evenodd;stroke:none"
     id="path13313" />
  <path
     d="m 108.22926,45.76068 -4.5,6.75"
     style="fill:none;stroke:#000000;stroke-width:0.89999998;stroke-linecap:round;stroke-linejoin:round;stroke-miterlimit:10;stroke-dasharray:none;stroke-opacity:1"
     id="path13315" />
  <path
     d="m 108.22926,54.76068 0,-9"
     style="fill:#000000;fill-opacity:1;fill-rule:evenodd;stroke:none"
     id="path13317" />
  <path
     d="m 108.22926,54.76068 0,-9"
     style="fill:none;stroke:#000000;stroke-width:0.60000002;stroke-linecap:round;stroke-linejoin:round;stroke-miterlimit:10;stroke-dasharray:none;stroke-opacity:1"
     id="path13319" />
  <path
     d="m 103.72926,99.76068 9,0"
     style="fill:#000000;fill-opacity:1;fill-rule:evenodd;stroke:none"
     id="path13321" />
  <path
     d="m 103.72926,99.76068 9,0"
     style="fill:none;stroke:#000000;stroke-width:0.89999998;stroke-linecap:round;stroke-linejoin:round;stroke-miterlimit:10;stroke-dasharray:none;stroke-opacity:1"
     id="path13323" />
  <path
     d="m 112.72926,99.76068 -4.5,4.49999"
     style="fill:#000000;fill-opacity:1;fill-rule:evenodd;stroke:none"
     id="path13325" />
  <path
     d="m 112.72926,99.76068 -4.5,4.49999"
     style="fill:none;stroke:#000000;stroke-width:0.89999998;stroke-linecap:round;stroke-linejoin:round;stroke-miterlimit:10;stroke-dasharray:none;stroke-opacity:1"
     id="path13327" />
  <path
     d="m 108.22926,104.26067 -4.5,-4.49999"
     style="fill:#000000;fill-opacity:1;fill-rule:evenodd;stroke:none"
     id="path13329" />
  <path
     d="m 108.22926,104.26067 -4.5,-4.49999"
     style="fill:none;stroke:#000000;stroke-width:0.89999998;stroke-linecap:round;stroke-linejoin:round;stroke-miterlimit:10;stroke-dasharray:none;stroke-opacity:1"
     id="path13331" />
  <path
     d="m 108.22926,90.76068 0,9"
     style="fill:#000000;fill-opacity:1;fill-rule:evenodd;stroke:none"
     id="path13333" />
  <path
     d="m 108.22926,90.76068 0,9"
     style="fill:none;stroke:#000000;stroke-width:0.60000002;stroke-linecap:round;stroke-linejoin:round;stroke-miterlimit:10;stroke-dasharray:none;stroke-opacity:1"
     id="path13335" />
  <path
     d="m 63.22927,9.76068 -62.925,0"
     style="fill:none;stroke:#000000;stroke-width:0.60000002;stroke-linecap:round;stroke-linejoin:round;stroke-miterlimit:10;stroke-dasharray:none;stroke-opacity:1"
     id="path14389" />
  <path
     d="m 90.22927,72.76068 -53.925,0"
     style="fill:#000000;fill-opacity:1;fill-rule:evenodd;stroke:none"
     id="path14411" />
  <path
     d="m 90.22927,72.76068 -53.925,0"
     style="fill:none;stroke:#000000;stroke-width:0.60000002;stroke-linecap:round;stroke-linejoin:round;stroke-miterlimit:10;stroke-dasharray:none;stroke-opacity:1"
     id="path14413" />
  <path
     d="m 36.30427,72.76068 0,-45"
     style="fill:#000000;fill-opacity:1;fill-rule:evenodd;stroke:none"
     id="path14415" />
  <path
     d="m 36.30427,72.76068 0,-45"
     style="fill:none;stroke:#000000;stroke-width:0.60000002;stroke-linecap:round;stroke-linejoin:round;stroke-miterlimit:10;stroke-dasharray:none;stroke-opacity:1"
     id="path14417" />
  <path
     d="m 36.30427,27.76068 26.925,0"
     style="fill:#000000;fill-opacity:1;fill-rule:evenodd;stroke:none"
     id="path14419" />
  <path
     d="m 36.30427,27.76068 26.925,0"
     style="fill:none;stroke:#000000;stroke-width:0.60000002;stroke-linecap:round;stroke-linejoin:round;stroke-miterlimit:10;stroke-dasharray:none;stroke-opacity:1"
     id="path14421" />
  <path
     d="m 117.22926,18.76068 27,0"
     style="fill:#000000;fill-opacity:1;fill-rule:evenodd;stroke:none"
     id="path14507" />
  <path
     d="m 117.22926,18.76068 27,0"
     style="fill:none;stroke:#000000;stroke-width:0.60000002;stroke-linecap:round;stroke-linejoin:round;stroke-miterlimit:10;stroke-dasharray:none;stroke-opacity:1"
     id="path14509" />
  <g
     id="text140"
     style="font-variant:normal;font-size:7.07999992px;font-family:'Nimbus Sans L';-inkscape-font-specification:NimbusSanL-Regu;writing-mode:lr-tb;fill:#000000;fill-opacity:1;fill-rule:nonzero;stroke:none"
     transform="matrix(0,-1.25,1.25,0,-702.15656,-436.47944)">
    <path
       id="path12218"
       d="m -396.36427,639.23464 -1.46556,0 0,-1.46556 -0.4956,0 0,1.46556 -1.46556,0 0,0.4956 1.46556,0 0,1.46556 0.4956,0 0,-1.46556 1.46556,0 0,-0.4956 z" />
    <path
       id="path12220"
       d="m -394.4456,638.824 0.0779,0 0.26196,-0.007 c 0.68676,0 1.04076,0.31152 1.04076,0.91332 0,0.63012 -0.3894,1.00536 -1.04076,1.00536 -0.67968,0 -1.01244,-0.33984 -1.05492,-1.06908 l -0.62304,0 c 0.0283,0.40356 0.0991,0.66552 0.21948,0.89208 0.25488,0.48144 0.75048,0.72924 1.43724,0.72924 1.03368,0 1.6992,-0.61596 1.6992,-1.56468 0,-0.6372 -0.2478,-0.9912 -0.8496,-1.19652 0.46728,-0.18408 0.70092,-0.53808 0.70092,-1.04076 0,-0.86376 -0.57348,-1.3806 -1.52928,-1.3806 -1.01244,0 -1.55052,0.55224 -1.57176,1.62132 l 0.62304,0 c 0.007,-0.30444 0.0354,-0.47436 0.11328,-0.63012 0.1416,-0.27612 0.45312,-0.44604 0.84252,-0.44604 0.55224,0 0.885,0.32568 0.885,0.85668 0,0.354 -0.12744,0.5664 -0.40356,0.67968 -0.16992,0.0708 -0.3894,0.0991 -0.82836,0.1062 l 0,0.531 z" />
    <path
       id="path12222"
       d="m -389.29938,641.125 1.79124,-5.16132 -0.70092,0 -1.43016,4.36836 -1.51512,-4.36836 -0.708,0 1.85496,5.16132 0.708,0 z" />
    <path
       id="path12224"
       d="m -385.78768,638.824 0.0779,0 0.26196,-0.007 c 0.68676,0 1.04076,0.31152 1.04076,0.91332 0,0.63012 -0.3894,1.00536 -1.04076,1.00536 -0.67968,0 -1.01244,-0.33984 -1.05492,-1.06908 l -0.62304,0 c 0.0283,0.40356 0.0991,0.66552 0.21948,0.89208 0.25488,0.48144 0.75048,0.72924 1.43724,0.72924 1.03368,0 1.6992,-0.61596 1.6992,-1.56468 0,-0.6372 -0.2478,-0.9912 -0.8496,-1.19652 0.46728,-0.18408 0.70092,-0.53808 0.70092,-1.04076 0,-0.86376 -0.57348,-1.3806 -1.52928,-1.3806 -1.01244,0 -1.55052,0.55224 -1.57176,1.62132 l 0.62304,0 c 0.007,-0.30444 0.0354,-0.47436 0.11328,-0.63012 0.1416,-0.27612 0.45312,-0.44604 0.84252,-0.44604 0.55224,0 0.885,0.32568 0.885,0.85668 0,0.354 -0.12744,0.5664 -0.40356,0.67968 -0.16992,0.0708 -0.3894,0.0991 -0.82836,0.1062 l 0,0.531 z" />
  </g>
</svg>
