<?xml version="1.0" encoding="UTF-8" standalone="no"?>
<svg
   xmlns:dc="http://purl.org/dc/elements/1.1/"
   xmlns:cc="http://creativecommons.org/ns#"
   xmlns:rdf="http://www.w3.org/1999/02/22-rdf-syntax-ns#"
   xmlns:svg="http://www.w3.org/2000/svg"
   xmlns="http://www.w3.org/2000/svg"
   width="34.929493mm"
   height="42.017601mm"
   viewBox="0 0 123.76592 148.88126"
   id="svg18773"
   version="1.1">
  <defs
     id="defs18775" />
  <metadata
     id="metadata18778">
    <rdf:RDF>
      <cc:Work
         rdf:about="">
        <dc:format>image/svg+xml</dc:format>
        <dc:type
           rdf:resource="http://purl.org/dc/dcmitype/StillImage" />
        <dc:title></dc:title>
      </cc:Work>
    </rdf:RDF>
  </metadata>
  <g
     id="layer1"
     transform="translate(-169.54561,-237.92157)">
    <g
       transform="translate(103.70287,24.311655)"
       style="font-variant:normal;font-size:6.30000019px;font-family:'Nimbus Sans L';-inkscape-font-specification:NimbusSanL-Regu;writing-mode:lr-tb;fill:#000000;fill-opacity:1;fill-rule:nonzero;stroke:none"
       id="text11965">
      <path
         d="m 128.5146,279.4864 1.5057,0 0,-0.5166 -3.6036,0 0,0.5166 1.512,0 0,4.0761 0.5859,0 0,-4.0761 z"
         id="path15959" />
      <path
         d="m 134.30363,280.3936 c -0.1827,-1.008 -0.7623,-1.4994 -1.7703,-1.4994 -0.6174,0 -1.1151,0.1953 -1.4553,0.5733 -0.4158,0.4536 -0.6426,1.1088 -0.6426,1.8522 0,0.756 0.2331,1.4049 0.6678,1.8522 0.3528,0.3654 0.8064,0.5355 1.4049,0.5355 1.1214,0 1.7514,-0.6048 1.89,-1.8207 l -0.6048,0 c -0.0504,0.315 -0.1134,0.5292 -0.2079,0.7119 -0.189,0.378 -0.5796,0.5922 -1.071,0.5922 -0.9135,0 -1.4931,-0.7308 -1.4931,-1.8774 0,-1.1781 0.5544,-1.9026 1.4427,-1.9026 0.3717,0 0.7182,0.1134 0.9072,0.2898 0.1701,0.1575 0.2646,0.3528 0.3339,0.693 l 0.5985,0 z"
         id="path15961" />
      <path
         d="m 135.85268,281.5843 1.512,0 c 0.5229,0 0.756,0.252 0.756,0.819 l -0.006,0.4095 c 0,0.2835 0.0504,0.5607 0.1323,0.7497 l 0.7119,0 0,-0.1449 c -0.2205,-0.1512 -0.2646,-0.315 -0.2772,-0.9261 -0.006,-0.756 -0.126,-0.9828 -0.6237,-1.197 0.5166,-0.252 0.7245,-0.5733 0.7245,-1.0962 0,-0.7938 -0.4977,-1.2285 -1.3986,-1.2285 l -2.1168,0 0,4.5927 0.5859,0 0,-1.9782 z m 0,-0.5166 0,-1.5813 1.4175,0 c 0.3276,0 0.5166,0.0504 0.6615,0.1764 0.1575,0.1323 0.2394,0.3402 0.2394,0.6174 0,0.5418 -0.2772,0.7875 -0.9009,0.7875 l -1.4175,0 z"
         id="path15963" />
      <path
         d="m 141.45893,279.4864 1.5057,0 0,-0.5166 -3.6036,0 0,0.5166 1.512,0 0,4.0761 0.5859,0 0,-4.0761 z"
         id="path15965" />
      <path
         d="m 144.70906,280.381 0,3.1815 0.5544,0 0,-4.4667 -0.3654,0 c -0.1953,0.6867 -0.3213,0.7812 -1.1781,0.8883 l 0,0.3969 0.9891,0 z"
         id="path15967" />
      <path
         d="m 148.31267,279.0958 c -0.4158,0 -0.7938,0.1827 -1.0269,0.4914 -0.2898,0.3906 -0.4347,0.9891 -0.4347,1.8144 0,1.5057 0.504,2.3058 1.4616,2.3058 0.945,0 1.4616,-0.8001 1.4616,-2.268 0,-0.8694 -0.1386,-1.449 -0.4347,-1.8522 -0.2331,-0.315 -0.6048,-0.4914 -1.0269,-0.4914 z m 0,0.4914 c 0.5985,0 0.8946,0.6048 0.8946,1.8018 0,1.2663 -0.2898,1.8585 -0.9072,1.8585 -0.5859,0 -0.882,-0.6174 -0.882,-1.8396 0,-1.2222 0.2961,-1.8207 0.8946,-1.8207 z"
         id="path15969" />
      <path
         d="m 151.71466,280.381 0,3.1815 0.5544,0 0,-4.4667 -0.3654,0 c -0.1953,0.6867 -0.3213,0.7812 -1.1781,0.8883 l 0,0.3969 0.9891,0 z"
         id="path15971" />
      <path
         d="m 155.31825,279.0958 c -0.4158,0 -0.7938,0.1827 -1.0269,0.4914 -0.2898,0.3906 -0.4347,0.9891 -0.4347,1.8144 0,1.5057 0.504,2.3058 1.4616,2.3058 0.945,0 1.4616,-0.8001 1.4616,-2.268 0,-0.8694 -0.1386,-1.449 -0.4347,-1.8522 -0.2331,-0.315 -0.6048,-0.4914 -1.0269,-0.4914 z m 0,0.4914 c 0.5985,0 0.8946,0.6048 0.8946,1.8018 0,1.2663 -0.2898,1.8585 -0.9072,1.8585 -0.5859,0 -0.882,-0.6174 -0.882,-1.8396 0,-1.2222 0.2961,-1.8207 0.8946,-1.8207 z"
         id="path15973" />
    </g>
    <g
       transform="translate(103.70287,24.311655)"
       style="font-variant:normal;font-size:8.85000038px;font-family:'Nimbus Sans L';-inkscape-font-specification:NimbusSanL-Regu;writing-mode:lr-tb;fill:#000000;fill-opacity:1;fill-rule:nonzero;stroke:none"
       id="text11969">
      <path
         d="m 80.817794,358.88038 -2.6904,0 0,0.7257 1.9647,0 0,0.177 c 0,1.1505 -0.8496,1.9824 -2.02665,1.9824 -0.6549,0 -1.24785,-0.23895 -1.6284,-0.6549 -0.4248,-0.4602 -0.68145,-1.23015 -0.68145,-2.02665 0,-1.58415 0.9027,-2.62845 2.2656,-2.62845 0.98235,0 1.69035,0.50445 1.86735,1.33635 l 0.84075,0 c -0.2301,-1.3098 -1.2213,-2.06205 -2.69925,-2.06205 -0.78765,0 -1.42485,0.20355 -1.9293,0.6195 -0.7434,0.6195 -1.1682,1.61955 -1.1682,2.7789 0,1.9824 1.21245,3.363 2.9559,3.363 0.87615,0 1.5753,-0.32745 2.20365,-1.0266 l 0.20355,0.85845 0.52215,0 0,-3.44265 z"
         id="path15946" />
      <path
         d="m 87.145552,355.83598 -0.7788,0 0,5.2746 -3.37185,-5.2746 -0.89385,0 0,6.45165 0.7788,0 0,-5.23035 3.33645,5.23035 0.92925,0 0,-6.45165 z"
         id="path15948" />
      <path
         d="m 88.605796,362.28763 2.48685,0 c 1.6284,0 2.62845,-1.2213 2.62845,-3.23025 0,-2.0001 -0.9912,-3.2214 -2.62845,-3.2214 l -2.48685,0 0,6.45165 z m 0.82305,-0.7257 0,-5.00025 1.5222,0 c 1.2744,0 1.947,0.85845 1.947,2.50455 0,1.6284 -0.6726,2.4957 -1.947,2.4957 l -1.5222,0 z"
         id="path15950" />
      <path
         d="m 170.80372,358.88038 -2.6904,0 0,0.7257 1.9647,0 0,0.177 c 0,1.1505 -0.8496,1.9824 -2.02665,1.9824 -0.6549,0 -1.24785,-0.23895 -1.6284,-0.6549 -0.4248,-0.4602 -0.68145,-1.23015 -0.68145,-2.02665 0,-1.58415 0.9027,-2.62845 2.2656,-2.62845 0.98235,0 1.69035,0.50445 1.86735,1.33635 l 0.84075,0 c -0.2301,-1.3098 -1.2213,-2.06205 -2.69925,-2.06205 -0.78765,0 -1.42485,0.20355 -1.9293,0.6195 -0.7434,0.6195 -1.1682,1.61955 -1.1682,2.7789 0,1.9824 1.21245,3.363 2.9559,3.363 0.87615,0 1.5753,-0.32745 2.20365,-1.0266 l 0.20355,0.85845 0.52215,0 0,-3.44265 z"
         id="path15952" />
      <path
         d="m 177.13147,355.83598 -0.7788,0 0,5.2746 -3.37185,-5.2746 -0.89385,0 0,6.45165 0.7788,0 0,-5.23035 3.33645,5.23035 0.92925,0 0,-6.45165 z"
         id="path15954" />
      <path
         d="m 178.59171,362.28763 2.48685,0 c 1.6284,0 2.62845,-1.2213 2.62845,-3.23025 0,-2.0001 -0.9912,-3.2214 -2.62845,-3.2214 l -2.48685,0 0,6.45165 z m 0.82305,-0.7257 0,-5.00025 1.5222,0 c 1.2744,0 1.947,0.85845 1.947,2.50455 0,1.6284 -0.6726,2.4957 -1.947,2.4957 l -1.5222,0 z"
         id="path15956" />
    </g>
    <path
       id="path15901"
       style="font-variant:normal;font-size:medium;font-family:'Nimbus Sans L';-inkscape-font-specification:NimbusSanL-Regu;writing-mode:lr-tb;fill:#000000;fill-opacity:1;fill-rule:nonzero;stroke:none"
       d="m 173.63431,253.66452 0,1.83195 -1.83195,0 0,0.6195 1.83195,0 0,1.83195 0.6195,0 0,-1.83195 1.83195,0 0,-0.6195 -1.83195,0 0,-1.83195 -0.6195,0 z" />
    <path
       id="path15903"
       style="font-variant:normal;font-size:medium;font-family:'Nimbus Sans L';-inkscape-font-specification:NimbusSanL-Regu;writing-mode:lr-tb;fill:#000000;fill-opacity:1;fill-rule:nonzero;stroke:none"
       d="m 173.12101,251.26615 0,-0.0974 -0.009,-0.32745 c 0,-0.85845 0.3894,-1.30095 1.14165,-1.30095 0.78765,0 1.2567,0.48675 1.2567,1.30095 0,0.8496 -0.4248,1.26555 -1.33635,1.31865 l 0,0.7788 c 0.50445,-0.0354 0.8319,-0.1239 1.1151,-0.27435 0.6018,-0.3186 0.91155,-0.9381 0.91155,-1.79655 0,-1.2921 -0.76995,-2.124 -1.95585,-2.124 -0.7965,0 -1.239,0.30975 -1.49565,1.062 -0.2301,-0.5841 -0.6726,-0.87615 -1.30095,-0.87615 -1.0797,0 -1.72575,0.71685 -1.72575,1.9116 0,1.26555 0.6903,1.93815 2.02665,1.9647 l 0,-0.7788 c -0.38055,-0.009 -0.59295,-0.0443 -0.78765,-0.1416 -0.34515,-0.177 -0.55755,-0.5664 -0.55755,-1.05315 0,-0.6903 0.4071,-1.10625 1.07085,-1.10625 0.4425,0 0.708,0.1593 0.8496,0.50445 0.0885,0.2124 0.1239,0.48675 0.13275,1.03545 l 0.66375,0 z" />
    <path
       id="path15905"
       style="font-variant:normal;font-size:medium;font-family:'Nimbus Sans L';-inkscape-font-specification:NimbusSanL-Regu;writing-mode:lr-tb;fill:#000000;fill-opacity:1;fill-rule:nonzero;stroke:none"
       d="m 175.99726,244.83337 -6.45165,-2.23905 0,0.87615 5.46045,1.7877 -5.46045,1.8939 0,0.885 6.45165,-2.3187 0,-0.885 z" />
    <path
       id="path15907"
       style="font-variant:normal;font-size:medium;font-family:'Nimbus Sans L';-inkscape-font-specification:NimbusSanL-Regu;writing-mode:lr-tb;fill:#000000;fill-opacity:1;fill-rule:nonzero;stroke:none"
       d="m 173.12101,240.44377 0,-0.0973 -0.009,-0.32745 c 0,-0.85845 0.3894,-1.30095 1.14165,-1.30095 0.78765,0 1.2567,0.48675 1.2567,1.30095 0,0.8496 -0.4248,1.26555 -1.33635,1.31865 l 0,0.7788 c 0.50445,-0.0354 0.8319,-0.1239 1.1151,-0.27435 0.6018,-0.3186 0.91155,-0.9381 0.91155,-1.79655 0,-1.2921 -0.76995,-2.124 -1.95585,-2.124 -0.7965,0 -1.239,0.30975 -1.49565,1.062 -0.2301,-0.5841 -0.6726,-0.87615 -1.30095,-0.87615 -1.0797,0 -1.72575,0.71685 -1.72575,1.9116 0,1.26555 0.6903,1.93815 2.02665,1.9647 l 0,-0.7788 c -0.38055,-0.009 -0.59295,-0.0443 -0.78765,-0.1416 -0.34515,-0.177 -0.55755,-0.5664 -0.55755,-1.05315 0,-0.6903 0.4071,-1.10625 1.07085,-1.10625 0.4425,0 0.708,0.1593 0.8496,0.50445 0.0885,0.2124 0.1239,0.48675 0.13275,1.03545 l 0.66375,0 z" />
    <path
       id="path15909"
       style="font-variant:normal;font-size:medium;font-family:'Nimbus Sans L';-inkscape-font-specification:NimbusSanL-Regu;writing-mode:lr-tb;fill:#000000;fill-opacity:1;fill-rule:nonzero;stroke:none"
       d="m 195.92356,276.40493 0,3.30105 c -0.5133,-0.0796 -0.84075,-0.36285 -1.2921,-1.1328 l -0.4779,-0.885 c -0.4779,-0.87615 -1.12395,-1.3275 -1.8939,-1.3275 -0.52215,0 -1.0089,0.2124 -1.3452,0.5841 -0.3363,0.3717 -0.4956,0.8319 -0.4956,1.42485 0,0.7965 0.2832,1.38945 0.8142,1.7346 0.3363,0.22125 0.7257,0.3186 1.3629,0.3363 l 0,-0.7788 c -0.4248,-0.0265 -0.68145,-0.0796 -0.885,-0.18585 -0.38055,-0.20355 -0.61065,-0.61065 -0.61065,-1.0797 0,-0.708 0.50445,-1.239 1.17705,-1.239 0.4956,0 0.9204,0.29205 1.239,0.8496 l 0.4602,0.8142 c 0.7434,1.3098 1.33635,1.69035 2.71695,1.76115 l 0,-4.1772 -0.76995,0 z" />
    <path
       id="path15911"
       style="font-variant:normal;font-size:medium;font-family:'Nimbus Sans L';-inkscape-font-specification:NimbusSanL-Regu;writing-mode:lr-tb;fill:#000000;fill-opacity:1;fill-rule:nonzero;stroke:none"
       d="m 195.92356,271.4855 0,3.30105 c -0.5133,-0.0796 -0.84075,-0.36285 -1.2921,-1.1328 l -0.4779,-0.885 c -0.4779,-0.87615 -1.12395,-1.3275 -1.8939,-1.3275 -0.52215,0 -1.0089,0.2124 -1.3452,0.5841 -0.3363,0.3717 -0.4956,0.8319 -0.4956,1.42485 0,0.7965 0.2832,1.38945 0.8142,1.7346 0.3363,0.22125 0.7257,0.3186 1.3629,0.3363 l 0,-0.7788 c -0.4248,-0.0266 -0.68145,-0.0797 -0.885,-0.18585 -0.38055,-0.20355 -0.61065,-0.61065 -0.61065,-1.0797 0,-0.708 0.50445,-1.239 1.17705,-1.239 0.4956,0 0.9204,0.29205 1.239,0.8496 l 0.4602,0.8142 c 0.7434,1.3098 1.33635,1.69035 2.71695,1.76115 l 0,-4.1772 -0.76995,0 z" />
    <path
       id="path15913"
       style="font-variant:normal;font-size:medium;font-family:'Nimbus Sans L';-inkscape-font-specification:NimbusSanL-Regu;writing-mode:lr-tb;fill:#000000;fill-opacity:1;fill-rule:nonzero;stroke:none"
       d="m 190.41886,268.6104 c 0,0.5841 0.25665,1.1151 0.6903,1.44255 0.5487,0.4071 1.38945,0.61065 2.5488,0.61065 2.11515,0 3.2391,-0.708 3.2391,-2.0532 0,-1.3275 -1.12395,-2.0532 -3.186,-2.0532 -1.2213,0 -2.0355,0.1947 -2.6019,0.61065 -0.4425,0.32745 -0.6903,0.8496 -0.6903,1.44255 z m 0.6903,0 c 0,-0.84075 0.8496,-1.2567 2.5311,-1.2567 1.77885,0 2.61075,0.4071 2.61075,1.2744 0,0.82305 -0.8673,1.239 -2.5842,1.239 -1.7169,0 -2.55765,-0.41595 -2.55765,-1.2567 z" />
    <path
       id="path15915"
       style="font-variant:normal;font-size:medium;font-family:'Nimbus Sans L';-inkscape-font-specification:NimbusSanL-Regu;writing-mode:lr-tb;fill:#000000;fill-opacity:1;fill-rule:nonzero;stroke:none"
       d="m 282.20914,278.59088 4.46924,0 0,-0.7788 -6.27465,0 0,0.5133 c 0.96465,0.27435 1.0974,0.45135 1.24785,1.65495 l 0.55755,0 0,-1.38945 z" />
    <path
       id="path15917"
       style="font-variant:normal;font-size:medium;font-family:'Nimbus Sans L';-inkscape-font-specification:NimbusSanL-Regu;writing-mode:lr-tb;fill:#000000;fill-opacity:1;fill-rule:nonzero;stroke:none"
       d="m 280.40374,273.52985 c 0,0.5841 0.25665,1.1151 0.6903,1.44255 0.5487,0.4071 1.38945,0.61065 2.5488,0.61065 2.11515,0 3.2391,-0.708 3.2391,-2.0532 0,-1.3275 -1.12395,-2.0532 -3.186,-2.0532 -1.2213,0 -2.0355,0.1947 -2.6019,0.61065 -0.4425,0.32745 -0.6903,0.8496 -0.6903,1.44255 z m 0.6903,0 c 0,-0.84075 0.8496,-1.2567 2.5311,-1.2567 1.77885,0 2.61075,0.4071 2.61075,1.2744 0,0.82305 -0.8673,1.239 -2.5842,1.239 -1.7169,0 -2.55765,-0.41595 -2.55765,-1.2567 z" />
    <path
       id="path15919"
       style="font-variant:normal;font-size:medium;font-family:'Nimbus Sans L';-inkscape-font-specification:NimbusSanL-Regu;writing-mode:lr-tb;fill:#000000;fill-opacity:1;fill-rule:nonzero;stroke:none"
       d="m 280.22673,269.7963 0,0.73455 6.45165,0 0,-0.73455 -1.80539,0 -0.708,-0.71685 2.51339,-1.56645 0,-0.91155 -3.03555,1.8939 -1.60185,-1.6107 0,0.94695 1.9647,1.9647 -3.77895,0 z" />
    <path
       id="path15617"
       style="font-variant:normal;font-size:medium;font-family:'Nimbus Sans L';-inkscape-font-specification:NimbusSanL-Regu;writing-mode:lr-tb;fill:#000000;fill-opacity:1;fill-rule:nonzero;stroke:none"
       d="m 263.61932,253.66452 0,1.83195 -1.83195,0 0,0.6195 1.83195,0 0,1.83195 0.6195,0 0,-1.83195 1.83195,0 0,-0.6195 -1.83195,0 0,-1.83195 -0.6195,0 z" />
    <path
       id="path15619"
       style="font-variant:normal;font-size:medium;font-family:'Nimbus Sans L';-inkscape-font-specification:NimbusSanL-Regu;writing-mode:lr-tb;fill:#000000;fill-opacity:1;fill-rule:nonzero;stroke:none"
       d="m 263.10602,251.26615 0,-0.0974 -0.009,-0.32745 c 0,-0.85845 0.3894,-1.30095 1.14165,-1.30095 0.78765,0 1.2567,0.48675 1.2567,1.30095 0,0.8496 -0.4248,1.26555 -1.33635,1.31865 l 0,0.7788 c 0.50445,-0.0354 0.8319,-0.1239 1.1151,-0.27435 0.6018,-0.3186 0.91155,-0.9381 0.91155,-1.79655 0,-1.2921 -0.76995,-2.124 -1.95585,-2.124 -0.7965,0 -1.239,0.30975 -1.49565,1.062 -0.2301,-0.5841 -0.6726,-0.87615 -1.30095,-0.87615 -1.0797,0 -1.72575,0.71685 -1.72575,1.9116 0,1.26555 0.6903,1.93815 2.02665,1.9647 l 0,-0.7788 c -0.38055,-0.009 -0.59295,-0.0443 -0.78765,-0.1416 -0.34515,-0.177 -0.55755,-0.5664 -0.55755,-1.05315 0,-0.6903 0.4071,-1.10625 1.07085,-1.10625 0.4425,0 0.708,0.1593 0.8496,0.50445 0.0885,0.2124 0.1239,0.48675 0.13275,1.03545 l 0.66375,0 z" />
    <path
       id="path15621"
       style="font-variant:normal;font-size:medium;font-family:'Nimbus Sans L';-inkscape-font-specification:NimbusSanL-Regu;writing-mode:lr-tb;fill:#000000;fill-opacity:1;fill-rule:nonzero;stroke:none"
       d="m 265.98227,244.83337 -6.45165,-2.23905 0,0.87615 5.46045,1.7877 -5.46045,1.8939 0,0.885 6.45165,-2.3187 0,-0.885 z" />
    <path
       id="path15623"
       style="font-variant:normal;font-size:medium;font-family:'Nimbus Sans L';-inkscape-font-specification:NimbusSanL-Regu;writing-mode:lr-tb;fill:#000000;fill-opacity:1;fill-rule:nonzero;stroke:none"
       d="m 263.10602,240.44377 0,-0.0973 -0.009,-0.32745 c 0,-0.85845 0.3894,-1.30095 1.14165,-1.30095 0.78765,0 1.2567,0.48675 1.2567,1.30095 0,0.8496 -0.4248,1.26555 -1.33635,1.31865 l 0,0.7788 c 0.50445,-0.0354 0.8319,-0.1239 1.1151,-0.27435 0.6018,-0.3186 0.91155,-0.9381 0.91155,-1.79655 0,-1.2921 -0.76995,-2.124 -1.95585,-2.124 -0.7965,0 -1.239,0.30975 -1.49565,1.062 -0.2301,-0.5841 -0.6726,-0.87615 -1.30095,-0.87615 -1.0797,0 -1.72575,0.71685 -1.72575,1.9116 0,1.26555 0.6903,1.93815 2.02665,1.9647 l 0,-0.7788 c -0.38055,-0.009 -0.59295,-0.0443 -0.78765,-0.1416 -0.34515,-0.177 -0.55755,-0.5664 -0.55755,-1.05315 0,-0.6903 0.4071,-1.10625 1.07085,-1.10625 0.4425,0 0.708,0.1593 0.8496,0.50445 0.0885,0.2124 0.1239,0.48675 0.13275,1.03545 l 0.66375,0 z" />
    <g
       transform="translate(103.70287,24.311655)"
       style="font-variant:normal;font-size:7.57499981px;font-family:'Nimbus Sans L';-inkscape-font-specification:NimbusSanL-Regu;writing-mode:lr-tb;fill:#000000;fill-opacity:1;fill-rule:nonzero;stroke:none"
       id="text12087">
      <path
         d="m 111.1587,298.09834 0.56813,1.65892 0.7878,0 -1.9392,-5.52217 -0.909,0 -1.9695,5.52217 0.74992,0 0.58328,-1.65892 2.12857,0 z m -0.19695,-0.59085 -1.7574,0 0.909,-2.5149 0.8484,2.5149 z"
         id="path15555" />
      <path
         d="m 71.329576,293.45809 1.734675,0 c 0.431775,0 0.77265,-0.12877 1.068075,-0.3939 0.3333,-0.303 0.477225,-0.65902 0.477225,-1.16655 0,-1.03777 -0.613575,-1.62105 -1.704375,-1.62105 l -2.280075,0 0,5.52218 0.704475,0 0,-2.34068 z m 0,-0.62115 0,-1.9392 1.46955,0 c 0.674175,0 1.07565,0.3636 1.07565,0.9696 0,0.606 -0.401475,0.9696 -1.07565,0.9696 l -1.46955,0 z"
         id="path15557" />
      <path
         d="m 76.457084,290.27659 -0.71205,0 0,5.52218 0.71205,0 0,-5.52218 z"
         id="path15559" />
      <path
         d="m 81.985964,290.27659 -0.6666,0 0,4.5147 -2.886075,-4.5147 -0.765075,0 0,5.52218 0.6666,0 0,-4.47683 2.855775,4.47683 0.795375,0 0,-5.52218 z"
         id="path15561" />
      <path
         d="m 86.940018,296.75322 -4.545,0 0,0.37875 4.545,0 0,-0.37875 z"
         id="path15563" />
      <path
         d="m 88.734043,291.97339 0,3.82538 0.6666,0 0,-5.37068 -0.43935,0 c -0.234825,0.82568 -0.386325,0.9393 -1.416525,1.06808 l 0,0.47722 1.189275,0 z"
         id="path15565" />
      <path
         d="m 108.87105,315.82027 0.90143,-0.90143 1.94677,2.83305 0.83325,0 -2.2725,-3.2724 2.24978,-2.24977 -0.909,0 -2.74973,2.79517 0,-2.79517 -0.70447,0 0,5.52217 0.70447,0 0,-1.93162 z"
         id="path15567" />
      <path
         d="m 71.329576,311.45223 1.734675,0 c 0.431775,0 0.77265,-0.12877 1.068075,-0.3939 0.3333,-0.303 0.477225,-0.65902 0.477225,-1.16655 0,-1.03777 -0.613575,-1.62105 -1.704375,-1.62105 l -2.280075,0 0,5.52218 0.704475,0 0,-2.34068 z m 0,-0.62115 0,-1.9392 1.46955,0 c 0.674175,0 1.07565,0.3636 1.07565,0.9696 0,0.606 -0.401475,0.9696 -1.07565,0.9696 l -1.46955,0 z"
         id="path15569" />
      <path
         d="m 76.457084,308.27073 -0.71205,0 0,5.52218 0.71205,0 0,-5.52218 z"
         id="path15571" />
      <path
         d="m 81.985964,308.27073 -0.6666,0 0,4.5147 -2.886075,-4.5147 -0.765075,0 0,5.52218 0.6666,0 0,-4.47683 2.855775,4.47683 0.795375,0 0,-5.52218 z"
         id="path15573" />
      <path
         d="m 86.940018,314.74736 -4.545,0 0,0.37875 4.545,0 0,-0.37875 z"
         id="path15575" />
      <path
         d="m 90.605068,313.13388 -2.825475,0 c 0.06817,-0.43935 0.310575,-0.71962 0.9696,-1.10595 l 0.7575,-0.40905 c 0.749925,-0.40905 1.13625,-0.96202 1.13625,-1.62105 0,-0.44692 -0.1818,-0.86355 -0.49995,-1.1514 -0.31815,-0.28785 -0.71205,-0.4242 -1.219575,-0.4242 -0.68175,0 -1.189275,0.2424 -1.4847,0.6969 -0.189375,0.28785 -0.2727,0.62115 -0.28785,1.16655 l 0.6666,0 c 0.02272,-0.3636 0.06817,-0.58327 0.159075,-0.7575 0.174225,-0.32572 0.522675,-0.52267 0.92415,-0.52267 0.606,0 1.0605,0.43177 1.0605,1.00747 0,0.4242 -0.249975,0.7878 -0.7272,1.0605 l -0.6969,0.3939 c -1.1211,0.6363 -1.446825,1.14383 -1.507425,2.32553 l 3.5754,0 0,-0.65903 z"
         id="path15577" />
      <path
         d="m 141.363,315.23846 3.00728,0 0,-0.62115 -3.00728,0 0,-1.76498 3.1209,0 0,-0.62115 -3.82537,0 0,5.52218 3.96172,0 0,-0.62115 -3.25725,0 0,-1.89375 z"
         id="path15579" />
      <path
         d="m 162.95258,311.45223 1.73467,0 c 0.43178,0 0.77265,-0.12877 1.06808,-0.3939 0.3333,-0.303 0.47722,-0.65902 0.47722,-1.16655 0,-1.03777 -0.61357,-1.62105 -1.70437,-1.62105 l -2.28008,0 0,5.52218 0.70448,0 0,-2.34068 z m 0,-0.62115 0,-1.9392 1.46955,0 c 0.67417,0 1.07565,0.3636 1.07565,0.9696 0,0.606 -0.40148,0.9696 -1.07565,0.9696 l -1.46955,0 z"
         id="path15581" />
      <path
         d="m 168.08085,308.27073 -0.71205,0 0,5.52218 0.71205,0 0,-5.52218 z"
         id="path15583" />
      <path
         d="m 173.60924,308.27073 -0.6666,0 0,4.5147 -2.88608,-4.5147 -0.76507,0 0,5.52218 0.6666,0 0,-4.47683 2.85577,4.47683 0.79538,0 0,-5.52218 z"
         id="path15585" />
      <path
         d="m 178.56329,314.74736 -4.545,0 0,0.37875 4.545,0 0,-0.37875 z"
         id="path15587" />
      <path
         d="m 180.06946,311.33103 0.0833,0 0.28027,-0.008 c 0.73478,0 1.11353,0.3333 1.11353,0.97717 0,0.67418 -0.41663,1.07565 -1.11353,1.07565 -0.7272,0 -1.08322,-0.3636 -1.12867,-1.14382 l -0.6666,0 c 0.0303,0.43177 0.10605,0.71205 0.23482,0.95445 0.2727,0.5151 0.80295,0.78022 1.53773,0.78022 1.10595,0 1.818,-0.65902 1.818,-1.67407 0,-0.68175 -0.26513,-1.0605 -0.909,-1.28018 0.49995,-0.19695 0.74992,-0.5757 0.74992,-1.11352 0,-0.92415 -0.61357,-1.47713 -1.6362,-1.47713 -1.08322,0 -1.65892,0.59085 -1.68165,1.73468 l 0.6666,0 c 0.008,-0.32573 0.0379,-0.50753 0.1212,-0.67418 0.1515,-0.29542 0.4848,-0.47722 0.90143,-0.47722 0.59085,0 0.94687,0.34845 0.94687,0.91657 0,0.37875 -0.13635,0.606 -0.43177,0.7272 -0.1818,0.0758 -0.41663,0.10605 -0.88628,0.11363 l 0,0.56812 z"
         id="path15589" />
      <path
         d="m 144.54117,295.94893 c -0.21968,-1.212 -0.91658,-1.80285 -2.12858,-1.80285 -0.74235,0 -1.34077,0.23483 -1.74982,0.68933 -0.49995,0.5454 -0.77265,1.3332 -0.77265,2.22705 0,0.909 0.28027,1.68922 0.80295,2.22705 0.4242,0.43935 0.9696,0.64387 1.68922,0.64387 1.34835,0 2.10585,-0.7272 2.2725,-2.18917 l -0.7272,0 c -0.0606,0.37875 -0.13635,0.6363 -0.24997,0.85597 -0.22725,0.4545 -0.6969,0.71205 -1.28775,0.71205 -1.09838,0 -1.79528,-0.8787 -1.79528,-2.25735 0,-1.41652 0.6666,-2.28765 1.73468,-2.28765 0.44692,0 0.86355,0.13635 1.0908,0.34845 0.20452,0.18938 0.31815,0.4242 0.40147,0.83325 l 0.71963,0 z"
         id="path15591" />
      <path
         d="m 162.95258,293.45803 1.73467,0 c 0.43178,0 0.77265,-0.12877 1.06808,-0.3939 0.3333,-0.303 0.47722,-0.65902 0.47722,-1.16655 0,-1.03777 -0.61357,-1.62105 -1.70437,-1.62105 l -2.28008,0 0,5.52218 0.70448,0 0,-2.34068 z m 0,-0.62115 0,-1.9392 1.46955,0 c 0.67417,0 1.07565,0.3636 1.07565,0.9696 0,0.606 -0.40148,0.9696 -1.07565,0.9696 l -1.46955,0 z"
         id="path15593" />
      <path
         d="m 168.08085,290.27653 -0.71205,0 0,5.52218 0.71205,0 0,-5.52218 z"
         id="path15595" />
      <path
         d="m 173.60924,290.27653 -0.6666,0 0,4.5147 -2.88608,-4.5147 -0.76507,0 0,5.52218 0.6666,0 0,-4.47683 2.85577,4.47683 0.79538,0 0,-5.52218 z"
         id="path15597" />
      <path
         d="m 178.56329,296.75316 -4.545,0 0,0.37875 4.545,0 0,-0.37875 z"
         id="path15599" />
      <path
         d="m 180.87241,294.51096 0,1.28775 0.6666,0 0,-1.28775 0.79538,0 0,-0.59843 -0.79538,0 0,-3.4845 -0.49237,0 -2.43915,3.37845 0,0.70448 2.26492,0 z m 0,-0.59843 -1.68165,0 1.68165,-2.34825 0,2.34825 z"
         id="path15601" />
    </g>
    <g
       transform="translate(103.70287,24.311655)"
       style="font-variant:normal;font-size:6.30000019px;font-family:'Nimbus Sans L';-inkscape-font-specification:NimbusSanL-Regu;writing-mode:lr-tb;fill:#000000;fill-opacity:1;fill-rule:nonzero;stroke:none"
       id="text12105">
      <path
         d="m 102.76688,278.96968 0,3.2256 c 0,0.6174 -0.4473,0.9954 -1.1844,0.9954 -0.3402,0 -0.6174,-0.0819 -0.8379,-0.2394 -0.2268,-0.1764 -0.3339,-0.4095 -0.3339,-0.756 l 0,-3.2256 -0.585904,0 0,3.2256 c 0,0.9324 0.667804,1.512 1.757704,1.512 1.0773,0 1.7703,-0.5922 1.7703,-1.512 l 0,-3.2256 -0.5859,0 z"
         id="path15548" />
      <path
         d="m 105.36878,278.71138 0,0.3402 c -0.8064,0.1008 -1.2411,0.5418 -1.2411,1.26 0,0.3969 0.1512,0.7056 0.4473,0.9198 0.1638,0.1197 0.3339,0.189 0.7938,0.3276 l 0,1.7136 c -0.2835,-0.0378 -0.5229,-0.1638 -0.6678,-0.3591 -0.0945,-0.1449 -0.1197,-0.252 -0.1575,-0.6615 l -0.4977,0 c -0.0441,0.8757 0.4347,1.3986 1.323,1.4553 l 0,0.6489 0.3717,0 0,-0.6489 c 0.3402,-0.0252 0.5733,-0.0945 0.7812,-0.2205 0.3654,-0.2268 0.5796,-0.6615 0.5796,-1.1529 0,-0.4473 -0.1701,-0.7623 -0.5355,-0.9702 -0.1638,-0.0945 -0.2457,-0.126 -0.8253,-0.3024 l 0,-1.5687 c 0.4221,0.0189 0.7182,0.3402 0.7245,0.8001 l 0.4977,0 c 0,-0.7182 -0.4599,-1.1844 -1.2222,-1.2411 l 0,-0.3402 -0.3717,0 z m 0,2.2995 c -0.4977,-0.1323 -0.7308,-0.378 -0.7308,-0.7623 0,-0.4158 0.2646,-0.6867 0.7308,-0.7497 l 0,1.512 z m 0.3717,0.6048 c 0.6426,0.189 0.8442,0.378 0.8442,0.7938 0,0.2457 -0.0945,0.4662 -0.2646,0.63 -0.1512,0.1449 -0.3087,0.2016 -0.5796,0.2331 l 0,-1.6569 z"
         id="path15550" />
      <path
         d="m 108.97238,280.38088 0,3.1815 0.5544,0 0,-4.4667 -0.3654,0 c -0.1953,0.6867 -0.3213,0.7812 -1.1781,0.8883 l 0,0.3969 0.9891,0 z"
         id="path15552" />
    </g>
    <path
       id="path15527"
       style="font-variant:normal;font-size:medium;font-family:'Nimbus Sans L';-inkscape-font-specification:NimbusSanL-Regu;writing-mode:lr-tb;fill:#000000;fill-opacity:1;fill-rule:nonzero;stroke:none"
       d="m 176.90711,279.23681 0,-2.124 c 0,-0.73455 0.354,-1.062 1.1505,-1.062 l 0.57525,0.009 c 0.39825,0 0.78765,-0.0708 1.05315,-0.18585 l 0,-1.00005 -0.20355,0 c -0.2124,0.30975 -0.4425,0.3717 -1.30095,0.3894 -1.062,0.009 -1.3806,0.177 -1.6815,0.87615 -0.354,-0.7257 -0.80535,-1.01775 -1.5399,-1.01775 -1.1151,0 -1.72575,0.69915 -1.72575,1.9647 l 0,2.9736 6.45165,0 0,-0.82305 -2.7789,0 z m -0.7257,0 -2.22135,0 0,-1.99125 c 0,-0.4602 0.0708,-0.7257 0.2478,-0.92925 0.18585,-0.22125 0.4779,-0.3363 0.8673,-0.3363 0.7611,0 1.10625,0.3894 1.10625,1.26555 l 0,1.99125 z" />
    <path
       id="path15529"
       style="font-variant:normal;font-size:medium;font-family:'Nimbus Sans L';-inkscape-font-specification:NimbusSanL-Regu;writing-mode:lr-tb;fill:#000000;fill-opacity:1;fill-rule:nonzero;stroke:none"
       d="m 175.21676,272.20106 4.46925,0 0,-0.7788 -6.27465,0 0,0.5133 c 0.96465,0.27435 1.0974,0.45135 1.24785,1.65495 l 0.55755,0 0,-1.38945 z" />
    <path
       id="path15531"
       style="font-variant:normal;font-size:medium;font-family:'Nimbus Sans L';-inkscape-font-specification:NimbusSanL-Regu;writing-mode:lr-tb;fill:#000000;fill-opacity:1;fill-rule:nonzero;stroke:none"
       d="m 266.89199,279.23681 0,-2.124 c 0,-0.73455 0.354,-1.062 1.1505,-1.062 l 0.57525,0.009 c 0.39825,0 0.78765,-0.0708 1.05315,-0.18585 l 0,-1.00005 -0.20355,0 c -0.2124,0.30975 -0.4425,0.3717 -1.30095,0.3894 -1.062,0.009 -1.3806,0.177 -1.6815,0.87615 -0.354,-0.7257 -0.80535,-1.01775 -1.5399,-1.01775 -1.1151,0 -1.72575,0.69915 -1.72575,1.9647 l 0,2.9736 6.45165,0 0,-0.82305 -2.7789,0 z m -0.7257,0 -2.22135,0 0,-1.99125 c 0,-0.4602 0.0708,-0.7257 0.2478,-0.92925 0.18585,-0.22125 0.4779,-0.3363 0.8673,-0.3363 0.7611,0 1.10625,0.3894 1.10625,1.26555 l 0,1.99125 z" />
    <path
       id="path15533"
       style="font-variant:normal;font-size:medium;font-family:'Nimbus Sans L';-inkscape-font-specification:NimbusSanL-Regu;writing-mode:lr-tb;fill:#000000;fill-opacity:1;fill-rule:nonzero;stroke:none"
       d="m 268.90094,270.01511 0,3.30105 c -0.5133,-0.0797 -0.84075,-0.36285 -1.2921,-1.1328 l -0.4779,-0.885 c -0.4779,-0.87615 -1.12395,-1.3275 -1.8939,-1.3275 -0.52215,0 -1.0089,0.2124 -1.3452,0.5841 -0.3363,0.3717 -0.4956,0.8319 -0.4956,1.42485 0,0.7965 0.2832,1.38945 0.8142,1.7346 0.3363,0.22125 0.7257,0.3186 1.3629,0.3363 l 0,-0.7788 c -0.4248,-0.0266 -0.68145,-0.0797 -0.885,-0.18585 -0.38055,-0.20355 -0.61065,-0.61065 -0.61065,-1.0797 0,-0.708 0.50445,-1.239 1.17705,-1.239 0.4956,0 0.9204,0.29205 1.239,0.8496 l 0.4602,0.8142 c 0.7434,1.3098 1.33635,1.69035 2.71695,1.76115 l 0,-4.1772 -0.76995,0 z" />
    <path
       id="path12489"
       style="fill:#000000;fill-opacity:1;fill-rule:evenodd;stroke:none"
       d="m 203.00726,348.34416 54.00001,0" />
    <path
       id="path12491"
       style="fill:none;stroke:#000000;stroke-width:0.89999998;stroke-linecap:round;stroke-linejoin:round;stroke-miterlimit:10;stroke-dasharray:none;stroke-opacity:1"
       d="m 203.00726,348.34416 54.00001,0" />
    <path
       id="path12493"
       style="fill:#000000;fill-opacity:1;fill-rule:evenodd;stroke:none"
       d="m 257.00727,348.34416 0,-36" />
    <path
       id="path12495"
       style="fill:none;stroke:#000000;stroke-width:0.89999998;stroke-linecap:round;stroke-linejoin:round;stroke-miterlimit:10;stroke-dasharray:none;stroke-opacity:1"
       d="m 257.00727,348.34416 0,-36" />
    <path
       id="path12497"
       style="fill:#000000;fill-opacity:1;fill-rule:evenodd;stroke:none"
       d="m 257.00727,312.34416 -54.00001,0" />
    <path
       id="path12499"
       style="fill:none;stroke:#000000;stroke-width:0.89999998;stroke-linecap:round;stroke-linejoin:round;stroke-miterlimit:10;stroke-dasharray:none;stroke-opacity:1"
       d="m 257.00727,312.34416 -54.00001,0" />
    <path
       id="path12501"
       style="fill:#000000;fill-opacity:1;fill-rule:evenodd;stroke:none"
       d="m 203.00726,312.34416 0,36" />
    <path
       id="path12503"
       style="fill:none;stroke:#000000;stroke-width:0.89999998;stroke-linecap:round;stroke-linejoin:round;stroke-miterlimit:10;stroke-dasharray:none;stroke-opacity:1"
       d="m 203.00726,312.34416 0,36" />
    <path
       id="path12505"
       style="fill:#000000;fill-opacity:1;fill-rule:evenodd;stroke:none"
       d="m 185.00726,321.34416 18,0" />
    <path
       id="path12507"
       style="fill:none;stroke:#000000;stroke-width:0.60000002;stroke-linecap:round;stroke-linejoin:round;stroke-miterlimit:10;stroke-dasharray:none;stroke-opacity:1"
       d="m 185.00726,321.34416 18,0" />
    <path
       id="path12509"
       style="fill:#000000;fill-opacity:1;fill-rule:evenodd;stroke:none"
       d="m 185.00726,339.34416 18,0" />
    <path
       id="path12511"
       style="fill:none;stroke:#000000;stroke-width:0.60000002;stroke-linecap:round;stroke-linejoin:round;stroke-miterlimit:10;stroke-dasharray:none;stroke-opacity:1"
       d="m 185.00726,339.34416 18,0" />
    <path
       id="path12513"
       style="fill:#000000;fill-opacity:1;fill-rule:evenodd;stroke:none"
       d="m 275.00726,339.34416 -17.99999,0" />
    <path
       id="path12515"
       style="fill:none;stroke:#000000;stroke-width:0.60000002;stroke-linecap:round;stroke-linejoin:round;stroke-miterlimit:10;stroke-dasharray:none;stroke-opacity:1"
       d="m 275.00726,339.34416 -17.99999,0" />
    <path
       id="path12517"
       style="fill:#000000;fill-opacity:1;fill-rule:evenodd;stroke:none"
       d="m 275.00726,321.34416 -17.99999,0" />
    <path
       id="path12519"
       style="fill:none;stroke:#000000;stroke-width:0.60000002;stroke-linecap:round;stroke-linejoin:round;stroke-miterlimit:10;stroke-dasharray:none;stroke-opacity:1"
       d="m 275.00726,321.34416 -17.99999,0" />
    <path
       id="path12521"
       style="fill:#000000;fill-opacity:1;fill-rule:evenodd;stroke:none"
       d="m 180.50726,375.34416 9,0" />
    <path
       id="path12523"
       style="fill:none;stroke:#000000;stroke-width:0.89999998;stroke-linecap:round;stroke-linejoin:round;stroke-miterlimit:10;stroke-dasharray:none;stroke-opacity:1"
       d="m 180.50726,375.34416 9,0" />
    <path
       id="path12525"
       style="fill:#000000;fill-opacity:1;fill-rule:evenodd;stroke:none"
       d="m 189.50726,375.34416 -4.5,4.5" />
    <path
       id="path12527"
       style="fill:none;stroke:#000000;stroke-width:0.89999998;stroke-linecap:round;stroke-linejoin:round;stroke-miterlimit:10;stroke-dasharray:none;stroke-opacity:1"
       d="m 189.50726,375.34416 -4.5,4.5" />
    <path
       id="path12529"
       style="fill:#000000;fill-opacity:1;fill-rule:evenodd;stroke:none"
       d="m 185.00726,379.84416 -4.5,-4.5" />
    <path
       id="path12531"
       style="fill:none;stroke:#000000;stroke-width:0.89999998;stroke-linecap:round;stroke-linejoin:round;stroke-miterlimit:10;stroke-dasharray:none;stroke-opacity:1"
       d="m 185.00726,379.84416 -4.5,-4.5" />
    <path
       id="path12533"
       style="fill:#000000;fill-opacity:1;fill-rule:evenodd;stroke:none"
       d="m 185.00726,366.34416 0,9" />
    <path
       id="path12535"
       style="fill:none;stroke:#000000;stroke-width:0.60000002;stroke-linecap:round;stroke-linejoin:round;stroke-miterlimit:10;stroke-dasharray:none;stroke-opacity:1"
       d="m 185.00726,366.34416 0,9" />
    <path
       id="path12537"
       style="fill:#000000;fill-opacity:1;fill-rule:evenodd;stroke:none"
       d="m 270.50726,375.34416 9,0" />
    <path
       id="path12539"
       style="fill:none;stroke:#000000;stroke-width:0.89999998;stroke-linecap:round;stroke-linejoin:round;stroke-miterlimit:10;stroke-dasharray:none;stroke-opacity:1"
       d="m 270.50726,375.34416 9,0" />
    <path
       id="path12541"
       style="fill:#000000;fill-opacity:1;fill-rule:evenodd;stroke:none"
       d="m 279.50726,375.34416 -4.5,4.5" />
    <path
       id="path12543"
       style="fill:none;stroke:#000000;stroke-width:0.89999998;stroke-linecap:round;stroke-linejoin:round;stroke-miterlimit:10;stroke-dasharray:none;stroke-opacity:1"
       d="m 279.50726,375.34416 -4.5,4.5" />
    <path
       id="path12545"
       style="fill:#000000;fill-opacity:1;fill-rule:evenodd;stroke:none"
       d="m 275.00726,379.84416 -4.5,-4.5" />
    <path
       id="path12547"
       style="fill:none;stroke:#000000;stroke-width:0.89999998;stroke-linecap:round;stroke-linejoin:round;stroke-miterlimit:10;stroke-dasharray:none;stroke-opacity:1"
       d="m 275.00726,379.84416 -4.5,-4.5" />
    <path
       id="path12549"
       style="fill:#000000;fill-opacity:1;fill-rule:evenodd;stroke:none"
       d="m 275.00726,366.34416 0,9" />
    <path
       id="path12551"
       style="fill:none;stroke:#000000;stroke-width:0.60000002;stroke-linecap:round;stroke-linejoin:round;stroke-miterlimit:10;stroke-dasharray:none;stroke-opacity:1"
       d="m 275.00726,366.34416 0,9" />
    <path
       id="path12553"
       style="fill:#000000;fill-opacity:1;fill-rule:evenodd;stroke:none"
       d="m 189.50726,247.16916 -4.5,-6.75" />
    <path
       id="path12555"
       style="fill:none;stroke:#000000;stroke-width:0.89999998;stroke-linecap:round;stroke-linejoin:round;stroke-miterlimit:10;stroke-dasharray:none;stroke-opacity:1"
       d="m 189.50726,247.16916 -4.5,-6.75" />
    <path
       id="path12557"
       style="fill:#000000;fill-opacity:1;fill-rule:evenodd;stroke:none"
       d="m 185.00726,240.41916 -4.5,6.75" />
    <path
       id="path12559"
       style="fill:none;stroke:#000000;stroke-width:0.89999998;stroke-linecap:round;stroke-linejoin:round;stroke-miterlimit:10;stroke-dasharray:none;stroke-opacity:1"
       d="m 185.00726,240.41916 -4.5,6.75" />
    <path
       id="path12561"
       style="fill:#000000;fill-opacity:1;fill-rule:evenodd;stroke:none"
       d="m 185.00726,249.41916 0,-9" />
    <path
       id="path12563"
       style="fill:none;stroke:#000000;stroke-width:0.60000002;stroke-linecap:round;stroke-linejoin:round;stroke-miterlimit:10;stroke-dasharray:none;stroke-opacity:1"
       d="m 185.00726,249.41916 0,-9" />
    <path
       id="path12565"
       style="fill:#000000;fill-opacity:1;fill-rule:evenodd;stroke:none"
       d="m 188.15726,276.41916 0,-18" />
    <path
       id="path12567"
       style="fill:none;stroke:#000000;stroke-width:0.89999998;stroke-linecap:round;stroke-linejoin:round;stroke-miterlimit:10;stroke-dasharray:none;stroke-opacity:1"
       d="m 188.15726,276.41916 0,-18" />
    <path
       id="path12569"
       style="fill:#000000;fill-opacity:1;fill-rule:evenodd;stroke:none"
       d="m 181.85726,258.41916 0,18" />
    <path
       id="path12571"
       style="fill:none;stroke:#000000;stroke-width:0.89999998;stroke-linecap:round;stroke-linejoin:round;stroke-miterlimit:10;stroke-dasharray:none;stroke-opacity:1"
       d="m 181.85726,258.41916 0,18" />
    <path
       id="path12573"
       style="fill:#000000;fill-opacity:1;fill-rule:evenodd;stroke:none"
       d="m 188.15726,258.41916 -6.3,0" />
    <path
       id="path12575"
       style="fill:none;stroke:#000000;stroke-width:0.89999998;stroke-linecap:round;stroke-linejoin:round;stroke-miterlimit:10;stroke-dasharray:none;stroke-opacity:1"
       d="m 188.15726,258.41916 -6.3,0" />
    <path
       id="path12577"
       style="fill:#000000;fill-opacity:1;fill-rule:evenodd;stroke:none"
       d="m 188.15726,276.41916 -6.3,0" />
    <path
       id="path12579"
       style="fill:none;stroke:#000000;stroke-width:0.89999998;stroke-linecap:round;stroke-linejoin:round;stroke-miterlimit:10;stroke-dasharray:none;stroke-opacity:1"
       d="m 188.15726,276.41916 -6.3,0" />
    <path
       id="path12581"
       style="fill:#000000;fill-opacity:1;fill-rule:evenodd;stroke:none"
       d="m 185.00726,249.41916 0,9" />
    <path
       id="path12583"
       style="fill:none;stroke:#000000;stroke-width:0.60000002;stroke-linecap:round;stroke-linejoin:round;stroke-miterlimit:10;stroke-dasharray:none;stroke-opacity:1"
       d="m 185.00726,249.41916 0,9" />
    <path
       id="path12585"
       style="fill:#000000;fill-opacity:1;fill-rule:evenodd;stroke:none"
       d="m 185.00726,285.41916 0,-9" />
    <path
       id="path12587"
       style="fill:none;stroke:#000000;stroke-width:0.60000002;stroke-linecap:round;stroke-linejoin:round;stroke-miterlimit:10;stroke-dasharray:none;stroke-opacity:1"
       d="m 185.00726,285.41916 0,-9" />
    <path
       id="path12589"
       style="fill:#000000;fill-opacity:1;fill-rule:evenodd;stroke:none"
       d="m 278.15727,276.41916 0,-18" />
    <path
       id="path12591"
       style="fill:none;stroke:#000000;stroke-width:0.89999998;stroke-linecap:round;stroke-linejoin:round;stroke-miterlimit:10;stroke-dasharray:none;stroke-opacity:1"
       d="m 278.15727,276.41916 0,-18" />
    <path
       id="path12593"
       style="fill:#000000;fill-opacity:1;fill-rule:evenodd;stroke:none"
       d="m 271.85727,258.41916 0,18" />
    <path
       id="path12595"
       style="fill:none;stroke:#000000;stroke-width:0.89999998;stroke-linecap:round;stroke-linejoin:round;stroke-miterlimit:10;stroke-dasharray:none;stroke-opacity:1"
       d="m 271.85727,258.41916 0,18" />
    <path
       id="path12597"
       style="fill:#000000;fill-opacity:1;fill-rule:evenodd;stroke:none"
       d="m 278.15727,258.41916 -6.30001,0" />
    <path
       id="path12599"
       style="fill:none;stroke:#000000;stroke-width:0.89999998;stroke-linecap:round;stroke-linejoin:round;stroke-miterlimit:10;stroke-dasharray:none;stroke-opacity:1"
       d="m 278.15727,258.41916 -6.30001,0" />
    <path
       id="path12601"
       style="fill:#000000;fill-opacity:1;fill-rule:evenodd;stroke:none"
       d="m 278.15727,276.41916 -6.30001,0" />
    <path
       id="path12603"
       style="fill:none;stroke:#000000;stroke-width:0.89999998;stroke-linecap:round;stroke-linejoin:round;stroke-miterlimit:10;stroke-dasharray:none;stroke-opacity:1"
       d="m 278.15727,276.41916 -6.30001,0" />
    <path
       id="path12605"
       style="fill:#000000;fill-opacity:1;fill-rule:evenodd;stroke:none"
       d="m 275.00726,249.41916 0,9" />
    <path
       id="path12607"
       style="fill:none;stroke:#000000;stroke-width:0.60000002;stroke-linecap:round;stroke-linejoin:round;stroke-miterlimit:10;stroke-dasharray:none;stroke-opacity:1"
       d="m 275.00726,249.41916 0,9" />
    <path
       id="path12609"
       style="fill:#000000;fill-opacity:1;fill-rule:evenodd;stroke:none"
       d="m 275.00726,285.41916 0,-9" />
    <path
       id="path12611"
       style="fill:none;stroke:#000000;stroke-width:0.60000002;stroke-linecap:round;stroke-linejoin:round;stroke-miterlimit:10;stroke-dasharray:none;stroke-opacity:1"
       d="m 275.00726,285.41916 0,-9" />
    <path
       id="path13851"
       style="fill:#000000;fill-opacity:1;fill-rule:evenodd;stroke:none"
       d="m 279.50726,247.16916 -4.5,-6.75" />
    <path
       id="path13853"
       style="fill:none;stroke:#000000;stroke-width:0.89999998;stroke-linecap:round;stroke-linejoin:round;stroke-miterlimit:10;stroke-dasharray:none;stroke-opacity:1"
       d="m 279.50726,247.16916 -4.5,-6.75" />
    <path
       id="path13855"
       style="fill:#000000;fill-opacity:1;fill-rule:evenodd;stroke:none"
       d="m 275.00726,240.41916 -4.5,6.75" />
    <path
       id="path13857"
       style="fill:none;stroke:#000000;stroke-width:0.89999998;stroke-linecap:round;stroke-linejoin:round;stroke-miterlimit:10;stroke-dasharray:none;stroke-opacity:1"
       d="m 275.00726,240.41916 -4.5,6.75" />
    <path
       id="path13859"
       style="fill:#000000;fill-opacity:1;fill-rule:evenodd;stroke:none"
       d="m 275.00726,249.41916 0,-9" />
    <path
       id="path13861"
       style="fill:none;stroke:#000000;stroke-width:0.60000002;stroke-linecap:round;stroke-linejoin:round;stroke-miterlimit:10;stroke-dasharray:none;stroke-opacity:1"
       d="m 275.00726,249.41916 0,-9" />
    <path
       id="path14075"
       style="fill:#000000;fill-opacity:1;fill-rule:evenodd;stroke:none"
       d="m 275.00726,285.41916 0,26.925" />
    <path
       id="path14077"
       style="fill:none;stroke:#000000;stroke-width:0.60000002;stroke-linecap:round;stroke-linejoin:round;stroke-miterlimit:10;stroke-dasharray:none;stroke-opacity:1"
       d="m 275.00726,285.41916 0,26.925" />
    <path
       id="path14079"
       style="fill:#000000;fill-opacity:1;fill-rule:evenodd;stroke:none"
       d="m 275.00726,312.34416 0,9" />
    <path
       id="path14081"
       style="fill:none;stroke:#000000;stroke-width:0.60000002;stroke-linecap:round;stroke-linejoin:round;stroke-miterlimit:10;stroke-dasharray:none;stroke-opacity:1"
       d="m 275.00726,312.34416 0,9" />
    <path
       id="path14083"
       style="fill:#000000;fill-opacity:1;fill-rule:evenodd;stroke:none"
       d="m 293.00726,312.34416 -18,0" />
    <path
       id="path14085"
       style="fill:none;stroke:#000000;stroke-width:0.60000002;stroke-linecap:round;stroke-linejoin:round;stroke-miterlimit:10;stroke-dasharray:none;stroke-opacity:1"
       d="m 293.00726,312.34416 -18,0" />
    <path
       id="path14087"
       style="fill:#000000;fill-opacity:1;fill-rule:evenodd;stroke:none"
       d="m 276.80727,312.34416 c 0,0.99375 -0.80625,1.8 -1.80001,1.8 -0.99375,0 -1.8,-0.80625 -1.8,-1.8 0,-0.99375 0.80625,-1.8 1.8,-1.8 0.99376,0 1.80001,0.80625 1.80001,1.8" />
    <path
       id="path14089"
       style="fill:none;stroke:#000000;stroke-width:1;stroke-linecap:round;stroke-linejoin:round;stroke-miterlimit:10;stroke-dasharray:none;stroke-opacity:1"
       d="m 276.80727,312.34416 c 0,0.99375 -0.80625,1.8 -1.80001,1.8 -0.99375,0 -1.8,-0.80625 -1.8,-1.8 0,-0.99375 0.80625,-1.8 1.8,-1.8 0.99376,0 1.80001,0.80625 1.80001,1.8 z" />
    <path
       id="path14091"
       style="fill:#000000;fill-opacity:1;fill-rule:evenodd;stroke:none"
       d="m 275.00726,366.34416 0,-27" />
    <path
       id="path14093"
       style="fill:none;stroke:#000000;stroke-width:0.60000002;stroke-linecap:round;stroke-linejoin:round;stroke-miterlimit:10;stroke-dasharray:none;stroke-opacity:1"
       d="m 275.00726,366.34416 0,-27" />
    <path
       id="path14095"
       style="fill:#000000;fill-opacity:1;fill-rule:evenodd;stroke:none"
       d="m 185.00726,366.34416 0,-27" />
    <path
       id="path14097"
       style="fill:none;stroke:#000000;stroke-width:0.60000002;stroke-linecap:round;stroke-linejoin:round;stroke-miterlimit:10;stroke-dasharray:none;stroke-opacity:1"
       d="m 185.00726,366.34416 0,-27" />
    <path
       id="path14539"
       style="fill:#000000;fill-opacity:1;fill-rule:evenodd;stroke:none"
       d="m 185.00726,321.34416 0,-35.925" />
    <path
       id="path14541"
       style="fill:none;stroke:#000000;stroke-width:0.60000002;stroke-linecap:round;stroke-linejoin:round;stroke-miterlimit:10;stroke-dasharray:none;stroke-opacity:1"
       d="m 185.00726,321.34416 0,-35.925" />
  </g>
</svg>
