<?xml version="1.0" encoding="UTF-8" standalone="no"?>
<svg
   xmlns:dc="http://purl.org/dc/elements/1.1/"
   xmlns:cc="http://creativecommons.org/ns#"
   xmlns:rdf="http://www.w3.org/1999/02/22-rdf-syntax-ns#"
   xmlns:svg="http://www.w3.org/2000/svg"
   xmlns="http://www.w3.org/2000/svg"
   width="38.250576mm"
   height="44.081905mm"
   viewBox="0 0 135.53354 156.19573"
   id="svg21123"
   version="1.1">
  <defs
     id="defs21125" />
  <metadata
     id="metadata21128">
    <rdf:RDF>
      <cc:Work
         rdf:about="">
        <dc:format>image/svg+xml</dc:format>
        <dc:type
           rdf:resource="http://purl.org/dc/dcmitype/StillImage" />
        <dc:title></dc:title>
      </cc:Work>
    </rdf:RDF>
  </metadata>
  <g
     id="layer1"
     transform="translate(-417.94752,-451.4072)">
    <path
       id="path15929"
       style="font-variant:normal;font-size:medium;font-family:'Nimbus Sans L';-inkscape-font-specification:NimbusSanL-Regu;writing-mode:lr-tb;fill:#000000;fill-opacity:1;fill-rule:nonzero;stroke:none"
       d="m 487.34965,506.88693 1.5045,0 0,-0.7788 -1.5045,0 0,-0.92925 -0.69915,0 0,0.92925 -4.071,0 0,0.57525 3.9471,2.8497 0.82305,0 0,-2.64615 z m -0.69915,0 0,1.9647 -2.7435,-1.9647 2.7435,0 z" />
    <path
       id="path15931"
       style="font-variant:normal;font-size:medium;font-family:'Nimbus Sans L';-inkscape-font-specification:NimbusSanL-Regu;writing-mode:lr-tb;fill:#000000;fill-opacity:1;fill-rule:nonzero;stroke:none"
       d="m 487.93375,503.17109 0,0.9204 0.9204,0 0,-0.9204 -0.9204,0 z" />
    <path
       id="path15933"
       style="font-variant:normal;font-size:medium;font-family:'Nimbus Sans L';-inkscape-font-specification:NimbusSanL-Regu;writing-mode:lr-tb;fill:#000000;fill-opacity:1;fill-rule:nonzero;stroke:none"
       d="m 482.5795,497.79997 0,4.1949 0.76995,0 0,-3.38955 c 2.13285,1.49565 3.44265,2.1063 5.5047,2.57535 l 0,-0.8319 c -2.00895,-0.34515 -3.7347,-1.1328 -5.61975,-2.5488 l -0.6549,0 z" />
    <path
       id="path15935"
       style="font-variant:normal;font-size:medium;font-family:'Nimbus Sans L';-inkscape-font-specification:NimbusSanL-Regu;writing-mode:lr-tb;fill:#000000;fill-opacity:1;fill-rule:nonzero;stroke:none"
       d="m 484.21675,496.86255 4.6374,0 0,-0.7434 -2.55765,0 c -0.94695,0 -1.56645,-0.4956 -1.56645,-1.2567 0,-0.5841 0.354,-0.9558 0.91155,-0.9558 l 3.21255,0 0,-0.73455 -3.5046,0 c -0.76995,0 -1.26555,0.57525 -1.26555,1.4691 0,0.6903 0.2655,1.1328 0.91155,1.5399 l -0.7788,0 0,0.68145 z" />
    <g
       transform="translate(192.94738,173.13537)"
       style="font-variant:normal;font-size:8.85000038px;font-family:'Nimbus Sans L';-inkscape-font-specification:NimbusSanL-Regu;writing-mode:lr-tb;fill:#000000;fill-opacity:1;fill-rule:nonzero;stroke:none"
       id="text11987">
      <path
         d="m 286.01601,360.33771 c 0.64605,-0.3894 0.85845,-0.708 0.85845,-1.30095 0,-0.98235 -0.76995,-1.67265 -1.88505,-1.67265 -1.10625,0 -1.88505,0.6903 -1.88505,1.67265 0,0.5841 0.2124,0.9027 0.8496,1.30095 -0.71685,0.34515 -1.07085,0.8673 -1.07085,1.5576 0,1.1505 0.8673,1.947 2.1063,1.947 1.239,0 2.1063,-0.7965 2.1063,-1.93815 0,-0.69915 -0.354,-1.2213 -1.0797,-1.56645 z m -1.0266,-2.2833 c 0.66375,0 1.08855,0.3894 1.08855,1.00005 0,0.5841 -0.43365,0.9735 -1.08855,0.9735 -0.6549,0 -1.08855,-0.3894 -1.08855,-0.98235 0,-0.6018 0.43365,-0.9912 1.08855,-0.9912 z m 0,2.62845 c 0.7788,0 1.3098,0.4956 1.3098,1.23015 0,0.7434 -0.531,1.239 -1.3275,1.239 -0.7611,0 -1.2921,-0.50445 -1.2921,-1.239 0,-0.73455 0.531,-1.23015 1.3098,-1.23015 z"
         id="path15892" />
      <path
         d="m 291.9532,362.86881 -3.30105,0 c 0.0797,-0.5133 0.36285,-0.84075 1.1328,-1.2921 l 0.885,-0.4779 c 0.87615,-0.4779 1.3275,-1.12395 1.3275,-1.8939 0,-0.52215 -0.2124,-1.0089 -0.5841,-1.3452 -0.3717,-0.3363 -0.8319,-0.4956 -1.42485,-0.4956 -0.7965,0 -1.38945,0.2832 -1.7346,0.8142 -0.22125,0.3363 -0.3186,0.7257 -0.3363,1.3629 l 0.7788,0 c 0.0266,-0.4248 0.0797,-0.68145 0.18585,-0.885 0.20355,-0.38055 0.61065,-0.61065 1.0797,-0.61065 0.708,0 1.239,0.50445 1.239,1.17705 0,0.4956 -0.29205,0.9204 -0.8496,1.239 l -0.8142,0.4602 c -1.3098,0.7434 -1.69035,1.33635 -1.76115,2.71695 l 4.1772,0 0,-0.76995 z"
         id="path15894" />
      <path
         d="m 294.82828,357.36411 c -0.5841,0 -1.1151,0.25665 -1.44255,0.6903 -0.4071,0.5487 -0.61065,1.38945 -0.61065,2.5488 0,2.11515 0.708,3.2391 2.0532,3.2391 1.3275,0 2.0532,-1.12395 2.0532,-3.186 0,-1.2213 -0.1947,-2.0355 -0.61065,-2.6019 -0.32745,-0.4425 -0.8496,-0.6903 -1.44255,-0.6903 z m 0,0.6903 c 0.84075,0 1.2567,0.8496 1.2567,2.5311 0,1.77885 -0.4071,2.61075 -1.2744,2.61075 -0.82305,0 -1.239,-0.8673 -1.239,-2.5842 0,-1.7169 0.41595,-2.55765 1.2567,-2.55765 z"
         id="path15896" />
      <path
         d="m 298.5623,357.18711 -0.73455,0 0,6.45165 0.73455,0 0,-1.8054 0.71685,-0.708 1.56645,2.5134 0.91155,0 -1.8939,-3.03555 1.6107,-1.60185 -0.94695,0 -1.9647,1.9647 0,-3.77895 z"
         id="path15898" />
    </g>
    <g
       transform="matrix(0,-1,1,0,192.94738,173.13537)"
       style="font-variant:normal;font-size:8.85000038px;font-family:'Nimbus Sans L';-inkscape-font-specification:NimbusSanL-Regu;writing-mode:lr-tb;fill:#000000;fill-opacity:1;fill-rule:nonzero;stroke:none"
       id="text11991">
      <path
         d="m -396.36231,245.36115 0,1.5045 0.7788,0 0,-1.5045 0.92925,0 0,-0.69915 -0.92925,0 0,-4.071 -0.57525,0 -2.8497,3.9471 0,0.82305 2.64615,0 z m 0,-0.69915 -1.9647,0 1.9647,-2.7435 0,2.7435 z"
         id="path15883" />
      <path
         d="m -392.64647,245.94525 -0.9204,0 0,0.9204 0.9204,0 0,-0.9204 z"
         id="path15885" />
      <path
         d="m -387.46923,242.22825 c -0.15045,-1.0266 -0.82305,-1.63725 -1.77885,-1.63725 -0.6903,0 -1.3098,0.3363 -1.6815,0.89385 -0.3894,0.61065 -0.5664,1.3806 -0.5664,2.52225 0,1.05315 0.1593,1.72575 0.531,2.2833 0.3363,0.50445 0.885,0.7788 1.5753,0.7788 1.19475,0 2.0532,-0.885 2.0532,-2.11515 0,-1.1682 -0.7965,-1.99125 -1.92045,-1.99125 -0.6195,0 -1.10625,0.23895 -1.44255,0.69915 0.009,-1.53105 0.50445,-2.38065 1.3983,-2.38065 0.5487,0 0.92925,0.34515 1.05315,0.94695 l 0.7788,0 z m -1.88505,1.42485 c 0.75225,0 1.2213,0.52215 1.2213,1.3629 0,0.78765 -0.531,1.3629 -1.24785,1.3629 -0.7257,0 -1.2744,-0.6018 -1.2744,-1.40715 0,-0.7788 0.531,-1.31865 1.30095,-1.31865 z"
         id="path15887" />
      <path
         d="m -385.70924,240.414 -0.73455,0 0,6.45165 0.73455,0 0,-1.8054 0.71685,-0.708 1.56645,2.5134 0.91155,0 -1.8939,-3.03555 1.6107,-1.60185 -0.94695,0 -1.9647,1.9647 0,-3.77895 z"
         id="path15889" />
    </g>
    <path
       id="path15834"
       style="font-variant:normal;font-size:medium;font-family:'Nimbus Sans L';-inkscape-font-specification:NimbusSanL-Regu;writing-mode:lr-tb;fill:#000000;fill-opacity:1;fill-rule:nonzero;stroke:none"
       d="m 444.73707,603.99213 -2.6904,0 0,0.7257 1.9647,0 0,0.177 c 0,1.1505 -0.8496,1.9824 -2.02665,1.9824 -0.6549,0 -1.24785,-0.23895 -1.6284,-0.6549 -0.4248,-0.4602 -0.68145,-1.23015 -0.68145,-2.02665 0,-1.58415 0.9027,-2.62845 2.2656,-2.62845 0.98235,0 1.69035,0.50445 1.86735,1.33635 l 0.84075,0 c -0.2301,-1.3098 -1.2213,-2.06205 -2.69925,-2.06205 -0.78765,0 -1.42485,0.20355 -1.9293,0.6195 -0.7434,0.6195 -1.1682,1.61955 -1.1682,2.7789 0,1.9824 1.21245,3.363 2.9559,3.363 0.87615,0 1.5753,-0.32745 2.20365,-1.0266 l 0.20355,0.85845 0.52215,0 0,-3.44265 z" />
    <path
       id="path15836"
       style="font-variant:normal;font-size:medium;font-family:'Nimbus Sans L';-inkscape-font-specification:NimbusSanL-Regu;writing-mode:lr-tb;fill:#000000;fill-opacity:1;fill-rule:nonzero;stroke:none"
       d="m 451.06482,600.94773 -0.7788,0 0,5.2746 -3.37185,-5.2746 -0.89385,0 0,6.45165 0.7788,0 0,-5.23035 3.33645,5.23035 0.92925,0 0,-6.45165 z" />
    <path
       id="path15838"
       style="font-variant:normal;font-size:medium;font-family:'Nimbus Sans L';-inkscape-font-specification:NimbusSanL-Regu;writing-mode:lr-tb;fill:#000000;fill-opacity:1;fill-rule:nonzero;stroke:none"
       d="m 452.52508,607.39938 2.48685,0 c 1.6284,0 2.62845,-1.2213 2.62845,-3.23025 0,-2.0001 -0.9912,-3.2214 -2.62845,-3.2214 l -2.48685,0 0,6.45165 z m 0.82305,-0.7257 0,-5.00025 1.5222,0 c 1.2744,0 1.947,0.85845 1.947,2.50455 0,1.6284 -0.6726,2.4957 -1.947,2.4957 l -1.5222,0 z" />
    <path
       id="path15840"
       style="font-variant:normal;font-size:medium;font-family:'Nimbus Sans L';-inkscape-font-specification:NimbusSanL-Regu;writing-mode:lr-tb;fill:#000000;fill-opacity:1;fill-rule:nonzero;stroke:none"
       d="m 493.33658,482.46206 2.11515,0 0,-0.7257 -5.0622,0 0,0.7257 2.124,0 0,5.72595 0.82305,0 0,-5.72595 z" />
    <path
       id="path15842"
       style="font-variant:normal;font-size:medium;font-family:'Nimbus Sans L';-inkscape-font-specification:NimbusSanL-Regu;writing-mode:lr-tb;fill:#000000;fill-opacity:1;fill-rule:nonzero;stroke:none"
       d="m 497.14208,481.73636 -0.82305,0 0,6.45165 4.00905,0 0,-0.7257 -3.186,0 0,-5.72595 z" />
    <path
       id="path15844"
       style="font-variant:normal;font-size:medium;font-family:'Nimbus Sans L';-inkscape-font-specification:NimbusSanL-Regu;writing-mode:lr-tb;fill:#000000;fill-opacity:1;fill-rule:nonzero;stroke:none"
       d="m 503.99966,488.18801 2.23905,-6.45165 -0.87615,0 -1.7877,5.46045 -1.8939,-5.46045 -0.885,0 2.3187,6.45165 0.885,0 z" />
    <path
       id="path15846"
       style="font-variant:normal;font-size:medium;font-family:'Nimbus Sans L';-inkscape-font-specification:NimbusSanL-Regu;writing-mode:lr-tb;fill:#000000;fill-opacity:1;fill-rule:nonzero;stroke:none"
       d="m 510.91151,487.41806 -3.30105,0 c 0.0797,-0.5133 0.36285,-0.84075 1.1328,-1.2921 l 0.885,-0.4779 c 0.87615,-0.4779 1.3275,-1.12395 1.3275,-1.8939 0,-0.52215 -0.2124,-1.0089 -0.5841,-1.3452 -0.3717,-0.3363 -0.8319,-0.4956 -1.42485,-0.4956 -0.7965,0 -1.38945,0.2832 -1.7346,0.8142 -0.22125,0.3363 -0.3186,0.7257 -0.3363,1.3629 l 0.7788,0 c 0.0266,-0.4248 0.0797,-0.68145 0.18585,-0.885 0.20355,-0.38055 0.61065,-0.61065 1.0797,-0.61065 0.708,0 1.239,0.50445 1.239,1.17705 0,0.4956 -0.29205,0.9204 -0.8496,1.239 l -0.8142,0.4602 c -1.3098,0.7434 -1.69035,1.33635 -1.76115,2.71695 l 4.1772,0 0,-0.76995 z" />
    <path
       id="path15848"
       style="font-variant:normal;font-size:medium;font-family:'Nimbus Sans L';-inkscape-font-specification:NimbusSanL-Regu;writing-mode:lr-tb;fill:#000000;fill-opacity:1;fill-rule:nonzero;stroke:none"
       d="m 514.2468,486.68351 0,1.5045 0.7788,0 0,-1.5045 0.92925,0 0,-0.69915 -0.92925,0 0,-4.071 -0.57525,0 -2.8497,3.9471 0,0.82305 2.64615,0 z m 0,-0.69915 -1.9647,0 1.9647,-2.7435 0,2.7435 z" />
    <path
       id="path15850"
       style="font-variant:normal;font-size:medium;font-family:'Nimbus Sans L';-inkscape-font-specification:NimbusSanL-Regu;writing-mode:lr-tb;fill:#000000;fill-opacity:1;fill-rule:nonzero;stroke:none"
       d="m 520.87427,481.91336 -4.19489,0 0,0.76995 3.38954,0 c -1.49565,2.13285 -2.1063,3.44265 -2.57534,5.5047 l 0.83189,0 c 0.34515,-2.00895 1.1328,-3.7347 2.5488,-5.61975 l 0,-0.6549 z" />
    <path
       id="path15852"
       style="font-variant:normal;font-size:medium;font-family:'Nimbus Sans L';-inkscape-font-specification:NimbusSanL-Regu;writing-mode:lr-tb;fill:#000000;fill-opacity:1;fill-rule:nonzero;stroke:none"
       d="m 525.6698,487.41806 -3.30105,0 c 0.0796,-0.5133 0.36285,-0.84075 1.1328,-1.2921 l 0.885,-0.4779 c 0.87615,-0.4779 1.3275,-1.12395 1.3275,-1.8939 0,-0.52215 -0.2124,-1.0089 -0.5841,-1.3452 -0.3717,-0.3363 -0.8319,-0.4956 -1.42485,-0.4956 -0.7965,0 -1.38945,0.2832 -1.7346,0.8142 -0.22125,0.3363 -0.3186,0.7257 -0.3363,1.3629 l 0.7788,0 c 0.0265,-0.4248 0.0797,-0.68145 0.18585,-0.885 0.20355,-0.38055 0.61065,-0.61065 1.0797,-0.61065 0.708,0 1.239,0.50445 1.239,1.17705 0,0.4956 -0.29205,0.9204 -0.8496,1.239 l -0.8142,0.4602 c -1.3098,0.7434 -1.69035,1.33635 -1.76115,2.71695 l 4.1772,0 0,-0.76995 z" />
    <path
       id="path15539"
       style="font-variant:normal;font-size:medium;font-family:'Nimbus Sans L';-inkscape-font-specification:NimbusSanL-Regu;writing-mode:lr-tb;fill:#000000;fill-opacity:1;fill-rule:nonzero;stroke:none"
       d="m 466.40538,503.92206 c -1.416,0.25665 -2.1063,1.07085 -2.1063,2.48685 0,0.8673 0.27435,1.56645 0.80535,2.04435 0.6372,0.5841 1.5576,0.9027 2.6019,0.9027 1.062,0 1.97355,-0.32745 2.6019,-0.9381 0.5133,-0.4956 0.75225,-1.1328 0.75225,-1.97355 0,-1.5753 -0.8496,-2.4603 -2.55765,-2.655 l 0,0.8496 c 0.4425,0.0708 0.7434,0.1593 1.00005,0.29205 0.531,0.2655 0.8319,0.8142 0.8319,1.5045 0,1.28325 -1.0266,2.09745 -2.6373,2.09745 -1.65495,0 -2.6727,-0.7788 -2.6727,-2.02665 0,-0.52215 0.1593,-1.0089 0.4071,-1.2744 0.22125,-0.23895 0.4956,-0.3717 0.9735,-0.46905 l 0,-0.84075 z" />
    <path
       id="path15541"
       style="font-variant:normal;font-size:medium;font-family:'Nimbus Sans L';-inkscape-font-specification:NimbusSanL-Regu;writing-mode:lr-tb;fill:#000000;fill-opacity:1;fill-rule:nonzero;stroke:none"
       d="m 470.08698,498.91398 0,3.30105 c -0.5133,-0.0797 -0.84075,-0.36285 -1.2921,-1.1328 l -0.4779,-0.885 c -0.4779,-0.87615 -1.12395,-1.3275 -1.8939,-1.3275 -0.52215,0 -1.0089,0.2124 -1.3452,0.5841 -0.3363,0.3717 -0.4956,0.8319 -0.4956,1.42485 0,0.7965 0.2832,1.38945 0.8142,1.7346 0.3363,0.22125 0.7257,0.3186 1.3629,0.3363 l 0,-0.7788 c -0.4248,-0.0265 -0.68145,-0.0797 -0.885,-0.18585 -0.38055,-0.20355 -0.61065,-0.61065 -0.61065,-1.0797 0,-0.708 0.50445,-1.239 1.17705,-1.239 0.4956,0 0.9204,0.29205 1.239,0.8496 l 0.4602,0.8142 c 0.7434,1.3098 1.33635,1.69035 2.71695,1.76115 l 0,-4.1772 -0.76995,0 z" />
    <g
       transform="translate(192.94738,173.13537)"
       style="font-variant:normal;font-size:8.85000038px;font-family:'Nimbus Sans L';-inkscape-font-specification:NimbusSanL-Regu;writing-mode:lr-tb;fill:#000000;fill-opacity:1;fill-rule:nonzero;stroke:none"
       id="text12121">
      <path
         d="m 292.07676,377.86487 2.124,0 c 0.73455,0 1.062,0.354 1.062,1.1505 l -0.009,0.57525 c 0,0.39825 0.0708,0.78765 0.18585,1.05315 l 1.00005,0 0,-0.20355 c -0.30975,-0.2124 -0.3717,-0.4425 -0.3894,-1.30095 -0.009,-1.062 -0.177,-1.3806 -0.87615,-1.6815 0.7257,-0.354 1.01775,-0.80535 1.01775,-1.5399 0,-1.1151 -0.69915,-1.72575 -1.9647,-1.72575 l -2.9736,0 0,6.45165 0.82305,0 0,-2.7789 z m 0,-0.7257 0,-2.22135 1.99125,0 c 0.4602,0 0.7257,0.0708 0.92925,0.2478 0.22125,0.18585 0.3363,0.4779 0.3363,0.8673 0,0.7611 -0.3894,1.10625 -1.26555,1.10625 l -1.99125,0 z"
         id="path15522" />
      <path
         d="m 299.71429,379.13927 0,1.5045 0.7788,0 0,-1.5045 0.92925,0 0,-0.69915 -0.92925,0 0,-4.071 -0.57525,0 -2.8497,3.9471 0,0.82305 2.64615,0 z m 0,-0.69915 -1.9647,0 1.9647,-2.7435 0,2.7435 z"
         id="path15524" />
    </g>
    <g
       transform="matrix(0,-1,1,0,192.94738,173.13537)"
       style="font-variant:normal;font-size:8.85000038px;font-family:'Nimbus Sans L';-inkscape-font-specification:NimbusSanL-Regu;writing-mode:lr-tb;fill:#000000;fill-opacity:1;fill-rule:nonzero;stroke:none"
       id="text12125">
      <path
         d="m -392.21016,261.09424 2.124,0 c 0.73455,0 1.062,0.354 1.062,1.1505 l -0.009,0.57525 c 0,0.39825 0.0708,0.78765 0.18585,1.05315 l 1.00005,0 0,-0.20355 c -0.30975,-0.2124 -0.3717,-0.4425 -0.3894,-1.30095 -0.009,-1.062 -0.177,-1.3806 -0.87615,-1.6815 0.7257,-0.354 1.01775,-0.80535 1.01775,-1.5399 0,-1.1151 -0.69915,-1.72575 -1.9647,-1.72575 l -2.9736,0 0,6.45165 0.82305,0 0,-2.7789 z m 0,-0.7257 0,-2.22135 1.99125,0 c 0.4602,0 0.7257,0.0708 0.92925,0.2478 0.22125,0.18585 0.3363,0.4779 0.3363,0.8673 0,0.7611 -0.3894,1.10625 -1.26555,1.10625 l -1.99125,0 z"
         id="path15517" />
      <path
         d="m -383.25395,257.59849 -3.2391,0 -0.46905,3.4161 0.71685,0 c 0.36285,-0.43365 0.66375,-0.5841 1.1505,-0.5841 0.84075,0 1.37175,0.57525 1.37175,1.5045 0,0.9027 -0.52215,1.4514 -1.37175,1.4514 -0.68145,0 -1.0974,-0.34515 -1.28325,-1.05315 l -0.7788,0 c 0.1062,0.5133 0.1947,0.7611 0.38055,0.9912 0.354,0.4779 0.9912,0.75225 1.6992,0.75225 1.26555,0 2.15055,-0.9204 2.15055,-2.2479 0,-1.239 -0.82305,-2.0886 -2.02665,-2.0886 -0.4425,0 -0.7965,0.11505 -1.15935,0.38055 l 0.2478,-1.7523 2.61075,0 0,-0.76995 z"
         id="path15519" />
    </g>
    <g
       transform="translate(192.94738,173.13537)"
       style="font-variant:normal;font-size:8.85000038px;font-family:'Nimbus Sans L';-inkscape-font-specification:NimbusSanL-Regu;writing-mode:lr-tb;fill:#000000;fill-opacity:1;fill-rule:nonzero;stroke:none"
       id="text12129">
      <path
         d="m 298.97255,279.36085 -0.8319,0 0,6.45165 0.8319,0 0,-6.45165 z"
         id="path15508" />
      <path
         d="m 305.57464,281.36095 c -0.25665,-1.416 -1.07085,-2.1063 -2.48685,-2.1063 -0.8673,0 -1.56645,0.27435 -2.04435,0.80535 -0.5841,0.6372 -0.9027,1.5576 -0.9027,2.6019 0,1.062 0.32745,1.97355 0.9381,2.6019 0.4956,0.5133 1.1328,0.75225 1.97355,0.75225 1.5753,0 2.4603,-0.8496 2.655,-2.55765 l -0.8496,0 c -0.0708,0.4425 -0.1593,0.7434 -0.29205,1.00005 -0.2655,0.531 -0.8142,0.8319 -1.5045,0.8319 -1.28325,0 -2.09745,-1.0266 -2.09745,-2.6373 0,-1.65495 0.7788,-2.6727 2.02665,-2.6727 0.52215,0 1.0089,0.1593 1.2744,0.4071 0.23895,0.22125 0.3717,0.4956 0.46905,0.9735 l 0.84075,0 z"
         id="path15510" />
      <path
         d="m 308.3978,281.34325 0,4.46925 0.7788,0 0,-6.27465 -0.5133,0 c -0.27435,0.96465 -0.45135,1.0974 -1.65495,1.24785 l 0,0.55755 1.38945,0 z"
         id="path15512" />
      <path
         d="m 315.21999,283.87435 0.66375,1.93815 0.9204,0 -2.2656,-6.45165 -1.062,0 -2.301,6.45165 0.87615,0 0.68145,-1.93815 2.48685,0 z m -0.2301,-0.6903 -2.0532,0 1.062,-2.9382 0.9912,2.9382 z"
         id="path15514" />
    </g>
    <g
       transform="translate(192.94738,173.13537)"
       style="font-variant:normal;font-size:7.57499981px;font-family:'Nimbus Sans L';-inkscape-font-specification:NimbusSanL-Regu;writing-mode:lr-tb;fill:#000000;fill-opacity:1;fill-rule:nonzero;stroke:none"
       id="text12133">
      <path
         d="m 268.63346,304.13736 -2.82548,0 c 0.0682,-0.43935 0.31058,-0.71962 0.9696,-1.10595 l 0.7575,-0.40905 c 0.74993,-0.40905 1.13625,-0.96202 1.13625,-1.62105 0,-0.44692 -0.1818,-0.86355 -0.49995,-1.1514 -0.31815,-0.28785 -0.71205,-0.4242 -1.21957,-0.4242 -0.68175,0 -1.18928,0.2424 -1.4847,0.6969 -0.18938,0.28785 -0.2727,0.62115 -0.28785,1.16655 l 0.6666,0 c 0.0227,-0.3636 0.0682,-0.58327 0.15907,-0.7575 0.17423,-0.32572 0.52268,-0.52267 0.92415,-0.52267 0.606,0 1.0605,0.43177 1.0605,1.00747 0,0.4242 -0.24997,0.7878 -0.7272,1.0605 l -0.6969,0.3939 c -1.1211,0.6363 -1.44682,1.14383 -1.50742,2.32553 l 3.5754,0 0,-0.65903 z"
         id="path15501" />
      <path
         d="m 266.47458,284.34037 0.0833,0 0.28027,-0.008 c 0.73478,0 1.11353,0.3333 1.11353,0.97717 0,0.67418 -0.41663,1.07565 -1.11353,1.07565 -0.7272,0 -1.08322,-0.3636 -1.12867,-1.14382 l -0.6666,0 c 0.0303,0.43177 0.10605,0.71205 0.23482,0.95445 0.2727,0.5151 0.80295,0.78022 1.53773,0.78022 1.10595,0 1.818,-0.65902 1.818,-1.67407 0,-0.68175 -0.26513,-1.0605 -0.909,-1.28018 0.49995,-0.19695 0.74992,-0.5757 0.74992,-1.11352 0,-0.92415 -0.61357,-1.47713 -1.6362,-1.47713 -1.08322,0 -1.65892,0.59085 -1.68165,1.73468 l 0.6666,0 c 0.008,-0.32573 0.0379,-0.50753 0.1212,-0.67418 0.1515,-0.29542 0.4848,-0.47722 0.90143,-0.47722 0.59085,0 0.94687,0.34845 0.94687,0.91657 0,0.37875 -0.13635,0.606 -0.43177,0.7272 -0.1818,0.0758 -0.41663,0.10605 -0.88628,0.11363 l 0,0.56812 z"
         id="path15503" />
      <path
         d="m 309.47581,291.97394 0,3.82538 0.6666,0 0,-5.37068 -0.43935,0 c -0.23482,0.82568 -0.38632,0.9393 -1.41652,1.06808 l 0,0.47722 1.18927,0 z"
         id="path15505" />
    </g>
    <path
       id="path12637"
       style="fill:#000000;fill-opacity:1;fill-rule:evenodd;stroke:none"
       d="m 472.17679,515.16788 1.8,0" />
    <path
       id="path12639"
       style="fill:none;stroke:#000000;stroke-width:0.60000002;stroke-linecap:round;stroke-linejoin:round;stroke-miterlimit:10;stroke-dasharray:none;stroke-opacity:1"
       d="m 472.17679,515.16788 1.8,0" />
    <path
       id="path12641"
       style="fill:#000000;fill-opacity:1;fill-rule:evenodd;stroke:none"
       d="m 481.17679,515.16788 -1.8,0" />
    <path
       id="path12643"
       style="fill:none;stroke:#000000;stroke-width:0.60000002;stroke-linecap:round;stroke-linejoin:round;stroke-miterlimit:10;stroke-dasharray:none;stroke-opacity:1"
       d="m 481.17679,515.16788 -1.8,0" />
    <path
       id="path12645"
       style="fill:#000000;fill-opacity:1;fill-rule:evenodd;stroke:none"
       d="m 477.57679,507.96788 0,14.39988 1.7998,0 0,-14.39988 -1.7998,0 z" />
    <path
       id="path12647"
       style="fill:none;stroke:#000000;stroke-width:1;stroke-linecap:round;stroke-linejoin:round;stroke-miterlimit:10;stroke-dasharray:none;stroke-opacity:1"
       d="m 477.57679,507.96788 0,14.39988 1.7998,0 0,-14.39988 -1.7998,0 z" />
    <path
       id="path12649"
       style="fill:#000000;fill-opacity:1;fill-rule:evenodd;stroke:none"
       d="m 473.97679,507.96788 0,14.39988 1.7998,0 0,-14.39988 -1.7998,0 z" />
    <path
       id="path12651"
       style="fill:none;stroke:#000000;stroke-width:1;stroke-linecap:round;stroke-linejoin:round;stroke-miterlimit:10;stroke-dasharray:none;stroke-opacity:1"
       d="m 473.97679,507.96788 0,14.39988 1.7998,0 0,-14.39988 -1.7998,0 z" />
    <path
       id="path12653"
       style="fill:#000000;fill-opacity:1;fill-rule:evenodd;stroke:none"
       d="m 463.17679,515.16788 9,0" />
    <path
       id="path12655"
       style="fill:none;stroke:#000000;stroke-width:0.60000002;stroke-linecap:round;stroke-linejoin:round;stroke-miterlimit:10;stroke-dasharray:none;stroke-opacity:1"
       d="m 463.17679,515.16788 9,0" />
    <path
       id="path12657"
       style="fill:#000000;fill-opacity:1;fill-rule:evenodd;stroke:none"
       d="m 490.17679,515.16788 -9,0" />
    <path
       id="path12659"
       style="fill:none;stroke:#000000;stroke-width:0.60000002;stroke-linecap:round;stroke-linejoin:round;stroke-miterlimit:10;stroke-dasharray:none;stroke-opacity:1"
       d="m 490.17679,515.16788 -9,0" />
    <path
       id="path12685"
       style="fill:#000000;fill-opacity:1;fill-rule:evenodd;stroke:none"
       d="m 490.17679,539.01788 -18,0" />
    <path
       id="path12687"
       style="fill:none;stroke:#000000;stroke-width:0.89999998;stroke-linecap:round;stroke-linejoin:round;stroke-miterlimit:10;stroke-dasharray:none;stroke-opacity:1"
       d="m 490.17679,539.01788 -18,0" />
    <path
       id="path12689"
       style="fill:#000000;fill-opacity:1;fill-rule:evenodd;stroke:none"
       d="m 472.17679,545.31788 18,0" />
    <path
       id="path12691"
       style="fill:none;stroke:#000000;stroke-width:0.89999998;stroke-linecap:round;stroke-linejoin:round;stroke-miterlimit:10;stroke-dasharray:none;stroke-opacity:1"
       d="m 472.17679,545.31788 18,0" />
    <path
       id="path12693"
       style="fill:#000000;fill-opacity:1;fill-rule:evenodd;stroke:none"
       d="m 472.17679,539.01788 0,6.3" />
    <path
       id="path12695"
       style="fill:none;stroke:#000000;stroke-width:0.89999998;stroke-linecap:round;stroke-linejoin:round;stroke-miterlimit:10;stroke-dasharray:none;stroke-opacity:1"
       d="m 472.17679,539.01788 0,6.3" />
    <path
       id="path12697"
       style="fill:#000000;fill-opacity:1;fill-rule:evenodd;stroke:none"
       d="m 490.17679,539.01788 0,6.3" />
    <path
       id="path12699"
       style="fill:none;stroke:#000000;stroke-width:0.89999998;stroke-linecap:round;stroke-linejoin:round;stroke-miterlimit:10;stroke-dasharray:none;stroke-opacity:1"
       d="m 490.17679,539.01788 0,6.3" />
    <path
       id="path12701"
       style="fill:#000000;fill-opacity:1;fill-rule:evenodd;stroke:none"
       d="m 463.17679,542.16788 9,0" />
    <path
       id="path12703"
       style="fill:none;stroke:#000000;stroke-width:0.60000002;stroke-linecap:round;stroke-linejoin:round;stroke-miterlimit:10;stroke-dasharray:none;stroke-opacity:1"
       d="m 463.17679,542.16788 9,0" />
    <path
       id="path12705"
       style="fill:#000000;fill-opacity:1;fill-rule:evenodd;stroke:none"
       d="m 499.17679,542.16788 -9,0" />
    <path
       id="path12707"
       style="fill:none;stroke:#000000;stroke-width:0.60000002;stroke-linecap:round;stroke-linejoin:round;stroke-miterlimit:10;stroke-dasharray:none;stroke-opacity:1"
       d="m 499.17679,542.16788 -9,0" />
    <path
       id="path12709"
       style="fill:#000000;fill-opacity:1;fill-rule:evenodd;stroke:none"
       d="m 442.02679,560.16788 0,18" />
    <path
       id="path12711"
       style="fill:none;stroke:#000000;stroke-width:0.89999998;stroke-linecap:round;stroke-linejoin:round;stroke-miterlimit:10;stroke-dasharray:none;stroke-opacity:1"
       d="m 442.02679,560.16788 0,18" />
    <path
       id="path12713"
       style="fill:#000000;fill-opacity:1;fill-rule:evenodd;stroke:none"
       d="m 448.32679,578.16788 0,-18" />
    <path
       id="path12715"
       style="fill:none;stroke:#000000;stroke-width:0.89999998;stroke-linecap:round;stroke-linejoin:round;stroke-miterlimit:10;stroke-dasharray:none;stroke-opacity:1"
       d="m 448.32679,578.16788 0,-18" />
    <path
       id="path12717"
       style="fill:#000000;fill-opacity:1;fill-rule:evenodd;stroke:none"
       d="m 442.02679,578.16788 6.3,0" />
    <path
       id="path12719"
       style="fill:none;stroke:#000000;stroke-width:0.89999998;stroke-linecap:round;stroke-linejoin:round;stroke-miterlimit:10;stroke-dasharray:none;stroke-opacity:1"
       d="m 442.02679,578.16788 6.3,0" />
    <path
       id="path12721"
       style="fill:#000000;fill-opacity:1;fill-rule:evenodd;stroke:none"
       d="m 442.02679,560.16788 6.3,0" />
    <path
       id="path12723"
       style="fill:none;stroke:#000000;stroke-width:0.89999998;stroke-linecap:round;stroke-linejoin:round;stroke-miterlimit:10;stroke-dasharray:none;stroke-opacity:1"
       d="m 442.02679,560.16788 6.3,0" />
    <path
       id="path12725"
       style="fill:#000000;fill-opacity:1;fill-rule:evenodd;stroke:none"
       d="m 445.17679,587.16788 0,-9" />
    <path
       id="path12727"
       style="fill:none;stroke:#000000;stroke-width:0.60000002;stroke-linecap:round;stroke-linejoin:round;stroke-miterlimit:10;stroke-dasharray:none;stroke-opacity:1"
       d="m 445.17679,587.16788 0,-9" />
    <path
       id="path12729"
       style="fill:#000000;fill-opacity:1;fill-rule:evenodd;stroke:none"
       d="m 445.17679,551.16788 0,9" />
    <path
       id="path12731"
       style="fill:none;stroke:#000000;stroke-width:0.60000002;stroke-linecap:round;stroke-linejoin:round;stroke-miterlimit:10;stroke-dasharray:none;stroke-opacity:1"
       d="m 445.17679,551.16788 0,9" />
    <path
       id="path12749"
       style="fill:#000000;fill-opacity:1;fill-rule:evenodd;stroke:none"
       d="m 440.67679,596.16788 9,0" />
    <path
       id="path12751"
       style="fill:none;stroke:#000000;stroke-width:0.89999998;stroke-linecap:round;stroke-linejoin:round;stroke-miterlimit:10;stroke-dasharray:none;stroke-opacity:1"
       d="m 440.67679,596.16788 9,0" />
    <path
       id="path12753"
       style="fill:#000000;fill-opacity:1;fill-rule:evenodd;stroke:none"
       d="m 449.67679,596.16788 -4.5,4.5" />
    <path
       id="path12755"
       style="fill:none;stroke:#000000;stroke-width:0.89999998;stroke-linecap:round;stroke-linejoin:round;stroke-miterlimit:10;stroke-dasharray:none;stroke-opacity:1"
       d="m 449.67679,596.16788 -4.5,4.5" />
    <path
       id="path12757"
       style="fill:#000000;fill-opacity:1;fill-rule:evenodd;stroke:none"
       d="m 445.17679,600.66788 -4.5,-4.5" />
    <path
       id="path12759"
       style="fill:none;stroke:#000000;stroke-width:0.89999998;stroke-linecap:round;stroke-linejoin:round;stroke-miterlimit:10;stroke-dasharray:none;stroke-opacity:1"
       d="m 445.17679,600.66788 -4.5,-4.5" />
    <path
       id="path12761"
       style="fill:#000000;fill-opacity:1;fill-rule:evenodd;stroke:none"
       d="m 445.17679,587.16788 0,9" />
    <path
       id="path12763"
       style="fill:none;stroke:#000000;stroke-width:0.60000002;stroke-linecap:round;stroke-linejoin:round;stroke-miterlimit:10;stroke-dasharray:none;stroke-opacity:1"
       d="m 445.17679,587.16788 0,9" />
    <path
       id="path12765"
       style="fill:#000000;fill-opacity:1;fill-rule:evenodd;stroke:none"
       d="m 463.17679,452.16788 0,36" />
    <path
       id="path12767"
       style="fill:none;stroke:#000000;stroke-width:1.5;stroke-linecap:round;stroke-linejoin:round;stroke-miterlimit:10;stroke-dasharray:none;stroke-opacity:1"
       d="m 463.17679,452.16788 0,36" />
    <path
       id="path12769"
       style="fill:#000000;fill-opacity:1;fill-rule:evenodd;stroke:none"
       d="m 463.17679,488.16788 36,-18" />
    <path
       id="path12771"
       style="fill:none;stroke:#000000;stroke-width:1.5;stroke-linecap:round;stroke-linejoin:round;stroke-miterlimit:10;stroke-dasharray:none;stroke-opacity:1"
       d="m 463.17679,488.16788 36,-18" />
    <path
       id="path12773"
       style="fill:#000000;fill-opacity:1;fill-rule:evenodd;stroke:none"
       d="m 499.17679,470.16788 -36,-18" />
    <path
       id="path12775"
       style="fill:none;stroke:#000000;stroke-width:1.5;stroke-linecap:round;stroke-linejoin:round;stroke-miterlimit:10;stroke-dasharray:none;stroke-opacity:1"
       d="m 499.17679,470.16788 -36,-18" />
    <path
       id="path12777"
       style="fill:#000000;fill-opacity:1;fill-rule:evenodd;stroke:none"
       d="m 467.67679,458.91788 0,4.5" />
    <path
       id="path12779"
       style="fill:none;stroke:#000000;stroke-width:0.60000002;stroke-linecap:round;stroke-linejoin:round;stroke-miterlimit:10;stroke-dasharray:none;stroke-opacity:1"
       d="m 467.67679,458.91788 0,4.5" />
    <path
       id="path12781"
       style="fill:#000000;fill-opacity:1;fill-rule:evenodd;stroke:none"
       d="m 465.42679,461.16788 4.5,0" />
    <path
       id="path12783"
       style="fill:none;stroke:#000000;stroke-width:0.60000002;stroke-linecap:round;stroke-linejoin:round;stroke-miterlimit:10;stroke-dasharray:none;stroke-opacity:1"
       d="m 465.42679,461.16788 4.5,0" />
    <path
       id="path12785"
       style="fill:#000000;fill-opacity:1;fill-rule:evenodd;stroke:none"
       d="m 465.42679,479.16788 4.5,0" />
    <path
       id="path12787"
       style="fill:none;stroke:#000000;stroke-width:0.60000002;stroke-linecap:round;stroke-linejoin:round;stroke-miterlimit:10;stroke-dasharray:none;stroke-opacity:1"
       d="m 465.42679,479.16788 4.5,0" />
    <path
       id="path12789"
       style="fill:#000000;fill-opacity:1;fill-rule:evenodd;stroke:none"
       d="m 454.17679,479.16788 9,0" />
    <path
       id="path12791"
       style="fill:none;stroke:#000000;stroke-width:0.60000002;stroke-linecap:round;stroke-linejoin:round;stroke-miterlimit:10;stroke-dasharray:none;stroke-opacity:1"
       d="m 454.17679,479.16788 9,0" />
    <path
       id="path12793"
       style="fill:#000000;fill-opacity:1;fill-rule:evenodd;stroke:none"
       d="m 454.17679,461.16788 9,0" />
    <path
       id="path12795"
       style="fill:none;stroke:#000000;stroke-width:0.60000002;stroke-linecap:round;stroke-linejoin:round;stroke-miterlimit:10;stroke-dasharray:none;stroke-opacity:1"
       d="m 454.17679,461.16788 9,0" />
    <path
       id="path12797"
       style="fill:#000000;fill-opacity:1;fill-rule:evenodd;stroke:none"
       d="m 508.17679,470.16788 -9,0" />
    <path
       id="path12799"
       style="fill:none;stroke:#000000;stroke-width:0.60000002;stroke-linecap:round;stroke-linejoin:round;stroke-miterlimit:10;stroke-dasharray:none;stroke-opacity:1"
       d="m 508.17679,470.16788 -9,0" />
    <path
       id="path14175"
       style="fill:#000000;fill-opacity:1;fill-rule:evenodd;stroke:none"
       d="m 463.17679,542.16788 -18,0" />
    <path
       id="path14177"
       style="fill:none;stroke:#000000;stroke-width:0.60000002;stroke-linecap:round;stroke-linejoin:round;stroke-miterlimit:10;stroke-dasharray:none;stroke-opacity:1"
       d="m 463.17679,542.16788 -18,0" />
    <path
       id="path14179"
       style="fill:#000000;fill-opacity:1;fill-rule:evenodd;stroke:none"
       d="m 445.17679,542.16788 0,9" />
    <path
       id="path14181"
       style="fill:none;stroke:#000000;stroke-width:0.60000002;stroke-linecap:round;stroke-linejoin:round;stroke-miterlimit:10;stroke-dasharray:none;stroke-opacity:1"
       d="m 445.17679,542.16788 0,9" />
    <path
       id="path14183"
       style="fill:#000000;fill-opacity:1;fill-rule:evenodd;stroke:none"
       d="m 445.17679,542.16788 0,-27" />
    <path
       id="path14185"
       style="fill:none;stroke:#000000;stroke-width:0.60000002;stroke-linecap:round;stroke-linejoin:round;stroke-miterlimit:10;stroke-dasharray:none;stroke-opacity:1"
       d="m 445.17679,542.16788 0,-27" />
    <path
       id="path14187"
       style="fill:#000000;fill-opacity:1;fill-rule:evenodd;stroke:none"
       d="m 446.97679,542.16788 c 0,0.99375 -0.80625,1.8 -1.8,1.8 -0.99375,0 -1.8,-0.80625 -1.8,-1.8 0,-0.99375 0.80625,-1.8 1.8,-1.8 0.99375,0 1.8,0.80625 1.8,1.8" />
    <path
       id="path14189"
       style="fill:none;stroke:#000000;stroke-width:1;stroke-linecap:round;stroke-linejoin:round;stroke-miterlimit:10;stroke-dasharray:none;stroke-opacity:1"
       d="m 446.97679,542.16788 c 0,0.99375 -0.80625,1.8 -1.8,1.8 -0.99375,0 -1.8,-0.80625 -1.8,-1.8 0,-0.99375 0.80625,-1.8 1.8,-1.8 0.99375,0 1.8,0.80625 1.8,1.8 z" />
    <path
       id="path14191"
       style="fill:#000000;fill-opacity:1;fill-rule:evenodd;stroke:none"
       d="m 463.17679,515.16788 -18,0" />
    <path
       id="path14193"
       style="fill:none;stroke:#000000;stroke-width:0.60000002;stroke-linecap:round;stroke-linejoin:round;stroke-miterlimit:10;stroke-dasharray:none;stroke-opacity:1"
       d="m 463.17679,515.16788 -18,0" />
    <path
       id="path14195"
       style="fill:#000000;fill-opacity:1;fill-rule:evenodd;stroke:none"
       d="m 445.17679,515.16788 0,-36" />
    <path
       id="path14197"
       style="fill:none;stroke:#000000;stroke-width:0.60000002;stroke-linecap:round;stroke-linejoin:round;stroke-miterlimit:10;stroke-dasharray:none;stroke-opacity:1"
       d="m 445.17679,515.16788 0,-36" />
    <path
       id="path14199"
       style="fill:#000000;fill-opacity:1;fill-rule:evenodd;stroke:none"
       d="m 446.97679,515.16788 c 0,0.99375 -0.80625,1.8 -1.8,1.8 -0.99375,0 -1.8,-0.80625 -1.8,-1.8 0,-0.99375 0.80625,-1.8 1.8,-1.8 0.99375,0 1.8,0.80625 1.8,1.8" />
    <path
       id="path14201"
       style="fill:none;stroke:#000000;stroke-width:1;stroke-linecap:round;stroke-linejoin:round;stroke-miterlimit:10;stroke-dasharray:none;stroke-opacity:1"
       d="m 446.97679,515.16788 c 0,0.99375 -0.80625,1.8 -1.8,1.8 -0.99375,0 -1.8,-0.80625 -1.8,-1.8 0,-0.99375 0.80625,-1.8 1.8,-1.8 0.99375,0 1.8,0.80625 1.8,1.8 z" />
    <path
       id="path14203"
       style="fill:#000000;fill-opacity:1;fill-rule:evenodd;stroke:none"
       d="m 445.17679,479.16788 9,0" />
    <path
       id="path14205"
       style="fill:none;stroke:#000000;stroke-width:0.60000002;stroke-linecap:round;stroke-linejoin:round;stroke-miterlimit:10;stroke-dasharray:none;stroke-opacity:1"
       d="m 445.17679,479.16788 9,0" />
    <path
       id="path14209"
       style="fill:none;stroke:#000000;stroke-width:0.60000002;stroke-linecap:round;stroke-linejoin:round;stroke-miterlimit:10;stroke-dasharray:none;stroke-opacity:1"
       d="m 454.17679,461.16788 -35.925,0" />
    <path
       id="path14223"
       style="fill:#000000;fill-opacity:1;fill-rule:evenodd;stroke:none"
       d="m 490.17679,515.16788 27,0" />
    <path
       id="path14225"
       style="fill:none;stroke:#000000;stroke-width:0.60000002;stroke-linecap:round;stroke-linejoin:round;stroke-miterlimit:10;stroke-dasharray:none;stroke-opacity:1"
       d="m 490.17679,515.16788 27,0" />
    <path
       id="path14227"
       style="fill:#000000;fill-opacity:1;fill-rule:evenodd;stroke:none"
       d="m 517.17679,515.16788 0,-45" />
    <path
       id="path14229"
       style="fill:none;stroke:#000000;stroke-width:0.60000002;stroke-linecap:round;stroke-linejoin:round;stroke-miterlimit:10;stroke-dasharray:none;stroke-opacity:1"
       d="m 517.17679,515.16788 0,-45" />
    <path
       id="path14231"
       style="fill:#000000;fill-opacity:1;fill-rule:evenodd;stroke:none"
       d="m 517.17679,470.16788 -9,0" />
    <path
       id="path14233"
       style="fill:none;stroke:#000000;stroke-width:0.60000002;stroke-linecap:round;stroke-linejoin:round;stroke-miterlimit:10;stroke-dasharray:none;stroke-opacity:1"
       d="m 517.17679,470.16788 -9,0" />
    <path
       id="path14235"
       style="fill:#000000;fill-opacity:1;fill-rule:evenodd;stroke:none"
       d="m 499.17679,542.16788 18,0" />
    <path
       id="path14237"
       style="fill:none;stroke:#000000;stroke-width:0.60000002;stroke-linecap:round;stroke-linejoin:round;stroke-miterlimit:10;stroke-dasharray:none;stroke-opacity:1"
       d="m 499.17679,542.16788 18,0" />
    <path
       id="path14239"
       style="fill:#000000;fill-opacity:1;fill-rule:evenodd;stroke:none"
       d="m 517.17679,542.16788 0,-27" />
    <path
       id="path14241"
       style="fill:none;stroke:#000000;stroke-width:0.60000002;stroke-linecap:round;stroke-linejoin:round;stroke-miterlimit:10;stroke-dasharray:none;stroke-opacity:1"
       d="m 517.17679,542.16788 0,-27" />
    <path
       id="path14243"
       style="fill:#000000;fill-opacity:1;fill-rule:evenodd;stroke:none"
       d="m 518.97678,515.16788 c 0,0.99375 -0.80625,1.8 -1.79999,1.8 -0.99375,0 -1.8,-0.80625 -1.8,-1.8 0,-0.99375 0.80625,-1.8 1.8,-1.8 0.99374,0 1.79999,0.80625 1.79999,1.8" />
    <path
       id="path14245"
       style="fill:none;stroke:#000000;stroke-width:1;stroke-linecap:round;stroke-linejoin:round;stroke-miterlimit:10;stroke-dasharray:none;stroke-opacity:1"
       d="m 518.97678,515.16788 c 0,0.99375 -0.80625,1.8 -1.79999,1.8 -0.99375,0 -1.8,-0.80625 -1.8,-1.8 0,-0.99375 0.80625,-1.8 1.8,-1.8 0.99374,0 1.79999,0.80625 1.79999,1.8 z" />
    <path
       id="path14249"
       style="fill:none;stroke:#000000;stroke-width:0.60000002;stroke-linecap:round;stroke-linejoin:round;stroke-miterlimit:10;stroke-dasharray:none;stroke-opacity:1"
       d="m 517.17679,470.16788 35.99999,0" />
    <path
       id="path14251"
       style="fill:#000000;fill-opacity:1;fill-rule:evenodd;stroke:none"
       d="m 518.97678,470.16788 c 0,0.99375 -0.80625,1.8 -1.79999,1.8 -0.99375,0 -1.8,-0.80625 -1.8,-1.8 0,-0.99375 0.80625,-1.8 1.8,-1.8 0.99374,0 1.79999,0.80625 1.79999,1.8" />
    <path
       id="path14253"
       style="fill:none;stroke:#000000;stroke-width:1;stroke-linecap:round;stroke-linejoin:round;stroke-miterlimit:10;stroke-dasharray:none;stroke-opacity:1"
       d="m 518.97678,470.16788 c 0,0.99375 -0.80625,1.8 -1.79999,1.8 -0.99375,0 -1.8,-0.80625 -1.8,-1.8 0,-0.99375 0.80625,-1.8 1.8,-1.8 0.99374,0 1.79999,0.80625 1.79999,1.8 z" />
  </g>
</svg>
