<?xml version="1.0" encoding="UTF-8" standalone="no"?>
<svg
   xmlns:dc="http://purl.org/dc/elements/1.1/"
   xmlns:cc="http://creativecommons.org/ns#"
   xmlns:rdf="http://www.w3.org/1999/02/22-rdf-syntax-ns#"
   xmlns:svg="http://www.w3.org/2000/svg"
   xmlns="http://www.w3.org/2000/svg"
   version="1.1"
   id="svg22634"
   viewBox="0 0 360.53355 181.82559"
   height="51.315224mm"
   width="101.75058mm">
  <defs
     id="defs22636" />
  <metadata
     id="metadata22639">
    <rdf:RDF>
      <cc:Work
         rdf:about="">
        <dc:format>image/svg+xml</dc:format>
        <dc:type
           rdf:resource="http://purl.org/dc/dcmitype/StillImage" />
        <dc:title></dc:title>
      </cc:Work>
    </rdf:RDF>
  </metadata>
  <path
     id="path15854"
     style="font-variant:normal;font-size:medium;font-family:'Nimbus Sans L';-inkscape-font-specification:NimbusSanL-Regu;writing-mode:lr-tb;fill:#000000;fill-opacity:1;fill-rule:nonzero;stroke:none"
     d="m 120.50904,101.09526 2.11515,0 0,-0.7257 -5.0622,0 0,0.7257 2.124,0 0,5.72595 0.82305,0 0,-5.72595 z" />
  <path
     id="path15856"
     style="font-variant:normal;font-size:medium;font-family:'Nimbus Sans L';-inkscape-font-specification:NimbusSanL-Regu;writing-mode:lr-tb;fill:#000000;fill-opacity:1;fill-rule:nonzero;stroke:none"
     d="m 124.31454,100.36956 -0.82305,0 0,6.45165 4.00905,0 0,-0.7257 -3.186,0 0,-5.72595 z" />
  <path
     id="path15858"
     style="font-variant:normal;font-size:medium;font-family:'Nimbus Sans L';-inkscape-font-specification:NimbusSanL-Regu;writing-mode:lr-tb;fill:#000000;fill-opacity:1;fill-rule:nonzero;stroke:none"
     d="m 131.17215,106.82121 2.23905,-6.45165 -0.87615,0 -1.7877,5.46045 -1.8939,-5.46045 -0.885,0 2.3187,6.45165 0.885,0 z" />
  <path
     id="path15860"
     style="font-variant:normal;font-size:medium;font-family:'Nimbus Sans L';-inkscape-font-specification:NimbusSanL-Regu;writing-mode:lr-tb;fill:#000000;fill-opacity:1;fill-rule:nonzero;stroke:none"
     d="m 138.08398,106.05126 -3.30105,0 c 0.0797,-0.5133 0.36285,-0.84075 1.1328,-1.2921 l 0.885,-0.4779 c 0.87615,-0.4779 1.3275,-1.12395 1.3275,-1.8939 0,-0.52215 -0.2124,-1.0089 -0.5841,-1.3452 -0.3717,-0.3363 -0.8319,-0.4956 -1.42485,-0.4956 -0.7965,0 -1.38945,0.2832 -1.7346,0.8142 -0.22125,0.3363 -0.3186,0.7257 -0.3363,1.3629 l 0.7788,0 c 0.0265,-0.4248 0.0796,-0.68145 0.18585,-0.885 0.20355,-0.38055 0.61065,-0.61065 1.0797,-0.61065 0.708,0 1.239,0.50445 1.239,1.17705 0,0.4956 -0.29205,0.9204 -0.8496,1.239 l -0.8142,0.4602 c -1.3098,0.7434 -1.69035,1.33635 -1.76115,2.71695 l 4.1772,0 0,-0.76995 z" />
  <path
     id="path15862"
     style="font-variant:normal;font-size:medium;font-family:'Nimbus Sans L';-inkscape-font-specification:NimbusSanL-Regu;writing-mode:lr-tb;fill:#000000;fill-opacity:1;fill-rule:nonzero;stroke:none"
     d="m 141.41929,105.31671 0,1.5045 0.7788,0 0,-1.5045 0.92925,0 0,-0.69915 -0.92925,0 0,-4.071 -0.57525,0 -2.8497,3.9471 0,0.82305 2.64615,0 z m 0,-0.69915 -1.9647,0 1.9647,-2.7435 0,2.7435 z" />
  <path
     id="path15864"
     style="font-variant:normal;font-size:medium;font-family:'Nimbus Sans L';-inkscape-font-specification:NimbusSanL-Regu;writing-mode:lr-tb;fill:#000000;fill-opacity:1;fill-rule:nonzero;stroke:none"
     d="m 148.04677,100.54656 -4.1949,0 0,0.76995 3.38955,0 c -1.49565,2.13285 -2.1063,3.44265 -2.57535,5.5047 l 0.8319,0 c 0.34515,-2.00895 1.1328,-3.7347 2.5488,-5.61975 l 0,-0.6549 z" />
  <path
     id="path15866"
     style="font-variant:normal;font-size:medium;font-family:'Nimbus Sans L';-inkscape-font-specification:NimbusSanL-Regu;writing-mode:lr-tb;fill:#000000;fill-opacity:1;fill-rule:nonzero;stroke:none"
     d="m 152.84231,106.05126 -3.30105,0 c 0.0797,-0.5133 0.36285,-0.84075 1.1328,-1.2921 l 0.885,-0.4779 c 0.87615,-0.4779 1.3275,-1.12395 1.3275,-1.8939 0,-0.52215 -0.2124,-1.0089 -0.5841,-1.3452 -0.3717,-0.3363 -0.8319,-0.4956 -1.42485,-0.4956 -0.7965,0 -1.38945,0.2832 -1.7346,0.8142 -0.22125,0.3363 -0.3186,0.7257 -0.3363,1.3629 l 0.7788,0 c 0.0265,-0.4248 0.0796,-0.68145 0.18585,-0.885 0.20355,-0.38055 0.61065,-0.61065 1.0797,-0.61065 0.708,0 1.239,0.50445 1.239,1.17705 0,0.4956 -0.29205,0.9204 -0.8496,1.239 l -0.8142,0.4602 c -1.3098,0.7434 -1.69035,1.33635 -1.76115,2.71695 l 4.1772,0 0,-0.76995 z" />
  <path
     id="path15874"
     style="font-variant:normal;font-size:medium;font-family:'Nimbus Sans L';-inkscape-font-specification:NimbusSanL-Regu;writing-mode:lr-tb;fill:#000000;fill-opacity:1;fill-rule:nonzero;stroke:none"
     d="m 49.085183,39.70874 c 0.15045,1.0266 0.82305,1.63725 1.77885,1.63725 0.6903,0 1.31865,-0.3363 1.6815,-0.89385 0.39825,-0.61065 0.57525,-1.3806 0.57525,-2.52225 0,-1.05315 -0.1593,-1.72575 -0.531,-2.2833 -0.34515,-0.50445 -0.89385,-0.7788 -1.58415,-0.7788 -1.19475,0 -2.0532,0.885 -2.0532,2.11515 0,1.1682 0.7965,1.99125 1.9293,1.99125 0.59295,0 1.0266,-0.2124 1.4337,-0.69915 -0.009,1.53105 -0.50445,2.38065 -1.3983,2.38065 -0.5487,0 -0.92925,-0.34515 -1.05315,-0.94695 l -0.7788,0 z m 1.9116,-4.1595 c 0.7257,0 1.2744,0.6018 1.2744,1.416 0,0.76995 -0.53985,1.31865 -1.30095,1.31865 -0.75225,0 -1.2213,-0.52215 -1.2213,-1.3629 0,-0.7965 0.531,-1.37175 1.24785,-1.37175 z" />
  <path
     id="path15876"
     style="font-variant:normal;font-size:medium;font-family:'Nimbus Sans L';-inkscape-font-specification:NimbusSanL-Regu;writing-mode:lr-tb;fill:#000000;fill-opacity:1;fill-rule:nonzero;stroke:none"
     d="m 55.491443,38.26619 0.0974,0 0.32745,-0.009 c 0.85845,0 1.30095,0.3894 1.30095,1.14165 0,0.78765 -0.48675,1.2567 -1.30095,1.2567 -0.8496,0 -1.26555,-0.4248 -1.31865,-1.33635 l -0.7788,0 c 0.0354,0.50445 0.1239,0.8319 0.27435,1.1151 0.3186,0.6018 0.9381,0.91155 1.79655,0.91155 1.2921,0 2.124,-0.76995 2.124,-1.95585 0,-0.7965 -0.30975,-1.239 -1.062,-1.49565 0.5841,-0.2301 0.87615,-0.6726 0.87615,-1.30095 0,-1.0797 -0.71685,-1.72575 -1.9116,-1.72575 -1.26555,0 -1.93815,0.6903 -1.9647,2.02665 l 0.7788,0 c 0.009,-0.38055 0.0443,-0.59295 0.1416,-0.78765 0.177,-0.34515 0.5664,-0.55755 1.05315,-0.55755 0.6903,0 1.10625,0.4071 1.10625,1.07085 0,0.4425 -0.1593,0.708 -0.50445,0.8496 -0.2124,0.0885 -0.48675,0.1239 -1.03545,0.13275 l 0,0.66375 z" />
  <path
     id="path15878"
     style="font-variant:normal;font-size:medium;font-family:'Nimbus Sans L';-inkscape-font-specification:NimbusSanL-Regu;writing-mode:lr-tb;fill:#000000;fill-opacity:1;fill-rule:nonzero;stroke:none"
     d="m 60.747183,36.67319 0,4.46925 0.7788,0 0,-6.27465 -0.5133,0 c -0.27435,0.96465 -0.45135,1.0974 -1.65495,1.24785 l 0,0.55755 1.38945,0 z" />
  <path
     id="path15880"
     style="font-variant:normal;font-size:medium;font-family:'Nimbus Sans L';-inkscape-font-specification:NimbusSanL-Regu;writing-mode:lr-tb;fill:#000000;fill-opacity:1;fill-rule:nonzero;stroke:none"
     d="m 64.622803,34.69079 -0.73455,0 0,6.45165 0.73455,0 0,-1.8054 0.71685,-0.708 1.56645,2.5134 0.91155,0 -1.8939,-3.03555 1.6107,-1.60185 -0.94695,0 -1.9647,1.9647 0,-3.77895 z" />
  <g
     transform="matrix(0,-1,1,0,-323.92513,-277.51119)"
     style="font-variant:normal;font-size:8.85000038px;font-family:'Nimbus Sans L';-inkscape-font-specification:NimbusSanL-Regu;writing-mode:lr-tb;fill:#000000;fill-opacity:1;fill-rule:nonzero;stroke:none"
     id="text12009">
    <path
       d="m -365.27347,398.40569 c 0.15045,1.0266 0.82305,1.63725 1.77885,1.63725 0.6903,0 1.31865,-0.3363 1.6815,-0.89385 0.39825,-0.61065 0.57525,-1.3806 0.57525,-2.52225 0,-1.05315 -0.1593,-1.72575 -0.531,-2.2833 -0.34515,-0.50445 -0.89385,-0.7788 -1.58415,-0.7788 -1.19475,0 -2.0532,0.885 -2.0532,2.11515 0,1.1682 0.7965,1.99125 1.9293,1.99125 0.59295,0 1.0266,-0.2124 1.4337,-0.69915 -0.009,1.53105 -0.50445,2.38065 -1.3983,2.38065 -0.5487,0 -0.92925,-0.34515 -1.05315,-0.94695 l -0.7788,0 z m 1.9116,-4.1595 c 0.7257,0 1.2744,0.6018 1.2744,1.416 0,0.76995 -0.53985,1.31865 -1.30095,1.31865 -0.75225,0 -1.2213,-0.52215 -1.2213,-1.3629 0,-0.7965 0.531,-1.37175 1.24785,-1.37175 z"
       id="path15801" />
    <path
       d="m -358.86672,396.96314 0.0974,0 0.32745,-0.009 c 0.85845,0 1.30095,0.3894 1.30095,1.14165 0,0.78765 -0.48675,1.2567 -1.30095,1.2567 -0.8496,0 -1.26555,-0.4248 -1.31865,-1.33635 l -0.7788,0 c 0.0354,0.50445 0.1239,0.8319 0.27435,1.1151 0.3186,0.6018 0.9381,0.91155 1.79655,0.91155 1.2921,0 2.124,-0.76995 2.124,-1.95585 0,-0.7965 -0.30975,-1.239 -1.062,-1.49565 0.5841,-0.2301 0.87615,-0.6726 0.87615,-1.30095 0,-1.0797 -0.71685,-1.72575 -1.9116,-1.72575 -1.26555,0 -1.93815,0.6903 -1.9647,2.02665 l 0.7788,0 c 0.009,-0.38055 0.0442,-0.59295 0.1416,-0.78765 0.177,-0.34515 0.5664,-0.55755 1.05315,-0.55755 0.6903,0 1.10625,0.4071 1.10625,1.07085 0,0.4425 -0.1593,0.708 -0.50445,0.8496 -0.2124,0.0885 -0.48675,0.1239 -1.03545,0.13275 l 0,0.66375 z"
       id="path15803" />
    <path
       d="m -353.61099,395.37014 0,4.46925 0.7788,0 0,-6.27465 -0.5133,0 c -0.27435,0.96465 -0.45135,1.0974 -1.65495,1.24785 l 0,0.55755 1.38945,0 z"
       id="path15805" />
    <path
       d="m -349.73585,393.38774 -0.73455,0 0,6.45165 0.73455,0 0,-1.8054 0.71685,-0.708 1.56645,2.5134 0.91155,0 -1.8939,-3.03555 1.6107,-1.60185 -0.94695,0 -1.9647,1.9647 0,-3.77895 z"
       id="path15807" />
    <path
       d="m -330.9072,425.33052 0,1.5045 0.7788,0 0,-1.5045 0.92925,0 0,-0.69915 -0.92925,0 0,-4.071 -0.57525,0 -2.8497,3.9471 0,0.82305 2.64615,0 z m 0,-0.69915 -1.9647,0 1.9647,-2.7435 0,2.7435 z"
       id="path15809" />
    <path
       d="m -324.27968,420.56037 -4.1949,0 0,0.76995 3.38955,0 c -1.49565,2.13285 -2.1063,3.44265 -2.57535,5.5047 l 0.8319,0 c 0.34515,-2.00895 1.1328,-3.7347 2.5488,-5.61975 l 0,-0.6549 z"
       id="path15811" />
    <path
       d="m -322.71391,420.38337 -0.73455,0 0,6.45165 0.73455,0 0,-1.8054 0.71685,-0.708 1.56645,2.5134 0.91155,0 -1.8939,-3.03555 1.6107,-1.60185 -0.94695,0 -1.9647,1.9647 0,-3.77895 z"
       id="path15813" />
    <path
       d="m -375.89255,614.29927 0,1.5045 0.7788,0 0,-1.5045 0.92925,0 0,-0.69915 -0.92925,0 0,-4.071 -0.57525,0 -2.8497,3.9471 0,0.82305 2.64615,0 z m 0,-0.69915 -1.9647,0 1.9647,-2.7435 0,2.7435 z"
       id="path15815" />
    <path
       d="m -369.26507,609.52912 -4.1949,0 0,0.76995 3.38955,0 c -1.49565,2.13285 -2.1063,3.44265 -2.57535,5.5047 l 0.8319,0 c 0.34515,-2.00895 1.1328,-3.7347 2.5488,-5.61975 l 0,-0.6549 z"
       id="path15817" />
    <path
       d="m -367.69978,609.35212 -0.73455,0 0,6.45165 0.73455,0 0,-1.8054 0.71685,-0.708 1.56645,2.5134 0.91155,0 -1.8939,-3.03555 1.6107,-1.60185 -0.94695,0 -1.9647,1.9647 0,-3.77895 z"
       id="path15819" />
    <path
       d="m -429.87543,614.29927 0,1.5045 0.7788,0 0,-1.5045 0.92925,0 0,-0.69915 -0.92925,0 0,-4.071 -0.57525,0 -2.8497,3.9471 0,0.82305 2.64615,0 z m 0,-0.69915 -1.9647,0 1.9647,-2.7435 0,2.7435 z"
       id="path15821" />
    <path
       d="m -423.24794,609.52912 -4.19491,0 0,0.76995 3.38956,0 c -1.49565,2.13285 -2.1063,3.44265 -2.57536,5.5047 l 0.83191,0 c 0.34515,-2.00895 1.1328,-3.7347 2.5488,-5.61975 l 0,-0.6549 z"
       id="path15823" />
    <path
       d="m -421.68217,609.35212 -0.73455,0 0,6.45165 0.73455,0 0,-1.8054 0.71685,-0.708 1.56645,2.5134 0.91155,0 -1.8939,-3.03555 1.6107,-1.60185 -0.94695,0 -1.9647,1.9647 0,-3.77895 z"
       id="path15825" />
  </g>
  <g
     transform="translate(-323.92513,-277.51119)"
     style="font-variant:normal;font-size:8.85000038px;font-family:'Nimbus Sans L';-inkscape-font-specification:NimbusSanL-Regu;writing-mode:lr-tb;fill:#000000;fill-opacity:1;fill-rule:nonzero;stroke:none"
     id="text12017">
    <path
       d="m 538.60959,370.23052 0,1.5045 0.7788,0 0,-1.5045 0.92925,0 0,-0.69915 -0.92925,0 0,-4.071 -0.57525,0 -2.8497,3.9471 0,0.82305 2.64615,0 z m 0,-0.69915 -1.9647,0 1.9647,-2.7435 0,2.7435 z"
       id="path15794" />
    <path
       d="m 545.11317,370.96507 -3.30105,0 c 0.0796,-0.5133 0.36285,-0.84075 1.1328,-1.2921 l 0.885,-0.4779 c 0.87615,-0.4779 1.3275,-1.12395 1.3275,-1.8939 0,-0.52215 -0.2124,-1.0089 -0.5841,-1.3452 -0.3717,-0.3363 -0.8319,-0.4956 -1.42485,-0.4956 -0.7965,0 -1.38945,0.2832 -1.7346,0.8142 -0.22125,0.3363 -0.3186,0.7257 -0.3363,1.3629 l 0.7788,0 c 0.0266,-0.4248 0.0797,-0.68145 0.18585,-0.885 0.20355,-0.38055 0.61065,-0.61065 1.0797,-0.61065 0.708,0 1.239,0.50445 1.239,1.17705 0,0.4956 -0.29205,0.9204 -0.8496,1.239 l -0.8142,0.4602 c -1.3098,0.7434 -1.69035,1.33635 -1.76115,2.71695 l 4.1772,0 0,-0.76995 z"
       id="path15796" />
    <path
       d="m 546.80284,365.28337 -0.73455,0 0,6.45165 0.73455,0 0,-1.8054 0.71685,-0.708 1.56645,2.5134 0.91155,0 -1.8939,-3.03555 1.6107,-1.60185 -0.94695,0 -1.9647,1.9647 0,-3.77895 z"
       id="path15798" />
  </g>
  <g
     transform="matrix(0,-1,1,0,-323.92513,-277.51119)"
     style="font-variant:normal;font-size:8.85000038px;font-family:'Nimbus Sans L';-inkscape-font-specification:NimbusSanL-Regu;writing-mode:lr-tb;fill:#000000;fill-opacity:1;fill-rule:nonzero;stroke:none"
     id="text12021">
    <path
       d="m -287.2527,381.25326 c -0.15045,-1.0266 -0.82305,-1.63725 -1.77885,-1.63725 -0.6903,0 -1.3098,0.3363 -1.6815,0.89385 -0.3894,0.61065 -0.5664,1.3806 -0.5664,2.52225 0,1.05315 0.1593,1.72575 0.531,2.2833 0.3363,0.50445 0.885,0.7788 1.5753,0.7788 1.19475,0 2.0532,-0.885 2.0532,-2.11515 0,-1.1682 -0.7965,-1.99125 -1.92045,-1.99125 -0.6195,0 -1.10625,0.23895 -1.44255,0.69915 0.009,-1.53105 0.50445,-2.38065 1.3983,-2.38065 0.5487,0 0.92925,0.34515 1.05315,0.94695 l 0.7788,0 z m -1.88505,1.42485 c 0.75225,0 1.2213,0.52215 1.2213,1.3629 0,0.78765 -0.531,1.3629 -1.24785,1.3629 -0.7257,0 -1.2744,-0.6018 -1.2744,-1.40715 0,-0.7788 0.531,-1.31865 1.30095,-1.31865 z"
       id="path15781" />
    <path
       d="m -283.28022,382.58961 c 0.64605,-0.3894 0.85845,-0.708 0.85845,-1.30095 0,-0.98235 -0.76995,-1.67265 -1.88505,-1.67265 -1.10625,0 -1.88505,0.6903 -1.88505,1.67265 0,0.5841 0.2124,0.9027 0.8496,1.30095 -0.71685,0.34515 -1.07085,0.8673 -1.07085,1.5576 0,1.1505 0.8673,1.947 2.1063,1.947 1.239,0 2.1063,-0.7965 2.1063,-1.93815 0,-0.69915 -0.354,-1.2213 -1.0797,-1.56645 z m -1.0266,-2.2833 c 0.66375,0 1.08855,0.3894 1.08855,1.00005 0,0.5841 -0.43365,0.9735 -1.08855,0.9735 -0.6549,0 -1.08855,-0.3894 -1.08855,-0.98235 0,-0.6018 0.43365,-0.9912 1.08855,-0.9912 z m 0,2.62845 c 0.7788,0 1.3098,0.4956 1.3098,1.23015 0,0.7434 -0.531,1.239 -1.3275,1.239 -0.7611,0 -1.2921,-0.50445 -1.2921,-1.239 0,-0.73455 0.531,-1.23015 1.3098,-1.23015 z"
       id="path15783" />
    <path
       d="m -281.20164,381.25326 0,4.6374 0.7434,0 0,-2.55765 c 0,-0.94695 0.4956,-1.56645 1.2567,-1.56645 0.5841,0 0.9558,0.354 0.9558,0.91155 l 0,3.21255 0.73455,0 0,-3.5046 c 0,-0.76995 -0.57525,-1.26555 -1.4691,-1.26555 -0.6903,0 -1.1328,0.2655 -1.5399,0.91155 l 0,-0.7788 -0.68145,0 z"
       id="path15785" />
    <path
       d="m -350.23271,489.23513 c -0.15045,-1.0266 -0.82305,-1.63725 -1.77885,-1.63725 -0.6903,0 -1.3098,0.3363 -1.6815,0.89385 -0.3894,0.61065 -0.5664,1.3806 -0.5664,2.52225 0,1.05315 0.1593,1.72575 0.531,2.2833 0.3363,0.50445 0.885,0.7788 1.5753,0.7788 1.19475,0 2.0532,-0.885 2.0532,-2.11515 0,-1.1682 -0.7965,-1.99125 -1.92045,-1.99125 -0.6195,0 -1.10625,0.23895 -1.44255,0.69915 0.009,-1.53105 0.50445,-2.38065 1.3983,-2.38065 0.5487,0 0.92925,0.34515 1.05315,0.94695 l 0.7788,0 z m -1.88505,1.42485 c 0.75225,0 1.2213,0.52215 1.2213,1.3629 0,0.78765 -0.531,1.3629 -1.24785,1.3629 -0.7257,0 -1.2744,-0.6018 -1.2744,-1.40715 0,-0.7788 0.531,-1.31865 1.30095,-1.31865 z"
       id="path15787" />
    <path
       d="m -346.25974,490.57148 c 0.64605,-0.3894 0.85845,-0.708 0.85845,-1.30095 0,-0.98235 -0.76995,-1.67265 -1.88505,-1.67265 -1.10625,0 -1.88505,0.6903 -1.88505,1.67265 0,0.5841 0.2124,0.9027 0.8496,1.30095 -0.71685,0.34515 -1.07085,0.8673 -1.07085,1.5576 0,1.1505 0.8673,1.947 2.1063,1.947 1.239,0 2.1063,-0.7965 2.1063,-1.93815 0,-0.69915 -0.354,-1.2213 -1.0797,-1.56645 z m -1.0266,-2.2833 c 0.66375,0 1.08855,0.3894 1.08855,1.00005 0,0.5841 -0.43365,0.9735 -1.08855,0.9735 -0.6549,0 -1.08855,-0.3894 -1.08855,-0.98235 0,-0.6018 0.43365,-0.9912 1.08855,-0.9912 z m 0,2.62845 c 0.7788,0 1.3098,0.4956 1.3098,1.23015 0,0.7434 -0.531,1.239 -1.3275,1.239 -0.7611,0 -1.2921,-0.50445 -1.2921,-1.239 0,-0.73455 0.531,-1.23015 1.3098,-1.23015 z"
       id="path15789" />
    <path
       d="m -344.18113,489.23513 0,4.6374 0.7434,0 0,-2.55765 c 0,-0.94695 0.4956,-1.56645 1.2567,-1.56645 0.5841,0 0.9558,0.354 0.9558,0.91155 l 0,3.21255 0.73455,0 0,-3.5046 c 0,-0.76995 -0.57525,-1.26555 -1.4691,-1.26555 -0.6903,0 -1.1328,0.2655 -1.5399,0.91155 l 0,-0.7788 -0.68145,0 z"
       id="path15791" />
  </g>
  <path
     id="path15752"
     style="font-variant:normal;font-size:medium;font-family:'Nimbus Sans L';-inkscape-font-specification:NimbusSanL-Regu;writing-mode:lr-tb;fill:#000000;fill-opacity:1;fill-rule:nonzero;stroke:none"
     d="m 228.4209,40.81288 2.11515,0 0,-0.7257 -5.0622,0 0,0.7257 2.124,0 0,5.72595 0.82305,0 0,-5.72595 z" />
  <path
     id="path15754"
     style="font-variant:normal;font-size:medium;font-family:'Nimbus Sans L';-inkscape-font-specification:NimbusSanL-Regu;writing-mode:lr-tb;fill:#000000;fill-opacity:1;fill-rule:nonzero;stroke:none"
     d="m 232.2264,40.08718 -0.82305,0 0,6.45165 4.00905,0 0,-0.7257 -3.186,0 0,-5.72595 z" />
  <path
     id="path15756"
     style="font-variant:normal;font-size:medium;font-family:'Nimbus Sans L';-inkscape-font-specification:NimbusSanL-Regu;writing-mode:lr-tb;fill:#000000;fill-opacity:1;fill-rule:nonzero;stroke:none"
     d="m 239.08399,46.53883 2.23905,-6.45165 -0.87615,0 -1.7877,5.46045 -1.8939,-5.46045 -0.885,0 2.3187,6.45165 0.885,0 z" />
  <path
     id="path15758"
     style="font-variant:normal;font-size:medium;font-family:'Nimbus Sans L';-inkscape-font-specification:NimbusSanL-Regu;writing-mode:lr-tb;fill:#000000;fill-opacity:1;fill-rule:nonzero;stroke:none"
     d="m 245.99584,45.76888 -3.30105,0 c 0.0797,-0.5133 0.36285,-0.84075 1.1328,-1.2921 l 0.885,-0.4779 c 0.87615,-0.4779 1.3275,-1.12395 1.3275,-1.8939 0,-0.52215 -0.2124,-1.0089 -0.5841,-1.3452 -0.3717,-0.3363 -0.8319,-0.4956 -1.42485,-0.4956 -0.7965,0 -1.38945,0.2832 -1.7346,0.8142 -0.22125,0.3363 -0.3186,0.7257 -0.3363,1.3629 l 0.7788,0 c 0.0266,-0.4248 0.0797,-0.68145 0.18585,-0.885 0.20355,-0.38055 0.61065,-0.61065 1.0797,-0.61065 0.708,0 1.239,0.50445 1.239,1.17705 0,0.4956 -0.29205,0.9204 -0.8496,1.239 l -0.8142,0.4602 c -1.3098,0.7434 -1.69035,1.33635 -1.76115,2.71695 l 4.1772,0 0,-0.76995 z" />
  <path
     id="path15760"
     style="font-variant:normal;font-size:medium;font-family:'Nimbus Sans L';-inkscape-font-specification:NimbusSanL-Regu;writing-mode:lr-tb;fill:#000000;fill-opacity:1;fill-rule:nonzero;stroke:none"
     d="m 249.33112,45.03433 0,1.5045 0.7788,0 0,-1.5045 0.92925,0 0,-0.69915 -0.92925,0 0,-4.071 -0.57525,0 -2.8497,3.9471 0,0.82305 2.64615,0 z m 0,-0.69915 -1.9647,0 1.9647,-2.7435 0,2.7435 z" />
  <path
     id="path15762"
     style="font-variant:normal;font-size:medium;font-family:'Nimbus Sans L';-inkscape-font-specification:NimbusSanL-Regu;writing-mode:lr-tb;fill:#000000;fill-opacity:1;fill-rule:nonzero;stroke:none"
     d="m 255.95916,40.26418 -4.1949,0 0,0.76995 3.38955,0 c -1.49565,2.13285 -2.1063,3.44265 -2.57535,5.5047 l 0.8319,0 c 0.34515,-2.00895 1.1328,-3.7347 2.5488,-5.61975 l 0,-0.6549 z" />
  <path
     id="path15764"
     style="font-variant:normal;font-size:medium;font-family:'Nimbus Sans L';-inkscape-font-specification:NimbusSanL-Regu;writing-mode:lr-tb;fill:#000000;fill-opacity:1;fill-rule:nonzero;stroke:none"
     d="m 260.75469,45.76888 -3.30105,0 c 0.0797,-0.5133 0.36285,-0.84075 1.1328,-1.2921 l 0.885,-0.4779 c 0.87615,-0.4779 1.3275,-1.12395 1.3275,-1.8939 0,-0.52215 -0.2124,-1.0089 -0.5841,-1.3452 -0.3717,-0.3363 -0.8319,-0.4956 -1.42485,-0.4956 -0.7965,0 -1.38945,0.2832 -1.7346,0.8142 -0.22125,0.3363 -0.3186,0.7257 -0.3363,1.3629 l 0.7788,0 c 0.0266,-0.4248 0.0797,-0.68145 0.18585,-0.885 0.20355,-0.38055 0.61065,-0.61065 1.0797,-0.61065 0.708,0 1.239,0.50445 1.239,1.17705 0,0.4956 -0.29205,0.9204 -0.8496,1.239 l -0.8142,0.4602 c -1.3098,0.7434 -1.69035,1.33635 -1.76115,2.71695 l 4.1772,0 0,-0.76995 z" />
  <path
     id="path15745"
     style="font-variant:normal;font-size:medium;font-family:'Nimbus Sans L';-inkscape-font-specification:NimbusSanL-Regu;writing-mode:lr-tb;fill:#000000;fill-opacity:1;fill-rule:nonzero;stroke:none"
     d="m 283.80917,53.24366 4.46925,0 0,-0.7788 -6.27465,0 0,0.5133 c 0.96465,0.27435 1.0974,0.45135 1.24785,1.65495 l 0.55755,0 0,-1.38945 z" />
  <path
     id="path15747"
     style="font-variant:normal;font-size:medium;font-family:'Nimbus Sans L';-inkscape-font-specification:NimbusSanL-Regu;writing-mode:lr-tb;fill:#000000;fill-opacity:1;fill-rule:nonzero;stroke:none"
     d="m 282.00377,48.18262 c 0,0.5841 0.25665,1.1151 0.6903,1.44255 0.5487,0.4071 1.38945,0.61065 2.5488,0.61065 2.11515,0 3.2391,-0.708 3.2391,-2.0532 0,-1.3275 -1.12395,-2.0532 -3.186,-2.0532 -1.2213,0 -2.0355,0.1947 -2.6019,0.61065 -0.4425,0.32745 -0.6903,0.8496 -0.6903,1.44255 z m 0.6903,0 c 0,-0.84075 0.8496,-1.2567 2.5311,-1.2567 1.77885,0 2.61075,0.4071 2.61075,1.2744 0,0.82305 -0.8673,1.239 -2.5842,1.239 -1.7169,0 -2.55765,-0.41595 -2.55765,-1.2567 z" />
  <path
     id="path15749"
     style="font-variant:normal;font-size:medium;font-family:'Nimbus Sans L';-inkscape-font-specification:NimbusSanL-Regu;writing-mode:lr-tb;fill:#000000;fill-opacity:1;fill-rule:nonzero;stroke:none"
     d="m 281.82677,44.44909 0,0.73455 6.45165,0 0,-0.73455 -1.8054,0 -0.708,-0.71685 2.5134,-1.56645 0,-0.91155 -3.03555,1.8939 -1.60185,-1.6107 0,0.94695 1.9647,1.9647 -3.77895,0 z" />
  <g
     transform="translate(-323.92513,-277.51119)"
     style="font-variant:normal;font-size:8.85000038px;font-family:'Nimbus Sans L';-inkscape-font-specification:NimbusSanL-Regu;writing-mode:lr-tb;fill:#000000;fill-opacity:1;fill-rule:nonzero;stroke:none"
     id="text12039">
    <path
       d="m 404.76406,394.86899 -2.6904,0 0,0.72571 1.9647,0 0,0.177 c 0,1.1505 -0.8496,1.9824 -2.02665,1.9824 -0.6549,0 -1.24785,-0.23895 -1.6284,-0.6549 -0.4248,-0.4602 -0.68145,-1.23015 -0.68145,-2.02666 0,-1.58415 0.9027,-2.62845 2.2656,-2.62845 0.98235,0 1.69035,0.50445 1.86735,1.33635 l 0.84075,0 c -0.2301,-1.3098 -1.2213,-2.06205 -2.69925,-2.06205 -0.78765,0 -1.42485,0.20355 -1.9293,0.6195 -0.7434,0.6195 -1.1682,1.61955 -1.1682,2.7789 0,1.98241 1.21245,3.36301 2.9559,3.36301 0.87615,0 1.5753,-0.32745 2.20365,-1.0266 l 0.20355,0.85845 0.52215,0 0,-3.44266 z"
       id="path15730" />
    <path
       d="m 411.0918,391.82459 -0.7788,0 0,5.27461 -3.37186,-5.27461 -0.89385,0 0,6.45166 0.7788,0 0,-5.23036 3.33646,5.23036 0.92925,0 0,-6.45166 z"
       id="path15732" />
    <path
       d="m 412.55205,398.27625 2.48685,0 c 1.6284,0 2.62845,-1.2213 2.62845,-3.23026 0,-2.0001 -0.9912,-3.2214 -2.62845,-3.2214 l -2.48685,0 0,6.45166 z m 0.82305,-0.7257 0,-5.00026 1.5222,0 c 1.2744,0 1.947,0.85845 1.947,2.50455 0,1.62841 -0.6726,2.49571 -1.947,2.49571 l -1.5222,0 z"
       id="path15734" />
  </g>
  <g
     transform="translate(-323.92513,-277.51119)"
     style="font-variant:normal;font-size:8.85000038px;font-family:'Nimbus Sans L';-inkscape-font-specification:NimbusSanL-Regu;writing-mode:lr-tb;fill:#000000;fill-opacity:1;fill-rule:nonzero;stroke:none"
     id="text12141">
    <path
       d="m 459.29206,407.12205 -0.8319,0 0,6.45165 0.8319,0 0,-6.45165 z"
       id="path15492" />
    <path
       d="m 465.89416,409.12215 c -0.25665,-1.416 -1.07085,-2.1063 -2.48685,-2.1063 -0.8673,0 -1.56645,0.27435 -2.04435,0.80535 -0.5841,0.6372 -0.9027,1.5576 -0.9027,2.6019 0,1.062 0.32745,1.97355 0.9381,2.6019 0.4956,0.5133 1.1328,0.75225 1.97355,0.75225 1.5753,0 2.4603,-0.8496 2.655,-2.55765 l -0.8496,0 c -0.0708,0.4425 -0.1593,0.7434 -0.29205,1.00005 -0.2655,0.531 -0.8142,0.8319 -1.5045,0.8319 -1.28325,0 -2.09745,-1.0266 -2.09745,-2.6373 0,-1.65495 0.7788,-2.6727 2.02665,-2.6727 0.52215,0 1.0089,0.1593 1.2744,0.4071 0.23895,0.22125 0.3717,0.4956 0.46905,0.9735 l 0.84075,0 z"
       id="path15494" />
    <path
       d="m 468.71625,409.10445 0,4.46925 0.7788,0 0,-6.27465 -0.5133,0 c -0.27435,0.96465 -0.45135,1.0974 -1.65495,1.24785 l 0,0.55755 1.38945,0 z"
       id="path15496" />
    <path
       d="m 472.04321,413.5737 2.91165,0 c 0.61065,0 1.062,-0.16815 1.40715,-0.53985 0.3186,-0.3363 0.4956,-0.7965 0.4956,-1.30095 0,-0.7788 -0.354,-1.24785 -1.17705,-1.56645 0.5841,-0.27435 0.89385,-0.75225 0.89385,-1.40715 0,-0.46905 -0.177,-0.885 -0.5133,-1.1859 -0.3363,-0.30975 -0.7788,-0.45135 -1.3983,-0.45135 l -2.6196,0 0,6.45165 z m 0.82305,-3.67275 0,-2.0532 1.593,0 c 0.4602,0 0.71685,0.0619 0.9381,0.2301 0.2301,0.177 0.354,0.4425 0.354,0.7965 0,0.34515 -0.1239,0.6195 -0.354,0.7965 -0.22125,0.16815 -0.4779,0.2301 -0.9381,0.2301 l -1.593,0 z m 0,2.94705 0,-2.22135 2.00895,0 c 0.39825,0 0.66375,0.0974 0.85845,0.30975 0.1947,0.20355 0.3009,0.48675 0.3009,0.80535 0,0.30975 -0.1062,0.59295 -0.3009,0.7965 -0.1947,0.2124 -0.4602,0.30975 -0.85845,0.30975 l -2.00895,0 z"
       id="path15498" />
  </g>
  <g
     transform="translate(-323.92513,-277.51119)"
     style="font-variant:normal;font-size:7.57499981px;font-family:'Nimbus Sans L';-inkscape-font-specification:NimbusSanL-Regu;writing-mode:lr-tb;fill:#000000;fill-opacity:1;fill-rule:nonzero;stroke:none"
     id="text12145">
    <path
       d="m 509.25276,381.80115 c -0.12878,-0.8787 -0.70448,-1.40138 -1.52258,-1.40138 -0.59085,0 -1.1211,0.28785 -1.43925,0.76508 -0.3333,0.52267 -0.4848,1.1817 -0.4848,2.15887 0,0.90143 0.13635,1.47713 0.4545,1.95435 0.28785,0.43178 0.7575,0.6666 1.34835,0.6666 1.02263,0 1.7574,-0.7575 1.7574,-1.81042 0,-0.9999 -0.68175,-1.70438 -1.64377,-1.70438 -0.53025,0 -0.94688,0.20453 -1.23473,0.59843 0.008,-1.31048 0.43178,-2.03768 1.19685,-2.03768 0.46965,0 0.79538,0.29543 0.90143,0.81053 l 0.6666,0 z m -1.61348,1.21957 c 0.64388,0 1.04535,0.44693 1.04535,1.16655 0,0.67418 -0.4545,1.16655 -1.06807,1.16655 -0.62115,0 -1.0908,-0.5151 -1.0908,-1.20442 0,-0.6666 0.4545,-1.12868 1.11352,-1.12868 z"
       id="path15485" />
    <path
       d="m 509.08611,398.39391 -2.77245,0 -0.40148,2.92395 0.61358,0 c 0.31057,-0.37117 0.56812,-0.49995 0.98475,-0.49995 0.71962,0 1.17412,0.49238 1.17412,1.28775 0,0.77265 -0.44692,1.2423 -1.17412,1.2423 -0.58328,0 -0.9393,-0.29542 -1.09838,-0.90142 l -0.6666,0 c 0.0909,0.43935 0.16665,0.65145 0.32573,0.8484 0.303,0.40905 0.8484,0.64387 1.4544,0.64387 1.08322,0 1.84072,-0.7878 1.84072,-1.92405 0,-1.0605 -0.70447,-1.7877 -1.73467,-1.7877 -0.37875,0 -0.68175,0.0985 -0.99233,0.32573 l 0.2121,-1.49985 2.23463,0 0,-0.65903 z"
       id="path15487" />
    <path
       d="m 466.70603,389.39684 -3.59055,0 0,0.65903 2.90122,0 c -1.28017,1.82557 -1.80285,2.94667 -2.20432,4.71165 l 0.71205,0 c 0.29542,-1.71953 0.9696,-3.19665 2.1816,-4.81013 l 0,-0.56055 z"
       id="path15489" />
  </g>
  <g
     transform="translate(-323.92513,-277.51119)"
     style="font-variant:normal;font-size:8.85000038px;font-family:'Nimbus Sans L';-inkscape-font-specification:NimbusSanL-Regu;writing-mode:lr-tb;fill:#000000;fill-opacity:1;fill-rule:nonzero;stroke:none"
     id="text12157">
    <path
       d="m 382.06175,332.87985 2.124,0 c 0.73455,0 1.062,0.354 1.062,1.1505 l -0.009,0.57525 c 0,0.39825 0.0708,0.78765 0.18585,1.05315 l 1.00005,0 0,-0.20355 c -0.30975,-0.2124 -0.3717,-0.4425 -0.3894,-1.30095 -0.009,-1.062 -0.177,-1.3806 -0.87615,-1.6815 0.7257,-0.354 1.01775,-0.80535 1.01775,-1.5399 0,-1.1151 -0.69915,-1.72575 -1.9647,-1.72575 l -2.9736,0 0,6.45165 0.82305,0 0,-2.7789 z m 0,-0.7257 0,-2.22135 1.99125,0 c 0.4602,0 0.7257,0.0708 0.92925,0.2478 0.22125,0.18585 0.3363,0.4779 0.3363,0.8673 0,0.7611 -0.3894,1.10625 -1.26555,1.10625 l -1.99125,0 z"
       id="path15480" />
    <path
       d="m 391.21266,331.02135 c -0.15045,-1.0266 -0.82305,-1.63725 -1.77885,-1.63725 -0.6903,0 -1.3098,0.3363 -1.6815,0.89385 -0.3894,0.61065 -0.5664,1.3806 -0.5664,2.52225 0,1.05315 0.1593,1.72575 0.531,2.2833 0.3363,0.50445 0.885,0.7788 1.5753,0.7788 1.19475,0 2.0532,-0.885 2.0532,-2.11515 0,-1.1682 -0.7965,-1.99125 -1.92045,-1.99125 -0.6195,0 -1.10625,0.23895 -1.44255,0.69915 0.009,-1.53105 0.50445,-2.38065 1.3983,-2.38065 0.5487,0 0.92925,0.34515 1.05315,0.94695 l 0.7788,0 z m -1.88505,1.42485 c 0.75225,0 1.2213,0.52215 1.2213,1.3629 0,0.78765 -0.531,1.3629 -1.24785,1.3629 -0.7257,0 -1.2744,-0.6018 -1.2744,-1.40715 0,-0.7788 0.531,-1.31865 1.30095,-1.31865 z"
       id="path15482" />
  </g>
  <g
     transform="matrix(0,-1,1,0,-323.92513,-277.51119)"
     style="font-variant:normal;font-size:8.85000038px;font-family:'Nimbus Sans L';-inkscape-font-specification:NimbusSanL-Regu;writing-mode:lr-tb;fill:#000000;fill-opacity:1;fill-rule:nonzero;stroke:none"
     id="text12161">
    <path
       d="m -356.22142,414.06799 2.124,0 c 0.73455,0 1.062,0.354 1.062,1.1505 l -0.009,0.57525 c 0,0.39825 0.0708,0.78765 0.18585,1.05315 l 1.00005,0 0,-0.20355 c -0.30975,-0.2124 -0.3717,-0.4425 -0.3894,-1.30095 -0.009,-1.062 -0.177,-1.3806 -0.87615,-1.6815 0.7257,-0.354 1.01775,-0.80535 1.01775,-1.5399 0,-1.1151 -0.69915,-1.72575 -1.9647,-1.72575 l -2.9736,0 0,6.45165 0.82305,0 0,-2.7789 z m 0,-0.7257 0,-2.22135 1.99125,0 c 0.4602,0 0.7257,0.0708 0.92925,0.2478 0.22125,0.18585 0.3363,0.4779 0.3363,0.8673 0,0.7611 -0.3894,1.10625 -1.26555,1.10625 l -1.99125,0 z"
       id="path15461" />
    <path
       d="m -346.87581,410.57224 -4.1949,0 0,0.76995 3.38955,0 c -1.49565,2.13285 -2.1063,3.44265 -2.57535,5.5047 l 0.8319,0 c 0.34515,-2.00895 1.1328,-3.7347 2.5488,-5.61975 l 0,-0.6549 z"
       id="path15463" />
    <path
       d="m -329.22966,441.06363 2.124,0 c 0.73455,0 1.062,0.354 1.062,1.1505 l -0.009,0.57525 c 0,0.39825 0.0708,0.78765 0.18585,1.05315 l 1.00005,0 0,-0.20355 c -0.30975,-0.2124 -0.3717,-0.4425 -0.3894,-1.30095 -0.009,-1.062 -0.177,-1.3806 -0.87615,-1.6815 0.7257,-0.354 1.01775,-0.80535 1.01775,-1.5399 0,-1.1151 -0.69915,-1.72575 -1.9647,-1.72575 l -2.9736,0 0,6.45165 0.82305,0 0,-2.7789 z m 0,-0.7257 0,-2.22135 1.99125,0 c 0.4602,0 0.7257,0.0708 0.92925,0.2478 0.22125,0.18585 0.3363,0.4779 0.3363,0.8673 0,0.7611 -0.3894,1.10625 -1.26555,1.10625 l -1.99125,0 z"
       id="path15465" />
    <path
       d="m -321.02674,440.54148 c 0.64605,-0.3894 0.85845,-0.708 0.85845,-1.30095 0,-0.98235 -0.76995,-1.67265 -1.88505,-1.67265 -1.10625,0 -1.88505,0.6903 -1.88505,1.67265 0,0.5841 0.2124,0.9027 0.8496,1.30095 -0.71685,0.34515 -1.07085,0.8673 -1.07085,1.5576 0,1.1505 0.8673,1.947 2.1063,1.947 1.239,0 2.1063,-0.7965 2.1063,-1.93815 0,-0.69915 -0.354,-1.2213 -1.0797,-1.56645 z m -1.0266,-2.2833 c 0.66375,0 1.08855,0.3894 1.08855,1.00005 0,0.5841 -0.43365,0.9735 -1.08855,0.9735 -0.6549,0 -1.08855,-0.3894 -1.08855,-0.98235 0,-0.6018 0.43365,-0.9912 1.08855,-0.9912 z m 0,2.62845 c 0.7788,0 1.3098,0.4956 1.3098,1.23015 0,0.7434 -0.531,1.239 -1.3275,1.239 -0.7611,0 -1.2921,-0.50445 -1.2921,-1.239 0,-0.73455 0.531,-1.23015 1.3098,-1.23015 z"
       id="path15467" />
    <path
       d="m -374.21553,630.03238 2.124,0 c 0.73455,0 1.062,0.354 1.062,1.1505 l -0.009,0.57525 c 0,0.39825 0.0708,0.78765 0.18585,1.05315 l 1.00005,0 0,-0.20355 c -0.30975,-0.2124 -0.3717,-0.4425 -0.3894,-1.30095 -0.009,-1.062 -0.177,-1.3806 -0.87615,-1.6815 0.7257,-0.354 1.01775,-0.80535 1.01775,-1.5399 0,-1.1151 -0.69915,-1.72575 -1.9647,-1.72575 l -2.9736,0 0,6.45165 0.82305,0 0,-2.7789 z m 0,-0.7257 0,-2.22135 1.99125,0 c 0.4602,0 0.7257,0.0708 0.92925,0.2478 0.22125,0.18585 0.3363,0.4779 0.3363,0.8673 0,0.7611 -0.3894,1.10625 -1.26555,1.10625 l -1.99125,0 z"
       id="path15469" />
    <path
       d="m -369.00287,631.37758 c 0.15045,1.0266 0.82305,1.63725 1.77885,1.63725 0.6903,0 1.31865,-0.3363 1.6815,-0.89385 0.39825,-0.61065 0.57525,-1.3806 0.57525,-2.52225 0,-1.05315 -0.1593,-1.72575 -0.531,-2.2833 -0.34515,-0.50445 -0.89385,-0.7788 -1.58415,-0.7788 -1.19475,0 -2.0532,0.885 -2.0532,2.11515 0,1.1682 0.7965,1.99125 1.9293,1.99125 0.59295,0 1.0266,-0.2124 1.4337,-0.69915 -0.009,1.53105 -0.50445,2.38065 -1.3983,2.38065 -0.5487,0 -0.92925,-0.34515 -1.05315,-0.94695 l -0.7788,0 z m 1.9116,-4.1595 c 0.7257,0 1.2744,0.6018 1.2744,1.416 0,0.76995 -0.53985,1.31865 -1.30095,1.31865 -0.75225,0 -1.2213,-0.52215 -1.2213,-1.3629 0,-0.7965 0.531,-1.37175 1.24785,-1.37175 z"
       id="path15471" />
    <path
       d="m -433.07292,630.03238 2.124,0 c 0.73455,0 1.062,0.354 1.062,1.1505 l -0.009,0.57525 c 0,0.39825 0.0708,0.78765 0.18585,1.05315 l 1.00005,0 0,-0.20355 c -0.30975,-0.2124 -0.3717,-0.4425 -0.3894,-1.30095 -0.009,-1.062 -0.177,-1.3806 -0.87615,-1.6815 0.7257,-0.354 1.01775,-0.80535 1.01775,-1.5399 0,-1.1151 -0.69915,-1.72575 -1.9647,-1.72575 l -2.9736,0 0,6.45165 0.82305,0 0,-2.7789 z m 0,-0.7257 0,-2.22135 1.99125,0 c 0.4602,0 0.7257,0.0708 0.92925,0.2478 0.22125,0.18585 0.3363,0.4779 0.3363,0.8673 0,0.7611 -0.3894,1.10625 -1.26555,1.10625 l -1.99125,0 z"
       id="path15473" />
    <path
       d="m -426.0382,628.34203 0,4.46925 0.7788,0 0,-6.27465 -0.5133,0 c -0.27435,0.96465 -0.45135,1.0974 -1.65495,1.24785 l 0,0.55755 1.38945,0 z"
       id="path15475" />
    <path
       d="m -420.97668,626.53663 c -0.5841,0 -1.1151,0.25665 -1.44255,0.6903 -0.4071,0.5487 -0.61065,1.38945 -0.61065,2.5488 0,2.11515 0.708,3.2391 2.0532,3.2391 1.3275,0 2.0532,-1.12395 2.0532,-3.186 0,-1.2213 -0.1947,-2.0355 -0.61065,-2.6019 -0.32745,-0.4425 -0.8496,-0.6903 -1.44255,-0.6903 z m 0,0.6903 c 0.84075,0 1.2567,0.8496 1.2567,2.5311 0,1.77885 -0.4071,2.61075 -1.2744,2.61075 -0.82305,0 -1.239,-0.8673 -1.239,-2.5842 0,-1.7169 0.41595,-2.55765 1.2567,-2.55765 z"
       id="path15477" />
  </g>
  <g
     transform="translate(-323.92513,-277.51119)"
     style="font-variant:normal;font-size:8.85000038px;font-family:'Nimbus Sans L';-inkscape-font-specification:NimbusSanL-Regu;writing-mode:lr-tb;fill:#000000;fill-opacity:1;fill-rule:nonzero;stroke:none"
     id="text12169">
    <path
       d="m 537.36174,351.95111 2.124,0 c 0.73455,0 1.062,0.354 1.062,1.1505 l -0.009,0.57525 c 0,0.39825 0.0708,0.78765 0.18585,1.05315 l 1.00005,0 0,-0.20355 c -0.30975,-0.2124 -0.3717,-0.4425 -0.3894,-1.30095 -0.009,-1.062 -0.177,-1.3806 -0.87615,-1.6815 0.7257,-0.354 1.01775,-0.80535 1.01775,-1.5399 0,-1.1151 -0.69915,-1.72575 -1.9647,-1.72575 l -2.9736,0 0,6.45165 0.82305,0 0,-2.7789 z m 0,-0.7257 0,-2.22135 1.99125,0 c 0.4602,0 0.7257,0.0708 0.92925,0.2478 0.22125,0.18585 0.3363,0.4779 0.3363,0.8673 0,0.7611 -0.3894,1.10625 -1.26555,1.10625 l -1.99125,0 z"
       id="path15454" />
    <path
       d="m 544.3975,350.26076 0,4.46925 0.7788,0 0,-6.27465 -0.5133,0 c -0.27435,0.96465 -0.45135,1.0974 -1.65495,1.24785 l 0,0.55755 1.38945,0 z"
       id="path15456" />
    <path
       d="m 549.31693,350.26076 0,4.46925 0.7788,0 0,-6.27465 -0.5133,0 c -0.27435,0.96465 -0.45135,1.0974 -1.65495,1.24785 l 0,0.55755 1.38945,0 z"
       id="path15458" />
  </g>
  <g
     transform="matrix(0,-1,1,0,-323.92513,-277.51119)"
     style="font-variant:normal;font-size:8.85000038px;font-family:'Nimbus Sans L';-inkscape-font-specification:NimbusSanL-Regu;writing-mode:lr-tb;fill:#000000;fill-opacity:1;fill-rule:nonzero;stroke:none"
     id="text12173">
    <path
       d="m -285.8013,363.44286 c -0.25665,-1.416 -1.07085,-2.1063 -2.48685,-2.1063 -0.8673,0 -1.56645,0.27435 -2.04435,0.80535 -0.5841,0.6372 -0.9027,1.5576 -0.9027,2.6019 0,1.062 0.32745,1.97355 0.9381,2.6019 0.4956,0.5133 1.1328,0.75225 1.97355,0.75225 1.5753,0 2.4603,-0.8496 2.655,-2.55765 l -0.8496,0 c -0.0708,0.4425 -0.1593,0.7434 -0.29205,1.00005 -0.2655,0.531 -0.8142,0.8319 -1.5045,0.8319 -1.28325,0 -2.09745,-1.0266 -2.09745,-2.6373 0,-1.65495 0.7788,-2.6727 2.02665,-2.6727 0.52215,0 1.0089,0.1593 1.2744,0.4071 0.23895,0.22125 0.3717,0.4956 0.46905,0.9735 l 0.84075,0 z"
       id="path15445" />
    <path
       d="m -283.31447,365.01816 0.0973,0 0.32745,-0.009 c 0.85845,0 1.30095,0.3894 1.30095,1.14165 0,0.78765 -0.48675,1.2567 -1.30095,1.2567 -0.8496,0 -1.26555,-0.4248 -1.31865,-1.33635 l -0.7788,0 c 0.0354,0.50445 0.1239,0.8319 0.27435,1.1151 0.3186,0.6018 0.9381,0.91155 1.79655,0.91155 1.2921,0 2.124,-0.76995 2.124,-1.95585 0,-0.7965 -0.30975,-1.239 -1.062,-1.49565 0.5841,-0.2301 0.87615,-0.6726 0.87615,-1.30095 0,-1.0797 -0.71685,-1.72575 -1.9116,-1.72575 -1.26555,0 -1.93815,0.6903 -1.9647,2.02665 l 0.7788,0 c 0.009,-0.38055 0.0443,-0.59295 0.1416,-0.78765 0.177,-0.34515 0.5664,-0.55755 1.05315,-0.55755 0.6903,0 1.10625,0.4071 1.10625,1.07085 0,0.4425 -0.1593,0.708 -0.50445,0.8496 -0.2124,0.0885 -0.48675,0.1239 -1.03545,0.13275 l 0,0.66375 z"
       id="path15447" />
    <path
       d="m -348.78131,471.42473 c -0.25665,-1.416 -1.07085,-2.1063 -2.48685,-2.1063 -0.8673,0 -1.56645,0.27435 -2.04435,0.80535 -0.5841,0.6372 -0.9027,1.5576 -0.9027,2.6019 0,1.062 0.32745,1.97355 0.9381,2.6019 0.4956,0.5133 1.1328,0.75225 1.97355,0.75225 1.5753,0 2.4603,-0.8496 2.655,-2.55765 l -0.8496,0 c -0.0708,0.4425 -0.1593,0.7434 -0.29205,1.00005 -0.2655,0.531 -0.8142,0.8319 -1.5045,0.8319 -1.28325,0 -2.09745,-1.0266 -2.09745,-2.6373 0,-1.65495 0.7788,-2.6727 2.02665,-2.6727 0.52215,0 1.0089,0.1593 1.2744,0.4071 0.23895,0.22125 0.3717,0.4956 0.46905,0.9735 l 0.84075,0 z"
       id="path15449" />
    <path
       d="m -345.35636,474.37178 0,1.5045 0.7788,0 0,-1.5045 0.92926,0 0,-0.69915 -0.92926,0 0,-4.071 -0.57525,0 -2.8497,3.9471 0,0.82305 2.64615,0 z m 0,-0.69915 -1.9647,0 1.9647,-2.7435 0,2.7435 z"
       id="path15451" />
  </g>
  <g
     transform="translate(-323.92513,-277.51119)"
     style="font-variant:normal;font-size:8.85000038px;font-family:'Nimbus Sans L';-inkscape-font-specification:NimbusSanL-Regu;writing-mode:lr-tb;fill:#000000;fill-opacity:1;fill-rule:nonzero;stroke:none"
     id="text12179">
    <path
       d="m 550.93003,288.3571 -0.8319,0 0,6.45165 0.8319,0 0,-6.45165 z"
       id="path15436" />
    <path
       d="m 557.53216,290.3572 c -0.25665,-1.416 -1.07085,-2.1063 -2.48685,-2.1063 -0.8673,0 -1.56645,0.27435 -2.04435,0.80535 -0.5841,0.6372 -0.9027,1.5576 -0.9027,2.6019 0,1.062 0.32745,1.97355 0.9381,2.6019 0.4956,0.5133 1.1328,0.75225 1.97355,0.75225 1.5753,0 2.4603,-0.8496 2.655,-2.55765 l -0.8496,0 c -0.0708,0.4425 -0.1593,0.7434 -0.29205,1.00005 -0.2655,0.531 -0.8142,0.8319 -1.5045,0.8319 -1.28325,0 -2.09745,-1.0266 -2.09745,-2.6373 0,-1.65495 0.7788,-2.6727 2.02665,-2.6727 0.52215,0 1.0089,0.1593 1.2744,0.4071 0.23895,0.22125 0.3717,0.4956 0.46905,0.9735 l 0.84075,0 z"
       id="path15438" />
    <path
       d="m 562.54127,294.0388 -3.30105,0 c 0.0797,-0.5133 0.36285,-0.84075 1.1328,-1.2921 l 0.885,-0.4779 c 0.87615,-0.4779 1.3275,-1.12395 1.3275,-1.8939 0,-0.52215 -0.2124,-1.0089 -0.5841,-1.3452 -0.3717,-0.3363 -0.8319,-0.4956 -1.42485,-0.4956 -0.7965,0 -1.38945,0.2832 -1.7346,0.8142 -0.22125,0.3363 -0.3186,0.7257 -0.3363,1.3629 l 0.7788,0 c 0.0265,-0.4248 0.0796,-0.68145 0.18585,-0.885 0.20355,-0.38055 0.61065,-0.61065 1.0797,-0.61065 0.708,0 1.239,0.50445 1.239,1.17705 0,0.4956 -0.29205,0.9204 -0.8496,1.239 l -0.8142,0.4602 c -1.3098,0.7434 -1.69035,1.33635 -1.76115,2.71695 l 4.1772,0 0,-0.76995 z"
       id="path15440" />
    <path
       d="m 567.17751,292.8706 0.66375,1.93815 0.9204,0 -2.2656,-6.45165 -1.062,0 -2.30101,6.45165 0.87616,0 0.68145,-1.93815 2.48685,0 z m -0.2301,-0.6903 -2.0532,0 1.062,-2.9382 0.9912,2.9382 z"
       id="path15442" />
  </g>
  <g
     transform="translate(-323.92513,-277.51119)"
     style="font-variant:normal;font-size:7.57499981px;font-family:'Nimbus Sans L';-inkscape-font-specification:NimbusSanL-Regu;writing-mode:lr-tb;fill:#000000;fill-opacity:1;fill-rule:nonzero;stroke:none"
     id="text12183">
    <path
       d="m 520.59095,313.13361 -2.82548,0 c 0.0682,-0.43935 0.31058,-0.71963 0.9696,-1.10595 l 0.7575,-0.40905 c 0.74993,-0.40905 1.13625,-0.96203 1.13625,-1.62105 0,-0.44693 -0.1818,-0.86355 -0.49995,-1.1514 -0.31815,-0.28785 -0.71205,-0.4242 -1.21957,-0.4242 -0.68175,0 -1.18928,0.2424 -1.4847,0.6969 -0.18938,0.28785 -0.2727,0.62115 -0.28785,1.16655 l 0.6666,0 c 0.0227,-0.3636 0.0682,-0.58328 0.15907,-0.7575 0.17423,-0.32573 0.52268,-0.52268 0.92415,-0.52268 0.606,0 1.0605,0.43178 1.0605,1.00748 0,0.4242 -0.24997,0.7878 -0.7272,1.0605 l -0.6969,0.3939 c -1.1211,0.6363 -1.44682,1.14382 -1.50742,2.32552 l 3.5754,0 0,-0.65902 z"
       id="path15429" />
    <path
       d="m 518.43207,293.33662 0.0833,0 0.28027,-0.008 c 0.73478,0 1.11353,0.3333 1.11353,0.97718 0,0.67417 -0.41663,1.07565 -1.11353,1.07565 -0.7272,0 -1.08322,-0.3636 -1.12867,-1.14383 l -0.6666,0 c 0.0303,0.43178 0.10605,0.71205 0.23482,0.95445 0.2727,0.5151 0.80295,0.78023 1.53773,0.78023 1.10595,0 1.818,-0.65903 1.818,-1.67408 0,-0.68175 -0.26513,-1.0605 -0.909,-1.28017 0.49995,-0.19695 0.74992,-0.5757 0.74992,-1.11353 0,-0.92415 -0.61357,-1.47712 -1.6362,-1.47712 -1.08322,0 -1.65892,0.59085 -1.68165,1.73467 l 0.6666,0 c 0.008,-0.32572 0.0379,-0.50752 0.1212,-0.67417 0.1515,-0.29543 0.4848,-0.47723 0.90143,-0.47723 0.59085,0 0.94687,0.34845 0.94687,0.91658 0,0.37875 -0.13635,0.606 -0.43177,0.7272 -0.1818,0.0757 -0.41663,0.10605 -0.88628,0.11362 l 0,0.56813 z"
       id="path15431" />
    <path
       d="m 561.4333,300.97022 0,3.82537 0.6666,0 0,-5.37067 -0.43935,0 c -0.23483,0.82567 -0.38633,0.9393 -1.41653,1.06807 l 0,0.47723 1.18928,0 z"
       id="path15433" />
  </g>
  <g
     transform="matrix(0,-1,1,0,-323.92513,-277.51119)"
     style="font-variant:normal;font-size:8.85000038px;font-family:'Nimbus Sans L';-inkscape-font-specification:NimbusSanL-Regu;writing-mode:lr-tb;fill:#000000;fill-opacity:1;fill-rule:nonzero;stroke:none"
     id="text12215">
    <path
       d="m -331.40142,600.42551 2.124,0 c 0.73455,0 1.062,0.354 1.062,1.1505 l -0.009,0.57525 c 0,0.39825 0.0708,0.78765 0.18585,1.05315 l 1.00005,0 0,-0.20355 c -0.30975,-0.2124 -0.3717,-0.4425 -0.3894,-1.30095 -0.009,-1.062 -0.177,-1.3806 -0.87615,-1.6815 0.7257,-0.354 1.01775,-0.80535 1.01775,-1.5399 0,-1.1151 -0.69915,-1.72575 -1.9647,-1.72575 l -2.9736,0 0,6.45165 0.82305,0 0,-2.7789 z m 0,-0.7257 0,-2.22135 1.99125,0 c 0.4602,0 0.7257,0.0708 0.92925,0.2478 0.22125,0.18585 0.3363,0.4779 0.3363,0.8673 0,0.7611 -0.3894,1.10625 -1.26555,1.10625 l -1.99125,0 z"
       id="path15391" />
    <path
       d="m -324.36566,598.73516 0,4.46925 0.7788,0 0,-6.27465 -0.5133,0 c -0.27435,0.96465 -0.45135,1.0974 -1.65495,1.24785 l 0,0.55755 1.38945,0 z"
       id="path15393" />
    <path
       d="m -318.84442,601.69991 0,1.5045 0.7788,0 0,-1.5045 0.92925,0 0,-0.69915 -0.92925,0 0,-4.071 -0.57525,0 -2.8497,3.9471 0,0.82305 2.64615,0 z m 0,-0.69915 -1.9647,0 1.9647,-2.7435 0,2.7435 z"
       id="path15395" />
  </g>
  <g
     transform="matrix(0,-1,1,0,-323.92513,-277.51119)"
     style="font-variant:normal;font-size:7.57499981px;font-family:'Nimbus Sans L';-inkscape-font-specification:NimbusSanL-Regu;writing-mode:lr-tb;fill:#000000;fill-opacity:1;fill-rule:nonzero;stroke:none"
     id="text12219">
    <path
       d="m -354.5392,580.12213 0,3.82538 0.6666,0 0,-5.37068 -0.43935,0 c -0.23483,0.82568 -0.38633,0.9393 -1.41653,1.06808 l 0,0.47722 1.18928,0 z"
       id="path15386" />
    <path
       d="m -327.95483,583.28848 -2.82548,0 c 0.0682,-0.43935 0.31058,-0.71962 0.9696,-1.10595 l 0.7575,-0.40905 c 0.74993,-0.40905 1.13625,-0.96202 1.13625,-1.62105 0,-0.44692 -0.1818,-0.86355 -0.49995,-1.1514 -0.31815,-0.28785 -0.71205,-0.4242 -1.21957,-0.4242 -0.68175,0 -1.18928,0.2424 -1.4847,0.6969 -0.18938,0.28785 -0.2727,0.62115 -0.28785,1.16655 l 0.6666,0 c 0.0227,-0.3636 0.0682,-0.58327 0.15907,-0.7575 0.17423,-0.32572 0.52268,-0.52267 0.92415,-0.52267 0.606,0 1.0605,0.43177 1.0605,1.00747 0,0.4242 -0.24997,0.7878 -0.7272,1.0605 l -0.6969,0.3939 c -1.1211,0.6363 -1.44682,1.14383 -1.50742,2.32553 l 3.5754,0 0,-0.65903 z"
       id="path15388" />
  </g>
  <g
     transform="translate(-323.92513,-277.51119)"
     style="font-variant:normal;font-size:7.57499981px;font-family:'Nimbus Sans L';-inkscape-font-specification:NimbusSanL-Regu;writing-mode:lr-tb;fill:#000000;fill-opacity:1;fill-rule:nonzero;stroke:none"
     id="text12223">
    <path
       d="m 597.13971,338.32188 0.0833,0 0.28027,-0.008 c 0.73478,0 1.11353,0.3333 1.11353,0.97718 0,0.67417 -0.41663,1.07565 -1.11353,1.07565 -0.7272,0 -1.08322,-0.3636 -1.12867,-1.14383 l -0.6666,0 c 0.0303,0.43178 0.10605,0.71205 0.23482,0.95445 0.2727,0.5151 0.80295,0.78023 1.53773,0.78023 1.10595,0 1.818,-0.65903 1.818,-1.67408 0,-0.68175 -0.26513,-1.0605 -0.909,-1.28017 0.49995,-0.19695 0.74992,-0.5757 0.74992,-1.11353 0,-0.92415 -0.61357,-1.47712 -1.6362,-1.47712 -1.08322,0 -1.65892,0.59085 -1.68165,1.73467 l 0.6666,0 c 0.008,-0.32572 0.0379,-0.50752 0.1212,-0.67417 0.1515,-0.29543 0.4848,-0.47723 0.90143,-0.47723 0.59085,0 0.94687,0.34845 0.94687,0.91658 0,0.37875 -0.13635,0.606 -0.43177,0.7272 -0.1818,0.0758 -0.41663,0.10605 -0.88628,0.11362 l 0,0.56813 z"
       id="path15383" />
  </g>
  <path
     id="path12801"
     style="fill:#000000;fill-opacity:1;fill-rule:evenodd;stroke:none"
     d="m 180.30427,136.52132 0,-36" />
  <path
     id="path12803"
     style="fill:none;stroke:#000000;stroke-width:1.5;stroke-linecap:round;stroke-linejoin:round;stroke-miterlimit:10;stroke-dasharray:none;stroke-opacity:1"
     d="m 180.30427,136.52132 0,-36" />
  <path
     id="path12805"
     style="fill:#000000;fill-opacity:1;fill-rule:evenodd;stroke:none"
     d="m 180.30427,100.52132 -36,18" />
  <path
     id="path12807"
     style="fill:none;stroke:#000000;stroke-width:1.5;stroke-linecap:round;stroke-linejoin:round;stroke-miterlimit:10;stroke-dasharray:none;stroke-opacity:1"
     d="m 180.30427,100.52132 -36,18" />
  <path
     id="path12809"
     style="fill:#000000;fill-opacity:1;fill-rule:evenodd;stroke:none"
     d="m 144.30427,118.52132 36,18" />
  <path
     id="path12811"
     style="fill:none;stroke:#000000;stroke-width:1.5;stroke-linecap:round;stroke-linejoin:round;stroke-miterlimit:10;stroke-dasharray:none;stroke-opacity:1"
     d="m 144.30427,118.52132 36,18" />
  <path
     id="path12813"
     style="fill:#000000;fill-opacity:1;fill-rule:evenodd;stroke:none"
     d="m 175.80427,129.77132 0,-4.5" />
  <path
     id="path12815"
     style="fill:none;stroke:#000000;stroke-width:0.60000002;stroke-linecap:round;stroke-linejoin:round;stroke-miterlimit:10;stroke-dasharray:none;stroke-opacity:1"
     d="m 175.80427,129.77132 0,-4.5" />
  <path
     id="path12817"
     style="fill:#000000;fill-opacity:1;fill-rule:evenodd;stroke:none"
     d="m 178.05427,127.52132 -4.5,0" />
  <path
     id="path12819"
     style="fill:none;stroke:#000000;stroke-width:0.60000002;stroke-linecap:round;stroke-linejoin:round;stroke-miterlimit:10;stroke-dasharray:none;stroke-opacity:1"
     d="m 178.05427,127.52132 -4.5,0" />
  <path
     id="path12821"
     style="fill:#000000;fill-opacity:1;fill-rule:evenodd;stroke:none"
     d="m 178.05427,109.52132 -4.5,0" />
  <path
     id="path12823"
     style="fill:none;stroke:#000000;stroke-width:0.60000002;stroke-linecap:round;stroke-linejoin:round;stroke-miterlimit:10;stroke-dasharray:none;stroke-opacity:1"
     d="m 178.05427,109.52132 -4.5,0" />
  <path
     id="path12825"
     style="fill:#000000;fill-opacity:1;fill-rule:evenodd;stroke:none"
     d="m 189.30427,109.52132 -9,0" />
  <path
     id="path12827"
     style="fill:none;stroke:#000000;stroke-width:0.60000002;stroke-linecap:round;stroke-linejoin:round;stroke-miterlimit:10;stroke-dasharray:none;stroke-opacity:1"
     d="m 189.30427,109.52132 -9,0" />
  <path
     id="path12829"
     style="fill:#000000;fill-opacity:1;fill-rule:evenodd;stroke:none"
     d="m 189.30427,127.52132 -9,0" />
  <path
     id="path12831"
     style="fill:none;stroke:#000000;stroke-width:0.60000002;stroke-linecap:round;stroke-linejoin:round;stroke-miterlimit:10;stroke-dasharray:none;stroke-opacity:1"
     d="m 189.30427,127.52132 -9,0" />
  <path
     id="path12833"
     style="fill:#000000;fill-opacity:1;fill-rule:evenodd;stroke:none"
     d="m 135.30427,118.52132 9,0" />
  <path
     id="path12835"
     style="fill:none;stroke:#000000;stroke-width:0.60000002;stroke-linecap:round;stroke-linejoin:round;stroke-miterlimit:10;stroke-dasharray:none;stroke-opacity:1"
     d="m 135.30427,118.52132 9,0" />
  <path
     id="path12861"
     style="fill:#000000;fill-opacity:1;fill-rule:evenodd;stroke:none"
     d="m 63.304273,43.37132 -18,0" />
  <path
     id="path12863"
     style="fill:none;stroke:#000000;stroke-width:0.89999998;stroke-linecap:round;stroke-linejoin:round;stroke-miterlimit:10;stroke-dasharray:none;stroke-opacity:1"
     d="m 63.304273,43.37132 -18,0" />
  <path
     id="path12865"
     style="fill:#000000;fill-opacity:1;fill-rule:evenodd;stroke:none"
     d="m 45.304273,49.67132 18,0" />
  <path
     id="path12867"
     style="fill:none;stroke:#000000;stroke-width:0.89999998;stroke-linecap:round;stroke-linejoin:round;stroke-miterlimit:10;stroke-dasharray:none;stroke-opacity:1"
     d="m 45.304273,49.67132 18,0" />
  <path
     id="path12869"
     style="fill:#000000;fill-opacity:1;fill-rule:evenodd;stroke:none"
     d="m 45.304273,43.37132 0,6.3" />
  <path
     id="path12871"
     style="fill:none;stroke:#000000;stroke-width:0.89999998;stroke-linecap:round;stroke-linejoin:round;stroke-miterlimit:10;stroke-dasharray:none;stroke-opacity:1"
     d="m 45.304273,43.37132 0,6.3" />
  <path
     id="path12873"
     style="fill:#000000;fill-opacity:1;fill-rule:evenodd;stroke:none"
     d="m 63.304273,43.37132 0,6.3" />
  <path
     id="path12875"
     style="fill:none;stroke:#000000;stroke-width:0.89999998;stroke-linecap:round;stroke-linejoin:round;stroke-miterlimit:10;stroke-dasharray:none;stroke-opacity:1"
     d="m 63.304273,43.37132 0,6.3" />
  <path
     id="path12877"
     style="fill:#000000;fill-opacity:1;fill-rule:evenodd;stroke:none"
     d="m 36.304273,46.52132 9,0" />
  <path
     id="path12879"
     style="fill:none;stroke:#000000;stroke-width:0.60000002;stroke-linecap:round;stroke-linejoin:round;stroke-miterlimit:10;stroke-dasharray:none;stroke-opacity:1"
     d="m 36.304273,46.52132 9,0" />
  <path
     id="path12881"
     style="fill:#000000;fill-opacity:1;fill-rule:evenodd;stroke:none"
     d="m 72.304273,46.52132 -9,0" />
  <path
     id="path12883"
     style="fill:none;stroke:#000000;stroke-width:0.60000002;stroke-linecap:round;stroke-linejoin:round;stroke-miterlimit:10;stroke-dasharray:none;stroke-opacity:1"
     d="m 72.304273,46.52132 -9,0" />
  <path
     id="path12885"
     style="fill:#000000;fill-opacity:1;fill-rule:evenodd;stroke:none"
     d="m 78.154273,73.52132 0,18" />
  <path
     id="path12887"
     style="fill:none;stroke:#000000;stroke-width:0.89999998;stroke-linecap:round;stroke-linejoin:round;stroke-miterlimit:10;stroke-dasharray:none;stroke-opacity:1"
     d="m 78.154273,73.52132 0,18" />
  <path
     id="path12889"
     style="fill:#000000;fill-opacity:1;fill-rule:evenodd;stroke:none"
     d="m 84.454273,91.52132 0,-18" />
  <path
     id="path12891"
     style="fill:none;stroke:#000000;stroke-width:0.89999998;stroke-linecap:round;stroke-linejoin:round;stroke-miterlimit:10;stroke-dasharray:none;stroke-opacity:1"
     d="m 84.454273,91.52132 0,-18" />
  <path
     id="path12893"
     style="fill:#000000;fill-opacity:1;fill-rule:evenodd;stroke:none"
     d="m 78.154273,91.52132 6.3,0" />
  <path
     id="path12895"
     style="fill:none;stroke:#000000;stroke-width:0.89999998;stroke-linecap:round;stroke-linejoin:round;stroke-miterlimit:10;stroke-dasharray:none;stroke-opacity:1"
     d="m 78.154273,91.52132 6.3,0" />
  <path
     id="path12897"
     style="fill:#000000;fill-opacity:1;fill-rule:evenodd;stroke:none"
     d="m 78.154273,73.52132 6.3,0" />
  <path
     id="path12899"
     style="fill:none;stroke:#000000;stroke-width:0.89999998;stroke-linecap:round;stroke-linejoin:round;stroke-miterlimit:10;stroke-dasharray:none;stroke-opacity:1"
     d="m 78.154273,73.52132 6.3,0" />
  <path
     id="path12901"
     style="fill:#000000;fill-opacity:1;fill-rule:evenodd;stroke:none"
     d="m 81.304273,100.52132 0,-9" />
  <path
     id="path12903"
     style="fill:none;stroke:#000000;stroke-width:0.60000002;stroke-linecap:round;stroke-linejoin:round;stroke-miterlimit:10;stroke-dasharray:none;stroke-opacity:1"
     d="m 81.304273,100.52132 0,-9" />
  <path
     id="path12905"
     style="fill:#000000;fill-opacity:1;fill-rule:evenodd;stroke:none"
     d="m 81.304273,64.52132 0,9" />
  <path
     id="path12907"
     style="fill:none;stroke:#000000;stroke-width:0.60000002;stroke-linecap:round;stroke-linejoin:round;stroke-miterlimit:10;stroke-dasharray:none;stroke-opacity:1"
     d="m 81.304273,64.52132 0,9" />
  <path
     id="path12909"
     style="fill:#000000;fill-opacity:1;fill-rule:evenodd;stroke:none"
     d="m 105.15427,46.52132 0,18" />
  <path
     id="path12911"
     style="fill:none;stroke:#000000;stroke-width:0.89999998;stroke-linecap:round;stroke-linejoin:round;stroke-miterlimit:10;stroke-dasharray:none;stroke-opacity:1"
     d="m 105.15427,46.52132 0,18" />
  <path
     id="path12913"
     style="fill:#000000;fill-opacity:1;fill-rule:evenodd;stroke:none"
     d="m 111.45427,64.52132 0,-18" />
  <path
     id="path12915"
     style="fill:none;stroke:#000000;stroke-width:0.89999998;stroke-linecap:round;stroke-linejoin:round;stroke-miterlimit:10;stroke-dasharray:none;stroke-opacity:1"
     d="m 111.45427,64.52132 0,-18" />
  <path
     id="path12917"
     style="fill:#000000;fill-opacity:1;fill-rule:evenodd;stroke:none"
     d="m 105.15427,64.52132 6.3,0" />
  <path
     id="path12919"
     style="fill:none;stroke:#000000;stroke-width:0.89999998;stroke-linecap:round;stroke-linejoin:round;stroke-miterlimit:10;stroke-dasharray:none;stroke-opacity:1"
     d="m 105.15427,64.52132 6.3,0" />
  <path
     id="path12921"
     style="fill:#000000;fill-opacity:1;fill-rule:evenodd;stroke:none"
     d="m 105.15427,46.52132 6.3,0" />
  <path
     id="path12923"
     style="fill:none;stroke:#000000;stroke-width:0.89999998;stroke-linecap:round;stroke-linejoin:round;stroke-miterlimit:10;stroke-dasharray:none;stroke-opacity:1"
     d="m 105.15427,46.52132 6.3,0" />
  <path
     id="path12925"
     style="fill:#000000;fill-opacity:1;fill-rule:evenodd;stroke:none"
     d="m 108.30427,73.52132 0,-9" />
  <path
     id="path12927"
     style="fill:none;stroke:#000000;stroke-width:0.60000002;stroke-linecap:round;stroke-linejoin:round;stroke-miterlimit:10;stroke-dasharray:none;stroke-opacity:1"
     d="m 108.30427,73.52132 0,-9" />
  <path
     id="path12929"
     style="fill:#000000;fill-opacity:1;fill-rule:evenodd;stroke:none"
     d="m 108.30427,37.52132 0,9" />
  <path
     id="path12931"
     style="fill:none;stroke:#000000;stroke-width:0.60000002;stroke-linecap:round;stroke-linejoin:round;stroke-miterlimit:10;stroke-dasharray:none;stroke-opacity:1"
     d="m 108.30427,37.52132 0,9" />
  <path
     id="path12933"
     style="fill:#000000;fill-opacity:1;fill-rule:evenodd;stroke:none"
     d="m 294.15427,91.52132 0,18" />
  <path
     id="path12935"
     style="fill:none;stroke:#000000;stroke-width:0.89999998;stroke-linecap:round;stroke-linejoin:round;stroke-miterlimit:10;stroke-dasharray:none;stroke-opacity:1"
     d="m 294.15427,91.52132 0,18" />
  <path
     id="path12937"
     style="fill:#000000;fill-opacity:1;fill-rule:evenodd;stroke:none"
     d="m 300.45427,109.52132 0,-18" />
  <path
     id="path12939"
     style="fill:none;stroke:#000000;stroke-width:0.89999998;stroke-linecap:round;stroke-linejoin:round;stroke-miterlimit:10;stroke-dasharray:none;stroke-opacity:1"
     d="m 300.45427,109.52132 0,-18" />
  <path
     id="path12941"
     style="fill:#000000;fill-opacity:1;fill-rule:evenodd;stroke:none"
     d="m 294.15427,109.52132 6.3,0" />
  <path
     id="path12943"
     style="fill:none;stroke:#000000;stroke-width:0.89999998;stroke-linecap:round;stroke-linejoin:round;stroke-miterlimit:10;stroke-dasharray:none;stroke-opacity:1"
     d="m 294.15427,109.52132 6.3,0" />
  <path
     id="path12945"
     style="fill:#000000;fill-opacity:1;fill-rule:evenodd;stroke:none"
     d="m 294.15427,91.52132 6.3,0" />
  <path
     id="path12947"
     style="fill:none;stroke:#000000;stroke-width:0.89999998;stroke-linecap:round;stroke-linejoin:round;stroke-miterlimit:10;stroke-dasharray:none;stroke-opacity:1"
     d="m 294.15427,91.52132 6.3,0" />
  <path
     id="path12949"
     style="fill:#000000;fill-opacity:1;fill-rule:evenodd;stroke:none"
     d="m 297.30427,118.52132 0,-9" />
  <path
     id="path12951"
     style="fill:none;stroke:#000000;stroke-width:0.60000002;stroke-linecap:round;stroke-linejoin:round;stroke-miterlimit:10;stroke-dasharray:none;stroke-opacity:1"
     d="m 297.30427,118.52132 0,-9" />
  <path
     id="path12953"
     style="fill:#000000;fill-opacity:1;fill-rule:evenodd;stroke:none"
     d="m 297.30427,82.52132 0,9" />
  <path
     id="path12955"
     style="fill:none;stroke:#000000;stroke-width:0.60000002;stroke-linecap:round;stroke-linejoin:round;stroke-miterlimit:10;stroke-dasharray:none;stroke-opacity:1"
     d="m 297.30427,82.52132 0,9" />
  <path
     id="path12957"
     style="fill:#000000;fill-opacity:1;fill-rule:evenodd;stroke:none"
     d="m 294.15427,145.52132 0,18" />
  <path
     id="path12959"
     style="fill:none;stroke:#000000;stroke-width:0.89999998;stroke-linecap:round;stroke-linejoin:round;stroke-miterlimit:10;stroke-dasharray:none;stroke-opacity:1"
     d="m 294.15427,145.52132 0,18" />
  <path
     id="path12961"
     style="fill:#000000;fill-opacity:1;fill-rule:evenodd;stroke:none"
     d="m 300.45427,163.52132 0,-18" />
  <path
     id="path12963"
     style="fill:none;stroke:#000000;stroke-width:0.89999998;stroke-linecap:round;stroke-linejoin:round;stroke-miterlimit:10;stroke-dasharray:none;stroke-opacity:1"
     d="m 300.45427,163.52132 0,-18" />
  <path
     id="path12965"
     style="fill:#000000;fill-opacity:1;fill-rule:evenodd;stroke:none"
     d="m 294.15427,163.52132 6.3,0" />
  <path
     id="path12967"
     style="fill:none;stroke:#000000;stroke-width:0.89999998;stroke-linecap:round;stroke-linejoin:round;stroke-miterlimit:10;stroke-dasharray:none;stroke-opacity:1"
     d="m 294.15427,163.52132 6.3,0" />
  <path
     id="path12969"
     style="fill:#000000;fill-opacity:1;fill-rule:evenodd;stroke:none"
     d="m 294.15427,145.52132 6.3,0" />
  <path
     id="path12971"
     style="fill:none;stroke:#000000;stroke-width:0.89999998;stroke-linecap:round;stroke-linejoin:round;stroke-miterlimit:10;stroke-dasharray:none;stroke-opacity:1"
     d="m 294.15427,145.52132 6.3,0" />
  <path
     id="path12973"
     style="fill:#000000;fill-opacity:1;fill-rule:evenodd;stroke:none"
     d="m 297.30427,172.52132 0,-9" />
  <path
     id="path12975"
     style="fill:none;stroke:#000000;stroke-width:0.60000002;stroke-linecap:round;stroke-linejoin:round;stroke-miterlimit:10;stroke-dasharray:none;stroke-opacity:1"
     d="m 297.30427,172.52132 0,-9" />
  <path
     id="path12977"
     style="fill:#000000;fill-opacity:1;fill-rule:evenodd;stroke:none"
     d="m 297.30427,136.52132 0,9" />
  <path
     id="path12979"
     style="fill:none;stroke:#000000;stroke-width:0.60000002;stroke-linecap:round;stroke-linejoin:round;stroke-miterlimit:10;stroke-dasharray:none;stroke-opacity:1"
     d="m 297.30427,136.52132 0,9" />
  <path
     id="path12981"
     style="fill:#000000;fill-opacity:1;fill-rule:evenodd;stroke:none"
     d="m 216.30427,85.67132 18,0" />
  <path
     id="path12983"
     style="fill:none;stroke:#000000;stroke-width:0.89999998;stroke-linecap:round;stroke-linejoin:round;stroke-miterlimit:10;stroke-dasharray:none;stroke-opacity:1"
     d="m 216.30427,85.67132 18,0" />
  <path
     id="path12985"
     style="fill:#000000;fill-opacity:1;fill-rule:evenodd;stroke:none"
     d="m 234.30427,79.37132 -18,0" />
  <path
     id="path12987"
     style="fill:none;stroke:#000000;stroke-width:0.89999998;stroke-linecap:round;stroke-linejoin:round;stroke-miterlimit:10;stroke-dasharray:none;stroke-opacity:1"
     d="m 234.30427,79.37132 -18,0" />
  <path
     id="path12989"
     style="fill:#000000;fill-opacity:1;fill-rule:evenodd;stroke:none"
     d="m 234.30427,85.67132 0,-6.3" />
  <path
     id="path12991"
     style="fill:none;stroke:#000000;stroke-width:0.89999998;stroke-linecap:round;stroke-linejoin:round;stroke-miterlimit:10;stroke-dasharray:none;stroke-opacity:1"
     d="m 234.30427,85.67132 0,-6.3" />
  <path
     id="path12993"
     style="fill:#000000;fill-opacity:1;fill-rule:evenodd;stroke:none"
     d="m 216.30427,85.67132 0,-6.3" />
  <path
     id="path12995"
     style="fill:none;stroke:#000000;stroke-width:0.89999998;stroke-linecap:round;stroke-linejoin:round;stroke-miterlimit:10;stroke-dasharray:none;stroke-opacity:1"
     d="m 216.30427,85.67132 0,-6.3" />
  <path
     id="path12997"
     style="fill:#000000;fill-opacity:1;fill-rule:evenodd;stroke:none"
     d="m 243.30427,82.52132 -9,0" />
  <path
     id="path12999"
     style="fill:none;stroke:#000000;stroke-width:0.60000002;stroke-linecap:round;stroke-linejoin:round;stroke-miterlimit:10;stroke-dasharray:none;stroke-opacity:1"
     d="m 243.30427,82.52132 -9,0" />
  <path
     id="path13001"
     style="fill:#000000;fill-opacity:1;fill-rule:evenodd;stroke:none"
     d="m 207.30427,82.52132 9,0" />
  <path
     id="path13003"
     style="fill:none;stroke:#000000;stroke-width:0.60000002;stroke-linecap:round;stroke-linejoin:round;stroke-miterlimit:10;stroke-dasharray:none;stroke-opacity:1"
     d="m 207.30427,82.52132 9,0" />
  <path
     id="path13005"
     style="fill:#000000;fill-opacity:1;fill-rule:evenodd;stroke:none"
     d="m 45.304273,19.52132 1.8,0" />
  <path
     id="path13007"
     style="fill:none;stroke:#000000;stroke-width:0.60000002;stroke-linecap:round;stroke-linejoin:round;stroke-miterlimit:10;stroke-dasharray:none;stroke-opacity:1"
     d="m 45.304273,19.52132 1.8,0" />
  <path
     id="path13009"
     style="fill:#000000;fill-opacity:1;fill-rule:evenodd;stroke:none"
     d="m 54.304273,19.52132 -1.8,0" />
  <path
     id="path13011"
     style="fill:none;stroke:#000000;stroke-width:0.60000002;stroke-linecap:round;stroke-linejoin:round;stroke-miterlimit:10;stroke-dasharray:none;stroke-opacity:1"
     d="m 54.304273,19.52132 -1.8,0" />
  <path
     id="path13013"
     style="fill:#000000;fill-opacity:1;fill-rule:evenodd;stroke:none"
     d="m 50.704273,12.32132 0,14.39988 1.7998,0 0,-14.39988 -1.7998,0 z" />
  <path
     id="path13015"
     style="fill:none;stroke:#000000;stroke-width:1;stroke-linecap:round;stroke-linejoin:round;stroke-miterlimit:10;stroke-dasharray:none;stroke-opacity:1"
     d="m 50.704273,12.32132 0,14.39988 1.7998,0 0,-14.39988 -1.7998,0 z" />
  <path
     id="path13017"
     style="fill:#000000;fill-opacity:1;fill-rule:evenodd;stroke:none"
     d="m 47.104273,12.32132 0,14.39988 1.7998,0 0,-14.39988 -1.7998,0 z" />
  <path
     id="path13019"
     style="fill:none;stroke:#000000;stroke-width:1;stroke-linecap:round;stroke-linejoin:round;stroke-miterlimit:10;stroke-dasharray:none;stroke-opacity:1"
     d="m 47.104273,12.32132 0,14.39988 1.7998,0 0,-14.39988 -1.7998,0 z" />
  <path
     id="path13021"
     style="fill:#000000;fill-opacity:1;fill-rule:evenodd;stroke:none"
     d="m 36.304273,19.52132 9,0" />
  <path
     id="path13023"
     style="fill:none;stroke:#000000;stroke-width:0.60000002;stroke-linecap:round;stroke-linejoin:round;stroke-miterlimit:10;stroke-dasharray:none;stroke-opacity:1"
     d="m 36.304273,19.52132 9,0" />
  <path
     id="path13025"
     style="fill:#000000;fill-opacity:1;fill-rule:evenodd;stroke:none"
     d="m 63.304273,19.52132 -9,0" />
  <path
     id="path13027"
     style="fill:none;stroke:#000000;stroke-width:0.60000002;stroke-linecap:round;stroke-linejoin:round;stroke-miterlimit:10;stroke-dasharray:none;stroke-opacity:1"
     d="m 63.304273,19.52132 -9,0" />
  <path
     id="path13029"
     style="fill:#000000;fill-opacity:1;fill-rule:evenodd;stroke:none"
     d="m 153.30427,82.52132 1.8,0" />
  <path
     id="path13031"
     style="fill:none;stroke:#000000;stroke-width:0.60000002;stroke-linecap:round;stroke-linejoin:round;stroke-miterlimit:10;stroke-dasharray:none;stroke-opacity:1"
     d="m 153.30427,82.52132 1.8,0" />
  <path
     id="path13033"
     style="fill:#000000;fill-opacity:1;fill-rule:evenodd;stroke:none"
     d="m 162.30427,82.52132 -1.8,0" />
  <path
     id="path13035"
     style="fill:none;stroke:#000000;stroke-width:0.60000002;stroke-linecap:round;stroke-linejoin:round;stroke-miterlimit:10;stroke-dasharray:none;stroke-opacity:1"
     d="m 162.30427,82.52132 -1.8,0" />
  <path
     id="path13037"
     style="fill:#000000;fill-opacity:1;fill-rule:evenodd;stroke:none"
     d="m 158.70427,75.32132 0,14.39988 1.7998,0 0,-14.39988 -1.7998,0 z" />
  <path
     id="path13039"
     style="fill:none;stroke:#000000;stroke-width:1;stroke-linecap:round;stroke-linejoin:round;stroke-miterlimit:10;stroke-dasharray:none;stroke-opacity:1"
     d="m 158.70427,75.32132 0,14.39988 1.7998,0 0,-14.39988 -1.7998,0 z" />
  <path
     id="path13041"
     style="fill:#000000;fill-opacity:1;fill-rule:evenodd;stroke:none"
     d="m 155.10427,75.32132 0,14.39988 1.7998,0 0,-14.39988 -1.7998,0 z" />
  <path
     id="path13043"
     style="fill:none;stroke:#000000;stroke-width:1;stroke-linecap:round;stroke-linejoin:round;stroke-miterlimit:10;stroke-dasharray:none;stroke-opacity:1"
     d="m 155.10427,75.32132 0,14.39988 1.7998,0 0,-14.39988 -1.7998,0 z" />
  <path
     id="path13045"
     style="fill:#000000;fill-opacity:1;fill-rule:evenodd;stroke:none"
     d="m 144.30427,82.52132 9,0" />
  <path
     id="path13047"
     style="fill:none;stroke:#000000;stroke-width:0.60000002;stroke-linecap:round;stroke-linejoin:round;stroke-miterlimit:10;stroke-dasharray:none;stroke-opacity:1"
     d="m 144.30427,82.52132 9,0" />
  <path
     id="path13049"
     style="fill:#000000;fill-opacity:1;fill-rule:evenodd;stroke:none"
     d="m 171.30427,82.52132 -9,0" />
  <path
     id="path13051"
     style="fill:none;stroke:#000000;stroke-width:0.60000002;stroke-linecap:round;stroke-linejoin:round;stroke-miterlimit:10;stroke-dasharray:none;stroke-opacity:1"
     d="m 171.30427,82.52132 -9,0" />
  <path
     id="path13053"
     style="fill:#000000;fill-opacity:1;fill-rule:evenodd;stroke:none"
     d="m 198.30427,10.52132 0,36" />
  <path
     id="path13055"
     style="fill:none;stroke:#000000;stroke-width:1.5;stroke-linecap:round;stroke-linejoin:round;stroke-miterlimit:10;stroke-dasharray:none;stroke-opacity:1"
     d="m 198.30427,10.52132 0,36" />
  <path
     id="path13057"
     style="fill:#000000;fill-opacity:1;fill-rule:evenodd;stroke:none"
     d="m 198.30427,46.52132 36,-18" />
  <path
     id="path13059"
     style="fill:none;stroke:#000000;stroke-width:1.5;stroke-linecap:round;stroke-linejoin:round;stroke-miterlimit:10;stroke-dasharray:none;stroke-opacity:1"
     d="m 198.30427,46.52132 36,-18" />
  <path
     id="path13061"
     style="fill:#000000;fill-opacity:1;fill-rule:evenodd;stroke:none"
     d="m 234.30427,28.52132 -36,-18" />
  <path
     id="path13063"
     style="fill:none;stroke:#000000;stroke-width:1.5;stroke-linecap:round;stroke-linejoin:round;stroke-miterlimit:10;stroke-dasharray:none;stroke-opacity:1"
     d="m 234.30427,28.52132 -36,-18" />
  <path
     id="path13065"
     style="fill:#000000;fill-opacity:1;fill-rule:evenodd;stroke:none"
     d="m 202.80427,17.27132 0,4.5" />
  <path
     id="path13067"
     style="fill:none;stroke:#000000;stroke-width:0.60000002;stroke-linecap:round;stroke-linejoin:round;stroke-miterlimit:10;stroke-dasharray:none;stroke-opacity:1"
     d="m 202.80427,17.27132 0,4.5" />
  <path
     id="path13069"
     style="fill:#000000;fill-opacity:1;fill-rule:evenodd;stroke:none"
     d="m 200.55427,19.52132 4.5,0" />
  <path
     id="path13071"
     style="fill:none;stroke:#000000;stroke-width:0.60000002;stroke-linecap:round;stroke-linejoin:round;stroke-miterlimit:10;stroke-dasharray:none;stroke-opacity:1"
     d="m 200.55427,19.52132 4.5,0" />
  <path
     id="path13073"
     style="fill:#000000;fill-opacity:1;fill-rule:evenodd;stroke:none"
     d="m 200.55427,37.52132 4.5,0" />
  <path
     id="path13075"
     style="fill:none;stroke:#000000;stroke-width:0.60000002;stroke-linecap:round;stroke-linejoin:round;stroke-miterlimit:10;stroke-dasharray:none;stroke-opacity:1"
     d="m 200.55427,37.52132 4.5,0" />
  <path
     id="path13077"
     style="fill:#000000;fill-opacity:1;fill-rule:evenodd;stroke:none"
     d="m 189.30427,37.52132 9,0" />
  <path
     id="path13079"
     style="fill:none;stroke:#000000;stroke-width:0.60000002;stroke-linecap:round;stroke-linejoin:round;stroke-miterlimit:10;stroke-dasharray:none;stroke-opacity:1"
     d="m 189.30427,37.52132 9,0" />
  <path
     id="path13081"
     style="fill:#000000;fill-opacity:1;fill-rule:evenodd;stroke:none"
     d="m 189.30427,19.52132 9,0" />
  <path
     id="path13083"
     style="fill:none;stroke:#000000;stroke-width:0.60000002;stroke-linecap:round;stroke-linejoin:round;stroke-miterlimit:10;stroke-dasharray:none;stroke-opacity:1"
     d="m 189.30427,19.52132 9,0" />
  <path
     id="path13085"
     style="fill:#000000;fill-opacity:1;fill-rule:evenodd;stroke:none"
     d="m 243.30427,28.52132 -9,0" />
  <path
     id="path13087"
     style="fill:none;stroke:#000000;stroke-width:0.60000002;stroke-linecap:round;stroke-linejoin:round;stroke-miterlimit:10;stroke-dasharray:none;stroke-opacity:1"
     d="m 243.30427,28.52132 -9,0" />
  <path
     id="path13205"
     style="fill:#000000;fill-opacity:1;fill-rule:evenodd;stroke:none"
     d="m 256.80427,73.52132 9,0" />
  <path
     id="path13207"
     style="fill:none;stroke:#000000;stroke-width:0.89999998;stroke-linecap:round;stroke-linejoin:round;stroke-miterlimit:10;stroke-dasharray:none;stroke-opacity:1"
     d="m 256.80427,73.52132 9,0" />
  <path
     id="path13209"
     style="fill:#000000;fill-opacity:1;fill-rule:evenodd;stroke:none"
     d="m 265.80427,55.52132 -9,0" />
  <path
     id="path13211"
     style="fill:none;stroke:#000000;stroke-width:0.89999998;stroke-linecap:round;stroke-linejoin:round;stroke-miterlimit:10;stroke-dasharray:none;stroke-opacity:1"
     d="m 265.80427,55.52132 -9,0" />
  <path
     id="path13213"
     style="fill:#000000;fill-opacity:1;fill-rule:evenodd;stroke:none"
     d="m 256.80427,55.52132 0,18" />
  <path
     id="path13215"
     style="fill:none;stroke:#000000;stroke-width:0.89999998;stroke-linecap:round;stroke-linejoin:round;stroke-miterlimit:10;stroke-dasharray:none;stroke-opacity:1"
     d="m 256.80427,55.52132 0,18" />
  <path
     id="path13217"
     style="fill:#000000;fill-opacity:1;fill-rule:evenodd;stroke:none"
     d="m 267.60427,64.52132 -19.8,-9.45" />
  <path
     id="path13219"
     style="fill:none;stroke:#000000;stroke-width:0.60000002;stroke-linecap:round;stroke-linejoin:round;stroke-miterlimit:10;stroke-dasharray:none;stroke-opacity:1"
     d="m 267.60427,64.52132 -19.8,-9.45" />
  <path
     id="path13221"
     style="fill:#000000;fill-opacity:1;fill-rule:evenodd;stroke:none"
     d="m 267.60427,64.52132 2.7,0" />
  <path
     id="path13223"
     style="fill:none;stroke:#000000;stroke-width:0.60000002;stroke-linecap:round;stroke-linejoin:round;stroke-miterlimit:10;stroke-dasharray:none;stroke-opacity:1"
     d="m 267.60427,64.52132 2.7,0" />
  <path
     id="path13225"
     style="fill:#000000;fill-opacity:1;fill-rule:evenodd;stroke:none"
     d="m 265.80427,73.52132 0,-18" />
  <path
     id="path13227"
     style="fill:none;stroke:#000000;stroke-width:0.89999998;stroke-linecap:round;stroke-linejoin:round;stroke-miterlimit:10;stroke-dasharray:none;stroke-opacity:1"
     d="m 265.80427,73.52132 0,-18" />
  <path
     id="path13229"
     style="fill:#000000;fill-opacity:1;fill-rule:evenodd;stroke:none"
     d="m 261.30427,82.52132 0,-9" />
  <path
     id="path13231"
     style="fill:none;stroke:#000000;stroke-width:0.60000002;stroke-linecap:round;stroke-linejoin:round;stroke-miterlimit:10;stroke-dasharray:none;stroke-opacity:1"
     d="m 261.30427,82.52132 0,-9" />
  <path
     id="path13233"
     style="fill:#000000;fill-opacity:1;fill-rule:evenodd;stroke:none"
     d="m 261.30427,46.52132 0,9" />
  <path
     id="path13235"
     style="fill:none;stroke:#000000;stroke-width:0.60000002;stroke-linecap:round;stroke-linejoin:round;stroke-miterlimit:10;stroke-dasharray:none;stroke-opacity:1"
     d="m 261.30427,46.52132 0,9" />
  <path
     id="path13237"
     style="fill:#000000;fill-opacity:1;fill-rule:evenodd;stroke:none"
     d="m 279.30427,64.52132 -9,0" />
  <path
     id="path13239"
     style="fill:none;stroke:#000000;stroke-width:0.60000002;stroke-linecap:round;stroke-linejoin:round;stroke-miterlimit:10;stroke-dasharray:none;stroke-opacity:1"
     d="m 279.30427,64.52132 -9,0" />
  <path
     id="path13241"
     style="fill:#000000;fill-opacity:1;fill-rule:evenodd;stroke:none"
     d="m 252.30427,55.52132 -4.5,-0.45" />
  <path
     id="path13243"
     style="fill:none;stroke:#000000;stroke-width:0.60000002;stroke-linecap:round;stroke-linejoin:round;stroke-miterlimit:10;stroke-dasharray:none;stroke-opacity:1"
     d="m 252.30427,55.52132 -4.5,-0.45" />
  <path
     id="path13245"
     style="fill:#000000;fill-opacity:1;fill-rule:evenodd;stroke:none"
     d="m 247.80427,55.07132 3.15,3.15" />
  <path
     id="path13247"
     style="fill:none;stroke:#000000;stroke-width:0.60000002;stroke-linecap:round;stroke-linejoin:round;stroke-miterlimit:10;stroke-dasharray:none;stroke-opacity:1"
     d="m 247.80427,55.07132 3.15,3.15" />
  <path
     id="path13249"
     style="fill:#000000;fill-opacity:1;fill-rule:evenodd;stroke:none"
     d="m 250.95427,58.22132 1.35,-2.7" />
  <path
     id="path13251"
     style="fill:none;stroke:#000000;stroke-width:0.60000002;stroke-linecap:round;stroke-linejoin:round;stroke-miterlimit:10;stroke-dasharray:none;stroke-opacity:1"
     d="m 250.95427,58.22132 1.35,-2.7" />
  <path
     id="path13253"
     style="fill:#000000;fill-opacity:1;fill-rule:evenodd;stroke:none"
     d="m 250.87927,58.22132 0.075,0" />
  <path
     id="path13255"
     style="fill:none;stroke:#000000;stroke-width:0.60000002;stroke-linecap:round;stroke-linejoin:round;stroke-miterlimit:10;stroke-dasharray:none;stroke-opacity:1"
     d="m 250.87927,58.22132 0.075,0" />
  <path
     id="path13257"
     style="fill:#000000;fill-opacity:1;fill-rule:evenodd;stroke:none"
     d="m 250.50427,57.77132 0.675,0" />
  <path
     id="path13259"
     style="fill:none;stroke:#000000;stroke-width:0.60000002;stroke-linecap:round;stroke-linejoin:round;stroke-miterlimit:10;stroke-dasharray:none;stroke-opacity:1"
     d="m 250.50427,57.77132 0.675,0" />
  <path
     id="path13261"
     style="fill:#000000;fill-opacity:1;fill-rule:evenodd;stroke:none"
     d="m 250.05427,57.32132 1.35,0" />
  <path
     id="path13263"
     style="fill:none;stroke:#000000;stroke-width:0.60000002;stroke-linecap:round;stroke-linejoin:round;stroke-miterlimit:10;stroke-dasharray:none;stroke-opacity:1"
     d="m 250.05427,57.32132 1.35,0" />
  <path
     id="path13265"
     style="fill:#000000;fill-opacity:1;fill-rule:evenodd;stroke:none"
     d="m 249.60427,56.94632 1.95,0" />
  <path
     id="path13267"
     style="fill:none;stroke:#000000;stroke-width:0.60000002;stroke-linecap:round;stroke-linejoin:round;stroke-miterlimit:10;stroke-dasharray:none;stroke-opacity:1"
     d="m 249.60427,56.94632 1.95,0" />
  <path
     id="path13269"
     style="fill:#000000;fill-opacity:1;fill-rule:evenodd;stroke:none"
     d="m 249.22927,56.49632 2.55,0" />
  <path
     id="path13271"
     style="fill:none;stroke:#000000;stroke-width:0.60000002;stroke-linecap:round;stroke-linejoin:round;stroke-miterlimit:10;stroke-dasharray:none;stroke-opacity:1"
     d="m 249.22927,56.49632 2.55,0" />
  <path
     id="path13273"
     style="fill:#000000;fill-opacity:1;fill-rule:evenodd;stroke:none"
     d="m 248.77927,56.04632 3.225,0" />
  <path
     id="path13275"
     style="fill:none;stroke:#000000;stroke-width:0.60000002;stroke-linecap:round;stroke-linejoin:round;stroke-miterlimit:10;stroke-dasharray:none;stroke-opacity:1"
     d="m 248.77927,56.04632 3.225,0" />
  <path
     id="path13277"
     style="fill:#000000;fill-opacity:1;fill-rule:evenodd;stroke:none"
     d="m 248.32927,55.67132 3.9,0" />
  <path
     id="path13279"
     style="fill:none;stroke:#000000;stroke-width:0.60000002;stroke-linecap:round;stroke-linejoin:round;stroke-miterlimit:10;stroke-dasharray:none;stroke-opacity:1"
     d="m 248.32927,55.67132 3.9,0" />
  <path
     id="path13281"
     style="fill:#000000;fill-opacity:1;fill-rule:evenodd;stroke:none"
     d="m 247.95427,55.22132 1.2,0" />
  <path
     id="path13283"
     style="fill:none;stroke:#000000;stroke-width:0.60000002;stroke-linecap:round;stroke-linejoin:round;stroke-miterlimit:10;stroke-dasharray:none;stroke-opacity:1"
     d="m 247.95427,55.22132 1.2,0" />
  <path
     id="path13293"
     style="fill:#000000;fill-opacity:1;fill-rule:evenodd;stroke:none"
     d="m 76.804273,109.52132 9,0" />
  <path
     id="path13295"
     style="fill:none;stroke:#000000;stroke-width:0.89999998;stroke-linecap:round;stroke-linejoin:round;stroke-miterlimit:10;stroke-dasharray:none;stroke-opacity:1"
     d="m 76.804273,109.52132 9,0" />
  <path
     id="path13297"
     style="fill:#000000;fill-opacity:1;fill-rule:evenodd;stroke:none"
     d="m 85.804273,109.52132 -4.5,4.5" />
  <path
     id="path13299"
     style="fill:none;stroke:#000000;stroke-width:0.89999998;stroke-linecap:round;stroke-linejoin:round;stroke-miterlimit:10;stroke-dasharray:none;stroke-opacity:1"
     d="m 85.804273,109.52132 -4.5,4.5" />
  <path
     id="path13301"
     style="fill:#000000;fill-opacity:1;fill-rule:evenodd;stroke:none"
     d="m 81.304273,114.02132 -4.5,-4.5" />
  <path
     id="path13303"
     style="fill:none;stroke:#000000;stroke-width:0.89999998;stroke-linecap:round;stroke-linejoin:round;stroke-miterlimit:10;stroke-dasharray:none;stroke-opacity:1"
     d="m 81.304273,114.02132 -4.5,-4.5" />
  <path
     id="path13305"
     style="fill:#000000;fill-opacity:1;fill-rule:evenodd;stroke:none"
     d="m 81.304273,100.52132 0,9" />
  <path
     id="path13307"
     style="fill:none;stroke:#000000;stroke-width:0.60000002;stroke-linecap:round;stroke-linejoin:round;stroke-miterlimit:10;stroke-dasharray:none;stroke-opacity:1"
     d="m 81.304273,100.52132 0,9" />
  <path
     id="path14249"
     style="fill:none;stroke:#000000;stroke-width:0.60000002;stroke-linecap:round;stroke-linejoin:round;stroke-miterlimit:10;stroke-dasharray:none;stroke-opacity:1"
     d="m 0.30427276,19.52132 36.00000024,0" />
  <path
     id="path14255"
     style="fill:#000000;fill-opacity:1;fill-rule:evenodd;stroke:none"
     d="m 36.304273,19.52132 0,27" />
  <path
     id="path14257"
     style="fill:none;stroke:#000000;stroke-width:0.60000002;stroke-linecap:round;stroke-linejoin:round;stroke-miterlimit:10;stroke-dasharray:none;stroke-opacity:1"
     d="m 36.304273,19.52132 0,27" />
  <path
     id="path14259"
     style="fill:#000000;fill-opacity:1;fill-rule:evenodd;stroke:none"
     d="m 38.104273,19.52132 c 0,0.99375 -0.80625,1.8 -1.8,1.8 -0.99375,0 -1.8,-0.80625 -1.8,-1.8 0,-0.99375 0.80625,-1.8 1.8,-1.8 0.99375,0 1.8,0.80625 1.8,1.8" />
  <path
     id="path14261"
     style="fill:none;stroke:#000000;stroke-width:1;stroke-linecap:round;stroke-linejoin:round;stroke-miterlimit:10;stroke-dasharray:none;stroke-opacity:1"
     d="m 38.104273,19.52132 c 0,0.99375 -0.80625,1.8 -1.8,1.8 -0.99375,0 -1.8,-0.80625 -1.8,-1.8 0,-0.99375 0.80625,-1.8 1.8,-1.8 0.99375,0 1.8,0.80625 1.8,1.8 z" />
  <path
     id="path14263"
     style="fill:#000000;fill-opacity:1;fill-rule:evenodd;stroke:none"
     d="m 297.30427,172.52132 0,9" />
  <path
     id="path14265"
     style="fill:none;stroke:#000000;stroke-width:0.60000002;stroke-linecap:round;stroke-linejoin:round;stroke-miterlimit:10;stroke-dasharray:none;stroke-opacity:1"
     d="m 297.30427,172.52132 0,9" />
  <path
     id="path14267"
     style="fill:#000000;fill-opacity:1;fill-rule:evenodd;stroke:none"
     d="m 297.30427,181.52132 -260.999997,0" />
  <path
     id="path14269"
     style="fill:none;stroke:#000000;stroke-width:0.60000002;stroke-linecap:round;stroke-linejoin:round;stroke-miterlimit:10;stroke-dasharray:none;stroke-opacity:1"
     d="m 297.30427,181.52132 -260.999997,0" />
  <path
     id="path14271"
     style="fill:#000000;fill-opacity:1;fill-rule:evenodd;stroke:none"
     d="m 36.304273,181.52132 0,-135" />
  <path
     id="path14273"
     style="fill:none;stroke:#000000;stroke-width:0.60000002;stroke-linecap:round;stroke-linejoin:round;stroke-miterlimit:10;stroke-dasharray:none;stroke-opacity:1"
     d="m 36.304273,181.52132 0,-135" />
  <path
     id="path14275"
     style="fill:#000000;fill-opacity:1;fill-rule:evenodd;stroke:none"
     d="m 38.104273,46.52132 c 0,0.99375 -0.80625,1.8 -1.8,1.8 -0.99375,0 -1.8,-0.80625 -1.8,-1.8 0,-0.99375 0.80625,-1.8 1.8,-1.8 0.99375,0 1.8,0.80625 1.8,1.8" />
  <path
     id="path14277"
     style="fill:none;stroke:#000000;stroke-width:1;stroke-linecap:round;stroke-linejoin:round;stroke-miterlimit:10;stroke-dasharray:none;stroke-opacity:1"
     d="m 38.104273,46.52132 c 0,0.99375 -0.80625,1.8 -1.8,1.8 -0.99375,0 -1.8,-0.80625 -1.8,-1.8 0,-0.99375 0.80625,-1.8 1.8,-1.8 0.99375,0 1.8,0.80625 1.8,1.8 z" />
  <path
     id="path14283"
     style="fill:#000000;fill-opacity:1;fill-rule:evenodd;stroke:none"
     d="m 63.304273,19.52132 18,0" />
  <path
     id="path14285"
     style="fill:none;stroke:#000000;stroke-width:0.60000002;stroke-linecap:round;stroke-linejoin:round;stroke-miterlimit:10;stroke-dasharray:none;stroke-opacity:1"
     d="m 63.304273,19.52132 18,0" />
  <path
     id="path14287"
     style="fill:#000000;fill-opacity:1;fill-rule:evenodd;stroke:none"
     d="m 72.304273,46.52132 9,0" />
  <path
     id="path14289"
     style="fill:none;stroke:#000000;stroke-width:0.60000002;stroke-linecap:round;stroke-linejoin:round;stroke-miterlimit:10;stroke-dasharray:none;stroke-opacity:1"
     d="m 72.304273,46.52132 9,0" />
  <path
     id="path14291"
     style="fill:#000000;fill-opacity:1;fill-rule:evenodd;stroke:none"
     d="m 81.304273,46.52132 0,-27" />
  <path
     id="path14293"
     style="fill:none;stroke:#000000;stroke-width:0.60000002;stroke-linecap:round;stroke-linejoin:round;stroke-miterlimit:10;stroke-dasharray:none;stroke-opacity:1"
     d="m 81.304273,46.52132 0,-27" />
  <path
     id="path14295"
     style="fill:#000000;fill-opacity:1;fill-rule:evenodd;stroke:none"
     d="m 83.104273,19.52132 c 0,0.99375 -0.80625,1.8 -1.8,1.8 -0.99375,0 -1.8,-0.80625 -1.8,-1.8 0,-0.99375 0.80625,-1.8 1.8,-1.8 0.99375,0 1.8,0.80625 1.8,1.8" />
  <path
     id="path14297"
     style="fill:none;stroke:#000000;stroke-width:1;stroke-linecap:round;stroke-linejoin:round;stroke-miterlimit:10;stroke-dasharray:none;stroke-opacity:1"
     d="m 83.104273,19.52132 c 0,0.99375 -0.80625,1.8 -1.8,1.8 -0.99375,0 -1.8,-0.80625 -1.8,-1.8 0,-0.99375 0.80625,-1.8 1.8,-1.8 0.99375,0 1.8,0.80625 1.8,1.8 z" />
  <path
     id="path14299"
     style="fill:#000000;fill-opacity:1;fill-rule:evenodd;stroke:none"
     d="m 81.304273,46.52132 0,18" />
  <path
     id="path14301"
     style="fill:none;stroke:#000000;stroke-width:0.60000002;stroke-linecap:round;stroke-linejoin:round;stroke-miterlimit:10;stroke-dasharray:none;stroke-opacity:1"
     d="m 81.304273,46.52132 0,18" />
  <path
     id="path14303"
     style="fill:#000000;fill-opacity:1;fill-rule:evenodd;stroke:none"
     d="m 83.104273,46.52132 c 0,0.99375 -0.80625,1.8 -1.8,1.8 -0.99375,0 -1.8,-0.80625 -1.8,-1.8 0,-0.99375 0.80625,-1.8 1.8,-1.8 0.99375,0 1.8,0.80625 1.8,1.8" />
  <path
     id="path14305"
     style="fill:none;stroke:#000000;stroke-width:1;stroke-linecap:round;stroke-linejoin:round;stroke-miterlimit:10;stroke-dasharray:none;stroke-opacity:1"
     d="m 83.104273,46.52132 c 0,0.99375 -0.80625,1.8 -1.8,1.8 -0.99375,0 -1.8,-0.80625 -1.8,-1.8 0,-0.99375 0.80625,-1.8 1.8,-1.8 0.99375,0 1.8,0.80625 1.8,1.8 z" />
  <path
     id="path14307"
     style="fill:#000000;fill-opacity:1;fill-rule:evenodd;stroke:none"
     d="m 81.304273,19.52132 26.999997,0" />
  <path
     id="path14309"
     style="fill:none;stroke:#000000;stroke-width:0.60000002;stroke-linecap:round;stroke-linejoin:round;stroke-miterlimit:10;stroke-dasharray:none;stroke-opacity:1"
     d="m 81.304273,19.52132 26.999997,0" />
  <path
     id="path14311"
     style="fill:#000000;fill-opacity:1;fill-rule:evenodd;stroke:none"
     d="m 108.30427,19.52132 81,0" />
  <path
     id="path14313"
     style="fill:none;stroke:#000000;stroke-width:0.60000002;stroke-linecap:round;stroke-linejoin:round;stroke-miterlimit:10;stroke-dasharray:none;stroke-opacity:1"
     d="m 108.30427,19.52132 81,0" />
  <path
     id="path14315"
     style="fill:#000000;fill-opacity:1;fill-rule:evenodd;stroke:none"
     d="m 108.30427,37.52132 0,-18" />
  <path
     id="path14317"
     style="fill:none;stroke:#000000;stroke-width:0.60000002;stroke-linecap:round;stroke-linejoin:round;stroke-miterlimit:10;stroke-dasharray:none;stroke-opacity:1"
     d="m 108.30427,37.52132 0,-18" />
  <path
     id="path14319"
     style="fill:#000000;fill-opacity:1;fill-rule:evenodd;stroke:none"
     d="m 110.10427,19.52132 c 0,0.99375 -0.80625,1.8 -1.8,1.8 -0.99375,0 -1.8,-0.80625 -1.8,-1.8 0,-0.99375 0.80625,-1.8 1.8,-1.8 0.99375,0 1.8,0.80625 1.8,1.8" />
  <path
     id="path14321"
     style="fill:none;stroke:#000000;stroke-width:1;stroke-linecap:round;stroke-linejoin:round;stroke-miterlimit:10;stroke-dasharray:none;stroke-opacity:1"
     d="m 110.10427,19.52132 c 0,0.99375 -0.80625,1.8 -1.8,1.8 -0.99375,0 -1.8,-0.80625 -1.8,-1.8 0,-0.99375 0.80625,-1.8 1.8,-1.8 0.99375,0 1.8,0.80625 1.8,1.8 z" />
  <path
     id="path14323"
     style="fill:#000000;fill-opacity:1;fill-rule:evenodd;stroke:none"
     d="m 108.30427,73.52132 0,9" />
  <path
     id="path14325"
     style="fill:none;stroke:#000000;stroke-width:0.60000002;stroke-linecap:round;stroke-linejoin:round;stroke-miterlimit:10;stroke-dasharray:none;stroke-opacity:1"
     d="m 108.30427,73.52132 0,9" />
  <path
     id="path14327"
     style="fill:#000000;fill-opacity:1;fill-rule:evenodd;stroke:none"
     d="m 108.30427,82.52132 36,0" />
  <path
     id="path14329"
     style="fill:none;stroke:#000000;stroke-width:0.60000002;stroke-linecap:round;stroke-linejoin:round;stroke-miterlimit:10;stroke-dasharray:none;stroke-opacity:1"
     d="m 108.30427,82.52132 36,0" />
  <path
     id="path14331"
     style="fill:#000000;fill-opacity:1;fill-rule:evenodd;stroke:none"
     d="m 135.30427,118.52132 -27,0" />
  <path
     id="path14333"
     style="fill:none;stroke:#000000;stroke-width:0.60000002;stroke-linecap:round;stroke-linejoin:round;stroke-miterlimit:10;stroke-dasharray:none;stroke-opacity:1"
     d="m 135.30427,118.52132 -27,0" />
  <path
     id="path14335"
     style="fill:#000000;fill-opacity:1;fill-rule:evenodd;stroke:none"
     d="m 108.30427,118.52132 0,-36" />
  <path
     id="path14337"
     style="fill:none;stroke:#000000;stroke-width:0.60000002;stroke-linecap:round;stroke-linejoin:round;stroke-miterlimit:10;stroke-dasharray:none;stroke-opacity:1"
     d="m 108.30427,118.52132 0,-36" />
  <path
     id="path14339"
     style="fill:#000000;fill-opacity:1;fill-rule:evenodd;stroke:none"
     d="m 110.10427,82.52132 c 0,0.99375 -0.80625,1.8 -1.8,1.8 -0.99375,0 -1.8,-0.80625 -1.8,-1.8 0,-0.99375 0.80625,-1.8 1.8,-1.8 0.99375,0 1.8,0.80625 1.8,1.8" />
  <path
     id="path14341"
     style="fill:none;stroke:#000000;stroke-width:1;stroke-linecap:round;stroke-linejoin:round;stroke-miterlimit:10;stroke-dasharray:none;stroke-opacity:1"
     d="m 110.10427,82.52132 c 0,0.99375 -0.80625,1.8 -1.8,1.8 -0.99375,0 -1.8,-0.80625 -1.8,-1.8 0,-0.99375 0.80625,-1.8 1.8,-1.8 0.99375,0 1.8,0.80625 1.8,1.8 z" />
  <path
     id="path14343"
     style="fill:#000000;fill-opacity:1;fill-rule:evenodd;stroke:none"
     d="m 171.30427,82.52132 18,0" />
  <path
     id="path14345"
     style="fill:none;stroke:#000000;stroke-width:0.60000002;stroke-linecap:round;stroke-linejoin:round;stroke-miterlimit:10;stroke-dasharray:none;stroke-opacity:1"
     d="m 171.30427,82.52132 18,0" />
  <path
     id="path14347"
     style="fill:#000000;fill-opacity:1;fill-rule:evenodd;stroke:none"
     d="m 189.30427,82.52132 18,0" />
  <path
     id="path14349"
     style="fill:none;stroke:#000000;stroke-width:0.60000002;stroke-linecap:round;stroke-linejoin:round;stroke-miterlimit:10;stroke-dasharray:none;stroke-opacity:1"
     d="m 189.30427,82.52132 18,0" />
  <path
     id="path14351"
     style="fill:#000000;fill-opacity:1;fill-rule:evenodd;stroke:none"
     d="m 189.30427,37.52132 0,45" />
  <path
     id="path14353"
     style="fill:none;stroke:#000000;stroke-width:0.60000002;stroke-linecap:round;stroke-linejoin:round;stroke-miterlimit:10;stroke-dasharray:none;stroke-opacity:1"
     d="m 189.30427,37.52132 0,45" />
  <path
     id="path14355"
     style="fill:#000000;fill-opacity:1;fill-rule:evenodd;stroke:none"
     d="m 191.10427,82.52132 c 0,0.99375 -0.80625,1.8 -1.8,1.8 -0.99375,0 -1.8,-0.80625 -1.8,-1.8 0,-0.99375 0.80625,-1.8 1.8,-1.8 0.99375,0 1.8,0.80625 1.8,1.8" />
  <path
     id="path14357"
     style="fill:none;stroke:#000000;stroke-width:1;stroke-linecap:round;stroke-linejoin:round;stroke-miterlimit:10;stroke-dasharray:none;stroke-opacity:1"
     d="m 191.10427,82.52132 c 0,0.99375 -0.80625,1.8 -1.8,1.8 -0.99375,0 -1.8,-0.80625 -1.8,-1.8 0,-0.99375 0.80625,-1.8 1.8,-1.8 0.99375,0 1.8,0.80625 1.8,1.8 z" />
  <path
     id="path14359"
     style="fill:#000000;fill-opacity:1;fill-rule:evenodd;stroke:none"
     d="m 189.30427,82.52132 0,27" />
  <path
     id="path14361"
     style="fill:none;stroke:#000000;stroke-width:0.60000002;stroke-linecap:round;stroke-linejoin:round;stroke-miterlimit:10;stroke-dasharray:none;stroke-opacity:1"
     d="m 189.30427,82.52132 0,27" />
  <path
     id="path14363"
     style="fill:#000000;fill-opacity:1;fill-rule:evenodd;stroke:none"
     d="m 243.30427,82.52132 18,0" />
  <path
     id="path14365"
     style="fill:none;stroke:#000000;stroke-width:0.60000002;stroke-linecap:round;stroke-linejoin:round;stroke-miterlimit:10;stroke-dasharray:none;stroke-opacity:1"
     d="m 243.30427,82.52132 18,0" />
  <path
     id="path14367"
     style="fill:#000000;fill-opacity:1;fill-rule:evenodd;stroke:none"
     d="m 279.30427,64.52132 18,0" />
  <path
     id="path14369"
     style="fill:none;stroke:#000000;stroke-width:0.60000002;stroke-linecap:round;stroke-linejoin:round;stroke-miterlimit:10;stroke-dasharray:none;stroke-opacity:1"
     d="m 279.30427,64.52132 18,0" />
  <path
     id="path14371"
     style="fill:#000000;fill-opacity:1;fill-rule:evenodd;stroke:none"
     d="m 297.30427,64.52132 0,18" />
  <path
     id="path14373"
     style="fill:none;stroke:#000000;stroke-width:0.60000002;stroke-linecap:round;stroke-linejoin:round;stroke-miterlimit:10;stroke-dasharray:none;stroke-opacity:1"
     d="m 297.30427,64.52132 0,18" />
  <path
     id="path14375"
     style="fill:#000000;fill-opacity:1;fill-rule:evenodd;stroke:none"
     d="m 243.30427,28.52132 54,0" />
  <path
     id="path14377"
     style="fill:none;stroke:#000000;stroke-width:0.60000002;stroke-linecap:round;stroke-linejoin:round;stroke-miterlimit:10;stroke-dasharray:none;stroke-opacity:1"
     d="m 243.30427,28.52132 54,0" />
  <path
     id="path14379"
     style="fill:#000000;fill-opacity:1;fill-rule:evenodd;stroke:none"
     d="m 297.30427,28.52132 0,36" />
  <path
     id="path14381"
     style="fill:none;stroke:#000000;stroke-width:0.60000002;stroke-linecap:round;stroke-linejoin:round;stroke-miterlimit:10;stroke-dasharray:none;stroke-opacity:1"
     d="m 297.30427,28.52132 0,36" />
  <path
     id="path14383"
     style="fill:#000000;fill-opacity:1;fill-rule:evenodd;stroke:none"
     d="m 299.10427,64.52132 c 0,0.99375 -0.80625,1.8 -1.8,1.8 -0.99375,0 -1.8,-0.80625 -1.8,-1.8 0,-0.99375 0.80625,-1.8 1.8,-1.8 0.99375,0 1.8,0.80625 1.8,1.8" />
  <path
     id="path14385"
     style="fill:none;stroke:#000000;stroke-width:1;stroke-linecap:round;stroke-linejoin:round;stroke-miterlimit:10;stroke-dasharray:none;stroke-opacity:1"
     d="m 299.10427,64.52132 c 0,0.99375 -0.80625,1.8 -1.8,1.8 -0.99375,0 -1.8,-0.80625 -1.8,-1.8 0,-0.99375 0.80625,-1.8 1.8,-1.8 0.99375,0 1.8,0.80625 1.8,1.8 z" />
  <path
     id="path14389"
     style="fill:none;stroke:#000000;stroke-width:0.60000002;stroke-linecap:round;stroke-linejoin:round;stroke-miterlimit:10;stroke-dasharray:none;stroke-opacity:1"
     d="m 360.22927,28.52132 -62.925,0" />
  <path
     id="path14391"
     style="fill:#000000;fill-opacity:1;fill-rule:evenodd;stroke:none"
     d="m 299.10427,28.52132 c 0,0.99375 -0.80625,1.8 -1.8,1.8 -0.99375,0 -1.8,-0.80625 -1.8,-1.8 0,-0.99375 0.80625,-1.8 1.8,-1.8 0.99375,0 1.8,0.80625 1.8,1.8" />
  <path
     id="path14393"
     style="fill:none;stroke:#000000;stroke-width:1;stroke-linecap:round;stroke-linejoin:round;stroke-miterlimit:10;stroke-dasharray:none;stroke-opacity:1"
     d="m 299.10427,28.52132 c 0,0.99375 -0.80625,1.8 -1.8,1.8 -0.99375,0 -1.8,-0.80625 -1.8,-1.8 0,-0.99375 0.80625,-1.8 1.8,-1.8 0.99375,0 1.8,0.80625 1.8,1.8 z" />
  <path
     id="path14395"
     style="fill:#000000;fill-opacity:1;fill-rule:evenodd;stroke:none"
     d="m 297.30427,118.52132 0,9" />
  <path
     id="path14397"
     style="fill:none;stroke:#000000;stroke-width:0.60000002;stroke-linecap:round;stroke-linejoin:round;stroke-miterlimit:10;stroke-dasharray:none;stroke-opacity:1"
     d="m 297.30427,118.52132 0,9" />
  <path
     id="path14399"
     style="fill:#000000;fill-opacity:1;fill-rule:evenodd;stroke:none"
     d="m 297.30427,127.52132 0,9" />
  <path
     id="path14401"
     style="fill:none;stroke:#000000;stroke-width:0.60000002;stroke-linecap:round;stroke-linejoin:round;stroke-miterlimit:10;stroke-dasharray:none;stroke-opacity:1"
     d="m 297.30427,127.52132 0,9" />
  <path
     id="path14403"
     style="fill:#000000;fill-opacity:1;fill-rule:evenodd;stroke:none"
     d="m 189.30427,127.52132 108,0" />
  <path
     id="path14405"
     style="fill:none;stroke:#000000;stroke-width:0.60000002;stroke-linecap:round;stroke-linejoin:round;stroke-miterlimit:10;stroke-dasharray:none;stroke-opacity:1"
     d="m 189.30427,127.52132 108,0" />
  <path
     id="path14407"
     style="fill:#000000;fill-opacity:1;fill-rule:evenodd;stroke:none"
     d="m 299.10427,127.52132 c 0,0.99375 -0.80625,1.8 -1.8,1.8 -0.99375,0 -1.8,-0.80625 -1.8,-1.8 0,-0.99375 0.80625,-1.8 1.8,-1.8 0.99375,0 1.8,0.80625 1.8,1.8" />
  <path
     id="path14409"
     style="fill:none;stroke:#000000;stroke-width:1;stroke-linecap:round;stroke-linejoin:round;stroke-miterlimit:10;stroke-dasharray:none;stroke-opacity:1"
     d="m 299.10427,127.52132 c 0,0.99375 -0.80625,1.8 -1.8,1.8 -0.99375,0 -1.8,-0.80625 -1.8,-1.8 0,-0.99375 0.80625,-1.8 1.8,-1.8 0.99375,0 1.8,0.80625 1.8,1.8 z" />
  <path
     id="path14415"
     style="fill:#000000;fill-opacity:1;fill-rule:evenodd;stroke:none"
     d="m 333.30427,91.52132 0,-45" />
</svg>
