<?xml version="1.0" encoding="UTF-8" standalone="no"?>
<svg
   xmlns:dc="http://purl.org/dc/elements/1.1/"
   xmlns:cc="http://creativecommons.org/ns#"
   xmlns:rdf="http://www.w3.org/1999/02/22-rdf-syntax-ns#"
   xmlns:svg="http://www.w3.org/2000/svg"
   xmlns="http://www.w3.org/2000/svg"
   width="20.470579mm"
   height="27.910841mm"
   viewBox="0 0 72.533548 98.89668"
   id="svg20150"
   version="1.1">
  <defs
     id="defs20152" />
  <metadata
     id="metadata20155">
    <rdf:RDF>
      <cc:Work
         rdf:about="">
        <dc:format>image/svg+xml</dc:format>
        <dc:type
           rdf:resource="http://purl.org/dc/dcmitype/StillImage" />
        <dc:title></dc:title>
      </cc:Work>
    </rdf:RDF>
  </metadata>
  <g
     id="layer1"
     transform="translate(-189.44752,-248.62815)">
    <path
       id="path15921"
       style="font-variant:normal;font-size:medium;font-family:'Nimbus Sans L';-inkscape-font-specification:NimbusSanL-Regu;writing-mode:lr-tb;fill:#000000;fill-opacity:1;fill-rule:nonzero;stroke:none"
       d="m 213.86329,264.80297 1.5045,0 0,-0.7788 -1.5045,0 0,-0.92925 -0.69915,0 0,0.92925 -4.071,0 0,0.57525 3.9471,2.8497 0.82305,0 0,-2.64615 z m -0.69915,0 0,1.9647 -2.7435,-1.9647 2.7435,0 z" />
    <path
       id="path15923"
       style="font-variant:normal;font-size:medium;font-family:'Nimbus Sans L';-inkscape-font-specification:NimbusSanL-Regu;writing-mode:lr-tb;fill:#000000;fill-opacity:1;fill-rule:nonzero;stroke:none"
       d="m 209.09314,258.17545 0,4.1949 0.76995,0 0,-3.38955 c 2.13285,1.49565 3.44265,2.1063 5.5047,2.57535 l 0,-0.8319 c -2.00895,-0.34515 -3.7347,-1.1328 -5.61975,-2.5488 l -0.6549,0 z" />
    <path
       id="path15925"
       style="font-variant:normal;font-size:medium;font-family:'Nimbus Sans L';-inkscape-font-specification:NimbusSanL-Regu;writing-mode:lr-tb;fill:#000000;fill-opacity:1;fill-rule:nonzero;stroke:none"
       d="m 209.09314,255.42427 c 0,0.5841 0.25665,1.1151 0.6903,1.44255 0.5487,0.4071 1.38945,0.61065 2.5488,0.61065 2.11515,0 3.2391,-0.708 3.2391,-2.0532 0,-1.3275 -1.12395,-2.0532 -3.186,-2.0532 -1.2213,0 -2.0355,0.1947 -2.6019,0.61065 -0.4425,0.32745 -0.6903,0.8496 -0.6903,1.44255 z m 0.6903,0 c 0,-0.84075 0.8496,-1.2567 2.5311,-1.2567 1.77885,0 2.61075,0.4071 2.61075,1.2744 0,0.82305 -0.8673,1.239 -2.5842,1.239 -1.7169,0 -2.55765,-0.41595 -2.55765,-1.2567 z" />
    <path
       id="path15927"
       style="font-variant:normal;font-size:medium;font-family:'Nimbus Sans L';-inkscape-font-specification:NimbusSanL-Regu;writing-mode:lr-tb;fill:#000000;fill-opacity:1;fill-rule:nonzero;stroke:none"
       d="m 210.73039,252.3186 4.6374,0 0,-0.7434 -2.55765,0 c -0.94695,0 -1.56645,-0.4956 -1.56645,-1.2567 0,-0.5841 0.354,-0.9558 0.91155,-0.9558 l 3.21255,0 0,-0.73455 -3.5046,0 c -0.76995,0 -1.26555,0.57525 -1.26555,1.4691 0,0.6903 0.2655,1.1328 0.91155,1.5399 l -0.7788,0 0,0.68145 z" />
    <path
       id="path15937"
       style="font-variant:normal;font-size:medium;font-family:'Nimbus Sans L';-inkscape-font-specification:NimbusSanL-Regu;writing-mode:lr-tb;fill:#000000;fill-opacity:1;fill-rule:nonzero;stroke:none"
       d="m 234.11273,319.11883 c -0.3894,-0.64605 -0.708,-0.85845 -1.30095,-0.85845 -0.98235,0 -1.67265,0.76995 -1.67265,1.88505 0,1.10625 0.6903,1.88505 1.67265,1.88505 0.5841,0 0.9027,-0.2124 1.30095,-0.8496 0.34515,0.71685 0.8673,1.07085 1.5576,1.07085 1.1505,0 1.947,-0.8673 1.947,-2.1063 0,-1.239 -0.7965,-2.1063 -1.93815,-2.1063 -0.69915,0 -1.2213,0.354 -1.56645,1.0797 z m -2.2833,1.0266 c 0,-0.66375 0.3894,-1.08855 1.00005,-1.08855 0.5841,0 0.9735,0.43365 0.9735,1.08855 0,0.6549 -0.3894,1.08855 -0.98235,1.08855 -0.6018,0 -0.9912,-0.43365 -0.9912,-1.08855 z m 2.62845,0 c 0,-0.7788 0.4956,-1.3098 1.23015,-1.3098 0.7434,0 1.239,0.531 1.239,1.3275 0,0.7611 -0.50445,1.2921 -1.239,1.2921 -0.73455,0 -1.23015,-0.531 -1.23015,-1.3098 z" />
    <path
       id="path15939"
       style="font-variant:normal;font-size:medium;font-family:'Nimbus Sans L';-inkscape-font-specification:NimbusSanL-Regu;writing-mode:lr-tb;fill:#000000;fill-opacity:1;fill-rule:nonzero;stroke:none"
       d="m 236.64383,313.18165 0,3.30105 c -0.5133,-0.0797 -0.84075,-0.36285 -1.2921,-1.1328 l -0.4779,-0.885 c -0.4779,-0.87615 -1.12395,-1.3275 -1.8939,-1.3275 -0.52215,0 -1.0089,0.2124 -1.3452,0.5841 -0.3363,0.3717 -0.4956,0.8319 -0.4956,1.42485 0,0.7965 0.2832,1.38945 0.8142,1.7346 0.3363,0.22125 0.7257,0.3186 1.3629,0.3363 l 0,-0.7788 c -0.4248,-0.0265 -0.68145,-0.0796 -0.885,-0.18585 -0.38055,-0.20355 -0.61065,-0.61065 -0.61065,-1.0797 0,-0.708 0.50445,-1.239 1.17705,-1.239 0.4956,0 0.9204,0.29205 1.239,0.8496 l 0.4602,0.8142 c 0.7434,1.3098 1.33635,1.69035 2.71695,1.76115 l 0,-4.1772 -0.76995,0 z" />
    <path
       id="path15941"
       style="font-variant:normal;font-size:medium;font-family:'Nimbus Sans L';-inkscape-font-specification:NimbusSanL-Regu;writing-mode:lr-tb;fill:#000000;fill-opacity:1;fill-rule:nonzero;stroke:none"
       d="m 231.13913,310.30653 c 0,0.5841 0.25665,1.1151 0.6903,1.44255 0.5487,0.4071 1.38945,0.61065 2.5488,0.61065 2.11515,0 3.2391,-0.708 3.2391,-2.0532 0,-1.3275 -1.12395,-2.0532 -3.186,-2.0532 -1.2213,0 -2.0355,0.1947 -2.6019,0.61065 -0.4425,0.32745 -0.6903,0.8496 -0.6903,1.44255 z m 0.6903,0 c 0,-0.84075 0.8496,-1.2567 2.5311,-1.2567 1.77885,0 2.61075,0.4071 2.61075,1.2744 0,0.82305 -0.8673,1.239 -2.5842,1.239 -1.7169,0 -2.55765,-0.41595 -2.55765,-1.2567 z" />
    <path
       id="path15943"
       style="font-variant:normal;font-size:medium;font-family:'Nimbus Sans L';-inkscape-font-specification:NimbusSanL-Regu;writing-mode:lr-tb;fill:#000000;fill-opacity:1;fill-rule:nonzero;stroke:none"
       d="m 230.96213,306.57254 0,0.73455 6.45165,0 0,-0.73455 -1.8054,0 -0.708,-0.71685 2.5134,-1.56645 0,-0.91155 -3.03555,1.8939 -1.60185,-1.6107 0,0.94695 1.9647,1.9647 -3.77895,0 z" />
    <path
       id="path15828"
       style="font-variant:normal;font-size:medium;font-family:'Nimbus Sans L';-inkscape-font-specification:NimbusSanL-Regu;writing-mode:lr-tb;fill:#000000;fill-opacity:1;fill-rule:nonzero;stroke:none"
       d="m 225.24143,343.91403 -2.6904,0 0,0.7257 1.9647,0 0,0.177 c 0,1.1505 -0.8496,1.9824 -2.02665,1.9824 -0.6549,0 -1.24785,-0.23895 -1.6284,-0.6549 -0.4248,-0.4602 -0.68145,-1.23015 -0.68145,-2.02665 0,-1.58415 0.9027,-2.62845 2.2656,-2.62845 0.98235,0 1.69035,0.50445 1.86735,1.33635 l 0.84075,0 c -0.2301,-1.3098 -1.2213,-2.06205 -2.69925,-2.06205 -0.78765,0 -1.42485,0.20355 -1.9293,0.6195 -0.7434,0.6195 -1.1682,1.61955 -1.1682,2.7789 0,1.9824 1.21245,3.363 2.9559,3.363 0.87615,0 1.5753,-0.32745 2.20365,-1.0266 l 0.20355,0.85845 0.52215,0 0,-3.44265 z" />
    <path
       id="path15830"
       style="font-variant:normal;font-size:medium;font-family:'Nimbus Sans L';-inkscape-font-specification:NimbusSanL-Regu;writing-mode:lr-tb;fill:#000000;fill-opacity:1;fill-rule:nonzero;stroke:none"
       d="m 231.56918,340.86963 -0.7788,0 0,5.2746 -3.37185,-5.2746 -0.89385,0 0,6.45165 0.7788,0 0,-5.23035 3.33645,5.23035 0.92925,0 0,-6.45165 z" />
    <path
       id="path15832"
       style="font-variant:normal;font-size:medium;font-family:'Nimbus Sans L';-inkscape-font-specification:NimbusSanL-Regu;writing-mode:lr-tb;fill:#000000;fill-opacity:1;fill-rule:nonzero;stroke:none"
       d="m 233.02944,347.32128 2.48685,0 c 1.6284,0 2.62845,-1.2213 2.62845,-3.23025 0,-2.0001 -0.9912,-3.2214 -2.62845,-3.2214 l -2.48685,0 0,6.45165 z m 0.82305,-0.7257 0,-5.00025 1.5222,0 c 1.2744,0 1.947,0.85845 1.947,2.50455 0,1.6284 -0.6726,2.4957 -1.947,2.4957 l -1.5222,0 z" />
    <path
       id="path15535"
       style="font-variant:normal;font-size:medium;font-family:'Nimbus Sans L';-inkscape-font-specification:NimbusSanL-Regu;writing-mode:lr-tb;fill:#000000;fill-opacity:1;fill-rule:nonzero;stroke:none"
       d="m 192.91898,261.83809 c -1.416,0.25665 -2.1063,1.07085 -2.1063,2.48685 0,0.8673 0.27435,1.56645 0.80535,2.04435 0.6372,0.5841 1.5576,0.9027 2.6019,0.9027 1.062,0 1.97355,-0.32745 2.6019,-0.9381 0.5133,-0.4956 0.75225,-1.1328 0.75225,-1.97355 0,-1.5753 -0.8496,-2.4603 -2.55765,-2.655 l 0,0.8496 c 0.4425,0.0708 0.7434,0.1593 1.00005,0.29205 0.531,0.2655 0.8319,0.8142 0.8319,1.5045 0,1.28325 -1.0266,2.09745 -2.6373,2.09745 -1.65495,0 -2.6727,-0.7788 -2.6727,-2.02665 0,-0.52215 0.1593,-1.0089 0.4071,-1.2744 0.22125,-0.23895 0.4956,-0.3717 0.9735,-0.46905 l 0,-0.84075 z" />
    <path
       id="path15537"
       style="font-variant:normal;font-size:medium;font-family:'Nimbus Sans L';-inkscape-font-specification:NimbusSanL-Regu;writing-mode:lr-tb;fill:#000000;fill-opacity:1;fill-rule:nonzero;stroke:none"
       d="m 192.90128,259.01494 4.46925,0 0,-0.7788 -6.27465,0 0,0.5133 c 0.96465,0.27435 1.0974,0.45135 1.24785,1.65495 l 0.55755,0 0,-1.38945 z" />
    <path
       id="path15543"
       style="font-variant:normal;font-size:medium;font-family:'Nimbus Sans L';-inkscape-font-specification:NimbusSanL-Regu;writing-mode:lr-tb;fill:#000000;fill-opacity:1;fill-rule:nonzero;stroke:none"
       d="m 217.62777,320.93296 0,-2.124 c 0,-0.73455 0.354,-1.062 1.1505,-1.062 l 0.57525,0.009 c 0.39825,0 0.78765,-0.0708 1.05315,-0.18585 l 0,-1.00005 -0.20355,0 c -0.2124,0.30975 -0.4425,0.3717 -1.30095,0.3894 -1.062,0.009 -1.3806,0.177 -1.6815,0.87615 -0.354,-0.7257 -0.80535,-1.01775 -1.5399,-1.01775 -1.1151,0 -1.72575,0.69915 -1.72575,1.9647 l 0,2.9736 6.45165,0 0,-0.82305 -2.7789,0 z m -0.7257,0 -2.22135,0 0,-1.99125 c 0,-0.4602 0.0708,-0.7257 0.2478,-0.92925 0.18585,-0.22125 0.4779,-0.3363 0.8673,-0.3363 0.7611,0 1.10625,0.3894 1.10625,1.26555 l 0,1.99125 z" />
    <path
       id="path15545"
       style="font-variant:normal;font-size:medium;font-family:'Nimbus Sans L';-inkscape-font-specification:NimbusSanL-Regu;writing-mode:lr-tb;fill:#000000;fill-opacity:1;fill-rule:nonzero;stroke:none"
       d="m 217.53042,314.2335 0,-0.0974 -0.009,-0.32745 c 0,-0.85845 0.3894,-1.30095 1.14165,-1.30095 0.78765,0 1.2567,0.48675 1.2567,1.30095 0,0.8496 -0.4248,1.26555 -1.33635,1.31865 l 0,0.7788 c 0.50445,-0.0354 0.8319,-0.1239 1.1151,-0.27435 0.6018,-0.3186 0.91155,-0.9381 0.91155,-1.79655 0,-1.2921 -0.76995,-2.124 -1.95585,-2.124 -0.7965,0 -1.239,0.30975 -1.49565,1.062 -0.2301,-0.5841 -0.6726,-0.87615 -1.30095,-0.87615 -1.0797,0 -1.72575,0.71685 -1.72575,1.9116 0,1.26555 0.6903,1.93815 2.02665,1.9647 l 0,-0.7788 c -0.38055,-0.009 -0.59295,-0.0442 -0.78765,-0.1416 -0.34515,-0.177 -0.55755,-0.5664 -0.55755,-1.05315 0,-0.6903 0.4071,-1.10625 1.07085,-1.10625 0.4425,0 0.708,0.1593 0.8496,0.50445 0.0885,0.2124 0.1239,0.48675 0.13275,1.03545 l 0.66375,0 z" />
    <path
       id="path12613"
       style="fill:#000000;fill-opacity:1;fill-rule:evenodd;stroke:none"
       d="m 198.75179,273.06628 1.8,0" />
    <path
       id="path12615"
       style="fill:none;stroke:#000000;stroke-width:0.60000002;stroke-linecap:round;stroke-linejoin:round;stroke-miterlimit:10;stroke-dasharray:none;stroke-opacity:1"
       d="m 198.75179,273.06628 1.8,0" />
    <path
       id="path12617"
       style="fill:#000000;fill-opacity:1;fill-rule:evenodd;stroke:none"
       d="m 207.75179,273.06628 -1.8,0" />
    <path
       id="path12619"
       style="fill:none;stroke:#000000;stroke-width:0.60000002;stroke-linecap:round;stroke-linejoin:round;stroke-miterlimit:10;stroke-dasharray:none;stroke-opacity:1"
       d="m 207.75179,273.06628 -1.8,0" />
    <path
       id="path12621"
       style="fill:#000000;fill-opacity:1;fill-rule:evenodd;stroke:none"
       d="m 204.15179,265.86628 0,14.39988 1.80029,0 0,-14.39988 -1.80029,0 z" />
    <path
       id="path12623"
       style="fill:none;stroke:#000000;stroke-width:1;stroke-linecap:round;stroke-linejoin:round;stroke-miterlimit:10;stroke-dasharray:none;stroke-opacity:1"
       d="m 204.15179,265.86628 0,14.39988 1.80029,0 0,-14.39988 -1.80029,0 z" />
    <path
       id="path12625"
       style="fill:#000000;fill-opacity:1;fill-rule:evenodd;stroke:none"
       d="m 200.55179,265.86628 0,14.39988 1.7998,0 0,-14.39988 -1.7998,0 z" />
    <path
       id="path12627"
       style="fill:none;stroke:#000000;stroke-width:1;stroke-linecap:round;stroke-linejoin:round;stroke-miterlimit:10;stroke-dasharray:none;stroke-opacity:1"
       d="m 200.55179,265.86628 0,14.39988 1.7998,0 0,-14.39988 -1.7998,0 z" />
    <path
       id="path12629"
       style="fill:#000000;fill-opacity:1;fill-rule:evenodd;stroke:none"
       d="m 189.75179,273.06628 9,0" />
    <path
       id="path12631"
       style="fill:none;stroke:#000000;stroke-width:0.60000002;stroke-linecap:round;stroke-linejoin:round;stroke-miterlimit:10;stroke-dasharray:none;stroke-opacity:1"
       d="m 189.75179,273.06628 9,0" />
    <path
       id="path12633"
       style="fill:#000000;fill-opacity:1;fill-rule:evenodd;stroke:none"
       d="m 216.75179,273.06628 -9,0" />
    <path
       id="path12635"
       style="fill:none;stroke:#000000;stroke-width:0.60000002;stroke-linecap:round;stroke-linejoin:round;stroke-miterlimit:10;stroke-dasharray:none;stroke-opacity:1"
       d="m 216.75179,273.06628 -9,0" />
    <path
       id="path12661"
       style="fill:#000000;fill-opacity:1;fill-rule:evenodd;stroke:none"
       d="m 228.90179,318.06628 0,-18" />
    <path
       id="path12663"
       style="fill:none;stroke:#000000;stroke-width:0.89999998;stroke-linecap:round;stroke-linejoin:round;stroke-miterlimit:10;stroke-dasharray:none;stroke-opacity:1"
       d="m 228.90179,318.06628 0,-18" />
    <path
       id="path12665"
       style="fill:#000000;fill-opacity:1;fill-rule:evenodd;stroke:none"
       d="m 222.60179,300.06628 0,18" />
    <path
       id="path12667"
       style="fill:none;stroke:#000000;stroke-width:0.89999998;stroke-linecap:round;stroke-linejoin:round;stroke-miterlimit:10;stroke-dasharray:none;stroke-opacity:1"
       d="m 222.60179,300.06628 0,18" />
    <path
       id="path12669"
       style="fill:#000000;fill-opacity:1;fill-rule:evenodd;stroke:none"
       d="m 228.90179,300.06628 -6.3,0" />
    <path
       id="path12671"
       style="fill:none;stroke:#000000;stroke-width:0.89999998;stroke-linecap:round;stroke-linejoin:round;stroke-miterlimit:10;stroke-dasharray:none;stroke-opacity:1"
       d="m 228.90179,300.06628 -6.3,0" />
    <path
       id="path12673"
       style="fill:#000000;fill-opacity:1;fill-rule:evenodd;stroke:none"
       d="m 228.90179,318.06628 -6.3,0" />
    <path
       id="path12675"
       style="fill:none;stroke:#000000;stroke-width:0.89999998;stroke-linecap:round;stroke-linejoin:round;stroke-miterlimit:10;stroke-dasharray:none;stroke-opacity:1"
       d="m 228.90179,318.06628 -6.3,0" />
    <path
       id="path12677"
       style="fill:#000000;fill-opacity:1;fill-rule:evenodd;stroke:none"
       d="m 225.75179,291.06628 0,9" />
    <path
       id="path12679"
       style="fill:none;stroke:#000000;stroke-width:0.60000002;stroke-linecap:round;stroke-linejoin:round;stroke-miterlimit:10;stroke-dasharray:none;stroke-opacity:1"
       d="m 225.75179,291.06628 0,9" />
    <path
       id="path12681"
       style="fill:#000000;fill-opacity:1;fill-rule:evenodd;stroke:none"
       d="m 225.75179,327.06628 0,-9" />
    <path
       id="path12683"
       style="fill:none;stroke:#000000;stroke-width:0.60000002;stroke-linecap:round;stroke-linejoin:round;stroke-miterlimit:10;stroke-dasharray:none;stroke-opacity:1"
       d="m 225.75179,327.06628 0,-9" />
    <path
       id="path12733"
       style="fill:#000000;fill-opacity:1;fill-rule:evenodd;stroke:none"
       d="m 221.25179,336.06628 9,0" />
    <path
       id="path12735"
       style="fill:none;stroke:#000000;stroke-width:0.89999998;stroke-linecap:round;stroke-linejoin:round;stroke-miterlimit:10;stroke-dasharray:none;stroke-opacity:1"
       d="m 221.25179,336.06628 9,0" />
    <path
       id="path12737"
       style="fill:#000000;fill-opacity:1;fill-rule:evenodd;stroke:none"
       d="m 230.25179,336.06628 -4.5,4.5" />
    <path
       id="path12739"
       style="fill:none;stroke:#000000;stroke-width:0.89999998;stroke-linecap:round;stroke-linejoin:round;stroke-miterlimit:10;stroke-dasharray:none;stroke-opacity:1"
       d="m 230.25179,336.06628 -4.5,4.5" />
    <path
       id="path12741"
       style="fill:#000000;fill-opacity:1;fill-rule:evenodd;stroke:none"
       d="m 225.75179,340.56628 -4.5,-4.5" />
    <path
       id="path12743"
       style="fill:none;stroke:#000000;stroke-width:0.89999998;stroke-linecap:round;stroke-linejoin:round;stroke-miterlimit:10;stroke-dasharray:none;stroke-opacity:1"
       d="m 225.75179,340.56628 -4.5,-4.5" />
    <path
       id="path12745"
       style="fill:#000000;fill-opacity:1;fill-rule:evenodd;stroke:none"
       d="m 225.75179,327.06628 0,9" />
    <path
       id="path12747"
       style="fill:none;stroke:#000000;stroke-width:0.60000002;stroke-linecap:round;stroke-linejoin:round;stroke-miterlimit:10;stroke-dasharray:none;stroke-opacity:1"
       d="m 225.75179,327.06628 0,9" />
    <path
       id="path14209"
       style="fill:none;stroke:#000000;stroke-width:0.60000002;stroke-linecap:round;stroke-linejoin:round;stroke-miterlimit:10;stroke-dasharray:none;stroke-opacity:1"
       d="m 261.67679,273.06628 -35.925,0" />
    <path
       id="path14211"
       style="fill:#000000;fill-opacity:1;fill-rule:evenodd;stroke:none"
       d="m 225.75179,273.06628 -9,0" />
    <path
       id="path14213"
       style="fill:none;stroke:#000000;stroke-width:0.60000002;stroke-linecap:round;stroke-linejoin:round;stroke-miterlimit:10;stroke-dasharray:none;stroke-opacity:1"
       d="m 225.75179,273.06628 -9,0" />
    <path
       id="path14215"
       style="fill:#000000;fill-opacity:1;fill-rule:evenodd;stroke:none"
       d="m 225.75179,291.06628 0,-18" />
    <path
       id="path14217"
       style="fill:none;stroke:#000000;stroke-width:0.60000002;stroke-linecap:round;stroke-linejoin:round;stroke-miterlimit:10;stroke-dasharray:none;stroke-opacity:1"
       d="m 225.75179,291.06628 0,-18" />
    <path
       id="path14219"
       style="fill:#000000;fill-opacity:1;fill-rule:evenodd;stroke:none"
       d="m 227.55179,273.06628 c 0,0.99375 -0.80625,1.8 -1.8,1.8 -0.99375,0 -1.8,-0.80625 -1.8,-1.8 0,-0.99375 0.80625,-1.8 1.8,-1.8 0.99375,0 1.8,0.80625 1.8,1.8" />
    <path
       id="path14221"
       style="fill:none;stroke:#000000;stroke-width:1;stroke-linecap:round;stroke-linejoin:round;stroke-miterlimit:10;stroke-dasharray:none;stroke-opacity:1"
       d="m 227.55179,273.06628 c 0,0.99375 -0.80625,1.8 -1.8,1.8 -0.99375,0 -1.8,-0.80625 -1.8,-1.8 0,-0.99375 0.80625,-1.8 1.8,-1.8 0.99375,0 1.8,0.80625 1.8,1.8 z" />
  </g>
</svg>
