<?xml version="1.0" encoding="UTF-8" standalone="no"?>
<svg
   xmlns:dc="http://purl.org/dc/elements/1.1/"
   xmlns:cc="http://creativecommons.org/ns#"
   xmlns:rdf="http://www.w3.org/1999/02/22-rdf-syntax-ns#"
   xmlns:svg="http://www.w3.org/2000/svg"
   xmlns="http://www.w3.org/2000/svg"
   xmlns:sodipodi="http://sodipodi.sourceforge.net/DTD/sodipodi-0.dtd"
   xmlns:inkscape="http://www.inkscape.org/namespaces/inkscape"
   width="160mm"
   height="90mm"
   viewBox="0 0 16000 9000"
   version="1.1"
   stroke-width="28.222"
   stroke-linejoin="round"
   xml:space="preserve"
   id="svg2"
   inkscape:version="0.91 r13725"
   sodipodi:docname="filtros conjunto.svg"><metadata
     id="metadata196"><rdf:RDF><cc:Work
         rdf:about=""><dc:format>image/svg+xml</dc:format><dc:type
           rdf:resource="http://purl.org/dc/dcmitype/StillImage" /></cc:Work></rdf:RDF></metadata><defs
     id="defs194" /><sodipodi:namedview
     pagecolor="#ffffff"
     bordercolor="#666666"
     borderopacity="1"
     objecttolerance="10"
     gridtolerance="10"
     guidetolerance="10"
     inkscape:pageopacity="0"
     inkscape:pageshadow="2"
     inkscape:window-width="1366"
     inkscape:window-height="741"
     id="namedview192"
     showgrid="false"
     inkscape:zoom="0.88305852"
     inkscape:cx="306.78255"
     inkscape:cy="246.07301"
     inkscape:window-x="0"
     inkscape:window-y="27"
     inkscape:window-maximized="1"
     inkscape:current-layer="svg2" /><path
     fill="rgb(255,255,255)"
     stroke="none"
     d="M 8021,8999 L 21,8999 21,0 16020,0 16020,8999 8021,8999 Z"
     id="path4"
     style="" /><path
     fill="none"
     stroke="rgb(179,179,179)"
     stroke-linejoin="round"
     d="M 8651,7191 L 2159,7191 2159,1474 15143,1474 15143,7191 8651,7191 Z"
     id="path6"
     style="" /><path
     fill="none"
     stroke="rgb(179,179,179)"
     stroke-linejoin="round"
     d="M 15143,7190 L 2159,7190"
     id="path8"
     style="" /><path
     fill="none"
     stroke="rgb(179,179,179)"
     stroke-linejoin="round"
     d="M 15143,5284 L 2159,5284"
     id="path10"
     style="" /><path
     fill="none"
     stroke="rgb(179,179,179)"
     stroke-linejoin="round"
     d="M 15143,3378 L 2159,3378"
     id="path12"
     style="" /><path
     fill="none"
     stroke="rgb(179,179,179)"
     stroke-linejoin="round"
     d="M 15143,1472 L 2159,1472"
     id="path14"
     style="" /><path
     fill="none"
     stroke="rgb(179,179,179)"
     stroke-linejoin="round"
     d="M 2158,7340 L 2158,7190"
     id="path16"
     style="" /><path
     fill="none"
     stroke="rgb(179,179,179)"
     stroke-linejoin="round"
     d="M 2158,7340 L 2158,7190"
     id="path18"
     style="" /><path
     fill="none"
     stroke="rgb(179,179,179)"
     stroke-linejoin="round"
     d="M 4756,7340 L 4756,7190"
     id="path20"
     style="" /><path
     fill="none"
     stroke="rgb(179,179,179)"
     stroke-linejoin="round"
     d="M 4756,7340 L 4756,7190"
     id="path22"
     style="" /><path
     fill="none"
     stroke="rgb(179,179,179)"
     stroke-linejoin="round"
     d="M 7353,7340 L 7353,7190"
     id="path24"
     style="" /><path
     fill="none"
     stroke="rgb(179,179,179)"
     stroke-linejoin="round"
     d="M 7353,7340 L 7353,7190"
     id="path26"
     style="" /><path
     fill="none"
     stroke="rgb(179,179,179)"
     stroke-linejoin="round"
     d="M 9949,7340 L 9949,7190"
     id="path28"
     style="" /><path
     fill="none"
     stroke="rgb(179,179,179)"
     stroke-linejoin="round"
     d="M 9949,7340 L 9949,7190"
     id="path30"
     style="" /><path
     fill="none"
     stroke="rgb(179,179,179)"
     stroke-linejoin="round"
     d="M 12546,7340 L 12546,7190"
     id="path32"
     style="" /><path
     fill="none"
     stroke="rgb(179,179,179)"
     stroke-linejoin="round"
     d="M 12546,7340 L 12546,7190"
     id="path34"
     style="" /><path
     fill="none"
     stroke="rgb(179,179,179)"
     stroke-linejoin="round"
     d="M 15143,7340 L 15143,7190"
     id="path36"
     style="" /><path
     fill="none"
     stroke="rgb(179,179,179)"
     stroke-linejoin="round"
     d="M 15143,7340 L 15143,7190"
     id="path38"
     style="" /><path
     fill="none"
     stroke="rgb(179,179,179)"
     stroke-linejoin="round"
     d="M 2159,7190 L 15143,7190"
     id="path40"
     style="" /><path
     fill="none"
     stroke="rgb(179,179,179)"
     stroke-linejoin="round"
     d="M 2009,7190 L 2159,7190"
     id="path42"
     style="" /><path
     fill="none"
     stroke="rgb(179,179,179)"
     stroke-linejoin="round"
     d="M 2009,7190 L 2159,7190"
     id="path44"
     style="" /><path
     fill="none"
     stroke="rgb(179,179,179)"
     stroke-linejoin="round"
     d="M 2009,5284 L 2159,5284"
     id="path46"
     style="" /><path
     fill="none"
     stroke="rgb(179,179,179)"
     stroke-linejoin="round"
     d="M 2009,5284 L 2159,5284"
     id="path48"
     style="" /><path
     fill="none"
     stroke="rgb(179,179,179)"
     stroke-linejoin="round"
     d="M 2009,3378 L 2159,3378"
     id="path50"
     style="" /><path
     fill="none"
     stroke="rgb(179,179,179)"
     stroke-linejoin="round"
     d="M 2009,3378 L 2159,3378"
     id="path52"
     style="" /><path
     fill="none"
     stroke="rgb(179,179,179)"
     stroke-linejoin="round"
     d="M 2009,1473 L 2159,1473"
     id="path54"
     style="" /><path
     fill="none"
     stroke="rgb(179,179,179)"
     stroke-linejoin="round"
     d="M 2009,1473 L 2159,1473"
     id="path56"
     style="" /><path
     fill="none"
     stroke="rgb(179,179,179)"
     stroke-linejoin="round"
     d="M 2159,7190 L 2159,1473"
     id="path58"
     style="" /><path
     fill="none"
     stroke="rgb(0,69,134)"
     stroke-width="80"
     stroke-linejoin="round"
     d="M 2159,5601 L 2184,5582 2210,5563 2236,5544 2262,5525 2288,5506 2314,5487 2340,5468 2366,5449 2392,5430 2418,5411 2444,5392 2470,5372 2496,5353 2522,5334 2548,5315 2574,5296 2600,5277 2626,5258 2652,5239 2678,5220 2704,5201 2730,5182 2756,5164 2782,5145 2808,5126 2834,5107 2860,5088 2886,5069 2912,5050 2938,5031 2964,5012 2990,4993 3016,4974 3041,4955 3067,4936 3093,4917 3119,4898 3145,4879 3171,4860 3197,4842 3223,4823 3249,4804 3275,4785 3301,4766 3327,4747 3353,4728 3379,4710 3405,4691 3431,4672 3457,4653 3483,4634 3509,4616 3535,4597 3561,4578 3587,4559 3613,4541 3639,4522 3665,4503 3691,4486 3717,4467 3743,4448 3769,4430 3795,4411 3821,4393 3847,4374 3873,4356 3898,4337 3924,4319 3950,4300 3976,4282 4002,4263 4028,4245 4054,4227 4080,4209 4106,4190 4132,4172 4158,4154 4184,4136 4210,4118 4236,4100 4262,4082 4288,4064 4314,4046 4340,4028 4366,4010 4392,3992 4418,3975 4444,3957 4470,3940 4496,3922 4522,3905 4548,3887 4574,3870 4600,3853 4626,3836 4652,3819 4678,3802 4704,3785 4730,3768 4756,3751 4781,3735 4807,3718 4833,3702 4859,3686 4885,3669 4911,3653 4937,3637 4963,3622 4989,3606 5015,3590 5041,3575 5067,3560 5093,3545 5119,3530 5145,3515 5171,3500 5197,3485 5223,3471 5249,3457 5275,3443 5301,3429 5327,3415 5353,3402 5379,3388 5405,3375 5431,3362 5457,3349 5483,3337 5509,3324 5535,3312 5561,3300 5587,3289 5613,3277 5638,3266 5664,3255 5690,3244 5716,3233 5742,3222 5768,3212 5794,3202 5820,3192 5846,3183 5872,3173 5898,3164 5924,3155 5950,3146 5976,3138 6002,3130 6028,3122 6054,3114 6080,3106 6106,3099 6132,3091 6158,3084 6184,3077 6210,3071 6236,3064 6262,3058 6288,3052 6314,3046 6340,3041 6366,3035 6392,3030 6418,3025 6444,3020 6470,3015 6495,3010 6521,3006 6547,3001 6573,2997 6599,2993 6625,2989 6651,2986 6677,2982 6703,2979 6729,2975 6755,2972 6781,2969 6807,2966 6833,2963 6859,2960 6885,2958 6911,2955 6937,2953 6963,2950 6989,2948 7015,2946 7041,2944 7067,2942 7093,2940 7119,2938 7145,2937 7171,2935 7197,2933 7223,2932 7249,2930 7275,2929 7301,2928 7327,2926 7353,2925 7378,2924 7404,2923 7430,2922 7456,2921 7482,2920 7508,2919 7534,2918 7560,2917 7586,2916 7612,2915 7638,2915 7664,2914 7690,2913 7716,2913 7742,2912 7768,2912 7794,2911 7820,2910 7846,2910 7872,2910 7898,2909 7924,2909 7950,2908 7976,2908 8002,2908 8027,2907 8053,2907 8079,2907 8105,2907 8131,2906 8157,2906 8183,2906 8209,2906 8234,2906 8260,2906 8286,2905 8312,2905 8338,2905 8364,2905 8390,2905 8416,2905 8442,2905 8468,2905 8494,2905 8520,2905 8546,2905 8572,2905 8598,2905 8624,2906 8650,2906 8676,2906 8702,2906 8728,2906 8754,2906 8780,2907 8806,2907 8832,2907 8858,2907 8884,2908 8910,2908 8936,2908 8962,2909 8988,2909 9014,2910 9040,2910 9066,2911 9091,2911 9117,2912 9143,2912 9169,2913 9195,2913 9221,2914 9247,2915 9273,2916 9299,2916 9325,2917 9351,2918 9377,2919 9403,2920 9429,2921 9455,2922 9481,2923 9507,2924 9533,2925 9559,2927 9585,2928 9611,2929 9637,2931 9663,2932 9689,2934 9715,2935 9741,2937 9767,2939 9793,2941 9819,2942 9845,2944 9871,2947 9897,2949 9923,2951 9949,2953 9974,2956 10000,2958 10026,2961 10052,2964 10078,2967 10104,2970 10130,2973 10156,2976 10182,2979 10208,2983 10234,2987 10260,2990 10286,2994 10312,2998 10338,3002 10364,3007 10390,3011 10416,3016 10442,3021 10468,3026 10494,3031 10520,3036 10546,3042 10572,3048 10598,3054 10624,3060 10650,3066 10676,3073 10702,3079 10728,3086 10754,3093 10780,3101 10806,3108 10831,3116 10857,3124 10883,3132 10909,3141 10935,3149 10961,3158 10987,3167 11013,3177 11039,3186 11065,3196 11091,3206 11117,3216 11143,3227 11169,3237 11195,3248 11221,3260 11247,3271 11273,3283 11299,3295 11325,3307 11351,3320 11377,3332 11403,3346 11429,3359 11455,3373 11481,3387 11507,3402 11533,3418 11559,3434 11585,3452 11611,3471 11637,3492 11663,3518 11688,3550 11714,3594 11740,3665 11766,3802 11792,4139 11818,5669 11844,4391 11870,3933 11896,3786 11922,3730 11948,3710 11974,3705 12000,3708 12026,3716 12052,3727 12078,3739 12104,3752 12130,3766 12156,3781 12182,3797 12208,3812 12234,3828 12260,3845 12286,3861 12312,3878 12338,3894 12364,3911 12390,3929 12416,3946 12442,3963 12468,3980 12494,3998 12520,4015 12546,4033 12571,4051 12597,4068 12623,4086 12649,4104 12675,4122 12701,4140 12727,4158 12753,4176 12779,4194 12805,4212 12831,4231 12857,4249 12883,4267 12909,4286 12935,4304 12961,4322 12987,4341 13013,4359 13039,4378 13065,4396 13091,4415 13117,4433 13143,4452 13169,4470 13195,4489 13221,4506 13247,4525 13273,4544 13299,4562 13325,4581 13351,4600 13377,4618 13403,4637 13428,4656 13454,4675 13480,4693 13506,4712 13532,4731 13558,4750 13584,4768 13610,4787 13636,4806 13662,4825 13688,4844 13714,4863 13740,4881 13766,4900 13792,4919 13818,4938 13844,4957 13870,4976 13896,4994 13922,5013 13948,5032 13974,5051 14000,5070 14026,5089 14052,5107 14078,5126 14104,5145 14130,5164 14156,5183 14182,5202 14208,5220 14234,5239 14260,5258 14285,5277 14311,5296 14337,5314 14363,5333 14389,5352 14415,5371 14441,5390 14467,5408 14493,5427 14519,5446 14545,5465 14571,5483 14597,5502 14623,5521 14649,5539 14675,5558 14701,5577 14727,5595 14753,5614 14779,5633 14805,5651 14831,5670 14857,5688 14883,5707 14909,5725 14935,5744 14961,5762 14987,5781 15013,5799 15039,5817 15065,5836 15091,5854 15117,5872 15143,5891"
     id="path60"
     style="" /><text
     class="TextShape"
     id="text62"
     style="-inkscape-font-specification:'Linux Biolinum O';font-family:'Linux Biolinum O';font-weight:normal;font-style:normal;font-stretch:normal;font-variant:normal;"><tspan
       class="TextParagraph"
       font-family="Liberation Sans"
       font-size="353px"
       font-weight="400"
       id="tspan64"
       style="-inkscape-font-specification:'Linux Biolinum O';font-family:'Linux Biolinum O';font-weight:normal;font-style:normal;font-stretch:normal;font-variant:normal;"><tspan
         class="TextPosition"
         x="1827"
         y="7758"
         id="tspan66"
         style="-inkscape-font-specification:'Linux Biolinum O';font-family:'Linux Biolinum O';font-weight:normal;font-style:normal;font-stretch:normal;font-variant:normal;" /><tspan
         class="TextPosition"
         x="1827"
         y="7758"
         id="tspan68"
         style="-inkscape-font-specification:'Linux Biolinum O';font-family:'Linux Biolinum O';font-weight:normal;font-style:normal;font-stretch:normal;font-variant:normal;"><tspan
           fill="rgb(0,0,0)"
           stroke="none"
           id="tspan70"
           style="-inkscape-font-specification:'Linux Biolinum O';font-family:'Linux Biolinum O';font-weight:normal;font-style:normal;font-stretch:normal;font-variant:normal;">0,01</tspan></tspan></tspan></text>
<text
     class="TextShape"
     id="text72"
     style="-inkscape-font-specification:'Linux Biolinum O';font-family:'Linux Biolinum O';font-weight:normal;font-style:normal;font-stretch:normal;font-variant:normal;"><tspan
       class="TextParagraph"
       font-family="Liberation Sans"
       font-size="353px"
       font-weight="400"
       id="tspan74"
       style="-inkscape-font-specification:'Linux Biolinum O';font-family:'Linux Biolinum O';font-weight:normal;font-style:normal;font-stretch:normal;font-variant:normal;"><tspan
         class="TextPosition"
         x="4518"
         y="7758"
         id="tspan76"
         style="-inkscape-font-specification:'Linux Biolinum O';font-family:'Linux Biolinum O';font-weight:normal;font-style:normal;font-stretch:normal;font-variant:normal;" /><tspan
         class="TextPosition"
         x="4518"
         y="7758"
         id="tspan78"
         style="-inkscape-font-specification:'Linux Biolinum O';font-family:'Linux Biolinum O';font-weight:normal;font-style:normal;font-stretch:normal;font-variant:normal;"><tspan
           fill="rgb(0,0,0)"
           stroke="none"
           id="tspan80"
           style="-inkscape-font-specification:'Linux Biolinum O';font-family:'Linux Biolinum O';font-weight:normal;font-style:normal;font-stretch:normal;font-variant:normal;">0,1</tspan></tspan></tspan></text>
<text
     class="TextShape"
     id="text82"
     style="-inkscape-font-specification:'Linux Biolinum O';font-family:'Linux Biolinum O';font-weight:normal;font-style:normal;font-stretch:normal;font-variant:normal;"><tspan
       class="TextParagraph"
       font-family="Liberation Sans"
       font-size="353px"
       font-weight="400"
       id="tspan84"
       style="-inkscape-font-specification:'Linux Biolinum O';font-family:'Linux Biolinum O';font-weight:normal;font-style:normal;font-stretch:normal;font-variant:normal;"><tspan
         class="TextPosition"
         x="7260"
         y="7758"
         id="tspan86"
         style="-inkscape-font-specification:'Linux Biolinum O';font-family:'Linux Biolinum O';font-weight:normal;font-style:normal;font-stretch:normal;font-variant:normal;" /><tspan
         class="TextPosition"
         x="7260"
         y="7758"
         id="tspan88"
         style="-inkscape-font-specification:'Linux Biolinum O';font-family:'Linux Biolinum O';font-weight:normal;font-style:normal;font-stretch:normal;font-variant:normal;"><tspan
           fill="rgb(0,0,0)"
           stroke="none"
           id="tspan90"
           style="-inkscape-font-specification:'Linux Biolinum O';font-family:'Linux Biolinum O';font-weight:normal;font-style:normal;font-stretch:normal;font-variant:normal;">1</tspan></tspan></tspan></text>
<text
     class="TextShape"
     id="text92"
     style="-inkscape-font-specification:'Linux Biolinum O';font-family:'Linux Biolinum O';font-weight:normal;font-style:normal;font-stretch:normal;font-variant:normal;"><tspan
       class="TextParagraph"
       font-family="Liberation Sans"
       font-size="353px"
       font-weight="400"
       id="tspan94"
       style="-inkscape-font-specification:'Linux Biolinum O';font-family:'Linux Biolinum O';font-weight:normal;font-style:normal;font-stretch:normal;font-variant:normal;"><tspan
         class="TextPosition"
         x="9765"
         y="7758"
         id="tspan96"
         style="-inkscape-font-specification:'Linux Biolinum O';font-family:'Linux Biolinum O';font-weight:normal;font-style:normal;font-stretch:normal;font-variant:normal;" /><tspan
         class="TextPosition"
         x="9765"
         y="7758"
         id="tspan98"
         style="-inkscape-font-specification:'Linux Biolinum O';font-family:'Linux Biolinum O';font-weight:normal;font-style:normal;font-stretch:normal;font-variant:normal;"><tspan
           fill="rgb(0,0,0)"
           stroke="none"
           id="tspan100"
           style="-inkscape-font-specification:'Linux Biolinum O';font-family:'Linux Biolinum O';font-weight:normal;font-style:normal;font-stretch:normal;font-variant:normal;">10</tspan></tspan></tspan></text>
<text
     class="TextShape"
     id="text102"
     style="-inkscape-font-specification:'Linux Biolinum O';font-family:'Linux Biolinum O';font-weight:normal;font-style:normal;font-stretch:normal;font-variant:normal;"><tspan
       class="TextParagraph"
       font-family="Liberation Sans"
       font-size="353px"
       font-weight="400"
       id="tspan104"
       style="-inkscape-font-specification:'Linux Biolinum O';font-family:'Linux Biolinum O';font-weight:normal;font-style:normal;font-stretch:normal;font-variant:normal;"><tspan
         class="TextPosition"
         x="12269"
         y="7758"
         id="tspan106"
         style="-inkscape-font-specification:'Linux Biolinum O';font-family:'Linux Biolinum O';font-weight:normal;font-style:normal;font-stretch:normal;font-variant:normal;" /><tspan
         class="TextPosition"
         x="12269"
         y="7758"
         id="tspan108"
         style="-inkscape-font-specification:'Linux Biolinum O';font-family:'Linux Biolinum O';font-weight:normal;font-style:normal;font-stretch:normal;font-variant:normal;"><tspan
           fill="rgb(0,0,0)"
           stroke="none"
           id="tspan110"
           style="-inkscape-font-specification:'Linux Biolinum O';font-family:'Linux Biolinum O';font-weight:normal;font-style:normal;font-stretch:normal;font-variant:normal;">100</tspan></tspan></tspan></text>
<text
     class="TextShape"
     id="text112"
     style="-inkscape-font-specification:'Linux Biolinum O';font-family:'Linux Biolinum O';font-weight:normal;font-style:normal;font-stretch:normal;font-variant:normal;"><tspan
       class="TextParagraph"
       font-family="Liberation Sans"
       font-size="353px"
       font-weight="400"
       id="tspan114"
       style="-inkscape-font-specification:'Linux Biolinum O';font-family:'Linux Biolinum O';font-weight:normal;font-style:normal;font-stretch:normal;font-variant:normal;"><tspan
         class="TextPosition"
         x="14773"
         y="7758"
         id="tspan116"
         style="-inkscape-font-specification:'Linux Biolinum O';font-family:'Linux Biolinum O';font-weight:normal;font-style:normal;font-stretch:normal;font-variant:normal;" /><tspan
         class="TextPosition"
         x="14773"
         y="7758"
         id="tspan118"
         style="-inkscape-font-specification:'Linux Biolinum O';font-family:'Linux Biolinum O';font-weight:normal;font-style:normal;font-stretch:normal;font-variant:normal;"><tspan
           fill="rgb(0,0,0)"
           stroke="none"
           id="tspan120"
           style="-inkscape-font-specification:'Linux Biolinum O';font-family:'Linux Biolinum O';font-weight:normal;font-style:normal;font-stretch:normal;font-variant:normal;">1000</tspan></tspan></tspan></text>
<text
     class="TextShape"
     id="text122"
     style="-inkscape-font-specification:'Linux Biolinum O';font-family:'Linux Biolinum O';font-weight:normal;font-style:normal;font-stretch:normal;font-variant:normal;"><tspan
       class="TextParagraph"
       font-family="Liberation Sans"
       font-size="353px"
       font-weight="400"
       id="tspan124"
       style="-inkscape-font-specification:'Linux Biolinum O';font-family:'Linux Biolinum O';font-weight:normal;font-style:normal;font-stretch:normal;font-variant:normal;"><tspan
         class="TextPosition"
         x="1724"
         y="7311"
         id="tspan126"
         style="-inkscape-font-specification:'Linux Biolinum O';font-family:'Linux Biolinum O';font-weight:normal;font-style:normal;font-stretch:normal;font-variant:normal;" /><tspan
         class="TextPosition"
         x="1724"
         y="7311"
         id="tspan128"
         style="-inkscape-font-specification:'Linux Biolinum O';font-family:'Linux Biolinum O';font-weight:normal;font-style:normal;font-stretch:normal;font-variant:normal;"><tspan
           fill="rgb(0,0,0)"
           stroke="none"
           id="tspan130"
           style="-inkscape-font-specification:'Linux Biolinum O';font-family:'Linux Biolinum O';font-weight:normal;font-style:normal;font-stretch:normal;font-variant:normal;">1</tspan></tspan></tspan></text>
<text
     class="TextShape"
     id="text132"
     style="-inkscape-font-specification:'Linux Biolinum O';font-family:'Linux Biolinum O';font-weight:normal;font-style:normal;font-stretch:normal;font-variant:normal;"><tspan
       class="TextParagraph"
       font-family="Liberation Sans"
       font-size="353px"
       font-weight="400"
       id="tspan134"
       style="-inkscape-font-specification:'Linux Biolinum O';font-family:'Linux Biolinum O';font-weight:normal;font-style:normal;font-stretch:normal;font-variant:normal;"><tspan
         class="TextPosition"
         x="1539"
         y="5405"
         id="tspan136"
         style="-inkscape-font-specification:'Linux Biolinum O';font-family:'Linux Biolinum O';font-weight:normal;font-style:normal;font-stretch:normal;font-variant:normal;" /><tspan
         class="TextPosition"
         x="1539"
         y="5405"
         id="tspan138"
         style="-inkscape-font-specification:'Linux Biolinum O';font-family:'Linux Biolinum O';font-weight:normal;font-style:normal;font-stretch:normal;font-variant:normal;"><tspan
           fill="rgb(0,0,0)"
           stroke="none"
           id="tspan140"
           style="-inkscape-font-specification:'Linux Biolinum O';font-family:'Linux Biolinum O';font-weight:normal;font-style:normal;font-stretch:normal;font-variant:normal;">10</tspan></tspan></tspan></text>
<text
     class="TextShape"
     id="text142"
     style="-inkscape-font-specification:'Linux Biolinum O';font-family:'Linux Biolinum O';font-weight:normal;font-style:normal;font-stretch:normal;font-variant:normal;"><tspan
       class="TextParagraph"
       font-family="Liberation Sans"
       font-size="353px"
       font-weight="400"
       id="tspan144"
       style="-inkscape-font-specification:'Linux Biolinum O';font-family:'Linux Biolinum O';font-weight:normal;font-style:normal;font-stretch:normal;font-variant:normal;"><tspan
         class="TextPosition"
         x="1353"
         y="3498"
         id="tspan146"
         style="-inkscape-font-specification:'Linux Biolinum O';font-family:'Linux Biolinum O';font-weight:normal;font-style:normal;font-stretch:normal;font-variant:normal;" /><tspan
         class="TextPosition"
         x="1353"
         y="3498"
         id="tspan148"
         style="-inkscape-font-specification:'Linux Biolinum O';font-family:'Linux Biolinum O';font-weight:normal;font-style:normal;font-stretch:normal;font-variant:normal;"><tspan
           fill="rgb(0,0,0)"
           stroke="none"
           id="tspan150"
           style="-inkscape-font-specification:'Linux Biolinum O';font-family:'Linux Biolinum O';font-weight:normal;font-style:normal;font-stretch:normal;font-variant:normal;">100</tspan></tspan></tspan></text>
<text
     class="TextShape"
     id="text152"
     style="-inkscape-font-specification:'Linux Biolinum O';font-family:'Linux Biolinum O';font-weight:normal;font-style:normal;font-stretch:normal;font-variant:normal;"><tspan
       class="TextParagraph"
       font-family="Liberation Sans"
       font-size="353px"
       font-weight="400"
       id="tspan154"
       style="-inkscape-font-specification:'Linux Biolinum O';font-family:'Linux Biolinum O';font-weight:normal;font-style:normal;font-stretch:normal;font-variant:normal;"><tspan
         class="TextPosition"
         x="1168"
         y="1593"
         id="tspan156"
         style="-inkscape-font-specification:'Linux Biolinum O';font-family:'Linux Biolinum O';font-weight:normal;font-style:normal;font-stretch:normal;font-variant:normal;" /><tspan
         class="TextPosition"
         x="1168"
         y="1593"
         id="tspan158"
         style="-inkscape-font-specification:'Linux Biolinum O';font-family:'Linux Biolinum O';font-weight:normal;font-style:normal;font-stretch:normal;font-variant:normal;"><tspan
           fill="rgb(0,0,0)"
           stroke="none"
           id="tspan160"
           style="-inkscape-font-specification:'Linux Biolinum O';font-family:'Linux Biolinum O';font-weight:normal;font-style:normal;font-stretch:normal;font-variant:normal;">1000</tspan></tspan></tspan></text>
<text
     class="TextShape"
     id="text162"
     style="font-style:normal;font-variant:normal;font-weight:normal;font-stretch:normal;font-family:'Linux Biolinum O';-inkscape-font-specification:'Linux Biolinum O'"
     x="-193.26341"><tspan
       class="TextPosition"
       x="6252.7368"
       y="851"
       id="tspan168"
       style="font-style:normal;font-variant:normal;font-weight:normal;font-stretch:normal;font-size:493.88885498px;font-family:'Linux Biolinum O';-inkscape-font-specification:'Linux Biolinum O'">Etapas de fitrado</tspan></text>
<text
     class="TextShape"
     id="text172"
     style="-inkscape-font-specification:'Linux Biolinum O';font-family:'Linux Biolinum O';font-weight:normal;font-style:normal;font-stretch:normal;font-variant:normal;"><tspan
       class="TextPosition"
       x="7414"
       y="8405"
       id="tspan178"
       style="-inkscape-font-specification:'Linux Biolinum O';font-family:'Linux Biolinum O';font-weight:normal;font-style:normal;font-stretch:normal;font-variant:normal;font-size:352.77776055px">Frecuencia [Hz]</tspan></text>
<text
     class="TextShape"
     id="text182"
     inkscape:transform-center-x="-148.21137"
     inkscape:transform-center-y="-1050.4962"
     x="-6244.6484"
     y="-4496.4941"
     transform="matrix(0,-1,1,0,0,0)"
     style="-inkscape-font-specification:'Linux Biolinum O';font-family:'Linux Biolinum O';font-weight:normal;font-style:normal;font-stretch:normal;font-variant:normal;"><tspan
       class="TextParagraph"
       font-size="318px"
       font-weight="400"
       id="tspan184"
       style="font-weight:normal;font-size:318px;font-family:'Linux Biolinum O';-inkscape-font-specification:'Linux Biolinum O';font-style:normal;font-stretch:normal;font-variant:normal;"><tspan
         class="TextPosition"
         x="-5386.6484"
         y="1104.5057"
         transform="matrix(0,-1,1,0,-4743,6459)"
         id="tspan188"
         style="font-style:normal;font-variant:normal;font-weight:normal;font-stretch:normal;font-size:352.777771px;font-family:'Linux Biolinum O';-inkscape-font-specification:'Linux Biolinum O';fill:#000000;stroke:none">Ganancia [V/V]</tspan></tspan></text>
</svg>