<?xml version="1.0" encoding="UTF-8" standalone="no"?>
<svg
   xmlns:dc="http://purl.org/dc/elements/1.1/"
   xmlns:cc="http://creativecommons.org/ns#"
   xmlns:rdf="http://www.w3.org/1999/02/22-rdf-syntax-ns#"
   xmlns:svg="http://www.w3.org/2000/svg"
   xmlns="http://www.w3.org/2000/svg"
   id="svg2"
   xml:space="preserve"
   stroke-linejoin="round"
   stroke-width="28.222"
   version="1.1"
   viewBox="0 0 16000 9000"
   height="90mm"
   width="160mm"><metadata
     id="metadata144"><rdf:RDF><cc:Work
         rdf:about=""><dc:format>image/svg+xml</dc:format><dc:type
           rdf:resource="http://purl.org/dc/dcmitype/StillImage" /><dc:title></dc:title></cc:Work></rdf:RDF></metadata><defs
     id="defs142" /><path
     style=""
     fill="rgb(255,255,255)"
     stroke="none"
     id="path4"
     d="M 7987,8999 L -13,8999 -13,0 15986,0 15986,8999 7987,8999 Z" /><path
     id="path66-8-0"
     d="m 8407.2692,7176.2341 0,-5716.9979"
     style="fill:none;stroke:#b3b3b3;stroke-width:36.68888474;stroke-linejoin:round;stroke-miterlimit:4;stroke-dasharray:none" /><path
     id="path66-8"
     d="m 6060.3443,7172.934 0,-5716.9995"
     style="fill:none;stroke:#b3b3b3;stroke-width:36.68888855;stroke-linejoin:round;stroke-miterlimit:4;stroke-dasharray:none" /><path
     style=""
     id="path6"
     d="M 8715,7191 L 2045,7191 2045,1474 15386,1474 15386,7191 8715,7191 Z"
     stroke-linejoin="round"
     stroke="rgb(179,179,179)"
     fill="none" /><path
     id="path66-8-5"
     d="m 10076.643,7175.4444 0,-5716.999"
     style="fill:none;stroke:#b3b3b3;stroke-width:36.68888474;stroke-linejoin:round;stroke-miterlimit:4;stroke-dasharray:none" /><path
     style=""
     id="path8"
     d="M 2045,1473 L 2045,7190"
     stroke-linejoin="round"
     stroke="rgb(179,179,179)"
     fill="none" /><path
     style=""
     id="path10"
     d="M 15386,1473 L 15386,7190"
     stroke-linejoin="round"
     stroke="rgb(179,179,179)"
     fill="none" /><path
     style=""
     id="path12"
     d="M 15386,7190 L 2045,7190"
     stroke-linejoin="round"
     stroke="rgb(179,179,179)"
     fill="none" /><path
     id="path66-8-2"
     d="m 11369.638,7178.2692 0,-5716.999"
     style="fill:none;stroke:#b3b3b3;stroke-width:36.68888474;stroke-linejoin:round;stroke-miterlimit:4;stroke-dasharray:none" /><path
     style=""
     id="path14"
     d="M 15386,1473 L 2045,1473"
     stroke-linejoin="round"
     stroke="rgb(179,179,179)"
     fill="none" /><path
     id="path66-8-05"
     d="m 12428.299,7176.4138 0,-5716.9991"
     style="fill:none;stroke:#b3b3b3;stroke-width:36.68888474;stroke-linejoin:round;stroke-miterlimit:4;stroke-dasharray:none" /><path
     style=""
     id="path16"
     d="M 2045,7340 L 2045,7190"
     stroke-linejoin="round"
     stroke="rgb(179,179,179)"
     fill="none" /><path
     style=""
     id="path18"
     d="M 2045,7340 L 2045,7190"
     stroke-linejoin="round"
     stroke="rgb(179,179,179)"
     fill="none" /><path
     style=""
     id="path20"
     d="M 15386,7340 L 15386,7190"
     stroke-linejoin="round"
     stroke="rgb(179,179,179)"
     fill="none" /><path
     style=""
     id="path22"
     d="M 15386,7340 L 15386,7190"
     stroke-linejoin="round"
     stroke="rgb(179,179,179)"
     fill="none" /><path
     style=""
     id="path24"
     d="M 6061,7302 L 6061,7190"
     stroke-linejoin="round"
     stroke="rgb(179,179,179)"
     fill="none" /><path
     style=""
     id="path26"
     d="M 6061,7302 L 6061,7190"
     stroke-linejoin="round"
     stroke="rgb(179,179,179)"
     fill="none" /><path
     style=""
     id="path28"
     d="M 8409,7302 L 8409,7190"
     stroke-linejoin="round"
     stroke="rgb(179,179,179)"
     fill="none" /><path
     style=""
     id="path30"
     d="M 8409,7302 L 8409,7190"
     stroke-linejoin="round"
     stroke="rgb(179,179,179)"
     fill="none" /><path
     style=""
     id="path32"
     d="M 10076,7302 L 10076,7190"
     stroke-linejoin="round"
     stroke="rgb(179,179,179)"
     fill="none" /><path
     style=""
     id="path34"
     d="M 10076,7302 L 10076,7190"
     stroke-linejoin="round"
     stroke="rgb(179,179,179)"
     fill="none" /><path
     style=""
     id="path36"
     d="M 11369,7302 L 11369,7190"
     stroke-linejoin="round"
     stroke="rgb(179,179,179)"
     fill="none" /><path
     style=""
     id="path38"
     d="M 11369,7302 L 11369,7190"
     stroke-linejoin="round"
     stroke="rgb(179,179,179)"
     fill="none" /><path
     style=""
     id="path40"
     d="M 12426,7302 L 12426,7190"
     stroke-linejoin="round"
     stroke="rgb(179,179,179)"
     fill="none" /><path
     style=""
     id="path42"
     d="M 12426,7302 L 12426,7190"
     stroke-linejoin="round"
     stroke="rgb(179,179,179)"
     fill="none" /><path
     style=""
     id="path44"
     d="M 13319,7302 L 13319,7190"
     stroke-linejoin="round"
     stroke="rgb(179,179,179)"
     fill="none" /><path
     style=""
     id="path46"
     d="M 13319,7302 L 13319,7190"
     stroke-linejoin="round"
     stroke="rgb(179,179,179)"
     fill="none" /><path
     style=""
     id="path48"
     d="M 14093,7302 L 14093,7190"
     stroke-linejoin="round"
     stroke="rgb(179,179,179)"
     fill="none" /><path
     style=""
     id="path50"
     d="M 14093,7302 L 14093,7190"
     stroke-linejoin="round"
     stroke="rgb(179,179,179)"
     fill="none" /><path
     style=""
     id="path52"
     d="M 14775,7302 L 14775,7190"
     stroke-linejoin="round"
     stroke="rgb(179,179,179)"
     fill="none" /><path
     style=""
     id="path54"
     d="M 14775,7302 L 14775,7190"
     stroke-linejoin="round"
     stroke="rgb(179,179,179)"
     fill="none" /><path
     style=""
     id="path56"
     d="M 2045,7190 L 15386,7190"
     stroke-linejoin="round"
     stroke="rgb(179,179,179)"
     fill="none" /><path
     id="path66-8-58"
     d="m 13319.416,7176.656 0,-5716.999"
     style="fill:none;stroke:#b3b3b3;stroke-width:28.22222084;stroke-linejoin:round;stroke-miterlimit:4;stroke-dasharray:none" /><path
     style=""
     id="path58"
     d="M 1895,7190 L 2045,7190"
     stroke-linejoin="round"
     stroke="rgb(179,179,179)"
     fill="none" /><path
     style=""
     id="path60"
     d="M 1895,7190 L 2045,7190"
     stroke-linejoin="round"
     stroke="rgb(179,179,179)"
     fill="none" /><path
     style=""
     id="path62"
     d="M 1895,1473 L 2045,1473"
     stroke-linejoin="round"
     stroke="rgb(179,179,179)"
     fill="none" /><path
     style=""
     id="path64"
     d="M 1895,1473 L 2045,1473"
     stroke-linejoin="round"
     stroke="rgb(179,179,179)"
     fill="none" /><path
     style=""
     fill="none"
     stroke="rgb(179,179,179)"
     stroke-linejoin="round"
     id="path66"
     d="M 2045,7190 L 2045,1473" /><path
     id="path66-8-58-7"
     d="m 14092.392,7175.8527 0,-5716.9987"
     style="fill:none;stroke:#b3b3b3;stroke-width:28.22221947;stroke-linejoin:round;stroke-miterlimit:4;stroke-dasharray:none" /><path
     id="path66-8-58-2"
     d="m 14775.677,7175.285 0,-5716.9986"
     style="fill:none;stroke:#b3b3b3;stroke-width:28.22221947;stroke-linejoin:round;stroke-miterlimit:4;stroke-dasharray:none" /><path
     style=""
     id="path68"
     d="M 2045,1473 L 2111,1473 2178,1473 2245,1473 2311,1473 2378,1473 2445,1473 2511,1473 2578,1473 2645,1473 2712,1473 2778,1473 2845,1473 2912,1473 2978,1473 3045,1473 3112,1473 3179,1473 3245,1473 3312,1473 3379,1473 3445,1474 3512,1474 3579,1474 3646,1474 3712,1474 3779,1474 3846,1474 3912,1474 3979,1474 4046,1474 4113,1474 4179,1474 4246,1474 4313,1474 4379,1474 4446,1474 4513,1474 4579,1474 4646,1474 4713,1474 4780,1474 4846,1474 4913,1474 4980,1474 5046,1474 5113,1474 5180,1474 5247,1475 5313,1475 5380,1475 5447,1475 5513,1475 5580,1475 5647,1475 5714,1475 5780,1475 5847,1475 5914,1475 5980,1475 6047,1475 6114,1476 6181,1476 6247,1476 6314,1476 6381,1476 6447,1476 6514,1476 6581,1476 6647,1476 6714,1477 6781,1477 6848,1477 6914,1477 6981,1477 7048,1477 7114,1478 7181,1478 7248,1478 7315,1478 7381,1478 7448,1479 7515,1479 7581,1479 7648,1479 7715,1480 7782,1480 7848,1480 7915,1481 7982,1481 8047,1481 8114,1482 8181,1482 8248,1483 8314,1483 8381,1484 8448,1484 8514,1485 8581,1485 8648,1486 8715,1487 8781,1488 8848,1488 8915,1489 8981,1490 9048,1492 9115,1493 9181,1494 9248,1496 9315,1497 9382,1499 9448,1501 9515,1503 9582,1505 9648,1508 9715,1511 9782,1514 9849,1518 9915,1523 9982,1528 10049,1533 10115,1540 10182,1548 10249,1557 10316,1568 10382,1581 10449,1597 10516,1617 10582,1642 10649,1674 10716,1714 10783,1769 10849,1842 10916,1945 10983,2094 11049,2317 11116,2670 11183,3263 11249,4364 11316,7187 11383,6609 11450,4190 11516,3174 11583,2619 11650,2286 11716,2073 11783,1931 11850,1832 11917,1761 11983,1709 12050,1669 12117,1639 12183,1614 12250,1595 12317,1579 12384,1566 12450,1556 12517,1547 12584,1539 12650,1532 12717,1527 12784,1522 12851,1518 12917,1514 12984,1510 13051,1508 13117,1505 13184,1503 13251,1500 13317,1499 13384,1497 13451,1495 13518,1494 13584,1493 13651,1491 13718,1490 13784,1489 13851,1488 13918,1487 13985,1487 14051,1486 14118,1485 14185,1485 14251,1484 14318,1483 14385,1483 14452,1482 14518,1482 14585,1482 14652,1481 14718,1481 14785,1480 14852,1480 14919,1480 14985,1480 15052,1479 15119,1479 15185,1479 15252,1479 15319,1478 15386,1478"
     stroke-linejoin="round"
     stroke-width="80"
     stroke="rgb(0,69,134)"
     fill="none" /><text
     style="-inkscape-font-specification:'Linux Biolinum O';font-family:'Linux Biolinum O';font-weight:normal;font-style:normal;font-stretch:normal;font-variant:normal;"
     id="text70"
     class="TextShape"><tspan
       style="-inkscape-font-specification:'Linux Biolinum O';font-family:'Linux Biolinum O';font-weight:normal;font-style:normal;font-stretch:normal;font-variant:normal;"
       id="tspan72"
       font-weight="400"
       font-size="353px"
       font-family="Liberation Sans, sans-serif"
       class="TextParagraph"><tspan
         style="-inkscape-font-specification:'Linux Biolinum O';font-family:'Linux Biolinum O';font-weight:normal;font-style:normal;font-stretch:normal;font-variant:normal;"
         id="tspan74"
         y="7758"
         x="1860"
         class="TextPosition" /><tspan
         style="-inkscape-font-specification:'Linux Biolinum O';font-family:'Linux Biolinum O';font-weight:normal;font-style:normal;font-stretch:normal;font-variant:normal;"
         id="tspan76"
         y="7758"
         x="1860"
         class="TextPosition"><tspan
           style="-inkscape-font-specification:'Linux Biolinum O';font-family:'Linux Biolinum O';font-weight:normal;font-style:normal;font-stretch:normal;font-variant:normal;"
           id="tspan78"
           stroke="none"
           fill="rgb(0,0,0)">10</tspan></tspan></tspan></text>
<text
     style="-inkscape-font-specification:'Linux Biolinum O';font-family:'Linux Biolinum O';font-weight:normal;font-style:normal;font-stretch:normal;font-variant:normal;"
     id="text80"
     class="TextShape"><tspan
       style="-inkscape-font-specification:'Linux Biolinum O';font-family:'Linux Biolinum O';font-weight:normal;font-style:normal;font-stretch:normal;font-variant:normal;"
       id="tspan82"
       font-weight="400"
       font-size="353px"
       font-family="Liberation Sans, sans-serif"
       class="TextParagraph"><tspan
         style="-inkscape-font-specification:'Linux Biolinum O';font-family:'Linux Biolinum O';font-weight:normal;font-style:normal;font-stretch:normal;font-variant:normal;"
         id="tspan84"
         y="7758"
         x="15109"
         class="TextPosition" /><tspan
         style="-inkscape-font-specification:'Linux Biolinum O';font-family:'Linux Biolinum O';font-weight:normal;font-style:normal;font-stretch:normal;font-variant:normal;"
         id="tspan86"
         y="7758"
         x="15109"
         class="TextPosition"><tspan
           style="-inkscape-font-specification:'Linux Biolinum O';font-family:'Linux Biolinum O';font-weight:normal;font-style:normal;font-stretch:normal;font-variant:normal;"
           id="tspan88"
           stroke="none"
           fill="rgb(0,0,0)">100</tspan></tspan></tspan></text>
<text
     style="-inkscape-font-specification:'Linux Biolinum O';font-family:'Linux Biolinum O';font-weight:normal;font-style:normal;font-stretch:normal;font-variant:normal;"
     id="text90"
     class="TextShape"><tspan
       style="-inkscape-font-specification:'Linux Biolinum O';font-family:'Linux Biolinum O';font-weight:normal;font-style:normal;font-stretch:normal;font-variant:normal;"
       id="tspan92"
       font-weight="400"
       font-size="353px"
       font-family="Liberation Sans, sans-serif"
       class="TextParagraph"><tspan
         style="-inkscape-font-specification:'Linux Biolinum O';font-family:'Linux Biolinum O';font-weight:normal;font-style:normal;font-stretch:normal;font-variant:normal;"
         id="tspan94"
         y="7311"
         x="1319"
         class="TextPosition" /><tspan
         style="-inkscape-font-specification:'Linux Biolinum O';font-family:'Linux Biolinum O';font-weight:normal;font-style:normal;font-stretch:normal;font-variant:normal;"
         id="tspan96"
         y="7311"
         x="1319"
         class="TextPosition"><tspan
           style="-inkscape-font-specification:'Linux Biolinum O';font-family:'Linux Biolinum O';font-weight:normal;font-style:normal;font-stretch:normal;font-variant:normal;"
           id="tspan98"
           stroke="none"
           fill="rgb(0,0,0)">0,1</tspan></tspan></tspan></text>
<text
     style="-inkscape-font-specification:'Linux Biolinum O';font-family:'Linux Biolinum O';font-weight:normal;font-style:normal;font-stretch:normal;font-variant:normal;"
     id="text100"
     class="TextShape"><tspan
       style="-inkscape-font-specification:'Linux Biolinum O';font-family:'Linux Biolinum O';font-weight:normal;font-style:normal;font-stretch:normal;font-variant:normal;"
       id="tspan102"
       font-weight="400"
       font-size="353px"
       font-family="Liberation Sans, sans-serif"
       class="TextParagraph"><tspan
         style="-inkscape-font-specification:'Linux Biolinum O';font-family:'Linux Biolinum O';font-weight:normal;font-style:normal;font-stretch:normal;font-variant:normal;"
         id="tspan104"
         y="1593"
         x="1610"
         class="TextPosition" /><tspan
         style="-inkscape-font-specification:'Linux Biolinum O';font-family:'Linux Biolinum O';font-weight:normal;font-style:normal;font-stretch:normal;font-variant:normal;"
         id="tspan106"
         y="1593"
         x="1610"
         class="TextPosition"><tspan
           style="-inkscape-font-specification:'Linux Biolinum O';font-family:'Linux Biolinum O';font-weight:normal;font-style:normal;font-stretch:normal;font-variant:normal;"
           id="tspan108"
           stroke="none"
           fill="rgb(0,0,0)">1</tspan></tspan></tspan></text>
<text
     x="-174.34261"
     style="font-style:normal;font-variant:normal;font-weight:normal;font-stretch:normal;font-family:'Linux Biolinum O';-inkscape-font-specification:'Linux Biolinum O'"
     id="text110"
     class="TextShape"><tspan
       style="font-style:normal;font-variant:normal;font-weight:normal;font-stretch:normal;font-size:493.88885498px;font-family:'Linux Biolinum O';-inkscape-font-specification:'Linux Biolinum O'"
       id="tspan116"
       y="851"
       x="5933.6572"
       class="TextPosition">Filtro elimina banda</tspan></text>
<text
     style="-inkscape-font-specification:'Linux Biolinum O';font-family:'Linux Biolinum O';font-weight:normal;font-style:normal;font-stretch:normal;font-variant:normal;"
     id="text120"
     class="TextShape"><tspan
       style="-inkscape-font-specification:'Linux Biolinum O';font-family:'Linux Biolinum O';font-weight:normal;font-style:normal;font-stretch:normal;font-variant:normal;font-size:352.77776055px"
       id="tspan126"
       y="8405"
       x="7380"
       class="TextPosition">Frecuencia [Hz]</tspan></text>
<text
     style="-inkscape-font-specification:'Linux Biolinum O';font-family:'Linux Biolinum O';font-weight:normal;font-style:normal;font-stretch:normal;font-variant:normal;"
     transform="matrix(0,-1,1,0,0,0)"
     y="-4529.3394"
     x="-6208.791"
     id="text130"
     class="TextShape"><tspan
       style="font-weight:normal;font-size:352.77776055px;font-family:'Linux Biolinum O';-inkscape-font-specification:'Linux Biolinum O';font-style:normal;font-stretch:normal;font-variant:normal"
       id="tspan132"
       font-weight="400"
       font-size="318px"
       class="TextParagraph"><tspan
         style="font-style:normal;font-variant:normal;font-weight:normal;font-stretch:normal;font-size:352.77776055px;font-family:'Linux Biolinum O';-inkscape-font-specification:'Linux Biolinum O';fill:#000000;stroke:none"
         id="tspan136"
         transform="matrix(0,-1,1,0,-4777,6425)"
         y="1071.6606"
         x="-5384.791"
         class="TextPosition">Ganancia [V/V]</tspan></tspan></text>
</svg>