<?xml version="1.0" encoding="UTF-8" standalone="no"?>
<!-- Created with Inkscape (http://www.inkscape.org/) -->
<svg xmlns:svg="http://www.w3.org/2000/svg" xmlns="http://www.w3.org/2000/svg" xmlns:xlink="http://www.w3.org/1999/xlink" version="1.0" width="504" height="650" id="svg666">
  <defs id="defs668">
    <linearGradient x1="0" y1="0" x2="1" y2="0" id="linearGradient695" gradientUnits="objectBoundingBox" spreadMethod="pad">
      <stop id="stop696" style="stop-color:#ff0000;stop-opacity:1" offset="0"/>
      <stop id="stop697" style="stop-color:#ffd700;stop-opacity:1" offset="1"/>
    </linearGradient>
    <linearGradient x1="0" y1="0" x2="1" y2="0" id="linearGradient691" gradientUnits="objectBoundingBox" spreadMethod="pad">
      <stop id="stop692" style="stop-color:#000000;stop-opacity:1" offset="0"/>
      <stop id="stop693" style="stop-color:#ffffff;stop-opacity:1" offset="1"/>
    </linearGradient>
    <linearGradient x1="0" y1="1.5000001e-07" x2="1" y2="1.5000001e-07" id="linearGradient694" xlink:href="#linearGradient695" gradientUnits="objectBoundingBox" spreadMethod="pad"/>
    <radialGradient cx="0.5" cy="0.50000018" r="0.5" fx="0.5" fy="0.50000018" id="radialGradient698" xlink:href="#linearGradient695" gradientUnits="objectBoundingBox" spreadMethod="pad"/>
    <linearGradient x1="0" y1="0" x2="1" y2="0" id="linearGradient567" xlink:href="#linearGradient695" gradientUnits="objectBoundingBox" spreadMethod="pad"/>
  </defs>
  <path d="M 96.51879,472.63444 L 88.47079,586.54744 C 92.09579,601.04844 102.97179,611.92343 120.06279,612.95943 C 137.15279,613.99644 146.47479,603.12043 153.72579,594.31643 L 161.25679,515.10244" id="inferior_vena_cava" style="font-size:12px;fill:#feceb2;fill-opacity:1;fill-rule:evenodd;stroke:#000000;stroke-width:2.5"/>
  <path d="M 27.24,266.65155 C 48.478,266.30055 182.87,274.81055 243.183,273.25055 C 303.496,271.69055 447.568,254.13156 472.005,257.25156 L 472.525,306.12656 C 450.168,307.16655 404.884,308.60655 394.487,329.92456 C 379.928,363.72055 304.016,316.40655 265.021,317.44655 C 221.348,318.59455 56.674,320.66755 27.76,317.08556 C 22.115,311.64755 15.147,305.67755 15.801,291.60855 C 15.949,275.50355 21.52,271.33155 27.24,266.65155 z" id="pulmonary_vein_2" style="font-size:12px;fill:#feceb2;fill-opacity:1;fill-rule:evenodd;stroke:#000000;stroke-width:2.5"/>
  <path d="M 396.63568,307.21309 C 406.47568,308.24809 451.01468,390.59409 448.42468,456.8841 C 445.83568,523.1751 432.36968,565.6421 411.13668,558.90909 C 389.90268,552.1771 337.59468,456.36709 310.14668,426.3291 C 282.69868,396.29109 245.92768,358.48409 245.92768,358.48409 L 396.63568,307.21309 z" id="left_ventricle" style="font-size:12px;fill:#fecefe;fill-opacity:1;fill-rule:evenodd;stroke:#000000;stroke-width:1.25"/>
  <path d="M 42.80168,206.01809 C 64.03968,205.66709 203.66768,217.0971 263.98068,215.53709 C 324.29368,213.97709 426.20268,200.97809 450.63968,204.0981 L 451.15968,252.97309 C 428.80268,254.01309 398.64468,250.37309 388.24768,271.69109 C 373.68868,305.48709 297.77668,258.17309 258.78168,259.2131 C 215.10868,260.36109 72.23568,260.03409 43.32168,256.45209 C 37.67668,249.97409 31.22868,247.1241 31.36268,230.97509 C 30.97668,214.87409 37.60168,211.73809 42.80168,206.01809 z" id="pulmonary_vein_1" style="font-size:12px;fill:#feceb2;fill-opacity:1;fill-rule:evenodd;stroke:#000000;stroke-width:2.5"/>
  <path d="M 256.80468,266.29809 C 264.46268,225.45309 334.16968,220.03309 358.82868,235.22609 C 392.17368,255.76909 411.13668,317.57009 411.13668,317.57009 C 411.13668,317.57009 389.24268,314.88209 377.99168,331.03609 C 369.04368,343.8841 368.15168,373.50309 368.15168,373.50309 C 368.15168,373.50309 360.90068,344.50109 345.36368,339.32209 C 329.82768,334.14309 316.87968,339.84009 306.00368,343.46509 C 295.64568,334.14309 252.03368,291.74309 256.80468,266.29809 z" id="left_atrium" style="font-size:12px;fill:#fecefe;fill-opacity:1;fill-rule:evenodd;stroke-width:1pt"/>
  <path d="M 241.78568,360.03809 C 282.18068,385.4151 304.96768,425.29309 333.96968,464.65309 C 362.97268,504.01309 399.22468,559.9451 388.34868,569.7851 C 377.47368,579.62509 294.92468,575.2201 227.80168,552.1771 C 174.40668,533.8621 128.88368,488.47609 128.88368,488.47609 L 241.78568,360.03809 z" id="right_ventricle" style="font-size:12px;fill:#b2cefe;fill-opacity:1;fill-rule:evenodd;stroke-width:1.25"/>
  <path d="M 104.02468,246.10109 C 104.54268,261.63809 77.14168,370.4411 80.20168,399.39809 C 86.93468,463.6171 139.24168,505.04909 148.56368,510.22809 C 150.63568,503.49509 151.67168,470.86709 170.31568,462.06309 C 188.95968,453.25909 212.26468,466.20609 212.26468,466.20609 C 212.26468,466.20609 197.24668,447.04509 197.24668,429.95309 C 197.24668,412.86409 210.71068,399.9161 216.40768,394.21909 C 217.44368,380.23609 220.55068,336.73309 209.67468,305.65909 C 198.79968,274.58509 166.17268,236.77909 166.17268,236.77909 L 104.02468,246.10109 z" id="right_atrium" style="font-size:12px;fill:#b2cefe;fill-opacity:1;fill-rule:evenodd;stroke-width:1pt"/>
  <path d="M 183.7808,164.27396 C 150.6358,163.23796 65.3228,152.32896 47.5518,150.29296 C 41.1388,152.34496 35.3128,159.39496 35.0728,173.08596 C 34.8848,184.23496 41.6588,189.14796 47.5518,193.79996 C 47.5518,193.79996 151.1528,205.70496 182.7448,209.84796" id="pulmonary_artery_2" style="font-size:12px;fill:#feceb2;fill-opacity:1;fill-rule:evenodd;stroke:#000000;stroke-width:2.5"/>
  <path d="M 322.06468,348.67409 C 298.28568,308.30509 257.30268,293.03209 229.87368,223.31409 C 214.94468,184.63809 250.74268,129.0281 289.94968,157.02309 C 313.87968,174.48009 297.67368,215.80609 302.33468,213.73509 L 356.43368,209.1101 C 356.43368,203.93109 357.79268,195.86509 344.84568,143.55809 C 336.53368,110.64209 318.95068,107.8231 323.09368,91.768099 C 327.23668,75.713099 339.14868,60.695099 339.14868,60.695099 L 312.21868,39.979099 C 312.21868,39.979099 292.02068,88.143099 283.73368,87.107099 C 275.44768,86.071099 287.87768,38.943099 287.87768,38.943099 L 250.58868,35.836099 C 250.58868,35.836099 255.76868,85.036099 244.89268,92.805099 C 234.01668,100.5731 210.19368,43.604099 210.19368,43.604099 L 181.70868,60.695099 C 181.70868,60.695099 201.90668,84.517099 197.24568,106.2691 C 192.58468,128.0211 160.99368,148.73709 164.61868,223.31409 C 167.41168,280.36409 213.80168,320.49809 231.42768,343.4661 C 248.51768,365.21709 287.29468,410.66309 299.31668,404.64009 C 294.58568,380.73709 302.78768,354.28609 322.06468,348.67409 z" id="aorta" style="font-size:12px;fill:#feceb2;fill-opacity:1;fill-rule:evenodd;stroke:#000000;stroke-width:2.5"/>
  <path d="M 320.53658,342.82702 C 336.85365,355.97365 328.26666,370.00314 316.55431,385.87165 C 306.42162,399.60114 290.85426,399.02105 274.53846,385.87545 C 258.22392,372.73085 252.63485,357.08739 266.61135,339.74031 C 279.60859,323.60866 304.22331,329.68345 320.53658,342.82702 z" id="path592" style="font-size:12px;fill:#fea69a;fill-opacity:1;fill-rule:evenodd;stroke:#000000;stroke-width:2.50000095"/>
  <path d="M 96.77468,250.76209 C 102.47068,232.11809 92.40068,68.101099 92.40068,68.101099 C 92.40068,68.101099 98.61568,53.081099 123.99268,54.117099 C 149.36868,55.153099 154.03068,71.726099 154.03068,71.726099 L 167.20768,245.06509" id="superior_vena_cava" style="font-size:12px;fill:#feceb2;fill-opacity:1;fill-rule:evenodd;stroke:#000000;stroke-width:2.5"/>
  <ellipse cx="250.87192" cy="434.41135" rx="31.456482" ry="21.057648" transform="matrix(1.049425,-0.353733,0.378566,1.123099,-293.7296,-145.1324)" id="vena_cava_in_2" style="font-size:12px;fill:#fea69a;fill-opacity:1;fill-rule:evenodd;stroke:#000000;stroke-width:2.1821599"/>
  <path d="M 277.43968,245.81709 L 281.87968,227.57509 C 305.63668,215.67409 330.90568,216.34109 348.17568,222.49609 C 401.30968,242.16209 406.62268,298.71409 422.16368,312.87009 C 490.84768,376.93009 503.92468,565.0011 448.72468,588.2681 C 333.67768,636.4551 140.19368,553.12109 90.08468,470.15309 C 37.17468,383.75309 91.36468,327.36809 96.86868,248.84909 L 102.27268,270.3411 C 103.82068,353.80109 81.74168,332.53409 94.84768,413.71909 C 105.04068,452.30909 136.03468,497.27209 193.14168,522.20709 C 267.77368,555.7461 364.24868,570.9911 373.71468,559.3411 C 383.17968,547.69209 329.30068,505.4611 314.73768,471.24009 C 300.17568,437.01809 300.17568,423.9121 290.70968,413.71909 C 281.24468,403.52509 271.98568,388.02709 263.66668,380.74709 L 263.66868,366.08409 C 277.18768,380.64209 302.02568,411.76509 318.37868,422.4561 C 338.03668,434.83409 364.85168,464.31309 375.17068,487.98609 C 388.27668,516.3831 405.75168,548.4201 417.40168,538.9551 C 429.05168,529.4891 437.06068,488.71509 429.05168,450.85409 C 424.10368,428.36609 407.41068,411.79809 401.38168,372.94509 C 394.82968,332.89809 402.83968,316.15209 399.92668,305.23009 C 397.01468,294.30909 380.26768,253.53409 351.87068,238.97209 C 325.02568,226.58209 298.55468,235.6231 277.43968,245.81709 z" id="heart" style="font-size:12px;opacity:0.98999999;fill:#feceb2;fill-opacity:1;fill-rule:evenodd;stroke:#000000;stroke-width:2.5"/>
  <path d="M 273.89668,393.16795 C 260.34268,331.47795 268.71468,256.45796 296.16268,213.47396 C 323.61168,170.48796 428.74468,182.39996 428.74468,182.39996 L 428.74468,145.62896 C 409.06468,144.07596 351.99668,141.80196 315.32668,152.36196 C 269.59468,165.30396 250.58868,139.93196 232.98068,175.66696 C 221.36268,198.90196 229.35568,218.13496 224.17668,236.77896 C 218.99768,255.42296 204.49768,360.03795 210.19268,396.28995 C 230.45468,383.74195 252.12068,378.53596 273.89668,393.16795 z" id="pulmonary_artery_1" style="font-size:12px;fill:#feceb2;fill-opacity:1;fill-rule:evenodd;stroke:#000000;stroke-width:2.5"/>
  <ellipse cx="548.70959" cy="341.55151" rx="13.724213" ry="19.938919" transform="matrix(0.849057,0,0,0.935062,-35.32826,-155.0983)" id="path564" style="font-size:12px;fill:#fea69a;fill-opacity:1;fill-rule:evenodd;stroke:#000000;stroke-width:2.80576992"/>
  <path d="M 142.51379,488.78088 C 135.4577,480.92182 150.19821,461.83612 175.78979,466.9384 C 197.4345,470.76141 203.44035,483.54224 211.65557,502.45674 C 199.23996,491.97012 195.1683,482.26535 173.54829,480.96224 C 153.33682,480.19669 148.29048,494.46364 142.51379,488.78088 z" id="tricuspid_valve_1" style="font-size:12px;fill:#ffffff;fill-rule:evenodd;stroke:#000000;stroke-width:2.5;stroke-linejoin:round"/>
  <path d="M 208.09078,397.65755 C 198.69444,392.83436 185.32956,412.19722 200.49556,433.43293 C 212.87369,451.59584 226.99353,451.82044 247.61314,451.53933 C 232.95154,444.52835 220.34401,443.77806 210.27345,424.60235 C 201.27168,406.48999 216.95747,402.73592 208.09078,397.65755 z" id="tricuspid_valve_2" style="font-size:12px;fill:#ffffff;fill-rule:evenodd;stroke:#000000;stroke-width:2.50000095;stroke-linejoin:round"/>
  <path d="M 314.44707,330.36196 C 315.82901,319.89119 328.57255,326.40483 337.58972,341.99089 C 345.82269,355.96401 340.74347,375.16601 330.6455,393.14597 C 331.49096,376.91632 336.27695,363.03616 328.38218,348.97399 C 318.31958,331.42792 311.89448,345.81547 314.44707,330.36196 z" id="mitral_valve_1" style="font-size:12px;fill:#ffffff;fill-rule:evenodd;stroke:#000000;stroke-width:2.49999952;stroke-linejoin:round"/>
  <path d="M 399.96277,320.64241 C 397.30986,310.41963 384.21517,316.74139 377.3846,333.40482 C 368.62927,353.56552 378.48349,367.29647 389.53057,384.70941 C 387.81652,368.54839 378.03172,355.94629 388.8371,337.17445 C 394.71191,326.31082 402.34195,331.86524 399.96277,320.64241 z" id="mitral_valve_2" style="font-size:12px;fill:#ffffff;fill-rule:evenodd;stroke:#000000;stroke-width:2.50000215;stroke-linejoin:round"/>
  <path d="M 273.33913,387.63735 C 273.33913,408.58995 262.62821,410.19921 242.92312,411.03464 C 225.87476,411.75815 208.867,405.47042 208.867,384.51781 C 208.867,363.56681 218.0466,330.96501 240.32357,330.96501 C 261.0397,330.96501 273.33913,366.68635 273.33913,387.63735 z" id="path591" style="font-size:12px;fill:#fea69a;fill-opacity:1;fill-rule:evenodd;stroke:#000000;stroke-width:2.50000072"/>
  <path d="M 215.5873,373.28635 C 201.47326,395.40354 215.75479,407.37035 225.51085,401.71579 C 233.35766,396.74316 243.39151,376.74384 238.20471,360.62227 C 236.30006,370.60447 233.3188,378.30306 225.8142,379.41882 C 216.30495,381.34854 220.17539,366.12057 215.5873,373.28635 z" id="pulmonary_valve_1" style="font-size:12px;fill:#ffffff;fill-rule:evenodd;stroke:#000000;stroke-width:2.50000262;stroke-linejoin:round"/>
  <path d="M 271.48125,383.37226 C 276.07714,388.56775 277.17626,404.40177 262.09378,404.01098 C 252.81468,403.56113 238.03676,382.1755 240.40577,365.40661 C 243.98058,374.91936 247.44685,379.31001 257.00404,384.18973 C 265.78825,388.3119 265.95726,376.89973 271.48125,383.37226 z" id="pulmonary_valve_2" style="font-size:12px;fill:#ffffff;fill-rule:evenodd;stroke:#000000;stroke-width:2.50000262;stroke-linejoin:round"/>
  <path d="M 286.17536,381.67783 C 286.98652,403.75765 306.28391,404.13788 309.35023,393.28652 C 311.52083,384.2539 304.79943,362.91208 289.85199,354.95077 C 295.43462,363.4423 300.95272,373.21683 296.34251,379.24263 C 290.86004,387.24838 285.70342,373.1828 286.17536,381.67783 z" id="aortic_valve_1" style="font-size:12px;fill:#ffffff;fill-rule:evenodd;stroke:#000000;stroke-width:2.5000031;stroke-linejoin:round"/>
  <path d="M 320.39052,345.38967 C 329.08171,345.60261 337.5529,357.25679 325.56764,366.42126 C 318.06256,371.89648 297.08447,364.26187 288.40108,349.72203 C 297.15569,354.88236 300.05835,356.84306 310.56095,354.64141 C 319.98629,352.33537 311.89387,344.92514 320.39052,345.38967 z" id="aortic_valve_2" style="font-size:12px;fill:#ffffff;fill-rule:evenodd;stroke:#000000;stroke-width:2.50000286;stroke-linejoin:round"/>
  <ellipse cx="382.15723" cy="216.81569" rx="20.277725" ry="12.478638" transform="matrix(0.945601,7.752258e-2,-6.628828e-2,0.83062,-77.8154,-174.0802)" id="path597" style="font-size:12px;fill:#fea69a;fill-opacity:1;fill-rule:evenodd;stroke:#000000;stroke-width:2.81170011"/>
  <ellipse cx="382.15723" cy="216.81569" rx="20.277725" ry="12.478638" transform="matrix(0.732703,0.515286,-0.464454,0.626108,148.8872,-285.0745)" id="path598" style="font-size:12px;fill:#fea69a;fill-opacity:1;fill-rule:evenodd;stroke:#000000;stroke-width:2.99218011"/>
  <ellipse cx="382.15723" cy="216.81569" rx="20.277725" ry="12.478638" transform="matrix(0.740708,-0.430883,0.327749,0.711617,-159.03948,61.35079)" id="path599" style="font-size:12px;fill:#fea69a;fill-opacity:1;fill-rule:evenodd;stroke:#000000;stroke-width:3.05806994"/>
  <ellipse cx="571.41608" cy="405.03461" rx="15.078308" ry="25.477158" transform="matrix(1,0,0,0.969388,-119.73647,-164.3603)" id="path602" style="font-size:12px;fill:#fea69a;fill-opacity:1;fill-rule:evenodd;stroke:#000000;stroke-width:2.53917003"/>
  <ellipse cx="571.41608" cy="405.03461" rx="15.078308" ry="25.477158" transform="matrix(1,0,0,0.969388,-100.61092,-110.6071)" id="path603" style="font-size:12px;fill:#fea69a;fill-opacity:1;fill-rule:evenodd;stroke:#000000;stroke-width:2.53917003"/>
  <path d="M 377.13965,305.51118 C 362.64471,338.39232 368.05247,360.23344 369.81615,382.66034 L 381.70606,381.19762 L 383.23059,440.27724 L 346.79681,389.7375 L 360.12884,384.43479 C 351.46786,362.42071 345.30069,339.94985 326.13055,319.86076 L 377.13965,305.51118 z" id="path3513" style="fill:#fe0202;fill-opacity:1;fill-rule:evenodd;stroke:#000000;stroke-width:1px;stroke-linecap:butt;stroke-linejoin:miter;stroke-opacity:1"/>
  <path d="M 171.96326,410.1176 L 139.93681,455.74687 C 164.94525,453.4003 191.04625,462.11521 217.72059,476.63504 L 212.59156,486.35301 L 269.85516,498.65146 L 231.56538,457.15708 L 224.2259,466.625 C 208.25988,456.9041 194.62744,451.40227 171.96326,410.1176 z" id="path3515" style="fill:#0202fe;fill-opacity:1;fill-rule:evenodd;stroke:#000000;stroke-width:1px;stroke-linecap:butt;stroke-linejoin:miter;stroke-opacity:1"/>
</svg>