<?xml version="1.0" encoding="UTF-8" standalone="no"?>
<svg
   xmlns:dc="http://purl.org/dc/elements/1.1/"
   xmlns:cc="http://creativecommons.org/ns#"
   xmlns:rdf="http://www.w3.org/1999/02/22-rdf-syntax-ns#"
   xmlns:svg="http://www.w3.org/2000/svg"
   xmlns="http://www.w3.org/2000/svg"
   xml:space="preserve"
   id="svg2"
   viewBox="0 0 1098.4271 840.81596"
   height="840.81598"
   width="1098.4271"
   version="1.1"><metadata
     id="metadata227"><rdf:RDF><cc:Work
         rdf:about=""><dc:format>image/svg+xml</dc:format><dc:type
           rdf:resource="http://purl.org/dc/dcmitype/StillImage" /><dc:title></dc:title></cc:Work></rdf:RDF></metadata><defs
     id="defs225" /><rect
     style="fill:#ffffff;stroke:none"
     id="rect17"
     y="0"
     x="-1.2217073e-05"
     height="840.81598"
     width="1098.4271" /><line
     stroke-miterlimit="10"
     x1="257.46198"
     y1="210.62201"
     x2="257.46198"
     y2="821.37805"
     id="line19"
     style="fill:none;stroke:#000000;stroke-width:1;stroke-miterlimit:10" /><line
     stroke-miterlimit="10"
     x1="276.05997"
     y1="210.62201"
     x2="276.05997"
     y2="747.78998"
     id="line29"
     style="fill:none;stroke:#000000;stroke-width:1;stroke-miterlimit:10;stroke-dasharray:6.0018, 6.00180000000000025" /><line
     stroke-miterlimit="10"
     x1="391.37198"
     y1="210.62201"
     x2="391.37198"
     y2="821.37805"
     id="line21"
     style="fill:none;stroke:#000000;stroke-width:1;stroke-miterlimit:10" /><line
     stroke-miterlimit="10"
     x1="409.96997"
     y1="210.62201"
     x2="409.96997"
     y2="747.78998"
     id="line39"
     style="fill:none;stroke:#000000;stroke-width:1;stroke-miterlimit:10;stroke-dasharray:6.0018, 6.00180000000000025" /><line
     stroke-miterlimit="10"
     x1="484.36395"
     y1="210.62201"
     x2="484.36395"
     y2="747.78998"
     id="line49"
     style="fill:none;stroke:#000000;stroke-width:1;stroke-miterlimit:10;stroke-dasharray:6.0018, 6.00180000000000025" /><line
     stroke-miterlimit="10"
     x1="560.61798"
     y1="210.62201"
     x2="560.61798"
     y2="747.78998"
     id="line59"
     style="fill:none;stroke:#000000;stroke-width:1;stroke-miterlimit:10;stroke-dasharray:6.0018, 6.00180000000000025" /><line
     stroke-miterlimit="10"
     x1="634.74799"
     y1="210.62201"
     x2="634.74799"
     y2="821.37805"
     id="line63"
     style="fill:none;stroke:#000000;stroke-width:1;stroke-miterlimit:10" /><line
     stroke-miterlimit="10"
     x1="653.34796"
     y1="210.62201"
     x2="653.34796"
     y2="747.78998"
     id="line73"
     style="fill:none;stroke:#000000;stroke-width:1;stroke-miterlimit:10;stroke-dasharray:6.0018, 6.00180000000000025" /><line
     stroke-miterlimit="10"
     x1="768.65796"
     y1="210.62201"
     x2="768.65796"
     y2="821.37805"
     id="line65"
     style="fill:none;stroke:#000000;stroke-width:1;stroke-miterlimit:10" /><line
     stroke-miterlimit="10"
     x1="787.25598"
     y1="210.62201"
     x2="787.25598"
     y2="747.78998"
     id="line83"
     style="fill:none;stroke:#000000;stroke-width:1;stroke-miterlimit:10;stroke-dasharray:6.0018, 6.00180000000000025" /><path
     style="fill:none;stroke:#808080;stroke-width:3;stroke-miterlimit:10"
     id="path89"
     d="m 842.33797,262.864 c -26.616,-6.758 -47.618,-13.22 -54.48,-17.098 -11.31,-6.394 -11.124,12.36 -19.776,11.742 -8.652,-0.618 -32.906,-39.732 -56.238,-37.08 -27.194,3.09 -44.498,66.126 -56.858,70.454 -9.95,3.482 -58.39,-1.65 -96.092,-8.284 -37.702,-6.634 -134.11,-28.798 -148.324,-36.832 -11.312,-6.394 -11.124,12.36 -19.776,11.742 -8.652,-0.618 -32.904,-39.732 -56.238,-37.08 -27.192,3.09 -44.498,66.126 -56.856,70.454 -12.358,4.328 -84.826,-3.772 -120.67,-14.278" /><path
     style="fill:none;stroke:#808080;stroke-width:3;stroke-miterlimit:10"
     id="path91"
     d="m 842.33797,419.006 c -8.766,-0.108 -16.498,-0.198 -22.344,-0.198 -24.104,0 -31.518,-9.888 -35.226,-9.888 -5.56,0 -66.744,15.452 -90.228,15.452 -27.368,0 -32.136,-13.596 -39.552,-13.596 -8.034,0 -12.362,14.028 -20.238,14.028 -10.044,0 -16.224,-20.826 -37.856,-20.826 -15.138,0 -25.122,11.854 -44.152,14.004 -19.03,2.15 -85.606,0.828 -110.034,0.828 -24.102,0 -31.518,-9.888 -35.226,-9.888 -5.562,0 -66.746,15.452 -90.23,15.452 -27.368,0 -32.136,-13.596 -39.552,-13.596 -8.034,0 -12.36,14.028 -20.238,14.028 -10.044,0 -16.224,-20.826 -37.856,-20.826 -18.31,0 -40.946,18.362 -62.576,12.798" /><path
     style="fill:none;stroke:#0000ff;stroke-width:3;stroke-miterlimit:10"
     id="path93"
     d="m 842.33797,432.988 c -32.566,-0.228 -48.238,-4.746 -52.626,-12.326 -13.488,-23.3 -7.064,-117.176 -15.472,-149.298 -4.922,-18.8 -34.346,-66.154 -70.43,-55.88 -64.85,18.462 -62.418,207.032 -69.06,209.32 -8.884,3.06 -14.372,-13.95 -28.584,-13.95 -25.34,0 -38.86,15.898 -71.528,16.738 -32.668,0.84 -115.414,4.812 -122.212,-6.93 -13.49,-23.3 -7.066,-117.176 -15.474,-149.298 -4.92,-18.8 -34.346,-66.154 -70.43,-55.88 -64.85,18.462 -62.418,207.032 -69.06,209.32 -8.886,3.06 -14.372,-13.95 -28.584,-13.95 -25.338,0 -40.17,16.738 -71.846,16.738" /><path
     style="fill:none;stroke:#ff0000;stroke-width:3;stroke-miterlimit:10"
     id="path97"
     d="m 842.33797,532.486 c -8.206,2.704 -16.012,6.172 -22.958,10.682 -16.922,10.988 -24.106,54.192 -35.23,54.192 -54.036,0 -67.708,-9.688 -94.554,-45.116 -18.356,-24.22 -31.658,-52.266 -37.7,-55.622 -5.56,-3.09 -12.36,0.62 -23.484,0 -11.124,-0.62 -19.776,-4.326 -32.134,-1.854 -12.358,2.472 -30.618,21.738 -38.62,24.72 -12.914,4.812 -77.296,-1.168 -115.564,23.678 -16.924,10.988 -24.106,54.192 -35.23,54.192 -54.038,0 -67.708,-9.688 -94.554,-45.116 -18.356,-24.22 -31.66,-52.266 -37.7,-55.622 -5.562,-3.09 -12.36,0.62 -23.484,0 -11.124,-0.62 -19.776,-4.326 -32.136,-1.854 -12.36,2.472 -29.198,21.724 -37.082,24.72 -7.884,2.996 -19.204,3.622 -24.878,3.668" /><path
     style="fill:none;stroke:#000080;stroke-width:3;stroke-miterlimit:10"
     id="path95"
     d="m 842.33797,633.82 c -27.382,0 -53.19,0 -56.334,0 -6.796,0 -31.148,-18.54 -45.116,-18.54 -15.118,0 -40.788,18.54 -47.586,18.54 -4.326,0 -35.226,0 -38.316,0 -4.22,0 -6.81,38.936 -9.99,38.936 -4.326,0 -2.238,-75.396 -9.066,-75.396 -4.358,0 -10.244,50.058 -12.6,50.058 -2.236,0 -5.298,-13.598 -9.132,-13.598 -2.47,0 -25.956,0 -32.756,0 -6.796,0 -13.542,-12.976 -22.708,-12.976 -9.166,0 -18.12,12.976 -24.918,12.976 -5.562,0 -118.302,0 -125.1,0 -6.798,0 -31.15,-18.54 -45.116,-18.54 -15.118,0 -40.788,18.54 -47.586,18.54 -4.326,0 -35.226,0 -38.316,0 -4.22,0 -6.812,38.936 -9.99,38.936 -4.326,0 -2.238,-75.396 -9.066,-75.396 -4.358,0 -10.244,50.058 -12.6,50.058 -2.238,0 -5.298,-13.598 -9.132,-13.598 -2.472,0 -25.956,0 -32.754,0 -6.798,0 -12.146,-12.976 -22.776,-12.976 -10.63,0 -16.668,12.976 -23.466,12.976 -0.242,0 -0.368,0 -0.456,0 -0.102,0 -0.144,0 -0.128,0 -0.068,0 -0.16,0 -0.298,0" /><path
     style="fill:none;stroke:#808080;stroke-width:3;stroke-miterlimit:10;stroke-opacity:1"
     id="path87"
     d="m 842.33797,711.682 h -4.018 c 0,0 -29.188,0 -32.738,0 -2.39,0 -3.008,-1.936 -4.602,-1.936 -1.656,0 -2.652,4.244 -4.242,4.244 -1.682,0 -2.3,-6.456 -3.802,-6.456 -1.946,0 -2.366,10.636 -3.868,10.636 -1.49,0 -1.084,-12.936 -3.032,-12.936 -1.68,0 -1.15,15.924 -2.918,15.924 -1.768,0 -1.06,-25.12 -3.272,-25.12 -2.122,0 -1.592,31.282 -3.624,31.282 -1.946,0 -2.124,-39.812 -3.714,-39.812 -1.68,0 -2.21,24.172 -3.89,24.172 -2.372,0 -93.31,0 -96.864,0 -2.388,0 -3.008,-1.936 -4.6,-1.936 -1.658,0 -2.654,4.244 -4.244,4.244 -1.682,0 -2.3,-6.456 -3.802,-6.456 -1.946,0 -2.366,10.636 -3.868,10.636 -1.49,0 -1.084,-12.936 -3.032,-12.936 -1.68,0 -1.15,15.924 -2.918,15.924 -1.768,0 -1.06,-25.12 -3.272,-25.12 -2.122,0 -1.592,31.282 -3.624,31.282 -1.946,0 -2.124,-39.812 -3.714,-39.812 -1.68,0 -2.21,23.902 -3.89,23.902 -2.372,0 -135.666,0 -139.218,0 -3.404,0 -4.334,2.108 -5.926,2.108 -1.68,0 -1.812,-5.892 -3.314,-5.892 -1.946,0 -2.366,9.708 -3.868,9.708 -1.492,0 -1.338,-11.806 -3.284,-11.806 -1.68,0 -1.51,6.152 -3.278,6.152 h -14.612 c 0,0 -29.188,0 -32.74,0 -2.388,0 -3.006,-1.936 -4.6,-1.936 -1.658,0 -2.652,4.244 -4.244,4.244 -1.68,0 -2.298,-6.456 -3.802,-6.456 -1.946,0 -2.364,10.636 -3.868,10.636 -1.49,0 -1.084,-12.936 -3.032,-12.936 -1.68,0 -1.15,15.924 -2.918,15.924 -1.768,0 -1.06,-25.12 -3.272,-25.12 -2.122,0 -1.592,31.282 -3.626,31.282 -1.946,0 -2.122,-39.812 -3.714,-39.812 -1.68,0 -2.21,24.172 -3.892,24.172 -2.37,0 -93.31,0 -96.864,0 -2.388,0 -3.006,-1.936 -4.598,-1.936 -1.658,0 -2.654,4.244 -4.246,4.244 -1.68,0 -2.298,-6.456 -3.802,-6.456 -1.946,0 -2.364,10.636 -3.868,10.636 -1.49,0 -1.084,-12.936 -3.032,-12.936 -1.68,0 -1.15,15.924 -2.918,15.924 -1.768,0 -1.06,-25.12 -3.272,-25.12 -2.122,0 -1.592,31.282 -3.626,31.282 -1.946,0 -2.122,-39.812 -3.714,-39.812 -1.68,0 -2.21,23.902 -3.892,23.902 -2.37,0 -96.828,0 -101.094,0" /><text
     style="font-size:19.99980736px;font-family:'Linux Biolinum O';-inkscape-font-specification:'Linux Biolinum O';font-weight:normal;font-style:normal;font-stretch:normal;font-variant:normal;"
     id="text99"
     transform="matrix(0.70710678,-0.70710678,0.70710678,0.70710678,0,0)"
     y="322.5506"
     x="53.659077">Isovolumic contraction</text>
<text
     style="font-size:19.99980736px;font-family:'Linux Biolinum O';-inkscape-font-specification:'Linux Biolinum O';font-weight:normal;font-style:normal;font-stretch:normal;font-variant:normal;"
     id="text103"
     transform="matrix(0.70710678,-0.70710678,0.70710678,0.70710678,0,0)"
     y="369.44489"
     x="100.55453">Ejection</text>
<text
     style="font-size:19.99980736px;font-family:'Linux Biolinum O';-inkscape-font-specification:'Linux Biolinum O';font-weight:normal;font-style:normal;font-stretch:normal;font-variant:normal;"
     id="text101"
     transform="matrix(0.70710678,-0.70710678,0.70710678,0.70710678,0,0)"
     y="416.90179"
     x="148.01144">Isovolumic relaxation</text>
<text
     style="font-size:19.99980736px;font-family:'Linux Biolinum O';-inkscape-font-specification:'Linux Biolinum O';font-weight:normal;font-style:normal;font-stretch:normal;font-variant:normal;"
     id="text201"
     transform="matrix(0.70710678,-0.70710678,0.70710678,0.70710678,0,0)"
     y="454.14032"
     x="185.25137">Rapid inflow</text>
<text
     style="font-size:19.99980736px;font-family:'Linux Biolinum O';-inkscape-font-specification:'Linux Biolinum O';font-weight:normal;font-style:normal;font-stretch:normal;font-variant:normal;"
     id="text199"
     transform="matrix(0.70710678,-0.70710678,0.70710678,0.70710678,0,0)"
     y="504.73633"
     x="235.84599">Diastasis</text>
<text
     style="font-size:19.99980736px;font-family:'Linux Biolinum O';-inkscape-font-specification:'Linux Biolinum O';font-weight:normal;font-style:normal;font-stretch:normal;font-variant:normal;"
     id="text109"
     transform="matrix(0.70710678,-0.70710678,0.70710678,0.70710678,0,0)"
     y="557.2312"
     x="288.34244">Atrial systole</text>
<text
     style="font-size:20px;font-family:'Linux Biolinum O';-inkscape-font-specification:'Linux Biolinum O';font-weight:normal;font-style:normal;font-stretch:normal;font-variant:normal;"
     id="text151"
     y="267.53058"
     x="858.67676">Aortic pressure</text>
<text
     style="font-size:20px;font-family:'Linux Biolinum O';-inkscape-font-specification:'Linux Biolinum O';font-weight:normal;font-style:normal;font-stretch:normal;font-variant:normal;"
     id="text177"
     y="413.54138"
     x="858.67676">Atrial pressure</text>
<text
     style="font-size:20px;fill:#0000ff;font-family:'Linux Biolinum O';-inkscape-font-specification:'Linux Biolinum O';font-weight:normal;font-style:normal;font-stretch:normal;font-variant:normal;"
     id="text179"
     y="449.32739"
     x="858.67676">Ventricular pressure</text>
<text
     style="font-size:20px;fill:#ff0000;stroke:none;font-family:'Linux Biolinum O';-inkscape-font-specification:'Linux Biolinum O';font-weight:normal;font-style:normal;font-stretch:normal;font-variant:normal;"
     id="text181"
     y="540.49341"
     x="858.67676">Ventricular volume</text>
<text
     style="font-size:20px;fill:#000080;font-family:'Linux Biolinum O';-inkscape-font-specification:'Linux Biolinum O';font-weight:normal;font-style:normal;font-stretch:normal;font-variant:normal;"
     id="text185"
     y="638.97003"
     x="858.67676">Electrocardiogram</text>
<text
     style="font-size:20px;font-family:'Linux Biolinum O';-inkscape-font-specification:'Linux Biolinum O';font-weight:normal;font-style:normal;font-stretch:normal;font-variant:normal;"
     id="text183"
     y="717.82941"
     x="858.67676">Phonocardiogram</text>
<text
     style="font-size:28px;font-style:normal;text-align:start;letter-spacing:0px;word-spacing:0px;writing-mode:lr-tb;text-anchor:start;fill:#000000;stroke:none;font-family:'Linux Biolinum O';-inkscape-font-specification:'Linux Biolinum O';font-weight:normal;font-stretch:normal;font-variant:normal;"
     xml:space="preserve"
     id="text4264"
     y="784.15979"
     x="323.47906"><tspan
       style="font-size:20px;font-style:normal;text-align:center;text-anchor:middle;font-family:'Linux Biolinum O';-inkscape-font-specification:'Linux Biolinum O';font-weight:normal;font-stretch:normal;font-variant:normal;"
       id="tspan4266"
       y="784.15979"
       x="323.47906">Systole</tspan></text>
<text
     style="font-size:28px;font-style:normal;text-align:start;letter-spacing:0px;word-spacing:0px;writing-mode:lr-tb;text-anchor:start;fill:#000000;stroke:none;font-family:'Linux Biolinum O';-inkscape-font-specification:'Linux Biolinum O';font-weight:normal;font-stretch:normal;font-variant:normal;"
     xml:space="preserve"
     id="text4272"
     y="783.9198"
     x="516.46539"><tspan
       style="font-size:20px;font-style:normal;text-align:center;text-anchor:middle;font-family:'Linux Biolinum O';-inkscape-font-specification:'Linux Biolinum O';font-weight:normal;font-stretch:normal;font-variant:normal;"
       id="tspan4274"
       y="783.9198"
       x="516.46539">Diastole</tspan></text>
<text
     style="font-size:28px;font-style:normal;text-align:start;letter-spacing:0px;word-spacing:0px;writing-mode:lr-tb;text-anchor:start;fill:#000000;stroke:none;font-family:'Linux Biolinum O';-inkscape-font-specification:'Linux Biolinum O';font-weight:normal;font-stretch:normal;font-variant:normal;"
     xml:space="preserve"
     id="text4268"
     y="784.15979"
     x="704.58289"><tspan
       style="font-size:20px;font-style:normal;text-align:center;text-anchor:middle;font-family:'Linux Biolinum O';-inkscape-font-specification:'Linux Biolinum O';font-weight:normal;font-stretch:normal;font-variant:normal;"
       id="tspan4270"
       y="784.15979"
       x="704.58289">Systole</tspan></text>
<text
     style="font-size:20px;font-family:'Linux Biolinum O';-inkscape-font-specification:'Linux Biolinum O';font-weight:normal;font-style:normal;font-stretch:normal;font-variant:normal;"
     id="text115"
     y="695.12042"
     x="285.15237">1st</text>
<text
     style="font-size:20px;font-family:'Linux Biolinum O';-inkscape-font-specification:'Linux Biolinum O';font-weight:normal;font-style:normal;font-stretch:normal;font-variant:normal;"
     id="text117"
     y="695.12042"
     x="416.71478">2nd</text>
<text
     style="font-size:20px;font-family:'Linux Biolinum O';-inkscape-font-specification:'Linux Biolinum O';font-weight:normal;font-style:normal;font-stretch:normal;font-variant:normal;"
     id="text119"
     y="695.12042"
     x="490.0752">3rd</text>
<text
     style="font-size:20px;font-family:'Linux Biolinum O';-inkscape-font-specification:'Linux Biolinum O';font-weight:normal;font-style:normal;font-stretch:normal;font-variant:normal;"
     id="text113"
     y="615.09296"
     x="537.97156">P</text>
<text
     style="font-size:20px;font-family:'Linux Biolinum O';-inkscape-font-specification:'Linux Biolinum O';font-weight:normal;font-style:normal;font-stretch:normal;font-variant:normal;"
     id="text121"
     y="591.44861"
     x="613.20801">R</text>
<text
     style="font-size:20px;font-family:'Linux Biolinum O';-inkscape-font-specification:'Linux Biolinum O';font-weight:normal;font-style:normal;font-stretch:normal;font-variant:normal;"
     id="text123"
     y="641.16339"
     x="735.5752">T</text>
<text
     style="font-size:20px;font-family:'Linux Biolinum O';-inkscape-font-specification:'Linux Biolinum O';font-weight:normal;font-style:normal;font-stretch:normal;font-variant:normal;"
     id="text127"
     y="669.65936"
     x="606.58301">Q</text>
<text
     style="font-size:20px;font-family:'Linux Biolinum O';-inkscape-font-specification:'Linux Biolinum O';font-weight:normal;font-style:normal;font-stretch:normal;font-variant:normal;"
     id="text125"
     y="680.57355"
     x="655.59076">S</text>
<text
     style="font-size:20px;font-family:'Linux Biolinum O';-inkscape-font-specification:'Linux Biolinum O';font-weight:normal;font-style:normal;font-stretch:normal;font-variant:normal;"
     id="text111"
     y="398.24341"
     x="592.43457">a</text>
<text
     style="font-size:20px;font-family:'Linux Biolinum O';-inkscape-font-specification:'Linux Biolinum O';font-weight:normal;font-style:normal;font-stretch:normal;font-variant:normal;"
     id="text129"
     y="398.24341"
     x="661.50476">c</text>
<text
     style="font-size:20px;font-family:'Linux Biolinum O';-inkscape-font-specification:'Linux Biolinum O';font-weight:normal;font-style:normal;font-stretch:normal;font-variant:normal;"
     id="text131"
     y="398.24341"
     x="752.44818">v</text>
<text
     style="font-size:28px;font-style:normal;text-align:start;letter-spacing:0px;word-spacing:0px;writing-mode:lr-tb;text-anchor:start;fill:#000000;stroke:none;font-family:'Linux Biolinum O';-inkscape-font-specification:'Linux Biolinum O';font-weight:normal;font-stretch:normal;font-variant:normal;"
     xml:space="preserve"
     id="text4318"
     transform="matrix(0,-1,1,0,0,0)"
     y="47.61171"
     x="-326.94342"><tspan
       style="font-size:20px;font-style:normal;text-align:center;text-anchor:middle;font-family:'Linux Biolinum O';-inkscape-font-specification:'Linux Biolinum O';font-weight:normal;font-stretch:normal;font-variant:normal;"
       id="tspan4320"
       y="47.61171"
       x="-326.94342">Pressure (mmHg)</tspan></text>
<text
     style="font-size:20px;font-style:normal;text-align:end;writing-mode:lr-tb;text-anchor:end;fill:#000000;font-family:'Linux Biolinum O';-inkscape-font-specification:'Linux Biolinum O';font-weight:normal;font-stretch:normal;font-variant:normal;"
     id="text155"
     y="232.9856"
     x="104.92378"><tspan
       style="text-align:end;writing-mode:lr-tb;text-anchor:end;-inkscape-font-specification:'Linux Biolinum O';font-family:'Linux Biolinum O';font-weight:normal;font-style:normal;font-stretch:normal;font-variant:normal;"
       id="tspan4195">120</tspan></text>
<text
     style="font-size:20px;font-style:normal;text-align:end;writing-mode:lr-tb;text-anchor:end;fill:#000000;font-family:'Linux Biolinum O';-inkscape-font-specification:'Linux Biolinum O';font-weight:normal;font-stretch:normal;font-variant:normal;"
     id="text157"
     y="266.00421"
     x="104.92378"><tspan
       style="text-align:end;writing-mode:lr-tb;text-anchor:end;-inkscape-font-specification:'Linux Biolinum O';font-family:'Linux Biolinum O';font-weight:normal;font-style:normal;font-stretch:normal;font-variant:normal;"
       id="tspan3094">100</tspan></text>
<text
     style="font-size:20px;font-style:normal;text-align:end;writing-mode:lr-tb;text-anchor:end;fill:#000000;font-family:'Linux Biolinum O';-inkscape-font-specification:'Linux Biolinum O';font-weight:normal;font-stretch:normal;font-variant:normal;"
     id="text159"
     y="299.02277"
     x="104.92378"><tspan
       style="text-align:end;writing-mode:lr-tb;text-anchor:end;-inkscape-font-specification:'Linux Biolinum O';font-family:'Linux Biolinum O';font-weight:normal;font-style:normal;font-stretch:normal;font-variant:normal;"
       id="tspan3096">80</tspan></text>
<text
     style="font-size:20px;font-style:normal;text-align:end;writing-mode:lr-tb;text-anchor:end;fill:#000000;font-family:'Linux Biolinum O';-inkscape-font-specification:'Linux Biolinum O';font-weight:normal;font-stretch:normal;font-variant:normal;"
     id="text161"
     y="332.04138"
     x="104.92378"><tspan
       style="text-align:end;writing-mode:lr-tb;text-anchor:end;-inkscape-font-specification:'Linux Biolinum O';font-family:'Linux Biolinum O';font-weight:normal;font-style:normal;font-stretch:normal;font-variant:normal;"
       id="tspan3098">60</tspan></text>
<text
     style="font-size:20px;font-style:normal;text-align:end;writing-mode:lr-tb;text-anchor:end;fill:#000000;font-family:'Linux Biolinum O';-inkscape-font-specification:'Linux Biolinum O';font-weight:normal;font-stretch:normal;font-variant:normal;"
     id="text163"
     y="365.05981"
     x="104.92378"><tspan
       style="text-align:end;writing-mode:lr-tb;text-anchor:end;-inkscape-font-specification:'Linux Biolinum O';font-family:'Linux Biolinum O';font-weight:normal;font-style:normal;font-stretch:normal;font-variant:normal;"
       id="tspan3100">40</tspan></text>
<text
     style="font-size:20px;font-style:normal;text-align:end;writing-mode:lr-tb;text-anchor:end;fill:#000000;font-family:'Linux Biolinum O';-inkscape-font-specification:'Linux Biolinum O';font-weight:normal;font-stretch:normal;font-variant:normal;"
     id="text165"
     y="398.08038"
     x="104.92378"><tspan
       style="text-align:end;writing-mode:lr-tb;text-anchor:end;-inkscape-font-specification:'Linux Biolinum O';font-family:'Linux Biolinum O';font-weight:normal;font-style:normal;font-stretch:normal;font-variant:normal;"
       id="tspan3102">20</tspan></text>
<text
     style="font-size:20px;font-style:normal;text-align:end;writing-mode:lr-tb;text-anchor:end;fill:#000000;font-family:'Linux Biolinum O';-inkscape-font-specification:'Linux Biolinum O';font-weight:normal;font-stretch:normal;font-variant:normal;"
     id="text167"
     y="431.099"
     x="104.92378"><tspan
       style="text-align:end;writing-mode:lr-tb;text-anchor:end;-inkscape-font-specification:'Linux Biolinum O';font-family:'Linux Biolinum O';font-weight:normal;font-style:normal;font-stretch:normal;font-variant:normal;"
       id="tspan3104">0</tspan></text>
<text
     style="font-size:28px;font-style:normal;text-align:start;letter-spacing:0px;word-spacing:0px;writing-mode:lr-tb;text-anchor:start;fill:#000000;stroke:none;font-family:'Linux Biolinum O';-inkscape-font-specification:'Linux Biolinum O';font-weight:normal;font-stretch:normal;font-variant:normal;"
     xml:space="preserve"
     id="text4314"
     transform="matrix(0,-1,1,0,0,0)"
     y="47.731705"
     x="-545.11066"><tspan
       style="font-size:20px;font-style:normal;text-align:center;text-anchor:middle;font-family:'Linux Biolinum O';-inkscape-font-specification:'Linux Biolinum O';font-weight:normal;font-stretch:normal;font-variant:normal;"
       id="tspan4316"
       y="47.731705"
       x="-545.11066">Volume (mL)</tspan></text>
<text
     style="font-size:20px;font-style:normal;text-align:end;writing-mode:lr-tb;text-anchor:end;fill:#000000;font-family:'Linux Biolinum O';-inkscape-font-specification:'Linux Biolinum O';font-weight:normal;font-stretch:normal;font-variant:normal;"
     id="text171"
     y="504.22577"
     x="104.92378"><tspan
       style="text-align:end;writing-mode:lr-tb;text-anchor:end;-inkscape-font-specification:'Linux Biolinum O';font-family:'Linux Biolinum O';font-weight:normal;font-style:normal;font-stretch:normal;font-variant:normal;"
       id="tspan3106">130</tspan></text>
<text
     style="font-size:20px;font-style:normal;text-align:end;writing-mode:lr-tb;text-anchor:end;fill:#000000;font-family:'Linux Biolinum O';-inkscape-font-specification:'Linux Biolinum O';font-weight:normal;font-stretch:normal;font-variant:normal;"
     id="text173"
     y="554.08521"
     x="104.92378"><tspan
       style="text-align:end;writing-mode:lr-tb;text-anchor:end;-inkscape-font-specification:'Linux Biolinum O';font-family:'Linux Biolinum O';font-weight:normal;font-style:normal;font-stretch:normal;font-variant:normal;"
       id="tspan3108">90</tspan></text>
<text
     style="font-size:20px;font-style:normal;text-align:end;writing-mode:lr-tb;text-anchor:end;fill:#000000;font-family:'Linux Biolinum O';-inkscape-font-specification:'Linux Biolinum O';font-weight:normal;font-stretch:normal;font-variant:normal;"
     id="text175"
     y="603.9408"
     x="104.92378"><tspan
       style="text-align:end;writing-mode:lr-tb;text-anchor:end;-inkscape-font-specification:'Linux Biolinum O';font-family:'Linux Biolinum O';font-weight:normal;font-style:normal;font-stretch:normal;font-variant:normal;"
       id="tspan3110">50</tspan></text>
<g
     style=""
     id="g3467"><line
       stroke-miterlimit="10"
       x1="108.05998"
       y1="258.90198"
       x2="117.13397"
       y2="258.90198"
       id="line205"
       style="fill:none;stroke:#000000;stroke-width:1;stroke-miterlimit:10" /><line
       stroke-miterlimit="10"
       x1="108.05998"
       y1="291.89801"
       x2="117.13397"
       y2="291.89801"
       id="line207"
       style="fill:none;stroke:#000000;stroke-width:1;stroke-miterlimit:10" /><line
       stroke-miterlimit="10"
       x1="108.05998"
       y1="324.89197"
       x2="117.13397"
       y2="324.89197"
       id="line209"
       style="fill:none;stroke:#000000;stroke-width:1;stroke-miterlimit:10" /><line
       stroke-miterlimit="10"
       x1="108.05998"
       y1="357.888"
       x2="117.13397"
       y2="357.888"
       id="line211"
       style="fill:none;stroke:#000000;stroke-width:1;stroke-miterlimit:10" /><line
       stroke-miterlimit="10"
       x1="108.05998"
       y1="390.88397"
       x2="117.13397"
       y2="390.88397"
       id="line213"
       style="fill:none;stroke:#000000;stroke-width:1;stroke-miterlimit:10" /><polyline
       stroke-miterlimit="10"
       points="92.885,416.975 97.422,416.975 97.422,317.989 92.885,317.989 "
       id="polyline215"
       style="fill:none;stroke:#000000;stroke-width:0.5;stroke-miterlimit:10"
       transform="matrix(2,0,0,2,-77.710025,-410.07)" /></g><g
     style=""
     id="g3463"><line
       stroke-miterlimit="10"
       x1="108.05998"
       y1="546.67999"
       x2="117.13397"
       y2="546.67999"
       id="line219"
       style="fill:none;stroke:#000000;stroke-width:1;stroke-miterlimit:10" /><polyline
       stroke-miterlimit="10"
       points="92.885,503.329 97.422,503.329 97.422,453.423 92.885,453.423 "
       id="polyline221"
       style="fill:none;stroke:#000000;stroke-width:0.5;stroke-miterlimit:10"
       transform="matrix(2,0,0,2,-77.710025,-410.07)" /></g><text
     style="font-size:28px;font-style:normal;text-align:start;letter-spacing:0px;word-spacing:0px;writing-mode:lr-tb;text-anchor:start;fill:#000000;stroke:none;font-family:'Linux Biolinum O';-inkscape-font-specification:'Linux Biolinum O';font-weight:normal;font-stretch:normal;font-variant:normal;"
     xml:space="preserve"
     id="text3118"
     y="224.61147"
     x="248.0242"><tspan
       style="font-size:16px;font-style:normal;text-align:end;writing-mode:lr-tb;text-anchor:end;fill:#808080;font-family:'Linux Biolinum O';-inkscape-font-specification:'Linux Biolinum O';font-weight:normal;font-stretch:normal;font-variant:normal;"
       id="tspan3120"
       y="224.61147"
       x="248.0242">Aortic valve</tspan><tspan
       style="font-size:16px;font-style:normal;text-align:end;writing-mode:lr-tb;text-anchor:end;fill:#808080;font-family:'Linux Biolinum O';-inkscape-font-specification:'Linux Biolinum O';font-weight:normal;font-stretch:normal;font-variant:normal;"
       id="tspan3122"
       y="244.61145"
       x="248.0242">opens</tspan></text>
<text
     style="font-size:28px;font-style:normal;text-align:start;letter-spacing:0px;word-spacing:0px;writing-mode:lr-tb;text-anchor:start;fill:#000000;stroke:none;font-family:'Linux Biolinum O';-inkscape-font-specification:'Linux Biolinum O';font-weight:normal;font-stretch:normal;font-variant:normal;"
     xml:space="preserve"
     id="text3904"
     y="292.93198"
     x="430.00705"><tspan
       style="font-size:16px;font-style:normal;text-align:start;writing-mode:lr-tb;text-anchor:start;fill:#808080;font-family:'Linux Biolinum O';-inkscape-font-specification:'Linux Biolinum O';font-weight:normal;font-stretch:normal;font-variant:normal;"
       id="tspan3906"
       y="292.93198"
       x="430.00705">Aortic valve</tspan><tspan
       style="font-size:16px;font-style:normal;text-align:start;writing-mode:lr-tb;text-anchor:start;fill:#808080;font-family:'Linux Biolinum O';-inkscape-font-specification:'Linux Biolinum O';font-weight:normal;font-stretch:normal;font-variant:normal;"
       id="tspan3908"
       y="312.93198"
       x="430.00705">closes</tspan></text>
<text
     style="font-size:28px;font-style:normal;text-align:start;letter-spacing:0px;word-spacing:0px;writing-mode:lr-tb;text-anchor:start;fill:#000000;stroke:none;font-family:'Linux Biolinum O';-inkscape-font-specification:'Linux Biolinum O';font-weight:normal;font-stretch:normal;font-variant:normal;"
     xml:space="preserve"
     id="text3892"
     y="357.17999"
     x="248.0242"><tspan
       style="font-size:16px;font-style:normal;text-align:end;writing-mode:lr-tb;text-anchor:end;fill:#808080;font-family:'Linux Biolinum O';-inkscape-font-specification:'Linux Biolinum O';font-weight:normal;font-stretch:normal;font-variant:normal;"
       id="tspan3894"
       y="357.17999"
       x="248.0242">Mitral valve</tspan><tspan
       style="font-size:16px;font-style:normal;text-align:end;writing-mode:lr-tb;text-anchor:end;fill:#808080;font-family:'Linux Biolinum O';-inkscape-font-specification:'Linux Biolinum O';font-weight:normal;font-stretch:normal;font-variant:normal;"
       id="tspan3896"
       y="377.17999"
       x="248.0242">closes</tspan></text>
<text
     style="font-size:28px;font-style:normal;text-align:start;letter-spacing:0px;word-spacing:0px;writing-mode:lr-tb;text-anchor:start;fill:#000000;stroke:none;font-family:'Linux Biolinum O';-inkscape-font-specification:'Linux Biolinum O';font-weight:normal;font-stretch:normal;font-variant:normal;"
     xml:space="preserve"
     id="text3898"
     y="353.95438"
     x="430.00705"><tspan
       style="font-size:16px;font-style:normal;text-align:start;writing-mode:lr-tb;text-anchor:start;fill:#808080;font-family:'Linux Biolinum O';-inkscape-font-specification:'Linux Biolinum O';font-weight:normal;font-stretch:normal;font-variant:normal;"
       id="tspan3900"
       y="353.95438"
       x="430.00705">Mitral valve</tspan><tspan
       style="font-size:16px;font-style:normal;text-align:start;writing-mode:lr-tb;text-anchor:start;fill:#808080;font-family:'Linux Biolinum O';-inkscape-font-specification:'Linux Biolinum O';font-weight:normal;font-stretch:normal;font-variant:normal;"
       id="tspan3902"
       y="373.95438"
       x="430.00705">opens</tspan></text>
<path
     style="fill:none;stroke:#000000;stroke-width:1;stroke-linecap:butt;stroke-linejoin:miter;stroke-miterlimit:4;stroke-opacity:1;stroke-dasharray:0.99999998, 0.99999998000000001;stroke-dashoffset:0"
     id="path3971-3"
     d="m 240.93296,251.39821 34.85497,39.00547 0,0" /><path
     style="fill:none;stroke:#000000;stroke-width:1;stroke-linecap:butt;stroke-linejoin:miter;stroke-miterlimit:4;stroke-opacity:1;stroke-dasharray:0.99999998, 0.99999998000000001;stroke-dashoffset:0"
     id="path3971-4"
     d="m 391.89755,257.09543 61.8526,21.38527 0,0" /><path
     style="fill:none;stroke:#000000;stroke-width:1;stroke-linecap:butt;stroke-linejoin:miter;stroke-miterlimit:4;stroke-opacity:1;stroke-dasharray:0.99999998, 0.99999998000000001;stroke-dashoffset:0"
     id="path3971"
     d="m 240.72084,380.11088 15.56436,43.0614 0,0" /><path
     style="fill:none;stroke:#000000;stroke-width:1;stroke-linecap:butt;stroke-linejoin:miter;stroke-miterlimit:4;stroke-opacity:1;stroke-dasharray:0.99999998, 0.99999998000000001;stroke-dashoffset:0"
     id="path3971-0"
     d="m 454.9702,379.35266 -45.41516,27.97586 0,0" /></svg>